<?xml version="1.0" encoding="utf-8"?>
<!-- Generator: Adobe Illustrator 22.1.0, SVG Export Plug-In . SVG Version: 6.00 Build 0)  -->
<!DOCTYPE svg PUBLIC "-//W3C//DTD SVG 1.1//EN" "http://www.w3.org/Graphics/SVG/1.1/DTD/svg11.dtd">
<svg version="1.1" id="Calque_1" xmlns="http://www.w3.org/2000/svg" xmlns:xlink="http://www.w3.org/1999/xlink" x="0px" y="0px"
	 viewBox="0 0 800 800" style="enable-background:new 0 0 800 800;" xml:space="preserve">
<g>
	<path d="M397.3,437.3c-40.9,0-74.1,19.6-74.1,43.9c0,0,0,1.4,0.3,3.8c0,0.3,0.1,0.7,0.1,1c2,13,13,47.7,70.8,49.8l5.6,16.7
		l5.6-16.7c40.5-2,56.2-25.7,62.2-41.3c2.3-4.2,3.6-8.7,3.6-13.4C471.3,456.9,438.2,437.3,397.3,437.3z"/>
	<path d="M613.9,503.2c-4.9,4.2-10.8,7-17,8.4c-6.3,1.3-12.7,1.3-19.1,0.6c-6.3-0.7-12.8-2.2-18.5-4.3l-4.9-1.8l-0.4,5.7
		c-0.6,7.8-2.2,15.3-5.1,22.2c-2.9,6.9-7.4,13-12.7,18.2c-10.6,10.5-24.8,17.2-39.5,21.7c-14.8,4.6-30.4,7-46.1,8.3
		c-15.6,1.2-82.9,1.2-98.5,0c-15.7-1.3-31.3-3.7-46.1-8.3c-14.7-4.5-28.9-11.3-39.5-21.7c-5.3-5.2-9.8-11.3-12.7-18.2
		c-2.9-6.9-4.5-14.4-5.1-22.2l-0.4-5.7l-4.9,1.8c-5.7,2.1-12.2,3.5-18.5,4.3c-6.3,0.7-12.8,0.7-19.1-0.6c-6.2-1.4-12.1-4.1-17-8.4
		c-5.2-4.1-8.2-10.1-11-16.1c2.2,6.2,4.6,12.7,9.6,17.6c4.7,5,10.8,8.7,17.4,10.8c6.6,2.1,13.6,2.8,20.5,2.8
		c5.2-0.1,10.2-0.7,15.4-1.6c0.2,7,1.1,14.1,3.2,21.1c2.6,8.5,7.3,16.4,13,23.3c11.5,13.9,27.1,23.2,42.9,29.9
		c16,6.8,32.6,11.1,49.3,14.2c14.4,2.6,89.9,2.6,104.5,0c16.7-3.1,33.4-7.4,49.3-14.2c15.8-6.7,31.4-16,42.9-29.9
		c5.7-6.9,10.3-14.8,13-23.3c2.2-6.9,3.1-14,3.2-21.1c5.1,0.9,10.2,1.6,15.4,1.6c6.9,0.1,13.9-0.7,20.5-2.8
		c6.6-2.2,12.7-5.9,17.4-10.8c5-4.8,7.4-11.4,9.6-17.6C622.1,493.1,619.1,499.2,613.9,503.2z"/>
	<g>
		<path d="M793.8,446.2C778.7,242.2,607.9,80.7,400,80.7c-207.6,0-378.1,161-393.7,364.6c-0.8,10-1.3,20.1-1.3,30.4
			c0,18,2.8,53,2.8,53c0.1,1.7,8.3,34.7,8.3,34.7c1.8,4.6,4.1,9.6,6.7,14.7c29.4,56.7,116.5,141.6,374.4,141.6
			c258.5,0,347.9-85.3,378.7-141.7c2.8-5.1,5.2-10,7.1-14.6c0,0,3.8-8.4,4.6-12.6c3.7-11.8,3.6-21.3,3.6-21.3
			c2.4-17.6,3.8-35.6,3.8-53.9C795,465.8,794.5,456,793.8,446.2z M734.4,537.4c-4.5,12.7-15.4,33.9-41.8,55.5
			C652.4,625.8,568.5,665,397.3,665c-171,0-253.4-39-292.4-71.8c-23.5-19.7-33.9-39.1-38.6-51.9c-0.5-2.4-0.8-4.7-1.2-7.1
			c2.2-3.4,4.5-6.7,6.8-10.1c1.1-1.7,1.8-2.8,2.3-3.5c-1.2,1.1,2.1-3.4,0,0c0.3-0.3,0.8-0.8,1.7-1.9c6.8-8.3,13.9-16.2,21.6-23.7
			c40.9-40.2,98.2-62.3,160-63.1c63.5-0.8,63.7-99.6,0-98.8c-62.7,0.8-128.2,19.4-182.9,53.8c23.4-56.6,77.3-147,182.9-147
			c97.2,0,142.6,49.4,142.6,49.4s45.4-49.4,142.6-49.4c105.9,0,159.8,91.1,183.1,147.6C670.9,352.6,605,333.9,541.9,333
			c-63.7-0.8-63.5,97.9,0,98.8c61.8,0.8,119.1,22.9,160,63.1c7.6,7.5,14.8,15.5,21.6,23.7c0.9,1.1,1.4,1.7,1.7,1.9
			c-2.1-3.4,1.2,1.1,0,0c0.5,0.7,1.2,1.8,2.3,3.5c2.4,3.6,4.9,7.1,7.2,10.8c0,0.1,0.1,0.1,0.1,0.2
			C734.7,535.9,734.6,536.7,734.4,537.4z M224.4,382.4c0-15.1,12.3-27.4,27.4-27.4c15.1,0,27.4,12.3,27.4,27.4s-12.3,27.4-27.4,27.4
			S224.4,397.6,224.4,382.4z M575.6,382.4c0,15.1-12.3,27.4-27.4,27.4s-27.4-12.3-27.4-27.4S533,355,548.1,355
			S575.6,367.3,575.6,382.4z"/>
	</g>
</g>
</svg>
