<?xml version="1.0" encoding="utf-8"?>
<!-- Generator: Adobe Illustrator 22.0.0, SVG Export Plug-In . SVG Version: 6.00 Build 0)  -->
<svg version="1.1" id="Слой_1" xmlns="http://www.w3.org/2000/svg" xmlns:xlink="http://www.w3.org/1999/xlink" x="0px" y="0px"
	 viewBox="0 0 1087.9 1080" style="enable-background:new 0 0 1087.9 1080;" xml:space="preserve">
<g>
	<g>
		<path d="M790.8,663.3c0.1,0.3,0.2,0.6,0.2,0.9c0-0.2-0.1-0.4-0.1-0.6c-0.1-0.3-0.1-0.5-0.2-0.8C790.7,663,790.7,663.1,790.8,663.3
			z"/>
		<path d="M615.5,157c1.6,0,3.1,0.1,4.7,0.2c-0.9-0.1-1.9-0.1-2.8-0.1C616.7,157.1,616.1,157.1,615.5,157z"/>
		<path d="M821.5,1042.7C821.5,1042.7,821.6,1042.4,821.5,1042.7L821.5,1042.7z"/>
		<path d="M599.6,779.5C599.5,779.5,599.9,779.7,599.6,779.5L599.6,779.5z"/>
		<path d="M599.6,779.5c0,0,0.1,0,0.3,0.1c-0.3-0.2-0.6-0.3-0.9-0.5C599.4,779.3,599.5,779.4,599.6,779.5z"/>
		<path d="M862.9,794.5C863,794.5,863,794.5,862.9,794.5C863,794.4,863,794.5,862.9,794.5z"/>
		<path d="M1079.2,371.7c0.1-0.1,0.2-0.2,0.2-0.2c0,0,0,0,0,0C1079.3,371.6,1079,372,1079.2,371.7z"/>
		<path d="M1055.3,382.3C1054.5,382.3,1056.1,382.4,1055.3,382.3L1055.3,382.3z"/>
		<path d="M1025.6,364.6C1025.6,364.9,1025.6,364.6,1025.6,364.6L1025.6,364.6z"/>
		<path d="M90,354.4c-0.2,0.7-0.1,1.1,0.3,2C89.9,355.6,89.8,355.1,90,354.4z"/>
		<path d="M1072,89.8C1072.2,90.5,1072,89.6,1072,89.8L1072,89.8z"/>
		<path d="M1076.5,146.8c0-0.4,0-0.7,0-1.1C1076.5,146.4,1076.5,147.1,1076.5,146.8z"/>
		<path d="M843.5,242.1c0.1-0.1,0.1-0.1,0.2-0.2C843.9,241.6,843.8,241.8,843.5,242.1z"/>
		<path d="M902,393.1c0-0.9-0.2-1.9-0.3-2.8c0,0.4,0.1,0.9,0.1,1.3C902,392.1,902,392.6,902,393.1z"/>
		<path d="M844.3,241.1c0,0,0.1-0.1,0.1-0.1C844.4,240.9,844.4,241,844.3,241.1c0.1-0.1,0.1-0.1,0.2-0.3c0.1-0.1,0.1-0.2,0.2-0.3
			c0.1-0.1,0.2-0.2,0.3-0.3c0.1-0.1,0.1-0.2,0.1-0.3c0,0,0,0,0,0c0,0,0,0,0,0C844.8,240.3,844.7,240.7,844.3,241.1z"/>
		<path d="M888.9,431.5c0.2,0.8,0.3,1.6,0.5,2.4C889.2,433.1,889.1,432.3,888.9,431.5z"/>
		<path d="M336.1,249c-1.8,1.5-3.6,3-5.3,4.6C332.5,252,334.3,250.5,336.1,249z"/>
		<path d="M964.9,7.1c0.9-0.4,1.8-0.7,2.7-1C967.1,6.2,965.7,6.7,964.9,7.1z"/>
		<path d="M794.2,630.2C794.5,630.5,793.9,629.9,794.2,630.2L794.2,630.2z"/>
		<path d="M976.8,3.2c-0.3,0.1-0.6,0.2-0.8,0.2c0.4-0.1,0.8-0.2,1.2-0.3C977.1,3.1,977,3.2,976.8,3.2z"/>
		<path d="M899.6,767.1c0,0.1-0.1,0.2-0.1,0.2C899.4,767.6,899.5,767.5,899.6,767.1z"/>
		<path d="M899.5,767.3c-0.1,0.2-0.1,0.4-0.3,0.5C899.4,767.7,899.4,767.5,899.5,767.3C899.5,767.3,899.5,767.3,899.5,767.3z"/>
		<path d="M899.3,767.8C899.6,767.4,899.3,767.7,899.3,767.8L899.3,767.8z"/>
		<path d="M888.2,424.6C887.9,424.4,888.1,424.5,888.2,424.6L888.2,424.6z"/>
		<path d="M888.6,425.3c0-0.1,0-0.2,0-0.3C888.5,425.2,888.5,425.2,888.6,425.3c0-0.2-0.1-0.3-0.1-0.4c0,0,0,0,0-0.1
			c-0.1-0.1-0.1-0.1-0.2-0.2c0.1,0.1,0.1,0.2,0.2,0.2c-0.1-0.1-0.2-0.2-0.3-0.3c0,0,0,0,0,0c0,0,0,0,0,0c0,0,0,0,0,0
			c-0.1,0-0.1-0.1-0.2-0.1c-0.1,0.1-0.1,0.1-0.2,0.1c0.1,0,0.1,0,0.2-0.1c0,0-0.1,0-0.1,0c0,0,0.1,0,0.1,0c-1.2-0.3-0.4-0.1-0.4,0
			c0,0,0,0,0,0c0-0.1-0.1,0-0.3,0.1c-0.8,0.3-1.4,2-1.7,2.8c0,0.1,0,0.1-0.1,0.2c-0.2,0.2-0.3,0.7-0.5,1.1c-0.8,2-1.7,4-2.7,6
			c-0.1,0.2-0.2,0.4-0.3,0.6c-0.1,0.1-0.1,0.2-0.2,0.3c0,0,0-0.1,0.1-0.1c0,0.1-0.1,0.1-0.1,0.2c-1.6,3.3-3.1,6.7-4.7,10
			c-1,2.1-2,4.3-3,6.4c0-0.1,0.1-0.2,0.1-0.3c-0.2,0.3-0.3,0.6-0.5,1c-1.6,3.4-3.3,6.8-5,10.2c-0.9,1.8-1.8,3.6-2.7,5.4
			c0.7-1.4,1.4-2.7,2.1-4.1c-1.5,3-3.1,6.1-4.6,9.1c-0.2,0.3-0.3,0.7-0.5,1c-1.2,2.3-2.4,4.7-3.6,7c-0.4,0.7-0.8,1.5-1.2,2.2
			c-0.8,1.6-1.7,3.2-2.5,4.8c-3.9,7.5-7.9,15-11.8,22.5c-1.9,3.6-3.8,7.1-5.7,10.7c-5,9.4-10,18.9-15.1,28.3
			c0.4-0.7,0.8-1.5,1.2-2.2c-4.9,9-9.8,18-14.7,27c-2.2,4-4.4,8-6.6,12c0,0,0,0,0,0c-0.1,0.1-0.1,0.3-0.2,0.4v0c0,0,0,0,0,0
			c0,0,0,0,0,0c-0.4,0.7-0.8,1.4-1.2,2.2c-0.1,0.2-0.2,0.4-0.3,0.5c-0.6,1.2-1.2,2.3-1.8,3.5c0.2-0.5,0.5-1,0.7-1.4
			c-0.4,0.7-0.7,1.4-1,2c-0.2,0.4-0.4,0.8-0.6,1.3c0.1-0.1,0.1-0.2,0.2-0.4c-0.3,0.6-0.6,1.3-1,1.9c0,0,0,0.1,0,0.1
			c-0.1,0.1-0.1,0.2-0.2,0.4c-0.2,0.4-0.4,0.8-0.6,1.2c-2.5,5-5.7,11-6.9,17c-0.1,0.3-0.1,0.5-0.2,0.8c-0.1,0.2-0.1,0.4-0.2,0.7
			c0,0.2,0,0.4-0.1,0.7c0-0.1,0.1-0.3,0.1-0.4c-0.3,2.1-0.3,4.3,0.4,6.5c-0.1-0.3-0.1-0.6-0.2-0.9c0.4,1.9,1.1,3.8,2.3,5.6
			c0.5,0.7,1.1,1.3,1.7,2c-0.1-0.1-0.2-0.2-0.3-0.3c0.2,0.2,0.4,0.5,0.6,0.7c0,0,0.1,0.1,0.1,0.1c0,0-0.1-0.1-0.1-0.1
			c0.1,0.1,0.1,0.1,0.2,0.2c0.1,0.1,0.3,0.3,0.4,0.4c0.2,0.2,0.4,0.4,0.6,0.6c0.1,0.1,0.1,0.1,0.2,0.2c0,0,0,0,0.1,0.1
			c0.1,0.1,0.1,0.1,0.2,0.2c0,0,0.1,0.1,0.1,0.1c0.1,0.1,0.2,0.1,0.3,0.2c0.4,0.4,0.9,0.7,1.3,1.1c0,0,0.1,0.1,0.1,0.1
			c0,0,0,0,0.1,0.1c0,0,0,0-0.1,0c0.2,0.1,0.4,0.3,0.5,0.4c-0.3-0.2-0.6-0.4-0.4-0.2c0.2,0.1,0.3,0.2,0.5,0.4c0,0,0,0,0,0
			c0,0,0.1,0.1,0.1,0.1c0.2,0.1,0.3,0.2,0.5,0.4c0.1,0.1,0.2,0.1,0.2,0.2c0,0-0.1,0-0.1-0.1c1,0.7,2,1.4,3.1,1.9
			c-0.1,0-0.1-0.1-0.2-0.1c0.4,0.2,0.8,0.5,1.3,0.7c0,0-0.1,0-0.1,0c8.3,4.9,17.4,8,26.5,10.8c0.2,0.1,0.4,0.1,0.6,0.2
			c1.1,0.6,2.6,0.8,3.8,1.1c4.5,1.3,9,2.6,13.5,3.7c-0.2-0.1-0.5-0.1-0.7-0.2c0.3,0.1,0.7,0.2,1,0.3c0.3,0.1,0.5,0.1,0.8,0.2
			c0.7,0.2,1.3,0.4,2,0.5c0.6,0.1,1.2,0.3,1.8,0.4c0.7,0.1,1.4,0.3,2.1,0.5c0.8,0.2,1.6,0.4,2.4,0.6c-0.3-0.1-0.7-0.2-1-0.3
			c0.5,0.1,1.1,0.2,1.6,0.4c0.3,0.1,0.7,0.2,1,0.2c2.4,0.6,4.9,1.3,7.3,1.7c0.4,0.1,0.7,0.2,1.1,0.2c-0.1,0-0.2-0.1-0.4-0.1
			c0.1,0,0.2,0,0.3,0c0,0,0,0,0.1,0c0,0,0,0,0,0c0.2,0,0.4,0.1,0.7,0.1c0.2,0,0.4,0,0.6,0c0,0-0.1,0-0.1,0c0.1,0,0.1,0,0.2-0.1
			c0,0,0.1,0,0.1,0c0.2-0.1,0.4-0.2,0.5-0.5c0-0.1,0-0.1,0-0.1c0,0,0,0,0,0c0,0,0,0,0,0c0,0,0,0,0-0.1c0-0.1-0.1-0.2-0.1-0.2
			c0.1,0.1,0.1,0.2,0.1,0.2c0-0.1-0.1-0.3-0.1-0.4c0.1,0.1,0.1,0.3,0.1,0.3c0.1-0.4-0.3-0.8-0.6-1c0,0.1,0,0.2,0.1,0.3
			c0,0-0.1-0.1-0.1-0.1c0,0.1,0,0.2,0,0.4c0-0.2-0.1-0.4-0.2-0.6c-0.5-0.9-2.2-1.6-3-2.2c-5.8-3.7-11.7-7.4-17.7-10.8
			c-12.5-7.2-26.5-13.2-37.7-22.5c-1-0.8-1-1.1-0.6-2.3c0.4-1.3,1.1-2.4,1.6-3.6c11-25.5,22-50.9,33.3-76.2
			c11.3-25.3,22.3-50.7,32-76.7c2.6-7,5.1-14.1,7.6-21.2c1.5-4.3,3.5-8.6,4.3-13.1c0,0.1,0,0.1-0.1,0.2c0-0.1,0.1-0.3,0.1-0.4
			c0-0.2,0.2-1.1,0-1.7c0.2,0.5,0,1.3,0,1.7c0-0.1,0.1-0.3,0.1-0.4c0,0,0-0.1,0-0.1c0-0.2,0.1-0.3,0.1-0.5
			C888.5,425.6,888.6,425.6,888.6,425.3z M843.9,511c-0.2,0.4-0.4,0.7-0.6,1.1c-1.3,2.5-2.7,5.1-4.1,7.6
			C840.8,516.8,842.4,513.9,843.9,511z"/>
		<path d="M1024.7,4.8C1024.7,4.9,1024.4,4.7,1024.7,4.8L1024.7,4.8z"/>
		<path d="M1062.8,148.4c0,3,0,6,0,9.1C1062.9,154.5,1062.8,151.4,1062.8,148.4z"/>
		<path d="M833.2,252.6C833.2,252.6,833.2,252.6,833.2,252.6C833.2,252.6,833.2,252.6,833.2,252.6
			C833.2,252.6,833.2,252.6,833.2,252.6C833.2,252.6,833.2,252.6,833.2,252.6C833.3,252.5,833.2,252.5,833.2,252.6
			C833.2,252.5,833.2,252.5,833.2,252.6z"/>
		<path d="M1062,123.5c0.4,7.1,0.6,14.3,0.8,21.5C1062.6,137.7,1062.4,130.6,1062,123.5z"/>
		<path d="M837.8,248.6c0.3-0.2,0.5-0.4,0.7-0.7c-0.1,0-0.1,0.1-0.1,0.1C838.2,248.2,838,248.4,837.8,248.6z"/>
		<path d="M1046.7,381c0,0-0.1,0-0.3-0.1C1046.5,380.9,1046.6,380.9,1046.7,381z"/>
		<path d="M1048.1,381.4c-0.3-0.1-0.7-0.2-1-0.3C1047.3,381.2,1047.8,381.4,1048.1,381.4z"/>
		<path d="M1049.1,381.6c0.4,0.4,1.8,0.4,2.3,0.4c-0.6-0.1-1.2-0.2-1.7-0.3C1049.5,381.7,1049.3,381.6,1049.1,381.6z"/>
		<path d="M640,178.5c-1.4-0.4-2.8-0.8-4.1-1.2C637.3,177.7,638.7,178.1,640,178.5c-0.6-0.2-1.2-0.4-1.9-0.6
			C638.8,178.2,639.4,178.3,640,178.5z"/>
		<path d="M1057.2,82.6c-0.6-3.4-1.4-6.7-2.1-10.1C1055.9,75.9,1056.6,79.2,1057.2,82.6z"/>
		<path d="M1059.8,382.2c0.2,0,0.4,0,0.6-0.1c-0.1,0-0.2,0-0.3,0C1060,382.1,1059.9,382.1,1059.8,382.2z"/>
		<path d="M1024.4,362.4c-0.1-0.4-0.4-0.8-0.6-1.2C1024,361.6,1024.2,362,1024.4,362.4z"/>
		<path d="M1039.3,377.9c-0.2-0.1-0.3-0.2-0.5-0.3c0.5,0.3,0.9,0.6,1.4,0.8C1039.9,378.2,1039.6,378,1039.3,377.9z"/>
		<path d="M133.3,401.7c1.8,1,3.7,2,5.6,2.8C137,403.6,135.1,402.7,133.3,401.7z"/>
		<path d="M365.1,605.2c-0.3,0-0.7,0-1.1,0.1C364.5,605.3,364.9,605.3,365.1,605.2z"/>
		<path d="M129.7,399.6c0.8,0.6,1.7,1.1,2.6,1.6c0.3,0.2,0.7,0.4,1,0.5C132,401,130.8,400.3,129.7,399.6z"/>
		<path d="M1081.5,368.6C1081.3,368.8,1081.4,369,1081.5,368.6L1081.5,368.6z"/>
		<path d="M90.4,356.7c0.1,0.1,0.1,0.2,0.2,0.3C90.3,356.3,90.2,356.2,90.4,356.7z"/>
		<path d="M1077.6,373.4C1077.5,373.5,1077.4,373.8,1077.6,373.4L1077.6,373.4z"/>
		<path d="M957.9,10.1c0.9-0.4,1.7-0.8,2.6-1.2C959.6,9.2,958.7,9.6,957.9,10.1z"/>
		<path d="M591,946.2c0,0.3,0.1,0.6,0.1,0.8c-0.1-0.4-0.1-0.9-0.2-1.3C590.9,945.8,591,946,591,946.2z"/>
		<path d="M769.3,227.4C769.3,227.4,769.3,227.4,769.3,227.4C769.3,227.4,769.3,227.4,769.3,227.4
			C769.3,227.4,769.3,227.4,769.3,227.4C769.3,227.4,769.3,227.5,769.3,227.4C769.4,227.5,769.3,227.5,769.3,227.4
			c0.1,0.1,0.1,0.1,0.1,0.1C769.4,227.5,769.4,227.5,769.3,227.4z"/>
		<path d="M769.2,227.3C769.2,227.3,769.3,227.4,769.2,227.3c0,0-0.1-0.1-0.3-0.3C769,227.1,769.1,227.2,769.2,227.3z"/>
		<path d="M1087.9,342c0,0,0-0.1,0-0.2c0-0.1,0-0.1,0-0.2c0-0.3,0-0.8,0-0.8c0-0.1,0-0.3,0-0.4c0-0.2,0-0.3,0-0.5c0-0.1,0-0.2,0-0.3
			c0-0.1,0-0.1,0-0.2c0-0.1,0-0.3,0-0.4c0-0.4-0.1-0.7-0.1-1.1c0-0.1,0-0.2,0-0.3c0,0,0,0.1,0,0.1c0-0.1,0-0.2,0-0.4
			c0,0.2,0,0.4,0,0.6c0-0.3-0.1-0.6-0.1-0.9c0,0.1,0,0.2,0,0.3c0-0.1,0-0.3-0.1-0.4c-1.4-13.4-6.3-26.7-12-38.8c0,0,0,0,0,0
			c0,0,0-0.1,0-0.1c-0.2-0.5-0.4-0.9-0.6-1.4c0,0,0,0.1,0.1,0.1c-0.1-0.3-0.3-0.6-0.4-0.9c-0.1-0.2-0.2-0.4-0.3-0.6
			c-0.7-1.4-1.3-2.8-2-4.2c-0.2-0.4-0.4-0.8-0.5-1.2c-0.6-1.6-1.2-3.3-1.7-4.8c0-0.1,0-0.1-0.1-0.2c0.8,2.4,1.7,4.8,2.8,7
			c-1-2.3-2-4.7-2.8-7.1c-0.6-2-1.1-4-1.2-6c-0.1-1-0.1-2,0-3c0-0.2,0-0.4,0-0.6c0.1-1.8,0.3-3.7,0.4-5.5c0.2-2.3,0.4-4.6,0.6-7
			c0.9-8.6,1.9-17.2,2.7-25.8c-0.4,3.9-0.8,7.8-1.3,11.8c1.1-10.3,2.2-20.6,2.9-30.9c-0.6,7.9-1.4,15.8-2.2,23.7
			c1.4-13.4,2.5-26.9,3.4-40.3c0,0.3,0,0.7-0.1,1c0-0.4,0.1-0.9,0.1-1.3c0-0.7,0.1-1.4,0.1-2.1c0,0.3,0,0.5,0,0.8
			c0-0.4,0-0.8,0.1-1.1c0.9-14.4,1.3-28.8,1.3-43.2c0,0.3,0,0.6,0,0.9v-2.3v-0.8c0-0.1,0-0.2,0-0.3c0-0.1,0-0.1,0-0.2
			c0-0.6,0-1.3,0-1.9v-1.5c0-0.1,0-0.2,0-0.4c0-0.1,0-0.2,0-0.4c0-0.5,0-1,0-1.4c0-0.3,0-0.6,0-0.9c0-0.2,0-0.5,0-0.7
			c0,0.1,0,0.2,0,0.3c0-0.2,0-0.4,0-0.5c0-0.2,0-0.3,0-0.4c0-0.2,0-0.4,0-0.6c0-1.1-0.1-2.2-0.1-3.4c0,1,0,2,0.1,3
			c0-1.1-0.1-2.2-0.1-3.3c0-1.4-0.1-2.8-0.1-4.2c0,0.9,0,1.8,0.1,2.8c-0.1-2.7-0.2-5.5-0.3-8.2c-0.5-11.5-1.5-23-3-34.4
			c0.1,0.7,0.2,1.3,0.3,2c0.2,1.4,0.3,2.9,0.5,4.3c-0.2-1.4-0.3-2.7-0.5-4.1c0,0.1,0,0.1,0,0.2c0-0.3-0.1-0.6-0.1-0.9
			c-0.1-0.7-0.2-1.4-0.3-2.1c0.1,0.5,0.1,1,0.2,1.6c-0.1-0.8-0.2-1.5-0.3-2.3c0,0.1,0,0.2,0,0.2c0-0.1,0-0.2,0-0.3
			c-0.1-1.1-0.3-2.2-0.5-3.2c-0.1-0.4-0.1-0.8-0.2-1.2c0-0.2,0-0.4-0.1-0.6c0-0.1,0-0.1-0.1-0.1c-0.4-2.4-0.8-4.8-1.2-7.1
			c-0.2-1.1-0.4-2.2-0.6-3.3c-0.1-0.5-0.2-1-0.3-1.5c-0.2-0.8-0.3-1.6-0.5-2.4c-0.3-1.5-0.6-3-1-4.5c-0.6-2.5-1.2-5-1.9-7.5
			c0-0.2-0.1-0.3-0.1-0.5c-0.6-2.3-1.3-4.7-2.1-7c-0.2-0.5-0.3-1-0.5-1.5c-0.6-1.8-1.2-3.6-1.9-5.4c-0.1-0.1-0.1-0.3-0.2-0.4
			c-3.7-10.2-9.2-20.3-16.5-28.7c-0.1-0.1-0.2-0.3-0.3-0.4c-0.6-0.6-1.1-1.2-1.7-1.8c-0.4-0.4-0.7-0.8-1.1-1.1
			c0.2,0.2,0.4,0.5,0.6,0.7c-0.4-0.4-0.8-0.8-1.2-1.2c0.2,0.2,0.4,0.3,0.5,0.5c-0.3-0.3-0.6-0.6-1-0.9c-0.5-0.5-1.1-1-1.6-1.5
			c-0.4-0.3-0.8-0.7-1.2-1.1c0.3,0.3,0.7,0.6,1,0.9c-1.1-0.9-2.1-1.9-3.3-2.8c0,0,0,0,0,0c0,0-0.1-0.1-0.1-0.1
			c-0.2-0.1-0.4-0.3-0.6-0.4c-0.6-0.4-1.1-0.8-1.7-1.2c-0.1,0-0.1-0.1-0.2-0.1c-0.1,0-0.1-0.1-0.2-0.1c-0.2-0.1-0.4-0.3-0.6-0.4
			c-0.4-0.3-0.9-0.6-1.4-0.8c0,0,0,0,0,0c0,0,0,0,0,0c0,0,0,0,0,0c0,0,0,0,0,0c5,3.2,9.4,7.2,13.3,11.5c-7.7-8.6-17.4-15.1-29-17.9
			c1.8,0.4,3.5,0.9,5.3,1.5c1.7,0.6,3.4,1.3,5,2c-0.5-0.2-1-0.5-1.5-0.7c0,0,0.1,0,0.1,0c0,0-0.1,0-0.1,0c-0.8-0.3-1.6-0.7-2.4-1
			c-0.1,0-0.1,0-0.2-0.1c-4.8-1.8-9.9-2.9-15-3.4c-9.7-1-19.6,0.1-29.2,2.7c-0.1,0-0.3,0.1-0.4,0.1c0,0,0,0,0,0
			c-1,0.3-2.1,0.6-3.1,0.9c-1,0.3-2,0.6-3,1c-0.4,0.1-0.8,0.3-1.2,0.4c-1.3,0.4-2.7,0.9-4,1.4c-0.5,0.2-1,0.4-1.5,0.6
			c-4.6,1.8-9,3.9-13.3,6.3c-0.1,0.1-0.3,0.1-0.4,0.2c-0.7,0.4-1.4,0.7-2.1,1.1c-0.1,0.1-0.3,0.1-0.4,0.2c0.7-0.4,1.4-0.8,2.1-1.2
			c-7,3.8-13.6,8.2-19.9,13c-14.4,10.9-27.2,24.1-38.9,38.1c-1.2,1.4-2.4,2.9-3.6,4.4c-0.1,0.2-0.2,0.3-0.4,0.5
			c-1.1,1.4-2.3,2.9-3.4,4.3c-0.2,0.2-0.4,0.5-0.6,0.7c0,0,0,0,0,0c-3.7,4.2-6.9,9-10.2,13.6c0.2-0.3,0.5-0.6,0.7-0.9
			c0,0,0-0.1,0.1-0.1c-2,2.7-3.9,5.5-5.9,8.3c0.2-0.2,0.8-1.1,0.7-1.1c-0.2,0.3-0.5,0.7-0.7,1c-0.1,0.1-0.1,0.1-0.1,0.1
			c0,0,0,0-0.1,0.1c0,0,0,0,0,0c-0.2,0.4-0.5,0.7-0.7,1.1c-0.1,0.1-0.2,0.3-0.3,0.4c-3.5,5-6.8,10.2-10.1,15.4
			c0.2-0.2,0.3-0.5,0.4-0.7c-0.2,0.3-0.4,0.6-0.6,0.9c-0.4,0.6-0.7,1.2-1.1,1.7c-0.8,1.3-1.6,2.7-2.5,4c-0.1,0.2-0.3,0.4-0.4,0.6
			c-0.1,0.1-0.1,0.2-0.2,0.3c-0.4,0.6-0.7,1.2-1.1,1.8c-0.7,1.2-1.4,2.3-2.1,3.5c-1.4,2.3-2.7,4.6-4,6.8c0.5-0.9,1-1.7,1.5-2.6
			c-1,1.7-2,3.5-3,5.2c0.3-0.5,0.6-1.1,0.9-1.6c-0.4,0.8-0.9,1.6-1.4,2.4c-0.1,0.2-0.3,0.5-0.4,0.7c-0.2,0.3-0.3,0.6-0.5,0.9
			c-0.7,1.2-1.3,2.4-2,3.6c0.9-1.5,1.7-3.1,2.6-4.6c-0.7,1.2-1.4,2.4-2.1,3.7c-0.3,0.5-0.6,1.1-0.9,1.6c-0.8,1.4-1.6,2.9-2.4,4.4
			c0.3-0.5,0.6-1,0.8-1.5c-2.7,5-5.4,10-8,15.1c-0.7,1.4-1.3,2.8-2,4.2c0.1-0.2,0.2-0.4,0.2-0.6c0.2-0.4,0.3-0.6,0.3-0.7
			c-0.6,1.1-1.1,2.2-1.6,3.2c0-0.1,0.1-0.2,0.2-0.4c-0.1,0.1-0.1,0.3-0.2,0.4c0.2-0.2,0.3-0.4,0.4-0.6c0,0,0,0,0,0.1
			c-0.1,0.2-0.3,0.6-0.5,0.7c0,0,0,0,0,0c-0.7,0.7-2.8-0.3-3.6-0.5c-0.9-0.3-1.8-0.5-2.7-0.7c0.1,0,0.1,0,0.2,0
			c-0.1,0-0.2,0-0.2-0.1c-0.5-0.1-1-0.2-1.5-0.3c-0.8-0.2-1.6-0.3-2.4-0.4c-0.2,0-0.5-0.1-0.7-0.1c-0.3,0-0.6-0.1-0.9-0.1
			c0.3,0,0.6,0.1,0.8,0.1c-2.2-0.3-4.4-0.5-6.7-0.6c-2.1,0-4.2,0.1-6.3,0.3c-0.5,0.1-1,0.1-1.5,0.2c0.1,0,0.1,0,0.2,0
			c-0.1,0-0.1,0-0.2,0c-0.5,0.1-1,0.2-1.5,0.3c-0.4,0.1-0.7,0.1-1.1,0.2c-0.6,0.1-1.2,0.3-1.7,0.4c-0.3,0.1-0.6,0.1-0.9,0.2
			c-0.6,0.2-1.3,0.4-1.9,0.6c-0.2,0.1-0.5,0.1-0.7,0.2c-0.6,0.2-1.3,0.5-1.9,0.7c-0.2,0.1-0.4,0.1-0.5,0.2c0,0,0.1,0,0.1,0
			c-0.6,0.3-1.3,0.6-1.9,0.9c0.2-0.1,0.4-0.2,0.7-0.3c-1,0.4-2.6,1-3.4,1.8c0.3-0.2,0.6-0.3,0.9-0.5c-6.5,3.9-10.4,13-11.5,20.1
			c-2.8,17.3,9.6,34.2,25.4,40.3c8.3,3.2,17.5,3.4,25.9,1c-0.1,0-0.2,0.1-0.3,0.1c0.2-0.1,0.5-0.1,0.7-0.2c0.3-0.1,0.6-0.2,0.9-0.3
			c0.1,0,0.3-0.1,0.4-0.1c1.4-0.5,2.7-1,4-1.6c-0.3,0.1-0.6,0.3-0.9,0.4c0.3-0.1,0.7-0.3,1-0.5c0.2-0.1,0.4-0.2,0.6-0.3
			c0,0,0.1,0,0.1-0.1c0.6-0.3,1.1-0.6,1.7-0.8c0,0,0.1,0,0.1-0.1c0.2-0.1,0.4-0.2,0.6-0.3c0.2-0.1,0.3-0.2,0.5-0.3
			c1.5-0.8,2.9-1.8,4.3-2.9c-0.1,0.1-0.2,0.1-0.3,0.2c0.7-0.5,1.4-1.1,2.1-1.7c1.5-1.3,2.9-2.7,4.1-4.2c0,0.1-0.1,0.1-0.1,0.2
			c0.1-0.1,0.1-0.1,0.2-0.2c0,0,0,0,0-0.1c0.4-0.5,0.8-1,1.2-1.5c0.1-0.1,0.1-0.2,0.2-0.3c-0.4,0.6-0.9,1.1-1.3,1.7
			c1.2-1.5,2.3-3,3.3-4.7c2.1-3.5,4.3-7.9,4-12c0-0.1,0-0.3,0-0.4c0,0.1,0,0.1,0,0.2c0-0.9-0.1-1.8-0.3-2.7c0-0.1,0-0.2-0.1-0.4
			c0-0.1,0-0.2-0.1-0.3c-0.8-5.3-2.9-10.6-5.9-15.1c0.3,0.4,0.6,0.8,0.8,1.2c-0.1-0.3-0.3-0.5-0.5-0.8c-0.9-1.4-2-2.6-3.1-3.8
			c-0.1-0.1-0.1-0.1-0.2-0.2c-0.1-0.1-0.3-0.3-0.4-0.4c-0.4-0.4-0.7-0.8-1.2-1.2c0.3,0.3,0.6,0.6,0.9,1c-0.8-0.7-1.8-1.5-2.3-2.3
			c0.1,0.1,0.3,0.2,0.5,0.3c-0.4-0.3-0.8-1-0.7-1.4c-0.1,0.1-0.1,0.2-0.1,0.3c0,0,0,0,0,0c0-1.3,1.7-3.4,2.3-4.5
			c0.4-0.7,0.7-1.4,1.1-2.1c0.3-0.6,0.7-1.2,1-1.8c4-7.4,8.1-14.8,12.3-22.1c0.7-1.1,1.3-2.3,2-3.4c0.8-1.3,1.5-2.6,2.3-3.9
			c1.3-2.2,2.6-4.3,3.9-6.4c1.4-2.3,2.9-4.7,4.3-7c0.2-0.3,0.4-0.6,0.6-0.9c0.8-1.2,1.6-2.5,2.4-3.7c0.8-1.2,1.6-2.4,2.4-3.7
			c2.5-3.8,5.1-7.6,7.7-11.4c0.1-0.2,0.3-0.4,0.5-0.7c0.2-0.3,0.4-0.6,0.6-0.9c1.3-1.9,2.6-3.7,3.9-5.5c1.7-2.4,3.5-4.8,5.2-7.2
			c0.9-1.2,1.9-2.5,2.8-3.7c4.7-6.1,9.5-12.1,14.6-17.8c-2.3,2.6-4.6,5.2-6.8,7.9c1.6-2,3.3-3.9,4.9-5.8c2.9-3.3,5.8-6.6,8.8-9.8
			c-2.9,3.1-5.8,6.3-8.6,9.6c3.8-4.5,7.8-8.9,11.9-13.1c-0.3,0.4-0.7,0.8-1,1.1c1-1.1,2-2.1,3.1-3.2c-0.1,0-0.1,0.1-0.2,0.1
			c-0.2,0.1-0.3,0.3-0.5,0.4c1.7-1.7,3.5-3.4,5.2-5.1c1.7-1.7,3.5-3.3,5.3-4.9c12.3-11.1,26.2-21.2,41.9-26.9c0.5-0.2,1-0.4,1.5-0.5
			c0.1,0,0.2-0.1,0.4-0.1c1.2-0.4,2.4-0.8,3.6-1.1c4.1-1.1,8.3-1.7,12.5-2.3c0.1,0,0.3,0,0.7,0c-0.1,0-0.1,0-0.2,0
			c0.6,0,1.1-0.1,1.7-0.1c-0.1,0-0.2,0-0.2,0c0.2,0,0.4,0,0.4,0c0-0.1,0.4-0.1,1-0.2c-0.3,0-0.6,0.1-0.9,0.2c1.6,0,3.2,0,4.8,0
			c1,0.1,2,0.1,2.9,0.2c3.5,0.4,7,1,10.4,2c1,0.5,2.2,0.9,3.3,1.2c13.8,5.8,23.3,18.4,29.3,31.8c0,0,0,0,0,0
			c0.4,0.9,0.8,1.8,1.2,2.7c0-0.2-0.1-0.3-0.2-0.5c0.5,1.1,0.9,2.3,1.3,3.4c1.8,4.5,3.2,9.1,4.5,13.8c-0.6-2.1-1.2-4.2-1.8-6.3
			c0.5,1.5,1,3.1,1.4,4.6c2,7.1,3.5,14.4,4.7,21.7c0.3,1.8,0.6,3.5,0.8,5.3c0,0.3,0.1,0.7,0.1,1c0-0.2-0.1-0.4-0.1-0.6
			c4.1,27.9,4.3,56.5,3.1,84.6c-0.2,4.4-0.4,8.8-0.6,13.2c0,0.5-0.1,0.9-0.1,1.4c-0.5,8.3-1.1,16.5-1.8,24.8
			c-0.4,4.4-0.8,8.9-1.2,13.3c0,0.2,0,0.5-0.1,0.7c-0.1,0.7-0.1,1.4-0.2,2.1c-0.2,1.9-0.4,3.7-0.6,5.6c-0.9,8.2-2,16.4-2.9,24.6
			c-0.9,8-1,15.9-4.3,23.4c1.8-4,2.7-8.2,3.3-12.5c-0.2,2.2-0.5,4.4-1.1,6.6c-0.4,1.5-0.9,3-1.5,4.5c-0.2,0.6-0.5,1.2-0.8,1.8
			c-0.1,0.2-0.2,0.4-0.3,0.6c-0.5,1-1,2-1.5,3c-0.2,0.3-0.4,0.7-0.6,1c-1.7,2.9-3.6,5.7-5.6,8.5c-0.8,1.1-1.6,2.3-2.4,3.4
			c2.1-2.8,4.1-5.6,5.9-8.5c-7,11.2-16.1,21.1-21.3,33.2c2.2-5,5-9.8,8-14.3c-0.6,0.9-1.3,1.9-1.9,2.8c0.1-0.1,0.1-0.2,0.1-0.2
			c-0.2,0.2-0.3,0.5-0.5,0.7c-0.5,0.8-1,1.6-1.5,2.4c-0.4,0.7-0.7,1.3-1.1,1.9c0.1-0.1,0.2-0.3,0.2-0.4c-0.4,0.7-0.8,1.3-1.1,2
			c0.3-0.5,0.5-1,0.8-1.5c-0.2,0.4-0.6,1.2-1,1.8c-0.1,0.2-0.2,0.4-0.3,0.5c0.1-0.1,0.1-0.2,0.2-0.3c-0.7,1.3-1.3,2.5-1.8,3.8
			c0.2-0.4,0.3-0.8,0.5-1.1c-1.8,3.8-3.3,7.8-4.1,12c-0.8,4-0.9,8-0.4,12c0-0.1,0-0.2,0-0.3c0.1,0.7,0.1,1.4,0.3,2
			c-0.1-0.8-0.2-1.5-0.3-2.3c0-0.4,0-0.9-0.1-1.3c0.5,7.7,3.5,15.1,8.4,21c-0.2-0.3-0.5-0.5-0.7-0.8c0.4,0.6,0.9,1.1,1.4,1.6
			c-0.6-0.6-1.1-1.2-1.6-1.9c0.7,0.8,1.3,1.6,2.1,2.4c0,0,0,0,0.1,0.1c0,0,0,0-0.1-0.1c0.7,0.7,1.4,1.4,2.1,2.1
			c-0.2-0.2-0.4-0.4-0.5-0.5c0.5,0.5,1,0.9,1.6,1.4c-0.3-0.3-0.7-0.6-1-0.8c0.4,0.4,0.9,0.7,1.3,1.1c0.1,0.1,0.2,0.2,0.3,0.2
			c0.2,0.1,0.3,0.3,0.5,0.4c-0.2-0.1-0.4-0.3-0.6-0.4c0.1,0.1,0.2,0.2,0.3,0.2c0.3,0.3,0.7,0.5,1,0.8c-0.1-0.1-0.3-0.2-0.4-0.3
			c0.3,0.2,0.6,0.4,0.9,0.6c0.3,0.2,0.7,0.5,1,0.7c0.1,0.1,0.2,0.1,0.3,0.2c-0.1-0.1-0.2-0.1-0.2-0.2c0.7,0.4,1.3,0.9,2,1.3
			c7.8,4.5,17.3,6,25.9,3.5c-0.7,0.2-1.5,0.4-2.2,0.6c0.8-0.1,1.6-0.4,2.3-0.6c0,0,0,0,0,0c0,0,0,0,0,0c0.6-0.2,1.2-0.4,1.8-0.6
			c-0.3,0.1-0.7,0.3-1,0.4c0.4-0.1,0.7-0.2,1.1-0.4c0,0,0,0,0,0c-0.1,0.1-0.3,0.1-0.4,0.2c0.3-0.1,0.7-0.2,1-0.4c0,0-0.1,0-0.1,0.1
			c0.5-0.2,1-0.4,1.4-0.6c-0.1,0-0.2,0.1-0.2,0.1c0,0,0.1,0,0.1,0c0.1-0.1,0.3-0.1,0.4-0.2c0,0,0,0,0.1,0c0.2-0.1,0.4-0.2,0.6-0.3
			c0.4-0.2,0.8-0.4,1.2-0.6c5.9-3.3,10.4-8.5,13.2-14.6c-0.1,0.3-0.2,0.6-0.4,0.8c1.9-3.4,3.1-7.2,3.6-11.1c0,0.2-0.1,0.3-0.1,0.5
			c-0.1,0.4-0.2,0.7-0.3,1.1c0.2-1,0.4-2,0.6-3c0,0.1,0,0.2,0,0.4c0.1-0.2,0.1-0.4,0.1-0.6c0,0.1,0,0.1,0,0.2
			c0.4-2.7,0.4-5.5,0.4-8.3c0,0,0,0,0-0.1C1087.9,343.3,1087.9,342.6,1087.9,342z M929,49.1c0.6-0.6,1.3-1.3,1.9-1.9
			c-0.3,0.3-0.6,0.6-0.9,0.9c0.4-0.3,0.7-0.7,1.1-1C930.4,47.8,929.7,48.4,929,49.1z"/>
		<path d="M1076.4,167.6c0,1.2-0.1,2.3-0.1,3.5c0-0.7,0-1.3,0.1-2C1076.4,168.6,1076.4,168.1,1076.4,167.6z"/>
		<path d="M849.8,183c-0.1-0.2-0.3-0.4-0.4-0.7c0.2,0.4,0.5,0.8,0.7,1.2C850,183.4,849.9,183.2,849.8,183z"/>
		<path d="M834.4,251.7c0.2-0.2,0.4-0.3,0.5-0.4C834.7,251.4,834.5,251.6,834.4,251.7c-0.1,0-0.1,0-0.1,0.1c0,0,0,0,0,0.1
			c-0.1,0-0.1,0.1-0.2,0.1c0,0,0.1-0.1,0.2-0.1C834.2,251.9,834.4,251.7,834.4,251.7z"/>
		<path d="M868.1,286.7c-0.4-0.8-1-1.6-1.5-2.5c-0.1-0.2-0.3-0.4-0.4-0.7C866.9,284.7,867.5,285.7,868.1,286.7z"/>
		<path d="M863.7,279.7c0.9,1.3,1.7,2.6,2.5,3.9c-0.1-0.2-0.2-0.4-0.4-0.6C865.2,281.9,864.4,280.8,863.7,279.7z"/>
		<path d="M628.1,175.5c-0.5-0.1-0.9-0.2-1.4-0.3c-0.2,0-0.4-0.1-0.5-0.1C626.8,175.2,627.4,175.4,628.1,175.5z"/>
		<path d="M879.1,942.9c0-0.1,0.1-0.2,0.1-0.3c-0.1,0.3-0.2,0.6-0.3,0.9C879,943.3,879,943.1,879.1,942.9z"/>
		<polygon points="313.5,634.7 313.5,634.7 313.5,634.7 		"/>
		<polygon points="899.3,767.8 899.3,767.8 899.3,767.8 		"/>
		<path d="M871.7,961.7c0.4-1,0.9-2,1.3-3.1c-0.8,2.1-1.8,4.1-2.7,6.2C870.8,963.8,871.2,962.7,871.7,961.7z"/>
		<path d="M129.4,376.9c-0.7,0-1.4-0.1-2.1-0.2c0.4,0.1,0.8,0.1,1.2,0.2C128.8,376.9,129.1,376.9,129.4,376.9z"/>
		<path d="M136,377c-1.7,0.1-3.5,0.1-5.2,0c0.4,0,0.9,0.1,1.3,0.1C133.4,377.1,134.7,377.1,136,377z"/>
		<path d="M146.1,407.4c1.6,0.6,3.2,1.1,4.8,1.5c-1.3-0.4-2.6-0.8-3.9-1.2C146.7,407.6,146.4,407.5,146.1,407.4z"/>
		<path d="M151,409c0.4,0.1,0.8,0.2,1.2,0.3c1.1,0.3,2.3,0.6,3.4,0.9c1.5,0.4,3,0.6,4.6,0.9c0.2,0,0.5,0.1,0.7,0.1
			c-0.7-0.1-1.3-0.3-2-0.4c-0.9-0.2-1.7-0.3-2.6-0.5c-1-0.2-2-0.5-3-0.7c-1.1-0.3-2.1-0.6-3.2-0.9C150.4,408.9,150.7,408.9,151,409
			c-0.1,0-0.1,0-0.1,0C150.9,409,151,409,151,409z"/>
		<path d="M345.7,215.9c-0.4,0.3-0.8,0.7-1.2,1c-0.7,0.6-1.4,1.2-2,1.8c-4.7,4.2-9.3,8.4-13.9,12.6c2-1.9,4.1-3.7,6.2-5.6
			c3.1-2.8,6.2-5.6,9.3-8.4c0.9-0.8,1.7-1.5,2.6-2.3c-0.6,0.5-1.2,1-1.7,1.5C345.1,216.4,345.4,216.2,345.7,215.9z"/>
		<path d="M460.3,247.9c2,1.3,4,2.6,6,4.1C464.4,250.5,462.4,249.2,460.3,247.9z"/>
		<path d="M682.1,128.6c-0.9-0.3-1.8-0.6-2.7-0.9c1,0.3,2.1,0.7,3.1,1.1C682.4,128.8,682.3,128.7,682.1,128.6z"/>
		<path d="M721.1,231.3c0.1,0.1,0.2,0.2,0.3,0.3C721.3,231.5,721.3,231.4,721.1,231.3C721.2,231.3,721.1,231.3,721.1,231.3z"/>
		<path d="M765.4,223.6c0.2,0.2,0.4,0.4,0.6,0.6c0.3,0.3,0.6,0.5,0.8,0.8c0.3,0.3,0.6,0.5,0.9,0.8c-1.4-1.5-2.9-2.9-4.3-4.3
			c0.5,0.4,0.9,0.9,1.3,1.4C764.8,222.9,765.3,223.4,765.4,223.6z"/>
		<path d="M764.4,222.6C764.4,222.6,764.8,223,764.4,222.6L764.4,222.6z"/>
		<path d="M773.1,180c-0.1-0.1-0.1-0.1-0.2-0.2c0,0.2-0.1,0.4-0.1,0.6C773.1,180.2,773.1,180.1,773.1,180z"/>
		<path d="M462.4,777.1C462.4,777.1,462.5,777.1,462.4,777.1c0,0-0.1-0.1-0.2-0.1c-0.1,0-0.1,0-0.1,0c-0.3-0.1-0.6-0.1-0.7-0.1
			c0.1,0,0.1,0,0.2,0c-0.1,0-0.1,0-0.2,0c0,0,0,0,0,0c0,0,0,0,0,0c-1.8-0.1-4.4,0.9-5.8,1.2c-2.7,0.6-5.4,1.2-8.1,1.8
			c-5.6,1.4-11.3,2.9-16.8,4.7c-11.2,3.5-22.1,7.6-32.9,12.1c-21.7,9-42.5,19.8-64.6,27.7c-3.5,1.2-7,2.4-10.6,3.5
			c-1.4,0.4-2.9,0.9-4.3,1.2c-5.4,1.5-10.9,2.7-16.5,3.5c-1,0.1-1.9,0.3-2.9,0.4c-1.2,0.2-2.5,0.3-3.8,0.4c-0.6,0-1.2,0.1-1.8,0.1
			c0,0-0.1,0-0.1,0c-12.3,0.7-24.1-1.4-33.6-9.8c-10.1-8.8-16.1-21.2-21.1-33.4c4.8,12,11.1,24.9,21.1,33.5
			c-11.7-10-18.3-25.7-23.5-39.7c-4.3-11.9-7.5-24.1-10.1-36.5c-2.3-11.1-4.1-22.4-6.2-33.6c-3-16-6.7-31.9-12.4-47.2
			c4.5,12.1,7.5,24.6,10.1,37.2c-4.1-19.6-9.7-38.6-18.4-56.8c-1-2.2-2.1-4.3-3.2-6.5c0.3,0.7,0.7,1.3,1,2c-0.4-0.8-0.8-1.5-1.2-2.3
			c-0.3-0.6-0.6-1.2-0.9-1.7c-0.1-0.2-0.2-0.4-0.3-0.6c-0.3-0.5-0.5-1-0.8-1.5c-0.5-1-1.1-2-1.6-3c0,0,0,0,0,0
			c-0.4-0.6-0.7-1.3-1.1-1.9c0.4,0.6,0.7,1.3,1.1,1.9c-0.5-0.9-1-1.8-1.5-2.8c0.1,0.2,0.3,0.5,0.4,0.7c-0.2-0.4-0.5-0.9-0.8-1.4
			c-0.4-0.7-0.8-1.4-1.2-2.1c-0.8-1.4-1.7-2.8-2.5-4.1c0.4,0.7,0.8,1.4,1.2,2.1c0,0,0,0,0,0c-0.4-0.7-0.8-1.4-1.2-2.1
			c-0.4-0.7-0.9-1.5-1.4-2.2c-0.3-0.5-0.6-1-0.9-1.4c-0.1-0.1-0.2-0.3-0.3-0.4c-0.8-1.2-1.9-2.9-2.8-4.2c0,0,0,0,0,0c0,0,0,0,0,0
			c0,0,0,0,0,0c-0.4-0.6-0.8-1.2-1.2-1.8c-0.2-0.4-0.5-0.7-0.7-1.1c-0.2-0.2-0.3-0.5-0.5-0.7c-0.1-0.2-0.3-0.4-0.4-0.6
			c-0.1-0.1-0.1-0.2-0.2-0.3c-0.7-1-1.3-1.9-2-2.8c-0.4-0.5-0.7-1.1-1.1-1.6c0.3,0.4,0.6,0.8,0.9,1.3c-4.6-6.3-9.5-12.5-14.7-18.3
			c0.2,0.2,0.4,0.4,0.6,0.6c-1.7-1.9-3.3-4-5.2-5.8c-0.2-0.2-0.3-0.3-0.5-0.5c-0.2-0.2-0.4-0.4-0.7-0.6c0,0,0,0,0,0
			c-0.3-0.2-0.6-0.5-1-0.7c-0.2-0.1-0.3-0.3-0.5-0.4c0.2,0.1,0.3,0.3,0.5,0.4c-1.3-0.9-2.8-1.6-4.5-1.7c-3.2-0.4-6.5,1-8.6,3.4
			c0,0,0-0.1,0.1-0.1c0,0-0.1,0.1-0.1,0.1c0,0,0,0,0,0c-0.3,0.4-0.6,0.8-0.9,1.2c-0.1,0.1-0.1,0.2-0.2,0.3c-0.1,0.2-0.2,0.3-0.3,0.5
			c0-0.1,0.1-0.1,0.1-0.1c-0.1,0.3-0.3,0.5-0.4,0.8c-0.7,1.7-0.7,3.6-0.5,5.4c0,0,0,0,0,0c0,0,0,0,0,0c0.1,0.6,0.2,1.2,0.4,1.8
			c0.7,2.9,2,5.7,2.8,8.3c0.3,1,0.6,2,1,3c-0.3-0.8-0.5-1.6-0.8-2.4c2.4,7.3,4.6,14.6,6.6,21.9c0.1,0.2,0.1,0.5,0.2,0.7
			c0.5,2,1.1,4,1.6,5.9c2.2,8.6,4.1,17.3,5.7,26c0.3,1.9,0.5,3.9,1,5.8c0.1,0.3,0.1,0.7,0.2,1c0,0,0,0.1,0,0.1
			c0.8,4.6,1.5,9.3,2,13.9c0,0,0,0,0,0.1c0.4,2.8,0.7,5.6,1,8.4c0.3,2.7,0.5,5.5,0.7,8.2c0,0.5,0,1,0,1.5c0,1.3-0.1,2.8,0.2,4
			c0,0,0,0,0,0c0,0,0,0,0,0c0,0,0,0,0,0c0.1,0.2,0.1,0.5,0.2,0.7c0.1,0.3,0.3,0.5,0.4,0.6c0,0,0.1,0.1,0.1,0.1
			c0.1,0.1,0.2,0.2,0.2,0.2c0,0,0,0,0,0c0,0,0,0,0-0.1c1,0.7,1.9-1.2,2-2.4c0.4-2.6,0.8-5.1,1.2-7.7c1.9-12.2,2.6-24.7,2.4-37
			c-0.1-6.1-0.4-12.1-1-18.2c7.5,13.8,14.3,28.1,20,42.7c5.8,14.9,9.8,30.3,13.6,45.8c6.9,28.4,13.5,57.4,27.9,83.1
			c6.6,11.7,14.9,22.9,26.4,30.2c12.6,8,27.4,9.2,41.9,7.1c29.6-4.2,56.1-19,82.3-32.7c13.9-7.3,27.9-14.4,42.4-20.5
			c7.3-3.1,14.7-5.9,22.2-8.4c5.3-1.8,10.7-2.9,16-4.6C460.5,779.7,464.4,778.2,462.4,777.1z"/>
		<path d="M1073,228.8c-0.2,2.7-0.5,5.4-0.7,8.2c0.1-0.8,0.2-1.6,0.2-2.3C1072.7,232.7,1072.9,230.8,1073,228.8z"/>
		<path d="M1087.6,351.1c0-0.1,0-0.2,0-0.4C1087.7,350.3,1087.7,350.5,1087.6,351.1z"/>
		<path d="M1035,310.8c0.2-0.3,0.5-0.6,0.7-1C1035.4,310,1035.1,310.7,1035,310.8z"/>
		<path d="M1059.8,99.3c0.3,2.3,0.6,4.7,0.8,7c-0.4-4-0.8-8.1-1.4-12.1c0.2,1.6,0.4,3.2,0.6,4.8c-0.7-5.5-1.5-11-2.5-16.5
			C1058.3,88.1,1059.1,93.7,1059.8,99.3z"/>
		<path d="M833.5,153.4c0.9-1.6,1.7-3.3,2.6-4.9C835.2,150.1,834.4,151.8,833.5,153.4z"/>
		<path d="M1075.4,120.9c0.1,1.1,0.1,2.2,0.2,3.3c0-1.2-0.1-2.5-0.2-3.7c0-1-0.1-2-0.2-3c0-0.1,0-0.3,0-0.4c0.1,1.4,0.2,2.8,0.3,4.2
			C1075.4,121.1,1075.4,121,1075.4,120.9z"/>
		<path d="M589.8,931.8c-0.3-4.3-0.4-8.6-0.3-13c0,0,0,0.1,0,0.1c0,0,0-0.1,0-0.1c-0.4,0.3-0.2,4.7,0.1,10c0,5.4,0.6,10.8,1.3,16.1
			c-0.2-1.9-0.4-3.8-0.5-5.7C590.1,936.7,589.9,934.3,589.8,931.8z"/>
		<path d="M600.1,986.3c-2.3-7.2-4.3-14.5-6-21.9C595.7,971.8,597.7,979.2,600.1,986.3z"/>
		<path d="M589.9,904.4c-0.5,4.1-0.7,8.5-0.5,12.7c0,0.1,0,0.1,0,0.2c0,0.3-0.1,1.7,0,1.4c0-0.8,0-1.7,0-2.5
			c0.1-4.2,0.3-8.3,0.5-12.5C590,903.9,590,904.1,589.9,904.4c0-0.1,0-0.1,0-0.2C589.9,904.3,589.9,904.4,589.9,904.4z"/>
		<path d="M617.6,791c0.5-1,0.9-1.9,1.4-2.9c-0.1,0.2-0.2,0.3-0.3,0.5C618.4,789.4,618,790.2,617.6,791z"/>
		<path d="M236.4,514.2c-0.1,0.9-0.1,1.2,0,0.7C236.3,514.6,236.4,514.4,236.4,514.2z"/>
		<path d="M235.9,520.1c0-0.1,0-0.3,0-0.4c0.1-1.4,0.2-2.8,0.3-4.2C236.1,517,236,518.6,235.9,520.1z"/>
		<path d="M236.2,562.1c0,0.5,0.1,1,0.1,1.5c0,0.5,0.1,1,0.1,1.5C236.4,564.1,236.3,563.1,236.2,562.1z"/>
		<path d="M321.1,355.5C321.2,355.4,321.2,355.4,321.1,355.5C321.1,355.5,321.1,355.5,321.1,355.5z"/>
		<path d="M371.3,326.5c-1.5,0.6-3,1.4-4.5,2.1C368.3,327.8,369.8,327.1,371.3,326.5z"/>
		<path d="M386.6,320.1c-1.1,0.4-2.3,0.9-3.4,1.3C384.3,321,385.4,320.5,386.6,320.1z"/>
		<path d="M392.9,317.6c-1,0.4-2.1,0.8-3.1,1.2c2.1-0.8,4.1-1.6,6.2-2.4C395,316.8,393.8,317,392.9,317.6z"/>
		<path d="M594.8,778.7c1.6,0.3,3.2,0.6,4.8,0.9C599.5,779.1,595.4,778.8,594.8,778.7z"/>
		<path d="M819,230.8c0.6,0,1.4-0.1,2-0.2c-0.2,0-0.5,0.1-0.7,0.1C819.8,230.8,819.4,230.8,819,230.8z"/>
		<path d="M848.3,234.8C848.5,234.6,848.4,234.7,848.3,234.8C848.3,234.8,848.3,234.8,848.3,234.8z"/>
		<path d="M849.5,232.4c-0.1,0.1-0.6,1.2-0.6,1.2C849.2,233.2,849.3,232.8,849.5,232.4C849.5,232.4,849.5,232.4,849.5,232.4z"/>
		<path d="M854.7,213.7c0,0.4-0.2,0.8-0.2,1.2C854.6,214.5,854.7,214.1,854.7,213.7z"/>
		<path d="M749.1,377.5c0.8-0.4,1.6-0.9,2.4-1.2C751,376.2,749.9,377,749.1,377.5z"/>
		<path d="M885.7,365.1c1.6,0.7,3.1,1.5,4.6,2.3c1.7,1,3.3,2.1,4.8,3.5C892.4,368.3,889.1,366.5,885.7,365.1z"/>
		<path d="M590.2,901.7c0.2-2.7,0.4-5.3,0.7-8C590.5,896.3,590.3,899,590.2,901.7z"/>
		<path d="M967.7,6c2.7-1,5.5-1.8,8.3-2.6C973.2,4.2,970.4,5,967.7,6z"/>
		<path d="M1060.7,106.9c0-0.2,0-0.4-0.1-0.6c0.1,1.2,0.2,2.4,0.3,3.5C1060.9,108.9,1060.8,107.9,1060.7,106.9z"/>
		<path d="M1035.6,375.5c-0.1-0.1-0.2-0.1-0.2-0.2c0.3,0.2,0.6,0.4,0.9,0.6C1036,375.8,1035.8,375.7,1035.6,375.5z"/>
		<path d="M1073.8,102.7C1073.8,102.8,1073.7,102.5,1073.8,102.7L1073.8,102.7z"/>
		<path d="M829.1,162.1C829.1,162,829.1,162,829.1,162.1c0.1-0.2,0.1-0.2,0.2-0.3c0.3-0.5,0.5-1,0.8-1.5
			C829.7,160.8,829.4,161.5,829.1,162.1C829.1,162.1,829.1,162.1,829.1,162.1c-0.1,0.1-0.1,0.2-0.1,0.3
			C829,162.3,829,162.1,829.1,162.1z"/>
		<path d="M1074.2,106.1c0-0.1,0-0.2,0-0.3C1074.2,106.3,1074.2,106.4,1074.2,106.1z"/>
		<path d="M1025.3,364c0.5,1,1,1.9,1.7,2.7C1026.4,365.8,1025.8,364.9,1025.3,364z"/>
		<path d="M1062,122.7c0.2,3.7,0.4,7.4,0.5,11.1C1062.4,130.1,1062.3,126.4,1062,122.7z"/>
		<path d="M1072.8,377.4C1072.8,377.3,1072.7,377.5,1072.8,377.4L1072.8,377.4z"/>
		<path d="M1059.1,382.2C1059.1,382.2,1059.2,382.2,1059.1,382.2c0.1,0,0.2,0,0.2,0c-0.1,0-0.2,0-0.3,0
			C1059,382.2,1059.1,382.2,1059.1,382.2z"/>
		<path d="M1079.8,370.9c0.2-0.2,0.5-0.6,0.5-0.7c-0.2,0.3-0.5,0.6-0.7,0.9C1079.7,371,1079.8,371,1079.8,370.9z"/>
		<path d="M1080.7,369.7c-0.1,0.2-0.2,0.3-0.3,0.5C1080.6,370,1080.5,370,1080.7,369.7z"/>
		<path d="M1074.2,214.7c0,0,0,0.1,0,0.1c0,0.3,0,0.6-0.1,0.8C1074.1,215.3,1074.2,214.9,1074.2,214.7c0.3-3.6,0.5-7,0.7-10.5
			c0-0.2,0-0.3,0-0.5c0.1-1,0.1-2,0.2-2.9c0,0.5-0.1,1-0.1,1.5c-0.3,4.2-0.6,8.4-0.9,12.6C1074.2,214.8,1074.2,214.7,1074.2,214.7z"
			/>
		<path d="M842.9,172.7c-0.1,0.1-0.1,0.2-0.2,0.4c-0.1,0.2-0.2,0.3-0.2,0.5C842.6,173.3,842.7,173,842.9,172.7z"/>
		<path d="M1061.2,111.6c0.2,2.5,0.4,5,0.6,7.4c0,0.1,0,0.2,0,0.3c0.1,1.4,0.2,2.7,0.2,4.1c0-0.3,0-0.6,0-0.9c0,0.1,0,0.1,0,0.2
			c0-0.1,0-0.2,0-0.2c-0.1-1.1-0.1-2.2-0.2-3.3c0-0.5-0.1-0.9-0.1-1.4c-0.1-1-0.1-1.9-0.2-2.9c0,0.1,0,0.2,0,0.3
			C1061.4,114,1061.3,112.8,1061.2,111.6z"/>
		<path d="M1042.1,16.8C1042.1,16.8,1042.1,16.8,1042.1,16.8C1042.1,16.8,1042.1,16.8,1042.1,16.8z"/>
		<path d="M1075.6,124.5v-0.2C1075.6,124.2,1075.6,124.3,1075.6,124.5z"/>
		<path d="M1034.1,312.1c0.2-0.3,0.4-0.5,0.6-0.8c-0.1,0.1-0.2,0.2-0.3,0.3C1034.3,311.8,1034.2,312,1034.1,312.1z"/>
		<path d="M1074.5,109.9c0-0.2-0.1-0.4-0.1-0.6c0,0.4,0.1,0.7,0.1,1.1C1074.6,110.3,1074.6,110.1,1074.5,109.9z"/>
		<path d="M598.4,685.2c0.2,1,0.3,1.9,0.5,2.9C598.8,687.1,598.6,686.1,598.4,685.2z"/>
		<path d="M776.8,642.7c0.2,1.7,0.3,3.4,0.4,5.1C777.2,646.1,777.1,644.3,776.8,642.7z"/>
		<path d="M576.9,689.5c-0.6-0.2-1.3-0.4-1.9-0.5C575.7,689.2,576.3,689.3,576.9,689.5z"/>
		<path d="M583.1,691.2c0,0-1.9-0.5-2.1-0.6C581.7,690.8,582.4,691,583.1,691.2z"/>
		<path d="M599.2,518.5c0.3,0.6,0.6,1.2,0.9,1.7c-0.3-0.8-0.7-1.4-1.1-2.1C599.1,518.3,599.2,518.4,599.2,518.5z"/>
		<path d="M630.4,703.7C629.9,703.6,630.4,703.7,630.4,703.7L630.4,703.7z"/>
		<path d="M790.9,663.8C790.9,663.7,790.8,663.3,790.9,663.8L790.9,663.8z"/>
		<path d="M868.9,652.7c0.2-1.2,0.3-2.4,0.4-3.6C869.2,650.3,868.9,651.5,868.9,652.7z"/>
		<path d="M888.3,424.7C888.3,424.7,888,424.4,888.3,424.7L888.3,424.7z"/>
		<path d="M888.5,425.7C888.6,425.5,888.5,425.6,888.5,425.7L888.5,425.7z"/>
		<path d="M789.5,619.7c0,2.3,0.6,4.5,1.8,6.5C790.3,624.3,789.6,621.9,789.5,619.7z"/>
		<path d="M890.4,439.2c0,0,0,0.1,0,0.2c0,0,0,0,0,0C890.4,439.3,890.4,439.3,890.4,439.2z"/>
		<path d="M890.4,439.4C890.4,439.4,890.4,439.4,890.4,439.4c-0.2-0.9-0.3-1.8-0.5-2.7C890.1,437.6,890.2,438.5,890.4,439.4z"/>
		<path d="M890.8,442c0,0,0-0.1-0.1-0.2c0.1,0.8,0.3,1.7,0.4,2.5C891.1,443.5,891,442.7,890.8,442z"/>
		<path d="M890.6,440.4c0,0.1,0,0.2,0,0.2c0,0,0,0,0,0C890.6,440.6,890.6,440.5,890.6,440.4z"/>
		<path d="M890.8,441.8c-0.1-0.4-0.1-0.8-0.2-1.1C890.5,440.4,890.7,441.3,890.8,441.8z"/>
		<path d="M821.4,1042.9c0-0.1,0.1-0.1,0.1-0.2l0,0C821.5,1042.7,821.4,1042.8,821.4,1042.9z"/>
		<path d="M821.5,1042.6C821.5,1042.6,821.5,1042.6,821.5,1042.6C821.5,1042.6,821.5,1042.6,821.5,1042.6c0.1-0.1,0.1-0.1,0.1-0.1
			c0,0,0,0,0,0c0,0,0-0.1,0-0.1C821.6,1042.4,821.6,1042.5,821.5,1042.6C821.5,1042.6,821.5,1042.6,821.5,1042.6z"/>
		<path d="M858.9,967.9c0.7-1.7,1.3-3.5,1.9-5.3C860.2,964.4,859.5,966.1,858.9,967.9z"/>
		<path d="M862.1,958.5c0.3-0.5,0.4-1.2,0.6-1.8C862.5,957.3,862.4,957.9,862.1,958.5z"/>
		<path d="M862.3,958.2c0,0.1-0.1,0.2-0.1,0.3c-0.4,1.2-0.8,2.5-1.2,3.7C861.4,960.9,861.8,959.6,862.3,958.2z"/>
		<path d="M863.8,953.6c0.1-0.4,0.2-0.7,0.3-1.1c-0.2,0.5-0.3,1-0.5,1.5C863.7,953.9,863.7,953.7,863.8,953.6z"/>
		<path d="M863.1,955.7c0.2-0.6,0.4-1.1,0.6-1.7c0,0.1-0.1,0.2-0.1,0.4C863.4,954.8,863.2,955.3,863.1,955.7z"/>
		<path d="M876.7,857.7c0,0.2,0,0.4,0,0.5c0,0.3,0,0.7,0.1,1C876.8,858.7,876.8,858.2,876.7,857.7z"/>
		<path d="M895.6,869.1c0,0.2,0,0.4,0,0.6c0.1-0.5,0.1-1.1,0.1-1.6c0-0.1,0-0.2,0-0.2v0c0.1-0.7,0.1-1.3,0.2-2
			c-0.1,0.6-0.2,1.3-0.2,2v-0.6c0,0.7-0.1,1.5-0.2,2.2C895.6,869.3,895.6,869.2,895.6,869.1z"/>
		<path d="M0,579.8c0.1,0.2,0.3,0.4,0.4,0.6C0.7,580.4,0.6,580.2,0,579.8z"/>
		<path d="M152.9,720.3c-3.7-3.8-7.4-7.7-11.1-11.5c-7.4-7.6-14.8-15.3-22.3-22.8c-15-15.3-30-30.5-45.2-45.7
			c-8.6-8.6-17.2-17.2-25.8-25.7c-5.7-5.7-11.4-11.3-17.1-17c-1.4-1.4-2.7-2.7-4.1-4.1c-0.9-0.9-2.6-2-3.1-3.2
			c-0.5-1.1,0.1-1.7,0.6-2.8c0.8-1.8,1.5-3.7,2.2-5.5c0.5-1.4,1.2-4.5,2.3-5.1c1.4-0.8,4.2-0.8,5.8-1.1c3.7-0.8,7.5-1.6,11.2-2.5
			c7.3-1.9,14.4-4.1,21.4-6.7c25.6-9.6,49-25.1,66.8-46c10.3-12.2,19.8-26.7,24-42.3c-18.9,11.3-41.6,13.9-63.2,11.9
			c-11-1.1-22-3.3-32.6-6.3c-1.1-0.3-2.2-0.6-3.3-0.9c-0.9-0.3-1.3-0.2-1.5-0.9c-0.1-0.5,0.5-1.7,0.6-2.2c0.8-2.9,1.6-5.8,2.4-8.8
			c1.5-5.7,3-11.4,4.5-17.1c2.9-11.3,5.7-22.6,8.4-34c2.4-10.3,4.2-20.9,6.9-31.1c0.3-1.1,2.3-6.9,0.2-7.3c-2-0.4-3.7,5.4-4.2,6.6
			c-3.9,9.9-8.7,19.4-12.8,29.2c-18.3,43-35.2,86.9-50.1,131.2C10.2,559.2,7,570.1,4,581c-1.1,3.8-3,7.8-2.6,11.9
			c0.5,5,3.9,7.8,7.6,10.7c17.8,14.2,34.7,29.8,52,44.5c30.3,25.7,60.8,51.2,91.4,76.5c1.1,0.9,2.3,1.9,3.4,2.8
			c0.2-0.8,0.7-1.9,0.7-2.8C156.5,723.2,154,721.4,152.9,720.3z"/>
		<path d="M380.8,803.9c-7,3.1-14,6.3-21,9.5C366.9,810.2,373.8,807,380.8,803.9z"/>
	</g>
	<path d="M569.9,330.2c24.4,0,44-28.7,44-28.7c-34.7-13.4-52.2-38.5-52.2-38.5s-17.1,15-17.1,40.6
		C544.6,318.9,555.6,330.2,569.9,330.2z M568.8,282.8c1.6-1.5,6.4-0.7,5.2,3.7c-0.7,2.6-4.4,3.6-6,1.7
		C566.5,286.2,567.6,283.9,568.8,282.8z M577.3,290.6c8,0,13.5,5.5,13.5,13.6c0,7.7-3.9,14.7-13.5,14.7c-7.5,0-14.4-7.6-14.4-14.7
		C562.9,297.6,568.9,290.6,577.3,290.6z M561.1,285.8c3.2,0.9,4.4,5.4,2,7.3c-2.3,1.9-5.2,0.5-6.5-0.9
		C554.8,290.3,555.7,284.4,561.1,285.8z M553.5,296.5c0,0-1,7.4,4.9,16.6c4.5,7,13.1,10.8,13.1,10.8
		C550.5,326.5,546.6,309,553.5,296.5z"/>
	<path d="M906.1,697.8c0-9.1-2.6-19.3-8.9-26c1.6,1.7,3,3.5,4.2,5.7c-1.2-2.2-2.6-4.1-4.2-5.8c0,0,0-0.1-0.1-0.1l0,0
		c-1.1-1.2-2.7-2.6-4.2-3.5c0.2,0.2,0.5,0.3,0.7,0.5c-1.8-1.3-3.6-2.4-5.6-3.4c0.1,3.8,0.8,8.9-1.3,12.4c-1.6,2.7-4.9,4.5-7.5,6.1
		c-0.2,0.1-0.4,0.3-0.6,0.4c-0.2,0.2-0.5,0.3-0.7,0.5c0,0,0.1-0.1,0.2-0.1c0.1,0,0.2-0.1,0.3-0.2c0.1-0.1,0.3-0.2,0.4-0.3
		c-2.1,1.3-4.2,2.6-6.3,3.9c1.1-0.6,2.1-1.2,3.2-1.8c-4.9,3.1-10,5.8-15.3,8.3c-6.4,3.1-13,5.8-19.5,8.3c-7.6,3-15.3,5.6-23.2,8
		c-4,1.2-8,2.4-12.1,3.4c-2,0.5-4.1,1.1-6.1,1.5c-0.8,0.2-1.9,0.3-2.6,0.6c-0.5-0.1-0.8,0-0.9,0.3v-0.1c0-0.1,0-0.2,0-0.4
		c0.5-1.1,0.1-3.3,0.1-4.6c0-1.6,0-3.3,0-4.9c0-2.6-0.1-5.2-0.3-7.7c0,0.8,0,1.7,0,2.5c-0.1-3.3-0.2-6.6-0.5-9.9
		c0.1,0.7,0.1,1.3,0.2,2c0-0.7-0.1-1.4-0.1-2.1c0-0.5-0.1-0.9-0.1-1.4c0,0.4,0.1,0.8,0.1,1.2c-0.3-3.4-0.7-6.9-1.2-10.3
		c-2-13.4-5.4-26.5-10.3-39.2c0-0.1-0.1-0.3-0.1-0.4c-0.1-0.3-0.2-0.6-0.4-0.9c-0.4-1-0.8-2-1.2-3c-0.4-1-0.8-1.9-1.3-2.9
		c-2.7-6.1-5.9-12.1-9.7-17.4c2.1,4.8,3.5,9.9,4.3,15.1c0,0,0,0.2,0,0.2c1.8,9.4,2.4,19.1,2.4,28.8c0,3.2,0,6.4-0.2,9.6
		c0,1.2-0.1,2.3-0.1,3.5c0-0.2,0-0.4,0-0.6c0,1.4-0.1,2.8-0.2,4.1c-0.1,3-0.3,6.1-0.5,9.1c-0.3,4.7-0.7,9.5-1.2,14.2
		c-0.5,4.8-1.3,9.7-1.6,14.5c0,0.1,0,0.1,0,0.2c-0.2,1.4-0.4,2.9-0.6,4.3c0,0.1,0,0.1,0,0.2c0,0.2,0,0.3-0.1,0.5
		c0,0.2-0.1,0.3-0.2,0.4c-0.3,0-0.7,0.1-1,0.2c-0.1,0-0.2,0-0.3,0c-0.1,0-0.3,0-0.4,0c-0.2,0-0.4,0.1-0.6,0.1
		c-5.5,0.7-11,1.6-16.6,1.9c-6.4,0.3-12.7,0.2-19.1-0.2c1.1,0.1,2.2,0.2,3.3,0.3c-2.7,0-5.4-0.3-8.1-0.6c0.8,0.1,1.5,0.1,2.3,0.2
		c-1.7-0.1-3.4-0.3-5-0.5c0.7,0.1,1.4,0.2,2.2,0.2c-0.4,0-0.9-0.1-1.3-0.1c-1.8-0.2-3.7-0.4-5.6-0.6c-1.3-0.1-2.5,0.1-2.8-1
		c0-1,0.1-2.1,0.1-3.1c0,0.6-0.2,1.6-0.2,2.4c-0.1-1.4,0.3-3.1,0.3-4.5c0-1.7,0-3.4,0-5.1v-1c0-0.3,0-0.5,0-0.8v-0.5
		c0-3.3-0.1-6.7-0.3-10v-0.1c0-0.3,0-0.6,0-0.8c0-0.3,0-0.6-0.1-0.9v-0.1c0,0,0,0.1,0,0.2c0,0,0-0.1,0-0.2v-0.1c0-0.3,0-0.5,0-0.7
		c0-0.6-0.1-1.2-0.1-1.7v-0.1c0-0.3,0-0.7-0.1-1v0.2c-1.2-15.2-4.2-30.3-8.9-44.9c-0.5-1.6-1.1-3.2-1.6-4.9
		c-0.3-0.8-0.5-1.5-0.8-2.3c-0.1-0.3-0.2-0.5-0.3-0.8c-0.2-0.6-0.4-1.1-0.6-1.6c0-0.2-0.1-0.3-0.2-0.5c-1.2-3.5-2.6-6.9-4.3-10.2
		c0.5,1.1,1,2.2,1.5,3.3c-1.4-3.1-2.9-6.1-4.6-9.1c0,0.1,0.1,0.2,0.1,0.3c0,0,0,0.1,0,0.2c1.4,5,2.5,10,3.3,15
		c0.1,0.5,0.1,0.9,0.2,1.4c1,7.8,1.2,15.8,1.2,23.6c0-1.5,0-3,0-4.5c0,3.8,0,7.5-0.1,11.3l0.1-3.8c0,2.1-0.1,4.2-0.2,6.2
		c-0.1,3.3-0.3,6.6-0.5,9.8c-0.3,5.8-0.9,11.6-1.5,17.4c-0.3,2.6-0.6,5.1-0.9,7.7c-0.1,1.1-0.3,2.1-0.4,3.2
		c-0.1,0.9-0.3,1.7-0.4,2.6c0,0,0,0.1,0,0.1c-0.1,0.6-0.2,1.1-0.3,1.7c0,0.1,0,0.2-0.1,0.3c-0.3,1.2-0.8,2.9-0.6,3.8
		c0,0,0,0.1,0,0.1c0,0,0,0.1,0,0.1v0c0,0.1-0.1,0.2,0,0.3c-5.8-0.9-11.6-2.1-17.3-3.2c-3.8-0.8-7.7-1.6-11.5-2.4
		c-2-0.4-4.1-0.9-6.1-1.4c-0.7-0.1-3.1-0.3-3.5-0.8c0-6.2-1.2-12.8-2.4-18.9c-1.4-7.6-3.4-15.1-5.9-22.5
		c-4.9-14.5-11.4-29.4-20.9-41.5c6,10.8,7.7,24,8.6,36.3v0.1c0,0,0,0,0,0c0.2,1.8,0.3,3.7,0.4,5.5v0c0.1,1,0.1,1.9,0.2,2.9
		c0,0.1,0,0.2,0,0.3v0.1c0,0,0,0,0,0c0,0.2,0,0.4,0,0.6c0,0,0,0.1,0,0.1c0,0.2,0,0.4,0,0.6c0,0.4,0,0.9,0,1.1
		c0.4,9.3,0.1,18.6,0.1,28c0-0.1,0-0.3,0-0.4c0,0.6,0,1.2,0,1.8v0v0.9c0-0.1,0-0.2,0-0.3c-0.1,0.2-0.1,0.4,0,0.6
		c0,0.1,0.2,0.2,0.4,0.2c-3.6-0.8-7.3-1.9-10.9-2.8c-0.3-0.1-0.5-0.1-0.7-0.2c-0.1,0-0.1,0-0.2,0c-4.2-1.1-8.4-2.2-12.6-3.3
		c-5.3-1.4-10.8-2.4-16-4.1c-1.4-0.5-1.7-0.4-1.9-1.5c-0.1-1-0.2-2-0.3-2.9c0-0.1,0-0.2,0-0.3c0-0.9-0.1-1.7-0.3-2.5
		c0-0.3-0.1-0.6-0.1-0.8c0-0.1-0.1-0.2-0.1-0.1c-0.8-3.7-1.2-7.4-2.2-11.1c-3.4-14.3-9.2-28-16.6-40.6c-0.3-0.5-0.6-1-0.9-1.6
		c-0.5-0.9-1.1-1.8-1.6-2.6c-0.8-1.4-1.7-2.7-2.6-4.1c2.4,5.3,4.1,10.9,5.4,16.6c-0.3-1.5-0.7-2.9-1.1-4.4c2,7.6,3.1,15.5,3.7,23.3
		c0.1,0.9,0.2,1.9,0.2,2.8c0.3,4.2,0.4,8.5,0.4,12.8c0,2,0,4-0.1,5.9c-0.1,1.2-0.3,2.4-0.3,3.6c0,0.2,0,0.3,0,0.5c0,0.5,0,1,0.1,1.4
		c0,0.1,0,0.3,0,0.4c0,0,0.1-0.1,0.1-0.3c0.1,0.3,0.3,0.5,0.5,0.6c-0.2,0-0.4-0.1-0.6-0.3v0.1l0,0c-6.9-1.5-13.6-3.6-20.5-5
		c-6.8-1.5-13.7-2.4-20.6-3.2c-14.1-1.7-28.3-2.8-42.6-3.8c-8.5-0.6-16.9-1-25.4-1.4c-5.6-0.2-11.1-0.6-16.7-0.8
		c-0.7,0-1.4,0-2.1-0.1c-0.9,0-1.8,0-2.8,0c0.1-0.1,0.3-0.1,0.4-0.2c-0.1,0-0.1,0-0.2,0c8.7-5.8,16.1-13.3,23.3-20.9
		c8.1-8.5,15.8-17.3,23.3-26.2c7.4-8.8,14.6-17.7,21.9-26.5c0.1-0.2,0.3-0.3,0.4-0.5c7.4-8.9,14.8-17.8,22.6-26.3
		c4-4.4,8.1-8.8,12.1-13.3c0.3,0,0.4-0.2,0.5-0.6c0.5-0.6,1-1.1,1.5-1.6c0.1-0.1,0.1-0.1,0.2-0.2c2.9-3.1,5.7-6.2,8.5-9.2
		c0.1-0.1,0.1-0.2,0.2-0.3c0.1-0.1,0.2-0.2,0.3-0.3c0.1-0.1,0.1-0.1,0.2-0.2c0,0,0.1-0.1,0.1-0.1l0.3-0.3c0,0,0,0,0,0
		c0.1-0.1,0.2-0.2,0.3-0.3c0.3-0.3,0.5-0.5,0.5-0.5c0,0,0,0,0,0c0,0,0,0,0-0.1c2.6-2.7,5.1-5.5,7.6-8.2c0.1-0.1,0.2-0.3,0.3-0.4
		c0.8-1,2.3-3.1,3-3.3c0.8-0.2,1.5,0.9,2.3,1.7c4.6,4.7,8.7,10,12.2,15.5c7.4,11.4,13,24.1,15.4,37.5c2.5-14,1.8-28.6-0.6-42.5
		c-1.2-6.7-2.9-13.3-5.2-19.7c-1-2.6-2-5.2-3.2-7.7c-0.7-1.5-2-3.1-2.4-4.7c0-0.1-0.1-0.3-0.1-0.4c0.1,0.4,0.3,0.8,0.6,1.2
		c-0.3-0.9-0.6-0.9,0-1.8c0.4-0.4,0.7-0.8,1-1.2c0,0,0,0-0.1,0c1.2-1.1,2.2-2.4,3.3-3.5c2.7-3,5.4-6,8-9c0,0,0.1-0.1,0.1-0.1
		c0.2-0.3,0.5-0.5,0.7-0.8c0.8-0.9,1.7-1.9,2.5-2.8c0.3-0.3,0.6-0.7,0.9-1c0.4-0.5,0.8-0.9,1.3-1.4c-0.4,0.5-0.8,0.9-1.2,1.4
		c1-1.2,2.1-2.3,3.1-3.5c-0.4,0.4-0.9,0.9-1.3,1.4c-0.1,0.1-0.1,0.1-0.2,0.2c4.5-5.1,9-10.2,13.6-15.3c0,0.1,0.1,0.2,0.2,0.3
		c2.7,6.3,5.4,12.6,7.9,18.9c8.6,23.2,17.6,46.3,21.5,70.9c1.5-19.8,1.3-39.9,0-59.7c-0.7-9.6-1.8-19.2-3.5-28.7
		c-0.9-4.8-2-9.5-3.2-14.3c-0.6-2.1-1.1-4.3-1.9-6.3c-0.5-1.4-1.5-2.9-1-4.4c0,0,0-0.1,0-0.1c0,0,0.1-0.1,0.1-0.1
		c7.1-7.6,13.6-15.7,21-23.1c-2.5,2.4-4.8,5-7.3,7.4c-0.6,0.7-1.3,1.4-1.9,2.1c0,0-0.1,0-0.2,0c1-1.1,2.1-2.2,3.2-3.3
		c1.2-1.3,2.4-2.5,3.6-3.8c0.2-0.3,0.5-0.5,0.7-0.7c2.7-2.7,5.4-5.4,8.2-8c8.4,15.7,15.5,32.1,21.5,48.8
		c6.2,17.1,11.4,34.7,14.6,52.6c1.6-26.2,0.8-52.5-2.6-78.5c-1.6-12.8-3.8-25.5-7.4-37.9c-0.4-1.3-0.7-2.6-1.2-3.8
		c-0.2-0.5-0.7-1.3-0.6-1.9c0.5-0.4,0.9-0.7,1.4-1.1c-0.4,0.3-1.1,0.7-1.3,1c0.3-0.6,1.6-1.2,2.1-1.5c1.5-1.1,3-2.3,4.5-3.4
		c4.5-3.3,9.1-6.5,13.8-9.5c1.3-0.8,2.6-1.7,3.9-2.5c0.3-0.2,0.6-0.4,0.9-0.6c4.5-2.8,9.1-5.5,13.7-8.1c3.4-1.9,6.8-4,10.3-5.8
		c-0.1,0.1-0.2,0.2-0.3,0.3c0,0,0,0.1-0.1,0.1c-0.1,0.5,1.5,2.5,1.8,2.9c1.8,2.9,3.6,5.8,5.2,8.8c3.4,6.2,6.4,12.7,9.1,19.2
		c5.6,13.3,10,27.1,13.3,41.1c0,0.1,0,0.1,0,0.2c0.6,2.6,1.2,5.3,1.8,8c0,0.2,0.1,0.5,0.1,0.7c1.5,7.3,2.7,14.6,3.7,21.9
		c0,0,0,0,0,0c0.1,1.4,0.3,2.9,0.6,4c0,0,0-0.1,0-0.1c1.1-2.4,1.3-5.8,1.6-8.4c0.5-3.8,0.8-7.6,1-11.4c0.1-0.9,0.1-1.9,0.2-2.8
		c-0.1,1.8-0.3,3.5-0.4,5.2c1.6-18.4,1.1-36.9-1.2-55.3c-1.3-9.7-3.1-19.3-5.4-28.8c-1.1-4.4-2.3-8.8-3.6-13.2
		c-0.2-0.6-1.5-3.2-1.2-3.9c0.2-0.6,2.1-0.9,2.6-1.1c-0.6,0.2-1.1,0.4-1.7,0.6c5-1.5,9.9-3.2,14.9-4.7c0.7-0.2,1.5-0.4,2.2-0.6
		c1.2-0.3,2.5-0.6,3.8-0.9c4.1-0.9,8.6-2.1,12.9-2.1c-0.7,0.1-1.4,0.2-2.1,0.3c0.2,0,0.4,0,0.7-0.1c2-0.2,3.9-0.3,5.9-0.4
		c0.3,0,0.7,0,1-0.1c1.2,0,2.5-0.1,3.7-0.2c-0.6,0-1.2-0.1-1.7-0.1c0.9-0.1,1.8-0.1,2.6,0.1c-0.3,0-0.6,0-0.8,0
		c-0.8,0-1.6,0.1-2.4,0.2c1.3,0,2.5-0.1,3.8,0c1.2,0,2.6,4.8,3,5.7c1.6,3.5,3,7.2,4.4,10.8c2.6,7.2,4.9,14.4,6.9,21.8
		c4,14.9,6.8,30.1,7.6,45.6c0.5,8.7,0.3,17.4-0.5,26.1c4.6-14.5,7-29.7,8.5-44.8c0.3-3.5,0.6-7,0.8-10.5v-0.1c0.1-0.7,0.1-1.3,0.1-2
		c0-0.3,0-0.6,0-0.8v-0.1c0-0.1,0-0.2,0-0.3v-0.2c0-0.5,0.1-1.1,0.1-1.6c0-0.6,0.1-1.2,0.1-1.8c0-0.2,0-0.4,0-0.7c0-0.1,0-0.3,0-0.4
		c0-0.1,0-0.3,0-0.4c0,0,0,0,0,0v-0.7c0-1.4,0-2.8,0-4.2c0-0.3,0-0.7,0-1v-0.8c0-0.1,0-0.3,0-0.4c0-0.2,0-0.4,0-0.6
		c0-0.9,0-1.9,0-2.9c0-0.4,0-0.8,0-1.2c0,0,0,0,0,0c0-2.7-0.1-5.4-0.3-8.1c-0.1-1.7-0.2-3.3-0.4-5c0-0.4-0.1-0.8-0.1-1.1
		c-0.1-0.8-0.2-1.6-0.2-2.4v0c0,0,0-0.1,0-0.1c0-0.2,0-0.4,0-0.6c0-0.1,0-0.2,0-0.3c0-0.2,0-0.3,0-0.5c0-0.1,0-0.2,0-0.3
		c0-0.1,0-0.3,0-0.4c0-0.5-0.1-1-0.2-1.6c-0.5-4.1-1.1-8.2-1.8-12.2c3.6,0.4,7.2,0.9,10.8,1.5c0.4,0.1,0.9,0.2,1.3,0.2
		c-0.1,0-0.1,0-0.2,0c1.6,0.3,3.1,0.6,4.7,0.9h-0.1c0.7,0.1,1.3,0.3,2,0.4c0.1,0,0.1,0,0.2,0c0,0,0.1,0,0.2,0c0.1,0,0.2,0,0.3,0.1
		c0.1,0,0.3,0.1,0.4,0.1h0.1c0,0,0,0,0,0c0.4,0.1,0.8,0.2,1.2,0.3c1,0.2,2,0.5,2.9,0.7c0.5,0.1,1,0.3,1.5,0.4c0,0,0,0,0.1,0
		c0.4,0.1,0.7,0.3,1,0.3c0,0,0.1,0,0.1,0c-0.2-0.1-0.4-0.1-0.6-0.2c0.8,0.2,1.5,0.4,2.2,0.7c1.8,0.6,3.5,1.2,5.2,1.8
		c-2.3-1-4.6-1.8-7-2.5c7.3,2,16.3,5.4,20.3,11.9c-0.1-0.1-0.2-0.2-0.2-0.3c0.1,0.1,0.1,0.1,0.1,0.2c0-0.1-0.1-0.1-0.1-0.1
		c2.7,4.3,1.9,9.4,1.1,14.1c0.9-0.9,1.6-2.1,2.3-3.1v0c0,0,0,0,0,0l0,0.3c0,0.1,0,0.1,0,0.2c0,0.2,0.1,0.4,0.1,0.6v-0.1
		c0-0.5,0-0.9,0.1-1.4c0.9-1.1,1.5-2.4,2-3.8c1.1-2.6,1.7-5.4,2-8.2c0-0.4,0.1-0.8,0.1-1.2c0-0.6,0.1-1.2,0-1.8c0,0,0,0,0-0.1v-0.1
		c0.4-2.4,0-5-0.3-7.4c0,0,0-0.1,0-0.1c0-0.5-0.1-0.9-0.2-1.4c0-0.2-0.1-0.5-0.1-0.7c-0.2-1.6-0.5-3.2-0.9-4.8
		c-0.3-2-0.7-3.9-1.1-5.9c-0.4-2.1-0.6-4.5-1.4-6.5c-1.3-6.9-2.7-14.6-7-20.4c-0.1-0.1-0.2-0.3-0.3-0.4c0,0,0,0,0,0c0,0,0,0,0,0
		c0,0-0.1-0.1-0.1-0.1c0,0,0,0,0-0.1c-0.2-0.3-0.4-0.6-0.6-0.9c-0.3-0.3-0.5-0.6-0.8-0.8c0.2,0.2,0.4,0.3,0.6,0.6
		c-0.3-0.3-0.6-0.7-0.9-1c0,0.1,0.1,0.2,0.2,0.2c0,0-0.1-0.1-0.1-0.1c-0.1-0.1-0.2-0.2-0.3-0.3c-0.1-0.1-0.2-0.2-0.3-0.3
		c-0.1-0.1-0.2-0.2-0.4-0.3c0.3,0.2,0.6,0.5,0.9,0.7c-0.3-0.3-0.4-0.6-0.5-1.1c-0.3-1.2,0-3-0.1-4c0.1,0.5,0.1,1,0.2,1.5
		c0-0.2,0-0.3,0-0.5c-0.1-0.7-0.2-1.4-0.4-2.1c0-0.1,0-0.2-0.1-0.3c-0.3-1.2-0.8-2.3-1.3-3.3c-0.2-0.4-0.4-0.8-0.7-1.2
		c0,0,0-0.1,0-0.1c-0.3-0.4-0.5-0.9-0.8-1.3c0,0,0-0.1,0-0.1c-0.3-0.4-0.5-0.8-0.8-1.1c-0.1-0.2-0.3-0.4-0.4-0.6c0,0,0,0,0,0
		s0,0-0.1-0.1c-1.9-2.5-3.9-5.1-6.1-7.5c-0.7-0.8-1.5-1.5-2.3-2.2c-1.8-1.6-4.6-3.2-7.1-3.5c-0.2,0-0.3-0.1-0.4-0.3c0,0,0,0,0,0
		c0.1,0.1,0,0-0.2-0.3c-0.9-1.8-2.1-3.6-3.2-5.3c0.1,0.2,0.3,0.4,0.4,0.7c0.3,0.6,0.6,1.3,1,1.9c-1.9-2.9-3.5-6-5.4-8.9
		c-0.9-1.4-1.8-2.7-2.7-4c-0.7-1.1-1.4-2.1-2.1-3.2c0.5,0.8,1.1,1.5,1.6,2.3c-0.6-0.9-1.2-1.7-1.8-2.6c-0.1-0.1-0.2-0.3-0.3-0.4
		c-0.3-0.4-0.6-0.8-0.9-1.3c-0.6-0.9-1.2-1.8-1.9-2.7c-0.6-0.8-1.1-1.6-1.7-2.5c0-0.1-0.1-0.1-0.1-0.2c-0.1-0.1-0.1-0.2-0.2-0.3
		c-0.2-0.3-0.4-0.5-0.6-0.8c0,0-0.1-0.1-0.1-0.1c-0.2-0.3-0.5-0.6-0.7-1c-0.1-0.1-0.1-0.2-0.2-0.2c-0.2-0.3-0.4-0.5-0.6-0.8
		c-0.4-0.5-0.7-1-1.1-1.5c-0.2-0.2-0.3-0.5-0.5-0.7c-0.1-0.2-0.3-0.3-0.4-0.5c-0.6-0.8-1.1-1.5-1.7-2.3c0-0.1-0.1-0.2-0.2-0.2
		c-0.2-0.2-0.3-0.4-0.5-0.6c0,0,0,0,0-0.1c-1.2-1.6-2.3-3.4-3.7-4.8c0,0,0,0,0-0.1c0,0,0,0,0,0c-1.1-1.5-2.2-3.6-3.6-4.6
		c0,0,0,0,0,0h0c0,0,0-0.1,0-0.1c0,0-0.1,0.1,0,0.1c0,0,0,0,0,0c0,0-0.1,0-0.1,0.1c0,0-0.1,0.1-0.2,0.2c0,0.1-0.1,0.1-0.2,0.2
		c-0.2,0.2-0.4,0.4-0.6,0.6c0.1-0.1,0.2-0.1,0.2-0.2c-0.1,0.1-0.2,0.2-0.2,0.3c-1.4,1.4-3,3.4-4.8,4.3c-0.2,0.1-0.3,0.2-0.3,0.3
		c-0.1,0.1-0.1,0.3-0.1,0.4c-0.1-0.2-0.2-0.3-0.2-0.1c0.1,0.1,0.2,0.2,0.3,0.3c0,0,0,0,0,0.1c0.1,0.4,0.6,0.8,1.1,1.2
		c2.8,3.1,5.5,6.3,8,9.7c0.6,0.8,1.2,1.6,1.7,2.4c3.1,4.6,5.9,9.4,8.3,14.3c0.9,1.8,1.8,3.7,2.5,5.6c0.3,0.6,0.5,1.3,0.7,1.9
		c0.4,1.3,0.5,3.4,1.5,4.4c0,0,0,0,0.1,0c0.1,0.1,0.2,0.1,0.3,0.2c-1.4,0.1-2.8,0.2-4.2,0.3c-1.6,0.2-3.2,0.3-4.8,0.3h0
		c-1.5,0-3-0.1-4.4-0.3c-1-0.2-2.1-0.4-3.1-0.7c-0.7-0.2-1.3-0.4-2-0.6c-0.3-0.1-0.6-0.2-0.8-0.2c-0.1,0-0.2,0-0.2-0.1
		c-0.4-0.1-0.8-0.2-1.3-0.4c-0.3-0.1-0.6-0.2-1-0.3c-5.8-1.7-11.7-3.3-17.6-4.7c-3.6-0.9-7.2-1.5-10.8-2.2c-2.9-0.5-6.1-1.3-9-1.3
		c-3.8,0-7.8-0.8-11.6-1.1c-4.2-0.3-8.4-0.4-12.6-0.3c-6.7,0-13.4,0.6-20,1.6c-0.3,0-0.6,0.1-1,0.1c0.3,0,0.7-0.1,1-0.2c0,0,0,0,0,0
		c0,0,0,0,0,0c0-0.1,0-0.1,0-0.2c-0.1-0.5-0.3-1.3-0.6-1.9c0,0,0-0.1,0-0.1v0c0-0.1-0.1-0.3-0.1-0.4c0,0,0-0.1,0-0.1h0c0,0,0,0,0,0
		c0-0.3-0.1-0.3,0-0.2c0,0,0,0,0,0c0,0,0-0.1,0-0.1c-0.8-2.6-1.9-5.1-3.1-7.5c0,0.1,0,0.1,0.1,0.2c-0.2-0.5-0.5-1-0.7-1.5
		c-0.1-0.3-0.3-0.6-0.4-0.9c-1.3-2.5-2.6-5-4-7.4c0,0,0,0,0-0.1c0-0.1-0.1-0.1-0.1-0.2v0c0,0,0-0.1-0.1-0.1c0,0,0-0.1,0-0.1
		c0,0,0-0.1-0.1-0.1c-0.1-0.1-0.1-0.2-0.2-0.3c0,0,0-0.1-0.1-0.1c-0.1-0.2-0.2-0.3-0.3-0.5c-0.3-0.4-0.5-0.9-0.8-1.3
		c-1.2-2-2.5-3.9-3.8-5.9c-0.3-0.5-0.7-1-1-1.5c-0.5-0.7-1-1.5-1.6-2.2c-2.6-4.2-6.1-8.1-9.4-11.8c-0.1-0.1-0.2-0.2-0.2-0.3
		c-0.1-0.1-0.2-0.2-0.3-0.3c-0.1-0.1-0.2-0.2-0.3-0.3c-0.3-0.3-0.5-0.6-0.8-0.9c-0.2-0.2-0.3-0.4-0.5-0.5c-0.1-0.1-0.2-0.2-0.3-0.3
		c0,0,0,0-0.1-0.1c-1-1.3-2.2-2.5-3.3-3.6c0.2,0.2,0.4,0.4,0.6,0.6c-0.3-0.4-0.7-0.7-1-1.1c0.3,0.3,0.6,0.7,0.9,1
		c-1.5-1.6-2.9-3.1-4.4-4.6c0,0-0.1-0.1-0.1-0.1c-13.9-14.4-30-27.8-47.8-37.3c0,0,0,0,0,0c0,0,0,0-0.1,0c0,0,0,0,0,0c0,0,0,0-0.1,0
		c0,0,0,0,0,0c0,0,0,0,0,0c0,0,0,0,0,0c0,0,0,0,0,0c0,0,0,0,0,0c0,0,0,0,0,0c0,0,0,0,0,0c0,0,0,0,0,0l0,0c0,0,0,0,0,0
		c-0.4-0.2-1-0.6-0.7-0.4c0,0,0,0,0,0c0,0,0,0-0.1,0c-0.1,0-0.1-0.1-0.2-0.1c0,0,0,0,0,0c0.4,0.1-0.2-0.1,0,0c0,0-0.1,0,0,0
		c0,0,0,0,0,0h0c0,0,0,0,0,0v0h0c0,0-0.1,0-0.1-0.1v0c0,0,0,0,0,0c0,0,0,0-0.1,0c0,0,0,0-0.1,0c0,0,0,0,0,0l0,0c0,0-0.1,0-0.1-0.1
		c0,0,0,0,0,0c-0.2-0.1-0.3-0.2-0.5-0.3c-2.7-1.4-5.4-2.7-8.2-3.8c-0.1-0.1-0.3-0.1-0.4-0.2c-0.4-0.2-0.7-0.3-1.1-0.5
		c-5.8-2.6-11.8-4.8-17.9-6.4c-8-2-15.8-4-23.9-5.2c-8.8-1.4-17.7-2.1-26.6-2.4c-6.1-0.2-12.3-0.1-18.4,0.1c-0.4,0-0.9,0-1.3,0.1
		c-9,0.4-17.9,1.3-26.8,2.6c-0.6,0.1-1.3,0.2-1.9,0.3c-0.6,0.1-1.3,0.2-1.9,0.3c-0.1,0-0.3,0-0.4,0.1c-0.1,0-0.3,0-0.4,0.1
		c-3.6,0.5-7.1,1.2-10.6,2c-0.2,0-0.4,0.1-0.6,0.1c-0.2,0-0.4,0.1-0.6,0.1c-0.1,0-0.1,0-0.2,0c-0.4,0.1-0.8,0.2-1.2,0.3
		c0.1,0,0.3,0,0.4-0.1c-0.8,0.2-1.6,0.3-2.4,0.5c0.1-0.1,0-0.1-0.4,0.1c0,0,0,0,0,0c0,0,0,0,0,0c0,0,0,0,0,0c0,0,0,0,0,0
		c-0.1,0-0.1,0-0.3,0.1c0.1,0,0.2,0,0.2,0c-0.9,0.3-1.8,0.6-2.6,0.7c0.4-0.1,0.8-0.3,1.2-0.4c-0.4,0.1-0.8,0.2-1.2,0.3
		c-0.2,0.1-0.4,0.1-0.6,0.2c0,0,0,0-0.1,0h-0.1c0,0,0.1-0.1,0.1-0.1c0.4-0.2,0.8-0.4,1.2-0.7c0,0,0.2-0.1,0.1-0.1c0,0,0,0,0,0
		c0.6-0.4,1.2-0.8,1.8-1.1c0.8-0.4,1.6-0.7,2.4-1.1c0,0,0.1,0,0.1-0.1c3.3-1.3,6.5-3.1,9.8-4.5c0.9-0.3,1.7-0.7,2.6-1
		c1.1-0.4,2.2-0.9,3.3-1.3c-0.2,0-0.3,0.1-0.5,0.2c-0.3,0.1-0.6,0.2-0.9,0.3c3.4-1.3,6.9-2.6,10.4-3.5l0,0c0.3-0.1,0.6-0.2,0.9-0.3
		c6.3-1.6,12.7-3.9,19.1-4.7c3,0,6.4-1.1,9.3-1.5c1.2-0.2,2.5-0.3,3.7-0.5c0.3,0,0.6-0.1,1-0.1c1.3-0.1,2.7-0.3,4-0.4
		c1-0.1,2-0.2,2.9-0.3c0.6-0.1,1.1-0.1,1.7-0.1c0.8-0.1,1.5-0.1,2.3-0.2c0.1,0,0.3,0,0.4,0c0,0,0,0,0,0c0.2,0,0.4,0,0.6,0
		c0.1,0,0.3,0,0.4,0c0.3,0,0.7,0,1,0c0.2,0,0.3,0,0.5,0c0,0,0,0,0,0c0,0,0,0,0,0c0.9,0,1.9-0.1,2.8-0.1c4.5-0.2,9.1-0.2,13.6-0.1
		c0.4,0,0.8,0,1.2,0c1,0,1.9,0,2.9,0.1h0.1c0.1,0,0.3,0,0.4,0c0.4,0,0.8,0,1.2,0.1c4.1,0.2,8.2,0.5,12.4,1
		c14.5,1.6,28.8,4.7,42.6,9.4c3.5,1.2,6.9,2.4,10.3,3.8c0.2,0.1,0.3,0.1,0.5,0.2c1.1,0.4,2.3,0.9,3.4,1.4c0.2,0.1,0.3,0.1,0.5,0.2
		c0.2,0,0.3,0.1,0.5,0.2c4.1,1.8,8.2,3.6,12.1,5.7c1,0.5,2,1,2.9,1.5c0.7,0.3,1.4,0.7,2,1.1c0.6,0.3,1.2,0.7,1.9,1
		c4.3,2.3,8.5,4.8,12.7,7.4c0.8,0.5,1.6,1,2.4,1.5c2.3,1.4,4.5,2.9,6.8,4.4c0.1,0.1,0.3,0.2,0.4,0.3c0,0,0,0,0,0s0.1,0,0.1,0.1
		c0.5,0.5,1.1,0.8,1.7,1.2c0.1,0,0.2,0.1,0.2,0.1c0,0,0,0,0,0c0.8,0.6,1.5,1.1,2.3,1.6c0.2,0.1,0.3,0.3,0.5,0.3
		c0.2,0.2,0.4,0.3,0.6,0.5c0.4,0.3,0.8,0.6,1.2,0.9c-0.3-0.3-0.7-0.5-1-0.7c1.1,0.8,2.1,1.5,3.2,2.3c0.1,0.1,0.2,0.2,0.3,0.3
		c1.5,1.1,3,2.3,4.5,3.4c0.2,0.2,0.5,0.3,0.7,0.5c1.2,0.9,2.4,1.9,3.6,2.9c0,0,0.1,0.1,0.1,0.1c2.9,2.3,5.6,4.7,8.4,7.1
		c0.5,0.5,1.1,0.9,1.6,1.4c0,0,0,0,0,0v0c0,0,0,0,0,0v0c-0.1-0.1,0,0,0,0c0,0,0,0,0,0c0,0,0,0,0,0c0,0,0,0,0,0c0,0,0.1,0.1,0.1,0.1
		c0.1,0.1,0.2,0.2,0.3,0.3c-0.2-0.2-0.4-0.3-0.4-0.4c0,0,0,0,0.1,0c0,0,0.1,0,0.1,0.1l0.1,0.1c0.3,0.2,0.5,0.4,0.8,0.7
		c0.4,0.3,0.7,0.6,1.1,1h0l0.1,0.1c0.2,0.1,0.3,0.2,0.4,0.4c2.3,2,4.8,4.1,6.6,6.3c-0.4-0.5-1-0.9-1.5-1.3c0.6,0.6,1.3,1.2,1.8,1.8
		c0.1,0,0.1,0.1,0.2,0.2c0,0,0,0,0,0c0,0.1,0.1,0.1,0.1,0.1c0,0,0,0,0,0c0,0,0,0,0,0c0,0,0,0,0.1,0c-0.1-0.1-0.1-0.3-0.2-0.4
		c0,0.1,0,0.1,0,0.1c0,0,0,0,0,0v0c0-0.1-0.1-0.2-0.2-0.3c0.1,0.1,0.1,0.1,0.2,0.2c-1.2-2.5-2.3-5.2-3.1-7.8
		c-0.5-1.6-1.4-3.6-1.5-5.4c0.2,0.7,0.4,1.4,0.6,2.1c-0.2-0.9-0.4-1.7-0.6-2.5c0,0,0,0,0,0c0,0,0,0,0,0c0,0,0-0.1,0-0.1c0,0,0,0,0,0
		c0,0,0,0,0,0c0,0,0-0.1,0-0.1c0-0.9-0.3-1.9-0.5-2.9c-0.5-3.7-0.5-7.4-0.1-11.1c0.2-1.8,0.6-3.5,1.1-5.3c0.4-1.5,0.9-3.1,1.5-4.5
		c-0.3,0.7-0.5,1.4-0.8,2.1c0.6-1.7,1.4-3.4,2.3-5c0.5-0.7,1-1.5,1.2-2c0.4-0.7,0.9-1.3,1.3-2c0.1-0.1,0.1-0.2,0.2-0.3
		c0,0,0-0.1,0.1-0.1c0.5-0.5,0.9-1,1.3-1.6c0,0,0.1-0.1,0.1-0.1c0.1-0.1,0.1-0.1,0.1-0.2c0,0,0,0-0.1,0c0.2-0.3,0-0.7-0.6-1.2
		c0.2,0.1,0.4,0.3,0.6,0.4c0.1,0,0.1,0.1,0.2,0.2c0-0.1,0-0.1-0.1-0.1c0,0-0.2-0.2-0.4-0.3c-0.1,0-0.2-0.1-0.2-0.2
		c0,0-0.1-0.1-0.2-0.1c-0.1,0-0.1-0.1-0.2-0.2c0,0-0.1-0.1-0.1-0.1c0,0-0.1,0-0.1-0.1c-0.8-0.7-1.8-1.3-2.6-2
		c-0.1,0-0.1-0.1-0.2-0.1c-7.9-6.2-16.1-12.2-24.7-17.4c-0.2-0.2-0.5-0.3-0.8-0.5c-0.2-0.2-0.5-0.3-0.7-0.5c0,0,0,0,0,0
		c-1.2-0.7-2.2-1.5-3.4-2.1c0,0-0.1,0-0.1-0.1c-0.3-0.2-0.6-0.4-0.8-0.5l0,0c-1.3-1.2-3.3-2-4.8-2.8c-0.1,0-0.2-0.1-0.3-0.1
		c-0.2-0.1-0.3-0.2-0.5-0.3c-2.9-1.7-5.9-3.4-8.8-5c0,0,0,0-0.1,0c-0.1-0.1-0.2-0.1-0.3-0.2c-1.5-0.8-3.1-1.6-4.6-2.4
		c-0.8-0.4-1.6-0.8-2.5-1.3c-0.2-0.1-0.4-0.2-0.6-0.3c-0.2-0.1-0.4-0.2-0.6-0.3c-0.1-0.1-0.3-0.1-0.4-0.2c-0.7-0.3-1.4-0.7-2.1-1
		c-0.3-0.2-0.7-0.3-1-0.5c-0.1,0-0.2-0.1-0.3-0.2c-0.3-0.1-0.6-0.3-0.9-0.4c0,0-0.1,0-0.1,0c-0.3-0.1-0.5-0.2-0.8-0.4
		c-1.3-0.6-2.7-1.2-4-1.9c-6.1-2.8-12.3-5.4-18.7-7.7c0.4,0.2,0.9,0.3,1.3,0.5c-2.4-0.9-4.7-1.8-7.2-2.6c-1.1-0.4-2.3-0.8-3.4-1.2
		c0.6,0.2,1.2,0.4,1.8,0.6c-0.6-0.2-1.2-0.4-1.8-0.6c-0.9-0.3-1.8-0.6-2.7-0.9c0.6,0.2,1.2,0.4,1.9,0.6c-6-2-12.1-3.8-18.3-5.4
		c-3.6-0.9-7.2-1.7-10.9-2.5c-3.6-0.8-7.4-1.2-11.1-2.1c0,0,0,0,0,0c0,0,0,0,0,0c-1.8-0.3-3.5-0.5-5.3-0.8c0,0-0.1,0-0.2,0
		c-0.6-0.1-1.2-0.2-1.9-0.3c-0.2,0-0.3,0-0.5-0.1c-0.2,0-0.3,0-0.5,0c-0.2,0-0.4,0-0.6-0.1c-4.1-0.5-8.2-0.9-12.3-1.2
		c0.6,0,1.2,0.1,1.8,0.1c-0.5,0-1-0.1-1.5-0.1c-1.4-0.1-2.8-0.3-4.2-0.3c0,0-0.2,0-0.3,0c-0.6,0-1.2-0.1-1.8-0.1
		c-0.6,0-1.2-0.1-1.8-0.1c-0.2,0-0.3,0-0.5,0c-0.2,0-0.5,0-0.7,0c-0.8-0.1-1.5-0.1-2.3-0.1c-0.1,0-0.3,0-0.4,0
		c-1.2-0.1-2.4-0.1-3.5-0.1c-0.1,0-0.1,0-0.2,0h0c-0.9,0-1.8,0-2.6,0c-0.4,0-0.7,0-1.1,0c0.4,0,0.7,0,1.1,0c-0.6,0-1.2,0-1.8,0
		c0,0,0,0,0,0c0,0,0,0,0,0c0,0,0,0,0,0h-2.3h-0.8c-0.7,0-1.4,0-2.1,0c-0.7,0-1.4,0-2.1,0h-0.2c-0.3,0-0.5,0-0.8,0
		c-0.4,0-0.7,0-1.1,0c-0.3,0-0.7,0-1.1,0h-0.3c-1.4,0-2.8,0.1-4.2,0.1c-0.4,0-0.8,0-1.2,0c-0.3,0-0.6,0-0.8,0c-0.3,0-0.5,0-0.7,0
		c-0.1,0-0.2,0-0.2,0c-0.4,0-0.7,0-1.1,0c-0.5,0-0.9,0.1-1.4,0.1c-0.4,0-0.9,0.1-1.3,0.1c-0.4,0-0.7,0-1.1,0.1c-0.1,0-0.3,0-0.4,0
		c-0.2,0-0.4,0-0.6,0c-0.4,0-0.9,0.1-1.3,0.1c-1.4,0.1-2.8,0.2-4.2,0.3c-0.5,0-1.1,0.1-1.6,0.2c-0.3,0-0.7,0-1,0.1
		c-0.4,0-0.9,0.1-1.3,0.1c-0.6,0-1.3,0.1-1.9,0.2h-0.1c-0.1,0-0.2,0-0.3,0c0,0,0,0,0,0c-0.9,0.1-1.7,0.2-2.5,0.3
		c0.7-0.1,1.4-0.1,2.1-0.2c-11.3,1.6-22.5,3-33.7,5.3c9.5-2,19.1-3.5,28.8-4.7c-1.9,0.2-3.8,0.4-5.6,0.7c-2.4,0-4.9,0.6-7.2,1
		c-0.8,0.1-1.5,0.2-2.3,0.4c0.2,0,0.3-0.1,0.5-0.1c-0.2,0-0.3,0.1-0.5,0.1c-0.2,0-0.4,0.1-0.6,0.1c-1.2,0.2-2.4,0.4-3.7,0.6
		c-0.6,0.1-1.2,0.2-1.8,0.3c-1.6,0.3-3.2,0.6-4.9,0.9c-0.1,0-0.2,0-0.3,0.1c-0.1,0-0.1,0-0.2,0c-0.7,0.1-1.4,0.3-2.1,0.4
		c-0.2,0-0.4,0.1-0.6,0.1c-1,0.2-2.1,0.4-3.1,0.6c-0.4,0.1-0.8,0.2-1.2,0.3c-0.7,0.1-1.3,0.3-2,0.5c-0.1,0-0.2,0-0.3,0.1
		c-0.5,0.1-1,0.2-1.5,0.3c-0.9,0.2-1.7,0.4-2.6,0.6c-2.6,0.6-5.1,1.2-7.7,1.9c-0.6,0.2-1.3,0.3-1.9,0.5c-1.4,0.4-2.8,0.8-4.3,1.2
		c-5.5,1.5-10.9,3.2-16.1,5.2c-0.3,0.1-0.6,0.2-0.9,0.3c0,0-0.1,0-0.1,0.1c0,0-0.1,0-0.1,0s0,0,0,0c0,0,0,0-0.1,0c0,0,0,0-0.1,0
		c-3.7,1.2-7.4,2.6-11.1,4c-0.5,0.2-1,0.4-1.5,0.6c-10.9,4.2-21.5,9.1-31.9,14.6c-0.2,0.1-0.5,0.2-0.7,0.3c-1.7,0.9-3.4,1.8-5,2.7
		c-1.1,0.6-2.3,1.2-3.4,1.9c-0.5,0.3-1,0.5-1.5,0.8c-1,0.5-2,1.1-3,1.7c-0.3,0.2-0.7,0.4-1,0.6c-1.1,0.6-2.1,1.2-3.1,1.8
		c-0.2,0.1-0.4,0.2-0.6,0.3c-0.4,0.2-0.8,0.5-1.2,0.7c-0.1,0.1-0.2,0.1-0.3,0.2c-0.1,0-0.1,0.1-0.2,0.1c-0.1,0.1-0.3,0.2-0.4,0.3
		c-0.8,0.5-1.7,1-2.5,1.5c0,0-0.1,0.1-0.1,0.1c-0.6,0.3-1.1,0.7-1.7,1c-0.3,0.2-0.6,0.4-0.9,0.6c0,0,0,0,0,0
		c-0.1,0.1-0.2,0.1-0.3,0.2c0,0-0.1,0-0.1,0.1c-0.8,0.5-1.6,1-2.4,1.5c-1.6,1-3.2,2-4.7,3c-1.2,0.6-2.3,1.5-3.4,2.2
		c-2.2,1.4-4.4,2.9-6.5,4.3c-0.1,0.1-0.3,0.2-0.4,0.3c-0.1,0-0.1,0.1-0.2,0.1c-0.3,0.2-0.5,0.3-0.7,0.5c-0.1,0.1-0.3,0.2-0.4,0.3
		c-0.3,0.2-0.5,0.4-0.8,0.5c0,0-0.1,0.1-0.1,0.1c-0.1,0.1-0.3,0.2-0.4,0.3c-1.7,1.2-3.5,2.4-5.2,3.6c-0.1,0-0.1,0.1-0.2,0.1
		c-0.2,0.1-0.3,0.2-0.5,0.3c-0.8,0.6-1.7,1.2-2.5,1.8c-0.1,0-0.1,0.1-0.2,0.1c-0.7,0.5-1.3,1-2,1.4c-0.9,0.6-1.8,1.3-2.6,1.9
		c-0.1,0.1-0.3,0.2-0.4,0.3c-0.1,0.1-0.2,0.2-0.3,0.2c-0.2,0.1-0.4,0.3-0.5,0.4c-1.7,1.2-3.4,2.5-5.1,3.8c-4,3.1-8,6.2-11.8,9.5
		c-2.6,1.9-5.1,4-7.6,6.1c-0.2,0.1-0.3,0.3-0.5,0.4c-0.1,0.1-0.2,0.2-0.3,0.3c0,0-0.1,0-0.1,0.1c-0.7,0.5-1.3,1.1-2,1.6
		c0,0,0,0,0,0.1c-0.8,0.6-1.6,1.3-2.4,2c-0.6,0.6-1.3,1.1-1.9,1.7c0.5-0.4,1-0.9,1.5-1.3c1-0.9,2.1-1.8,3.1-2.7
		c0.3-0.3,0.6-0.5,0.9-0.7c-8,6.8-15.5,14.1-23.5,20.9c-10.7,9.1-20.8,19.4-30.7,29.3c-0.8,0.8-1.7,1.6-2.5,2.5
		c-1.8,1.7-3.5,3.5-5.3,5.2c-0.7,0.7-1.3,1.3-2,2c0,0,0,0,0,0c-4.5,4.6-9.1,9.2-13.8,13.7c-0.3,0.4-0.7,0.7-1.1,1
		c-10.8,10.6-21.8,21.2-32.6,31.9c-5.2,4.6-10.1,9.4-15.3,14c-0.8,0.7-1.6,1.4-2.4,2.1c0,0,0.1-0.1,0.2-0.1
		c-1.4,1.2-2.9,2.5-4.3,3.7c-1.7,1.4-3.4,2.8-5.1,4.2c-1.5,1.2-3,2.4-4.6,3.6c-1.2,0.9-2.4,1.9-3.6,2.8c0,0,0,0,0,0
		c-0.4,0.3-0.9,0.7-1.3,1c-0.8,0.6-1.6,1.2-2.4,1.8c-3.5,2.5-7.1,5-10.7,7.4c-1,0.6-2.9,1.4-3.7,2.3c-0.1,0.1-0.3,0.2-0.4,0.3
		c-0.2,0.1-0.4,0.3-0.6,0.4c-0.7,0.4-1.3,0.8-2,1.2c-0.9,0.5-1.8,1-2.7,1.5c-0.1,0.1-0.2,0.1-0.3,0.2c0,0,0,0-0.1,0c0,0,0,0-0.1,0
		c-0.3,0.2-0.5,0.3-0.8,0.4c-0.6,0.3-1.2,0.6-1.8,0.9c-0.2,0.1-0.4,0.2-0.6,0.3c0,0,0,0,0,0c-0.3,0.2-0.6,0.3-0.9,0.5
		c-0.6,0.3-1.3,0.6-1.9,0.9c0,0-0.1,0.1-0.2,0.1c0,0-0.1,0-0.1,0c0,0-0.1,0-0.1,0c-1,0.5-2,0.9-2.9,1.4c-0.4,0.1-0.8,0.4-1.2,0.5
		c-1.8,0.8-3.7,1.6-5.5,2.3c-3.1,1-1.1,0.4,0.3-0.1c-0.2,0.1-0.4,0.1-0.5,0.2c0,0,0,0,0,0c0,0-0.5,0.2-0.6,0.2
		c-0.3,0.1-0.7,0.3-1,0.4c-0.1,0-0.1,0.1-0.2,0.1c0,0-0.1,0-0.1,0.1c0,0-0.1,0-0.1,0c-0.3,0.1-0.5,0.2-0.8,0.3
		c-0.1,0-0.2,0.1-0.3,0.1c-0.2,0.1-0.5,0.1-0.7,0.2c-0.3,0.1-0.6,0.2-0.8,0.3c-0.5,0.2-0.9,0.3-1.4,0.4c-0.3,0.1-0.5,0.2-0.8,0.2
		c-1.1,0.3-2.3,0.7-3.4,1c-4.1,1.1-8.3,1.9-12.5,2.3c-5.1,0.6-11,1.1-16.1,0c0.1,0,0.2,0,0.3,0c-0.2,0-0.4-0.1-0.6-0.1
		c-0.1,0-0.3,0-0.4-0.1c-2.2-0.5-4.4-1.1-6.6-1.6c-1.8-0.6-3.5-1.2-5.3-1.9c-4-1.7-7.7-3.9-11.1-6.6c3.2,2.4,6.7,4.5,10.3,6.2
		c-8.4-4-15.5-9.9-21.2-17.4c-0.5-0.6-0.9-1.2-1.3-1.8c-0.7,2,0.1,3.2,1.1,5c1.1,1.9,2.1,3.8,3.3,5.7c2.3,3.7,4.8,7.4,7.6,10.8
		c-0.2-0.2-0.4-0.4-0.6-0.7c1.6,2.1,3.4,4.2,5.2,6.2c-0.4-0.4-0.8-0.9-1.1-1.4c2.6,3,5.3,5.8,8.1,8.5c1.8,1.6,3.6,3.2,5.5,4.7
		c0.8,0.6,1.5,1.2,2.3,1.8c1.5,1.1,3.1,2.2,4.6,3.3c0.9,0.7,1.9,1.3,2.8,1.8c-0.2-0.1-0.3-0.2-0.5-0.3c1.1,0.7,2.2,1.3,3.3,2
		c7.9,4.4,16.4,7.7,25.2,9.6c1.8,0.4,3.7,0.8,5.6,1c5.2,0.8,10.5,1.1,15.8,1h0.3c1.2,0,2.4-0.1,3.6-0.2c5.1-0.3,10.3-1,15.2-2.2
		c-0.4,0.1-0.7,0.2-1.1,0.2c4.8-1.1,9.5-2.4,14.1-4.2c0.6-0.3,1.3-0.5,1.9-0.8c-0.3,0.2-0.7,0.3-1.1,0.5c0.8-0.3,1.5-0.6,2.2-0.9
		c0.9-0.4,1.8-0.8,2.7-1.2c0.2-0.1,0.4-0.2,0.7-0.3c0.1,0,0.3-0.1,0.4-0.2c0.7-0.3,1.3-0.6,2-1c0,0,0.1,0,0.2-0.1
		c2.6-1.3,5-2.7,7.4-4.2c-1.5,0.9-3,1.8-4.5,2.7c8.4-4.8,16-10.9,22.8-17.9c-2.7,2.8-5.5,5.5-8.5,8c4.7-3.9,9-8.2,12.9-12.9
		c0.1-0.1,0.2-0.2,0.3-0.3c0.6-0.7,1.2-1.4,1.8-2.1c0.3-0.4,0.6-0.8,0.9-1.2c0.1-0.1,0.1-0.1,0.2-0.2c0.1-0.1,0.2-0.3,0.3-0.4
		c0.2-0.3,0.4-0.6,0.7-0.8c0.2-0.2,0.3-0.4,0.5-0.6c0.2-0.2,0.3-0.4,0.5-0.6c15.2-19.5,25.7-42.1,37.4-63.9c0.1-0.3,0.3-0.5,0.4-0.7
		c0.1-0.2,0.2-0.4,0.4-0.6c9.4-17,19.3-34.1,32.9-48.1c-1.7,1.7-3.3,3.4-4.9,5.2c5.7-6.6,12-12.7,19.2-17.7
		c3.6-2.6,7.4-4.8,11.3-6.7c0.9-0.5,1.8-0.9,2.8-1.3c0.1,0,0.2-0.1,0.3-0.1c0.9-0.4,1.7-0.7,2.6-1.1c0.6-0.2,1.1-0.5,1.7-0.6
		c0.7-0.3,1.4-0.5,2.1-0.7c16.2-5.5,33.7-5.8,50.8-3.6c-5.5-0.8-11.1-1.2-16.7-1.4c15.4,0.2,31.2,2.9,45.7,8.2
		c0.6,0.2,1.3,0.5,2,0.7c0,0,0.1,0,0.1,0c0.6,0.3,1.3,0.5,1.9,0.8c0.2,0.1,0.4,0.1,0.6,0.2c12.7,5.3,25.1,13.1,34.1,23.5
		c-2.7-3-5.6-5.8-8.8-8.4c3.1,2.6,6,5.4,8.7,8.5c2.6,3.1,4.7,6.5,7,9.8c-0.4-0.7-0.8-1.5-1.2-2.2c0.2,0.3,0.3,0.6,0.5,0.8
		c0.5,0.8,1.2,1.7,1.6,2.6c-0.2-0.4-0.5-0.8-0.7-1.1c0.4,0.7,0.7,1.4,1.1,2.1c-7.9,6.5-16.9,11.5-26.3,15.9c-4.4,2.1-8.9,4-13.4,5.7
		c-18.6,7.4-37.7,13.3-56.3,20.6c-34.7,13.5-67.7,31.2-94.1,57.8c-6.6,6.7-12.9,13.7-18.5,21.2c-6.9,9.1-12.7,18.8-18.3,28.9
		c-10.1,18.1-16.4,39.1-20.3,59.4c-2.1,11-3.5,22.2-4.3,33.5c-0.3,4-0.5,8-0.6,12c0,0.5,0,1,0,1.5c0,0.2,0,0.4,0,0.6
		c0,1.2,0,2.3,0,3.4c0,5.1,0,10.2,0.2,15.3c0.4,10.3,1.6,20.4,2.6,30.6c0-0.2-0.1-0.5-0.1-0.7c0.1,0.6,0.1,1.2,0.2,1.8
		c0,0,0,0.1,0,0.1c0,0,0,0.1,0,0.1c0,0.2,0.1,0.4,0.1,0.7c0,0,0,0.1,0,0.4c0.2,1.6,0.4,3.2,0.7,4.8c0,0.2,0,0.4,0.1,0.6
		c0,0.2,0.1,0.4,0.1,0.7c0,0.1,0,0.3,0,0.4c0,0.2,0,0.3,0.1,0.5c2,13.2,4.6,26.3,7.9,39.2c0.5,1.9,1,3.7,1.5,5.6
		c1.6,6,3.3,11.9,5.2,17.8c1,3.2,2.1,6.5,3.2,9.7c0.6,1.6,1.2,3.3,1.7,4.9c0.4,1.3,0.6,2.9,1.6,3.9c0.1-0.5,0.3-1,0.5-1.5
		c0,0.1,0,0.2,0-0.1c7.3-23.2,25.9-43.6,47.6-54.7c6.2-3.2,12.7-5.6,19.5-7.5c0.1,0,0.1,0,0.2,0c0,0,0.1,0,0.1,0
		c11.9-3.1,24.3-4.6,36.6-3.8c0,0,0,0,0,0c0,0,0,0,0,0s0,0,0,0c0,0-0.1,0-0.1,0c0,0,0,0,0.1,0c0,0,0,0,0,0c0,0,0,0,0,0
		c-0.3,0.1-0.6,0.2-0.9,0.3c0.2,0,0.4-0.1,0.6-0.2c-0.3,0.1-0.6,0.2-0.9,0.3c0,0,0,0,0,0c0,0,0,0,0,0c-0.7,0.1-1.4,0.2-1.9,0.4
		c-1.1,0.4-2.2,0.9-3.4,1.3c-2.6,0.9-5.2,1.9-7.7,3c-4.7,2-9.3,4.3-13.7,6.8c-4.6,2.7-9.1,5.6-13.3,8.8c-2.2,1.7-4.4,3.5-6.5,5.3
		c-1.3,1.1-2.5,2.6-3.8,3.6c-6,6.8-12.3,13.2-16.6,21.3c-5.9,10.3-9.9,21.6-12,33.3c-2.3,13.3-2.9,28.3,2.3,41.1
		c1.2,3.1,2.8,6.1,4.7,8.8c1,1.4,2.1,2.7,3.2,3.9c0.4,0.5,2.9,2.4,2.9,2.7c0,0.2,0.6,0.7,1.3,1.1c0.6,0.4,1.4,0.8,1.5,0.9
		c1.2,0.8,2.4,1.4,3.6,2c2.5,1.2,5.1,2,7.8,2.5c5.3,1.1,10.6,0.9,16,0.5c0.7-0.1,1.4-0.2,2-0.3c-0.1,0-0.3,0.1-0.4,0.1
		c1.7-0.2,3.3-0.5,4.9-0.7c0.2,0,0.4-0.1,0.6-0.1c-0.5,0.1-1,0.2-1.5,0.2c1.9-0.3,3.7-0.7,5.6-1.1c0.3,0,0.5-0.1,0.8-0.2
		c-0.1,0-0.2,0-0.3,0c0.9-0.2,1.9-0.4,2.8-0.7c16.5-4,32.1-10.7,48.7-14.4c0.1,0,0.1,0,0.2,0c0.1,0,0.1,0,0.2,0
		c13.6-3,27.5-4.2,41.4-4.2c13.7,0.2,27.3,1.5,40.8,3.7c0,0,0.1,0,0.1,0c5.1,0.8,10.2,1.8,15.3,2.8c26.8,5.5,52.7,14.4,77.8,25.3
		c10.8,4.7,22.4,9.9,32.6,16.2c1.8,0,4,0.7,5.8,1.1c2.5,0.5,5.1,1.1,7.6,1.6c2.2,0.5,4.4,1,6.7,1.5c1.1,0.2,0.9,0.2,1.5-0.5
		c-0.1,0.3-0.2,0.5-0.3,0.7c0,0,0,0,0,0c-0.1,0.3-0.3,0.5-0.4,0.8c-0.4,0.7-0.8,1.4-1.1,2.1c0.2-0.4,0.4-0.8,0.6-1.3
		c-0.2,0.3-0.3,0.6-0.5,0.9c0.4-0.7,0.7-1.4,1.1-2.1c-1.5,3.3-3.4,6.6-4.9,9.9c-1.9,4.2-3.8,8.5-5.4,12.9c-0.8,2.2-1.6,4.4-2.4,6.6
		c0.2-0.5,0.3-0.9,0.5-1.4c-0.3,0.9-0.7,1.9-1,2.8c-1.5,4-2.7,8.1-3.9,12.2c0-0.2,0.1-0.3,0.1-0.5c-0.2,0.5-0.3,1-0.4,1.5
		c-0.3,0.9-0.6,1.9-0.8,2.8c-0.1,0.2-0.1,0.4-0.2,0.6c-0.3,1-0.6,2-0.8,3.1c0,0.2-0.1,0.4-0.2,0.6c-0.1,0.4-0.2,0.7-0.3,1.1
		c-0.1,0.3-0.1,0.6-0.2,0.9c0,0.1-0.1,0.3-0.1,0.4c-0.5,1.8-0.9,3.5-1.4,5.3c0.3-1.3,0.6-2.6,1-3.9c-0.9,3.5-1.8,6.9-2.5,10.4
		c-0.2,0.7-0.3,1.5-0.5,2.2c-0.2,0.6-0.3,1.1-0.4,1.7c0,0.1,0,0.2,0,0.2c-0.1,0.6-0.3,1.1-0.4,1.7c0.1-0.5,0.2-0.9,0.3-1.4
		c-0.1,0.3-0.1,0.7-0.2,1c-0.4,2.1-0.9,4.1-1.2,6.2c-0.3,1.4-0.5,2.8-0.8,4.2c0,0.2-0.1,0.3-0.1,0.5c0,0.2-0.1,0.4-0.1,0.6
		c-0.3,1.7-0.6,3.3-0.8,5c-0.3,1.7-0.5,3.3-0.8,5c-0.3,1.8-0.6,3.6-0.8,5.5c0,0.2-0.1,0.5-0.1,0.7c0,0.1,0,0.1,0,0.2
		c0,0.2-0.1,0.4-0.1,0.6c0,0.1,0,0.3,0,0.4c-0.3,1.9-0.5,3.7-0.7,5.6c0,0.3-0.1,0.6-0.1,0.9c-0.1,0.8-0.2,1.6-0.2,2.4
		c-0.1,1.1-0.2,2.2-0.3,3.4c-1.2,13.9-1.5,27.8-0.3,41.7c0.2,2,0.4,4,0.6,6.1c-0.1-0.8-0.2-1.6-0.3-2.5c0.2,2.2,0.4,4.3,0.7,6.5
		c-0.1-0.5-0.2-0.9-0.2-1.4c0.1,0.7,0.2,1.3,0.3,2c0.6,4,1.2,8,2.1,12c-0.3-1.7-0.6-3.3-0.8-5c0.1,0.5,0.2,0.9,0.3,1.4
		c0,0.3,0.1,0.5,0.2,0.8c0.1,0.7,0.3,1.4,0.4,2.1c0.1,0.6,0.2,1.1,0.3,1.7c0,0,0,0,0,0c0.3,1.5,0.7,3,1,4.5c0,0.1,0.1,0.3,0.1,0.4
		c2.7,11.9,6.3,23.6,10.7,34.9c2.8,7.1,5.8,14.2,9.2,21.1c0.6,1.4,1.3,2.7,2,4c0,0.1,0.1,0.1,0.1,0.2c0,0,0,0.1,0.1,0.2l0.9,1.8
		c0.1,0.3,0.2,0.5,0.3,0.7c0.3,0.6,0.6,1.3,1,1.9c-0.1-0.3-0.3-0.5-0.4-0.8c0.3,0.7,0.7,1.4,1,2c0.1,0.2,0.2,0.4,0.3,0.7
		c0,0.1,0.1,0.1,0.1,0.2c0.6,1.2,1.2,2.3,1.8,3.4c0,0.1,0,0.1,0.1,0.2c0,0.1,0.1,0.1,0.1,0.2c7.3,13.6,15.3,26.9,24.8,39.1
		c0.9,1.2,1.7,2.3,2.6,3.4c-0.1-0.1-0.1-0.2-0.2-0.3c-1-2-2.1-4-3.3-5.9c-0.1-0.1-0.1-0.2-0.2-0.3c-3.4-6.3-6.7-12.6-9.8-19
		c-3.5-7.5-6.7-15-9.6-22.7c-0.1-0.1-0.1-0.3-0.2-0.4c-1.1-3-2.2-6.1-3.2-9.1c-1-2.9-2-5.9-2.8-8.9c-0.4-1.4-0.9-2.8-1.2-4.2
		c-2.2-7.6-4.1-15.2-5.6-23c-0.1-0.3-0.1-0.7-0.2-1c-0.1-0.4-0.2-0.8-0.2-1.2c-0.1-0.8-0.3-1.5-0.4-2.3c-0.2-1-0.3-1.9-0.5-2.9
		c0,0,0-0.1,0-0.1c-0.3-2.1-0.7-4.2-1-6.3c-0.2-1.1-0.3-2.2-0.4-3.2c0,0,0,0,0,0c-0.2-1.7-0.4-3.4-0.6-5.1c-0.1-0.6-0.1-1.2-0.2-1.8
		c0-0.2,0-0.4-0.1-0.6c-0.1-0.8-0.1-1.7-0.2-2.5c-0.2-2.4-0.4-4.7-0.5-7.1v0c-0.3-5.1-0.4-10.2-0.3-15.3c0-1,0-2.1,0.1-3.2
		c0-0.4,0-0.9,0-1.3c0-0.8,0.1-1.5,0.1-2.3c0-0.1,0-0.3,0-0.4c0-1.2,0.1-2.3,0.2-3.4c0.1-1.2,0.2-2.3,0.3-3.4
		c1.3-15.7,4.3-31.2,8.6-46.3c-0.1,0.3-0.2,0.5-0.3,0.8c0.6-2.1,1.2-4.3,1.9-6.4c-0.2,0.5-0.3,1-0.4,1.6c3.5-11.6,7.8-23,12.4-34.2
		c-0.8,1.8-1.5,3.7-2.3,5.5c1.3-3.3,2.7-6.7,4.1-10c0.1-0.3,0.2-0.5,0.3-0.7c0.4-1,0.9-2,1.3-3c-1,2.4-2.1,4.8-3.1,7.3
		c4.5-10.5,9.3-20.8,14-31.2c0.3-0.6,0.6-1.3,0.9-2c1.8-4,3.6-7.9,5.4-11.9c0,0,0,0,0,0c0.1-0.1,0.1-0.2,0.2-0.3
		c12.8,3.2,25.5,6.5,38.3,9.4c-5.8-1.4-11.5-2.8-17.2-4.3c7.7,1.9,15.3,3.7,23,5.6c10.3,2.6,20.9,4.8,31.5,6.4c0.1,0,0.1,0,0.2,0
		c0.7,0.1,1.5,0.2,2.2,0.3c0.9,0.1,1.8,0.3,2.6,0.4c0.1,0,0.3,0.1,0.4,0.1c0.7,0.1,1.5,0.2,2.2,0.3c18.9,2.7,37.9,2.8,56.9,0.9
		c3,0,6.3-0.7,9.3-1.1c3-0.4,6.2-0.6,9.1-1.3c2.2-0.4,4.4-0.7,6.6-1.2c0.1,0,0.1,0,0.2,0c0.9-0.1,2.6-0.2,3.3-0.6
		c5.7-1.1,11.4-2.4,17.1-3.9c4.5-1.2,8.9-2.5,13.3-4c2.2-0.7,4.4-1.5,6.5-2.4c0.3-0.1,0.7-0.3,1.1-0.5c0,0,0,0,0.1,0
		c0,0,0.1,0,0.1,0c1.2-0.4,2.3-0.9,3.5-1.4h-0.1c0.1,0,0.1,0,0.2-0.1v0c0.1,0,0.2-0.1,0.3-0.1c0,0,0,0,0,0l0,0
		c-0.1,0-0.2,0.1-0.2,0.2c0,0,0,0.1,0,0.2v0.1c0,1.1,0.9,2.2,1.4,3.2c0,0.1,0.1,0.2,0.1,0.2c0.1,0.1,0.1,0.3,0.2,0.4
		c0.3,0.7,0.6,1.5,0.9,2.3c0.2,0.5,0.3,0.9,0.5,1.4c0.1,0.4,0.3,0.8,0.4,1.2c0,0,0,0.1,0,0.2c0.1,0.2,0.1,0.3,0.2,0.5
		c0.1,0.2,0.1,0.3,0.2,0.5c0.1,0.3,0.2,0.5,0.3,0.8c0,0.1,0,0.2,0.1,0.2c0.1,0.3,0.3,0.7,0.3,1c0.2,0.6,0.4,1.2,0.6,1.8
		c0.3,0.9,0.6,1.8,0.8,2.7c0.2,0.5,0.3,1,0.4,1.5c0.1,0.3,0.2,0.6,0.3,0.9c0,0,0,0,0,0.1l0,0c0,0.1,0,0.2,0,0.2c0,0,0,0,0,0.1v0l0,0
		c0.2,0.7,0.4,1.4,0.6,2.1c0.2,0.9,0.5,1.8,0.7,2.7c0,0.2,0.1,0.4,0.2,0.6c0.1,0.6,0.3,1.1,0.4,1.7c0,0,0,0.1,0,0.1
		c0,0.1,0,0.2,0.1,0.3c0,0.2,0.1,0.4,0.1,0.6c0.9,4.1,1.6,8.2,2.3,12.4c0.1,0.6,0.2,1.1,0.3,1.7c0,0,0,0,0,0.1c0,0.1,0,0.2,0,0.2
		c0,0.2,0,0.3,0.1,0.5c0.2,1.2,0.4,2.4,0.5,3.7c-0.1-0.7-0.2-1.5-0.3-2.2c0.1,0.7,0.2,1.4,0.3,2c0.1,0.7,0.2,1.5,0.3,2.2
		c0,0,0,0.1,0,0.1c0,0,0,0,0,0c0.1,0.6,0.1,1.1,0.2,1.6c0,0.1,0,0.1,0,0.2c0,0,0.1,1,0.1,1.1v0c0,0.1,0,0.1,0,0.2c0,0.2,0,0.3,0,0.5
		c0,0.2,0,0.5,0.1,0.7c0.1,0.7,0.2,1.5,0.2,2.2c1.2,11.2,1.2,22.7,0.6,33.9c0,0.6-0.1,1.3-0.1,1.9v0.1c0,0.5-0.1,1-0.1,1.5
		c0,0,0,0,0,0.1c-0.1,1.9-0.3,3.8-0.4,5.7c0,0.3,0,0.6-0.1,0.9c0,0.3,0,0.6-0.1,0.8c0,0.3-0.1,0.7-0.1,1.1v0.1c0,0.2,0,0.3,0,0.5
		v0.1c0,0.6-0.1,1.2-0.2,1.8c0,0.5-0.1,0.9-0.2,1.4c-0.5,4.7-1.2,9.5-2,14.2c-0.1,0.4-0.1,0.7-0.2,1.1c-0.4,2.3-0.8,4.5-1.3,6.8
		c0,0,0-0.1,0-0.1c0,0,0,0.1,0,0.1c0,0.3-0.1,0.6-0.2,0.9c-1.4,6.8-3,13.5-4.8,20.2c-0.7,2.1-1.2,4.2-1.8,6.3
		c-0.3,1.2-0.7,2.3-1,3.5c0.4-1.1,0.7-2.3,1-3.5c-0.1,0.2-0.1,0.5-0.2,0.7c0.5-1.6,0.9-3.1,1.4-4.7c0.1-0.2,0.1-0.4,0.2-0.6
		c0.2-0.8,0.5-1.6,0.7-2.5c0-0.1,0.1-0.3,0.1-0.4c0.9-3.2,1.7-6.3,2.4-9.5c-2.9,12.5-6.5,24.9-11.1,36.8c0.1-0.3,0.2-0.6,0.3-0.9
		c-0.6,1.6-1.2,3.2-1.8,4.9c-1.3,3.5-2.7,7-4.2,10.5c0,0.1-0.1,0.2-0.1,0.2c-1.7,3.9-3.4,7.8-5.2,11.7c-0.3,0.7-0.6,1.4-1,2.1
		c0,0,0,0,0,0c-1.5,3.1-2.9,6.2-4.5,9.2c-3.3,6.5-6.8,12.9-10.4,19.2c-1.6,2.8-3.3,5.7-5,8.5c-0.8,1.4-1.7,2.8-2.5,4.1
		c-0.4,0.6-1.8,2.4-2.3,3.5c-0.1,0.1-0.1,0.2-0.1,0.3c0,0.1-0.1,0.1-0.1,0.2c0,0,0,0,0,0c0,0,0,0.1,0,0.1c0.1-0.2,0.3-0.4,0.4-0.6
		c0,0,0,0,0,0c0.1-0.1,0.2-0.1,0.2-0.2c0,0,0,0,0,0c0.7-0.8,1.8-1.8,2.4-2.5c-0.9,1.1-1.9,2.2-2.9,3.3c2.9-3,5.5-6.2,8-9.5
		c0.5-0.7,1-1.3,1.5-2c0.2-0.2,0.3-0.4,0.5-0.7c0.2-0.3,0.4-0.5,0.6-0.8c2.8-3.8,5.6-7.6,8.3-11.5c1-1.5,2.1-3,3-4.5
		c-0.3,0.4-0.5,0.7-0.7,1.1c0.3-0.4,0.5-0.8,0.8-1.1c0.1-0.1,0.1-0.3,0.2-0.4c0,0,0-0.1,0.1-0.2c4.2-6.4,8.2-13,12-19.7
		c0.3-0.5,0.6-1,0.9-1.6l1-1.7c0.1-0.3,0.3-0.5,0.4-0.8c0.1-0.1,0.1-0.2,0.2-0.3c5.1-9.4,9.7-19,13.9-28.9c0.9-2.2,1.8-4.4,2.7-6.6
		c-0.3,0.8-0.6,1.6-0.9,2.3c-0.4,1-0.8,2-1.3,3.1c1.5-3.4,2.8-6.8,4.1-10.3c-0.6,1.5-1.2,3.1-1.8,4.6c0.9-2.2,1.7-4.4,2.6-6.6
		c0.1-0.4,0.3-0.8,0.4-1.2c0.1-0.3,0.2-0.4,0.2-0.6c0,0,0-0.1,0-0.1c0-0.1,0-0.2,0.1-0.3c0,0,0,0,0,0c0-0.1,0.1-0.2,0.1-0.3
		c0.6-1.6,1.2-3.1,1.7-4.7c2-5.8,3.8-11.6,5.5-17.5c1.5-5.3,3.2-10.8,4.1-16.2c0,0,0,0,0,0c0,0,0,0,0,0c0.1-0.4,0.2-0.8,0.3-1.2
		c0.2-1,0.5-2.1,0.7-3.1c0-0.2,0.1-0.4,0.1-0.6c0.1-0.4,0.1-0.9,0.2-1.3c1.1-6.4,2.4-12.8,3.2-19.3c0.6-4.4,1-8.8,1.3-13.3
		c0,0.2,0,0.4,0,0.6c0.2-2.7,0.4-5.3,0.5-8c0,0.2,0,0.4-0.1,0.7c0-0.8,0.1-1.5,0.2-2.3c0,0.4,0,0.9-0.1,1.4c0.1-1.8,0.3-3.6,0.3-5.3
		c-0.1,1.2-0.2,2.3-0.3,3.5c0.1-2.1,0.3-4.1,0.3-6.2v1.2c0-0.7,0-1.5,0-2.2c0-0.9,0-1.7,0.1-2.6v-0.5c0-0.7,0-1.5,0-2.3
		c0-0.6,0-1.1,0-1.7v-0.2c0-1.5,0-2.9,0-4.3c0-0.3,0-0.6,0-0.8c0-0.7,0-1.5,0-2.3c0-0.5,0-0.9,0-1.4c0-1-0.1-1.9-0.1-2.9
		c0-0.2,0-0.3,0-0.4v-0.3c-0.1-4.2-0.3-8.5-0.9-12.6c0-0.4-0.1-0.7-0.1-1.1c-0.5-7.6-1.6-15.3-3.1-22.8c0,0.2,0.1,0.5,0.1,0.7
		c-0.9-5-2.3-10-2.9-15c0,0,0,0.1,0.1,0.2c0-0.1,0-0.1,0-0.2h0c0,0-0.1,0-0.1-0.1c0.1,0.1,0.2,0.1,0.3-0.1c0,0,0,0,0,0
		c2.3-1.9,4.5-4.1,6.2-6.5c-0.7,0.9-1.5,1.7-2.2,2.5c-0.4,0.4-0.9,0.9-1.5,1.3c1.5-1.5,3-3.1,4.3-4.8c0,0,0,0,0,0c0,0,0,0,0,0
		c0.2-0.3,0.4-0.6,0.6-0.9c0.2-0.3,0.4-0.6,0.6-0.9c0,0,0-0.1,0.1-0.2c0,0,0,0,0-0.1c0,0,0-0.1,0.1-0.1c0,0,0,0,0,0c0,0,0,0,0-0.1
		c0.1-0.1,0.1-0.1,0.1-0.2c0-0.1,0.1-0.1,0.1-0.2c0-0.1,0.1-0.2,0.1-0.2c0.2-0.3,0.4-0.8,0.6-1.1c1.9-4.2,1.8-8.5,2.1-13
		c0,0.4,0,0.7,0,1.1c0,0.1,0,0.2,0,0.3v0.3c0,0.3,0,0.6,0,0.9c0,0.3,0,0.5,0,0.7c0,0.3,0,0.5,0,0.8c-0.1,1.9-0.3,3.8-0.8,5.6
		c-0.1,0.2-0.1,0.4-0.2,0.7c-0.1,0.5-0.3,1-0.5,1.5c2-4.3,1.6-9.2,1.8-13.8c0,0,0,0,0,0c0.1-0.6,0.1-1.2,0.2-1.8
		c0.1-1.5,0.3-3.1,0.4-4.6c0.1-0.8,0.2-1.5,0.2-2.3c0.1-0.6,0.1-1.1,0.2-1.6c0.2-1.4,0.3-2.8,0.5-4.2c0-0.4,0.1-0.7,0.1-1.1
		c0,0.3-0.1,0.6-0.1,1c0-0.2,0-0.5,0.1-0.7c0-0.2,0-0.4,0-0.6c0.3-2.2,0.6-4.4,0.8-6.6c0.1-0.4,0.1-0.8,0.2-1.2
		c0,0.2-0.1,0.4-0.1,0.6c0.1-0.6,0.1-1.2,0.2-1.7c0,0.3,0,0.5-0.1,0.8c0.1-1.2,0.3-2.4,0.4-3.6c0-0.2,0-0.4,0.1-0.6
		c0-0.1,0-0.1,0-0.2c0.1-0.6,0.2-1.2,0.2-1.8c0,0.3-0.1,0.6-0.1,0.8c0-0.5,0.1-1.1,0.2-1.6c0.1-1,0.2-2,0.3-3c0,0.3,0,0.5,0,0.7
		c0,0,0,0.1,0,0.1c0,0.3-0.1,0.7-0.1,1c0-0.1,0-0.3,0-0.4c0.3-2.7,0.6-5.3,0.8-7.9c0-0.3,0.1-0.7,0.1-1c0-0.6,0.1-1.2,0.1-1.8
		c0-0.4,0-0.8,0-1.2C906.5,704.9,906.4,701.4,906.1,697.8z M713.5,328.7c13.6-9.2,28.5-17.1,44.7-22.3c16.1-5.2,33.9-7,50.7-3.5
		c8.3,1.8,16.3,4.8,23.5,8.7c3.7,1.9,7.1,4,10.5,6.1c3.4,2,6.6,4.3,10,5.2v2.3c-2.3,0.3-4.4-0.2-6.4-0.7c-2-0.5-4-1.1-5.9-1.6
		c-3.8-1.2-7.5-2.3-11.2-3.3c-7.4-1.9-14.8-3.1-22.1-3.4c-14.6-0.3-28.7,3.1-42.1,9c-13.4,5.8-25.9,13.9-38.1,22.7
		c-12.2,8.9-23.9,18.7-35.8,28.6c-11.9,10-23.4,20.5-35.7,31c-3.1,2.6-6.2,5.3-9.6,7.8c-3.4,2.6-6.8,4.8-10.1,7.2
		c-3.3,2.4-6.9,4.5-10.4,6.6l-5.3,3.2l-5.5,2.8c-14.7,7.5-30.3,13.2-46.6,16.3c-8.1,1.5-16.3,2.6-24.6,2.8c-2.1,0.1-4.1,0.1-6.2,0.1
		c-2.1,0-4.1-0.1-6.2-0.2c-1,0-1.9-0.1-2.9-0.2c0.7,2.6,1.4,5.2,2,7.8c1.3,5.9,2.2,11.9,2.5,18c0.1,1.5,0.1,3.1,0.1,4.6
		c0,1.5-0.1,3.2-0.3,4.9c-0.5,3.4-1.6,6.7-3.2,9.7c-3.3,6-8.4,10.2-13.4,13.5c-10.2,6.6-21,10.7-31.2,15.8
		c-10.2,5-20.1,10.9-27.6,19.4l-1.8-1.4c7.1-9.5,17-16.5,27-22.4c10-5.9,20.6-10.9,29.4-17.4c4.3-3.3,8.1-7.1,10-11.4
		c1-2.2,1.6-4.4,1.7-6.8c0.1-2.2-0.1-5.1-0.4-7.8c-0.6-5.4-1.8-10.8-3.3-16.1c-1.5-5.2-3.4-10.6-5.5-15.4l-4.3-9.8l11.1,1.5
		c1.5,0.2,3.4,0.4,5.2,0.5c1.9,0.1,3.7,0.2,5.6,0.1c1.9,0,3.7,0,5.6-0.1c1.9-0.1,3.7-0.2,5.6-0.4c7.5-0.6,14.9-2,22.2-3.8
		c14.5-3.7,28.6-9.5,41.6-17l4.9-2.8l4.7-3.1c3.1-2.1,6.3-4.1,9.2-6.5c2.9-2.3,6-4.6,8.8-7c2.8-2.4,5.5-5,8.3-7.7
		c11-10.8,21.9-22.5,33.5-33.5C687.4,348.5,699.9,337.9,713.5,328.7z M426.4,409.5c-37.8,9.8-34.5,68.8-57.7,90
		c-26.9,24.5-50.4,14.1-70.9,31.4c-31.8,26.9-23.2,79.4-23.2,79.4s-43.9-140,73.9-244c83.3-73.6,175.9-43,175.9-43
		S514,281,544.6,250.5c0,0-10.7-30.1,0-35.1c9.2-4.3,2.6,25.8,53.4,62.6c42.1,30.5,75.7,19.2,74.7,44.8v0c-3.1,2.6-5.8,5-8.1,6.9
		c-15.5,13-38.7,7.3-62.7,21.6c-17.4,10.3-26.4,27.7-61.1,27.7c-58.9,0-61.7-43.6-124.6-23.2c0,0,30.4-4.6,51,18.2
		c19.3,21.3,31.2,34.1,66.6,27.7c0,0-15,26.6-47.7,24.5C459.1,424.5,448,403.9,426.4,409.5z"/>
</g>
</svg>
