<?xml version="1.0" encoding="UTF-8" standalone="no"?><!-- Generator: Gravit.io --><svg xmlns="http://www.w3.org/2000/svg" xmlns:xlink="http://www.w3.org/1999/xlink" style="isolation:isolate" viewBox="0 0 50 50" width="50pt" height="50pt"><defs><clipPath id="_clipPath_RADiwaKAn4f7LNYdpuJaQTsw2ugtNYFw"><rect width="50" height="50"/></clipPath></defs><g clip-path="url(#_clipPath_RADiwaKAn4f7LNYdpuJaQTsw2ugtNYFw)"><path d=" M 24.986 0.001 C 15.428 -0.108 6.161 5.834 2.272 14.566 C -1.812 23.198 -0.287 34.089 6.012 41.267 C 12.146 48.587 22.677 51.755 31.831 49.035 C 41.053 46.523 48.339 38.27 49.688 28.807 C 51.252 19.387 46.803 9.33 38.779 4.152 C 34.719 1.456 29.859 -0.007 24.986 0.001 L 24.986 0.001 Z  M 24.986 2.613 C 27.797 2.612 30.606 3.147 33.219 4.182 C 41.527 7.347 47.384 15.863 47.368 24.753 C 47.401 26.161 47.285 27.562 47.036 28.937 C 44.332 29.373 39.382 24.207 38.437 18.681 C 37.406 24.236 33.77 28.197 29.314 30.284 C 26.509 31.599 22.789 31.419 20.024 30.023 C 18.212 29.108 15.79 27.2 16.271 25.228 C 16.867 22.787 20.901 20.943 23.13 22.101 C 24.059 22.584 23.706 25.187 23.706 25.187 C 23.706 25.187 27.897 23.511 28.002 21.662 C 28.116 19.638 26.23 17.286 23.766 17.299 C 15.857 17.203 10.544 26.759 18.535 32.713 C 20.859 34.096 23.607 34.685 26.239 34.518 C 29.084 34.338 31.879 33.11 34.252 31.532 C 35.996 30.372 38.012 28.344 38.552 26.95 C 39.446 29.134 43.301 33.237 45.734 33.379 C 44.827 35.59 43.57 37.658 42.028 39.485 C 40.692 39.112 38.911 38.567 38.043 38.053 C 36.128 36.918 33.566 33.949 33.566 33.949 C 33.566 33.949 31.883 36.12 29.514 37.615 C 28.115 38.497 26.221 39.041 24.986 39.041 C 23.652 39.041 21.93 39.01 20.439 38.029 C 18.212 36.564 16.406 33.949 16.406 33.949 C 16.406 33.949 13.861 36.956 11.929 38.053 C 11.023 38.567 9.238 39.115 7.912 39.489 C 6.182 37.467 4.85 35.129 3.955 32.631 C 6.166 31.659 9.087 30.135 10.44 28.548 C 13.126 25.397 13.484 22.277 15.733 19.665 C 16.999 18.194 18.437 16.705 20.235 15.975 C 22.279 15.145 24.744 14.691 26.829 15.413 C 28.195 15.887 29.368 17.074 29.995 18.376 C 30.612 19.657 30.72 21.26 30.331 22.627 C 29.91 24.109 28.912 25.55 27.598 26.353 C 25.921 27.379 21.774 27.291 21.774 27.291 C 21.774 27.291 24.388 29.176 27.995 28.501 C 32.061 27.739 34.911 25.159 35.649 21.863 C 36.256 19.15 34.507 15.896 32.279 14.232 C 30.122 12.621 26.901 12.64 24.267 13.2 C 20.838 13.928 17.43 16.273 15.284 18.669 C 13.298 20.887 11.716 23.554 9.313 25.311 C 7.364 26.737 5.473 28.184 2.913 28.609 C 2.246 24.564 2.654 20.342 4.263 16.538 C 7.518 8.265 16.096 2.501 24.986 2.613 Z  M 16.406 38.426 C 16.406 38.426 17.281 39.923 19.171 40.971 C 20.887 41.923 23.552 42.435 25.065 42.43 C 26.588 42.424 28.799 41.871 30.506 40.9 C 32.308 39.873 33.566 38.426 33.566 38.426 C 33.566 38.426 35.193 39.924 36.835 40.986 C 37.763 41.587 38.656 42.004 39.247 42.257 C 37.596 43.636 35.744 44.775 33.737 45.598 C 26.212 48.906 16.97 47.487 10.694 42.239 C 11.42 41.905 12.654 41.313 13.776 40.589 C 15.254 39.636 16.406 38.426 16.406 38.426 L 16.406 38.426 Z " fill-rule="evenodd" fill="rgb(255,255,255)"/></g></svg>