<?xml version="1.0" encoding="UTF-8" standalone="no"?><!-- Generator: Gravit.io --><svg xmlns="http://www.w3.org/2000/svg" xmlns:xlink="http://www.w3.org/1999/xlink" style="isolation:isolate" viewBox="0 0 50 50" width="50pt" height="50pt"><defs><clipPath id="_clipPath_WU9LvaWwS42wF3SgjbLvTwbAjiwSwpPz"><rect width="50" height="50"/></clipPath></defs><g clip-path="url(#_clipPath_WU9LvaWwS42wF3SgjbLvTwbAjiwSwpPz)"><path d=" M 25 0 C 11.193 0 0 11.193 0 25 C 0 31.63 2.634 37.989 7.322 42.678 C 12.011 47.366 18.37 50 25 50 C 31.63 50 37.989 47.366 42.678 42.678 C 47.366 37.989 50 31.63 50 25 C 50 11.193 38.807 0 25 0 L 25 0 Z  M 25 2.612 C 37.365 2.612 47.388 12.635 47.388 25 C 47.388 25.784 47.347 26.567 47.264 27.347 C 45.52 23.284 41.929 17.629 38.975 14.656 C 38.889 17.304 39.406 20.933 37.977 22.839 C 33.562 28.727 27.704 20.119 27.035 16.149 C 19.246 18.594 17.869 13.142 18.453 6.447 C 9.217 12.409 15.823 19.031 18.418 26.546 C 19.349 29.244 19.2 31.425 19.122 34.175 C 17.621 34.397 15.266 36.307 13.759 35.667 C 10.046 34.092 10.98 28.903 6.924 27.828 C 7.928 31.723 7.391 34.043 6.009 36.855 C 3.789 33.299 2.612 29.192 2.612 25 C 2.612 12.635 12.635 2.612 25 2.612 L 25 2.612 Z  M 19.649 20.558 C 29.521 23.725 37.035 28.004 37.109 32.567 C 40.509 30.944 42.288 27.452 42.183 24.208 C 46.082 30.535 44.325 36.588 42.884 38.466 C 42.788 38.592 42.694 38.699 42.602 38.786 C 42.602 38.786 42.675 38.725 42.71 38.696 C 40.44 41.631 37.476 43.956 34.085 45.462 C 34.761 44.077 36.12 43.621 36.79 41.885 C 38.358 37.82 33.179 33.623 29.612 33.24 C 30.88 36.935 31.787 39.273 29.897 41.299 C 25.472 44.581 27.756 45.892 28.555 47.104 C 27.379 47.293 26.191 47.388 25 47.388 C 22.687 47.388 20.389 47.029 18.186 46.325 C 10.556 41.03 22.894 32.327 21.679 39.29 C 25.017 37.641 26.167 35.424 26.012 33.468 C 25.649 28.91 23 25.808 19.649 20.558 Z " fill-rule="evenodd" fill="rgb(255,255,255)"/></g></svg>