<?xml version="1.0" encoding="UTF-8" standalone="no"?><!-- Generator: Gravit.io --><svg xmlns="http://www.w3.org/2000/svg" xmlns:xlink="http://www.w3.org/1999/xlink" style="isolation:isolate" viewBox="0 0 50 50" width="50pt" height="50pt"><defs><clipPath id="_clipPath_oHrCIVLwboj34WwL5bfP6eeMHsSj9Lwh"><rect width="50" height="50"/></clipPath></defs><g clip-path="url(#_clipPath_oHrCIVLwboj34WwL5bfP6eeMHsSj9Lwh)"><g opacity="0.972"><path d=" M 25 0 C 11.193 0 0 11.193 0 25 C 0 38.807 11.193 50 25 50 C 38.807 50 50 38.807 50 25 C 50 11.193 38.807 0 25 0 Z  M 32.187 3.797 C 35.441 4.643 38.389 6.745 40.773 9.112 C 43.618 11.937 45.697 15.518 46.708 19.526 C 45.721 17.638 44.387 15.327 43.112 13.942 C 41.182 11.847 38.828 9.941 36.138 9.006 C 20.893 3.709 8.563 14.221 7.663 26.94 C 6.733 20.738 8.817 15.571 11.773 10.965 C 16.548 4.308 25.025 2.025 32.187 3.797 Z  M 11.007 7.525 C 8.849 10.307 6.791 14.034 6.12 17.042 C 5.134 21.465 5.304 26.828 6.93 31.303 C 8.26 34.965 10.942 38.694 13.913 40.675 C 20.686 45.191 27.582 44.342 35.223 42.66 C 35.593 42.581 35.563 42.484 35.179 42.571 C 26.347 44.038 17.725 42.583 12.447 36.786 C 9.28 33.308 8.588 27.244 10.209 22.819 C 12.269 17.196 17.077 11.933 23.825 11.165 C 18.153 14.076 14.664 17.833 13.409 22.929 C 12.551 26.411 13.681 30.627 15.97 33.378 C 18.588 36.524 23.072 38.29 27.151 38.383 C 30.499 38.46 34.202 37.145 36.505 34.7 C 38.279 32.817 39.542 29.832 38.932 27.313 C 38.311 24.749 35.821 22.539 33.302 21.779 C 30.125 20.82 25.827 21.272 23.527 23.663 C 21.956 25.296 20.791 27.666 22.499 30.382 C 23.194 31.457 24.737 32.426 25.538 32.732 C 27.424 33.453 30.265 33.094 31.434 31.349 C 33.831 27.77 27.807 26.08 29.023 30.278 C 26.529 29.68 24.607 28.172 24.912 26.287 C 25.304 23.857 29.111 22.823 31.56 23.071 C 33.893 23.308 36.578 25.07 37.149 27.344 C 37.786 29.879 36.135 33.124 33.914 34.484 C 29.739 37.041 22.769 37.191 19.268 33.762 C 16.491 31.042 16.323 25.398 18.392 22.101 C 21.421 17.272 26.425 13.683 34.272 15.909 C 39.798 17.625 45.302 22.914 45.095 29.48 C 44.987 32.876 44.761 36.455 41.529 40.099 C 40.448 41.353 39.23 42.31 38.096 43.156 C 34.358 45.944 29.739 47.388 25 47.388 C 12.636 47.388 2.612 37.365 2.612 25 C 2.612 18.203 5.701 11.773 11.007 7.525 L 11.007 7.525 Z " fill-rule="evenodd" fill="rgb(255,255,255)"/></g></g></svg>