<?xml version="1.0" encoding="UTF-8" standalone="no"?><!-- Generator: Gravit.io --><svg xmlns="http://www.w3.org/2000/svg" xmlns:xlink="http://www.w3.org/1999/xlink" style="isolation:isolate" viewBox="0 0 50 50" width="50pt" height="50pt"><defs><clipPath id="_clipPath_fXHlN6T2wXgetoCRKqrZlm6IBhK0ZxHu"><rect width="50" height="50"/></clipPath></defs><g clip-path="url(#_clipPath_fXHlN6T2wXgetoCRKqrZlm6IBhK0ZxHu)"><path d=" M 25 0 C 11.193 0 0 11.193 0 25 C 0 38.807 11.193 50 25 50 C 38.807 50 50 38.807 50 25 C 50 11.193 38.807 0 25 0 Z  M 25 2.612 C 34.803 2.612 43.466 8.99 46.378 18.351 C 43.903 16.413 41.348 12.188 39.31 12.453 C 38.165 12.412 37.608 13.423 34.331 16.952 C 31.999 19.464 30.534 21.333 30.534 21.333 C 30.534 21.333 26.38 16.855 25 16.845 C 23.462 16.914 18.218 22.993 18.218 22.993 L 13.621 18.63 C 11.04 16.181 10.51 15.208 9.272 15.076 C 7.825 14.922 5.682 18.03 3.819 20.462 C 3.489 20.893 3.168 21.302 2.861 21.669 C 4.51 10.714 13.922 2.612 25 2.612 Z  M 38.736 20.173 C 39.521 20.246 41.371 21.277 41.715 23.51 C 42.712 22.07 44.035 23.22 45.1 24.825 C 43.411 20.28 46.004 22.672 47.379 24.359 C 47.385 24.573 47.388 24.786 47.388 25 C 47.388 28.663 46.489 32.269 44.771 35.504 C 41.247 32.664 32.962 23.953 32.962 23.953 C 32.962 23.953 34.612 20.296 37.03 24.819 C 37.031 23.547 37.703 20.077 38.736 20.173 L 38.736 20.173 Z  M 12.983 23.161 C 15.768 24.912 15.977 26.029 15.977 26.029 C 15.977 26.029 9.604 33.532 6.145 37.071 C 4.088 33.858 2.887 30.172 2.654 26.364 C 3.622 25.443 4.337 24.289 5.546 24.053 L 4.542 28.536 C 6.972 26.633 9.022 23.536 10.454 28.005 C 11.448 27.209 12.186 24.652 12.983 23.161 Z  M 32.275 30.375 C 36.941 31.144 40.18 36.073 41.836 39.756 C 37.585 44.606 31.449 47.388 25 47.388 C 19.043 47.388 13.331 45.014 9.129 40.79 L 9.129 40.79 C 9.631 39.914 9.631 37.633 12.456 34.649 C 14.376 32.62 15.922 32.663 16.836 32.435 C 16.719 33.769 15.997 37.754 15.015 38.719 C 16.632 37.687 19.481 33.051 20.483 35.596 C 20.621 33.359 22.015 31.396 23.16 31.53 C 25.347 31.319 28.061 36.168 28.922 38.774 C 30.18 36.638 27.482 33.124 27.267 30.87 C 28.721 31.188 31.258 31.966 32.923 34.444 C 32.621 31.938 32.536 32.446 32.275 30.375 L 32.275 30.375 Z " fill-rule="evenodd" fill="rgb(255,255,255)"/></g></svg>