<?xml version="1.0" standalone="no"?>
<!DOCTYPE svg PUBLIC "-//W3C//DTD SVG 20010904//EN"
 "http://www.w3.org/TR/2001/REC-SVG-20010904/DTD/svg10.dtd">
<svg version="1.0" xmlns="http://www.w3.org/2000/svg"
 width="521.000000pt" height="533.000000pt" viewBox="0 0 521.000000 533.000000"
 preserveAspectRatio="xMidYMid meet">
<metadata>
Created by potrace 1.14, written by Peter Selinger 2001-2017
</metadata>
<g transform="translate(0.000000,533.000000) scale(0.100000,-0.100000)"
fill="#FFFFFF" stroke="none">
<path d="M2630 5238 c-12 -13 -51 -71 -86 -130 -36 -60 -68 -108 -71 -108 -3
0 -55 16 -114 35 -91 29 -123 35 -196 35 -135 0 -203 -29 -203 -85 0 -34 29
-49 133 -70 88 -18 168 -58 181 -90 6 -18 2 -18 -44 -5 -66 20 -295 41 -445
42 -168 2 -267 -16 -297 -53 -20 -23 -24 -74 -7 -84 5 -4 55 -12 110 -18 54
-6 99 -14 99 -18 0 -3 -39 -16 -86 -28 -113 -28 -144 -45 -144 -76 0 -16 -20
-44 -63 -87 -35 -35 -72 -78 -83 -97 -19 -33 -19 -33 -79 -27 -244 24 -346 14
-428 -40 -69 -45 -102 -169 -57 -214 31 -31 58 -25 104 25 24 25 47 45 53 45
16 0 23 -36 23 -119 l0 -73 -52 -57 c-135 -147 -206 -309 -227 -521 -13 -119
-1 -183 39 -225 21 -22 33 -48 42 -89 12 -65 14 -62 -52 -98 -39 -22 -60 -72
-60 -145 0 -125 55 -233 129 -253 l38 -10 12 -103 c6 -56 14 -136 18 -177 l5
-75 -45 -22 c-57 -27 -79 -59 -85 -124 -6 -67 18 -127 73 -178 l45 -41 85 0
c112 0 117 -11 35 -86 -78 -73 -100 -115 -100 -194 0 -67 14 -101 57 -142 63
-60 215 -98 253 -63 33 30 25 60 -30 106 -57 48 -82 102 -57 126 13 13 17 10
38 -27 30 -52 63 -70 132 -70 l54 0 -4 -127 c-2 -71 0 -133 4 -140 5 -6 20
-14 35 -18 23 -6 33 0 77 46 l50 54 26 -25 c94 -87 177 -251 209 -413 25 -125
36 -147 72 -147 30 0 52 33 60 92 4 27 12 48 18 48 7 0 25 -14 42 -31 43 -45
85 -68 129 -70 64 -2 72 -7 106 -62 17 -29 42 -64 56 -78 21 -23 25 -40 32
-136 13 -171 48 -230 146 -241 l45 -5 -6 -66 c-6 -62 -5 -69 21 -99 42 -50 60
-43 163 63 51 52 98 95 104 95 6 0 52 -43 102 -95 58 -60 99 -95 112 -95 11 0
32 12 47 28 22 23 26 37 29 97 l3 70 38 6 c91 15 133 84 143 234 l7 100 56 87
c48 75 60 87 84 88 59 0 118 23 161 61 24 22 46 39 49 39 2 0 7 -18 10 -40 7
-55 31 -90 62 -90 33 0 42 21 71 158 14 65 36 141 49 170 25 55 142 228 168
250 11 10 23 2 65 -44 46 -50 55 -55 79 -49 15 3 31 12 36 18 4 7 6 69 5 140
l-4 127 62 0 c67 0 93 16 126 78 19 36 34 41 43 13 9 -30 -9 -63 -64 -114 -54
-51 -64 -83 -35 -111 18 -19 36 -20 106 -5 140 30 211 100 211 209 0 73 -27
124 -104 193 -81 74 -77 84 39 88 79 4 92 7 126 33 43 33 86 114 86 164 0 67
-33 112 -124 167 -16 9 -16 20 -1 150 24 204 25 207 62 217 18 5 45 21 61 37
58 59 92 234 57 300 -17 34 -71 81 -92 81 -13 0 -15 10 -11 54 2 30 12 65 22
78 69 95 66 87 66 168 0 157 -50 347 -124 469 -20 32 -62 90 -95 129 -42 50
-61 82 -66 111 -8 46 3 151 16 151 4 0 37 -20 73 -45 37 -25 75 -45 85 -45 11
0 29 12 41 27 17 21 20 35 15 62 -9 48 -51 117 -86 142 -47 33 -138 61 -219
66 -67 5 -112 1 -242 -23 -35 -6 -37 -5 -56 37 -21 48 -49 77 -102 106 -29 16
-36 27 -40 58 -6 50 -44 77 -132 95 -94 19 -100 26 -32 40 134 27 154 40 140
94 -9 36 -51 47 -228 59 -141 9 -195 8 -353 -7 -103 -10 -189 -15 -192 -12 -8
7 102 57 189 85 76 25 91 38 86 78 -5 42 -72 73 -158 73 -51 0 -90 -9 -180
-41 -144 -52 -170 -56 -192 -32 -9 10 -33 56 -53 103 -65 152 -90 176 -135
128z m94 -180 c79 -166 66 -161 238 -98 151 55 212 69 267 60 53 -8 47 -24
-16 -44 -82 -26 -189 -84 -218 -118 -16 -19 -25 -42 -25 -65 l0 -36 48 6 c26
3 101 14 167 23 147 20 547 26 566 7 8 -8 -3 -14 -47 -22 -152 -30 -249 -65
-261 -97 -9 -24 10 -31 101 -38 80 -7 184 -22 219 -32 35 -11 15 -20 -73 -37
-103 -20 -217 -53 -224 -66 -3 -5 50 -6 118 -4 179 8 297 -18 350 -76 11 -12
16 -24 13 -27 -3 -4 -43 -1 -89 6 -102 15 -157 11 -172 -12 -15 -25 1 -48 50
-73 33 -17 58 -20 154 -19 70 1 145 8 190 18 41 10 116 20 165 23 126 8 193
-12 257 -77 76 -75 63 -90 -30 -38 -83 46 -134 43 -357 -22 -225 -65 -332 -75
-442 -42 -114 35 -154 98 -121 189 l15 42 -38 -20 c-61 -31 -157 -52 -203 -45
-116 19 -187 172 -123 267 45 66 46 63 -24 55 -109 -12 -312 -75 -404 -124
l-52 -29 -6 106 c-6 113 -19 166 -44 175 -38 15 -61 -52 -70 -201 l-6 -91 -86
44 c-127 66 -322 124 -418 124 -22 0 -22 -1 9 -66 54 -116 36 -189 -58 -235
-67 -32 -147 -29 -229 9 l-62 30 -5 -63 c-10 -120 -57 -162 -198 -175 -114
-11 -182 -1 -351 50 -74 23 -153 45 -176 49 -55 11 -137 -4 -190 -35 -50 -29
-54 -29 -46 -6 14 37 47 73 86 95 37 19 56 22 162 21 66 -1 192 -11 280 -23
217 -29 248 -28 274 5 23 30 27 64 9 82 -17 17 -89 15 -160 -4 -33 -8 -63 -12
-66 -9 -13 12 110 115 151 126 40 11 143 8 262 -7 48 -6 49 -5 28 10 -31 23
-124 54 -184 62 -103 14 -56 36 118 58 116 14 133 19 133 40 0 41 -97 80 -234
95 -78 9 -95 15 -82 29 4 4 112 7 239 6 182 0 262 -5 374 -21 78 -12 151 -19
162 -16 37 9 27 55 -24 111 -48 53 -106 86 -182 102 -98 21 -97 20 -84 33 8 8
45 12 104 11 83 0 103 -5 201 -42 60 -23 117 -42 126 -42 23 0 50 33 100 120
61 107 69 120 80 120 5 0 34 -51 64 -112z m-1571 -879 c12 -7 40 -28 63 -49
26 -24 54 -39 81 -43 74 -12 124 -76 71 -91 -13 -3 -45 -6 -72 -6 l-49 0 -119
-121 c-118 -120 -154 -170 -160 -224 -3 -28 -2 -29 39 -26 40 2 44 0 75 -43
37 -54 42 -54 164 -25 93 22 137 21 201 -6 45 -19 39 -27 -65 -88 -158 -93
-268 -204 -295 -299 -23 -78 -66 -343 -73 -451 -4 -52 -4 -119 0 -150 l7 -57
67 34 c132 66 248 83 346 50 53 -18 172 -121 126 -109 -14 3 -59 9 -101 12
-86 6 -133 -5 -180 -44 -39 -33 -50 -57 -94 -192 -43 -131 -97 -218 -168 -267
-63 -44 -105 -55 -159 -42 -50 11 -76 31 -94 75 -34 80 -7 139 76 164 l43 13
-6 95 c-3 53 -11 150 -18 216 -10 103 -9 286 4 520 2 36 -1 40 -23 43 -14 2
-31 11 -37 20 -16 20 -17 88 -2 98 14 8 2 20 -42 42 -50 25 -61 54 -55 142 15
219 106 424 243 550 l57 52 -13 73 c-13 81 -5 115 33 133 29 14 102 15 129 1z
m3160 -20 c19 -24 20 -52 2 -164 -4 -26 2 -35 43 -70 72 -60 119 -121 162
-210 49 -102 79 -208 87 -311 9 -122 1 -150 -50 -175 -23 -12 -43 -23 -45 -24
-1 -1 2 -14 9 -28 8 -17 8 -38 2 -63 -7 -32 -14 -39 -41 -45 -18 -4 -34 -8
-36 -10 -2 -2 3 -56 10 -119 19 -165 17 -287 -7 -517 -12 -112 -19 -209 -16
-217 3 -8 24 -20 46 -27 77 -23 105 -72 80 -142 -45 -127 -198 -130 -313 -8
-55 59 -85 119 -121 236 -35 117 -57 158 -101 192 -42 32 -120 41 -216 25 -32
-5 -60 -7 -63 -4 -3 3 11 20 31 38 113 104 262 110 446 19 79 -40 78 -41 78
86 0 174 -52 515 -90 588 -35 68 -184 197 -314 273 l-71 42 40 18 c53 23 159
23 254 -2 l74 -19 45 50 c40 45 49 50 79 47 39 -5 42 10 18 68 -19 45 -43 74
-167 201 -99 101 -100 102 -151 104 -67 3 -84 8 -91 24 -8 22 32 54 92 71 35
10 71 29 92 49 53 49 70 56 129 52 43 -3 59 -9 74 -28z m-1724 1 c16 -8 20
-28 26 -130 5 -93 11 -125 25 -142 38 -48 70 24 70 160 0 99 9 122 51 122 36
0 49 -27 49 -106 0 -47 4 -58 34 -92 84 -93 50 -188 -92 -255 -76 -36 -124
-34 -208 9 -64 33 -102 76 -111 128 -7 47 1 76 35 119 22 27 31 52 36 95 10
87 38 118 85 92z m732 -216 c34 -32 144 -216 169 -282 26 -67 26 -142 1 -191
-32 -62 -126 -135 -206 -161 -64 -20 -124 -58 -140 -90 -19 -37 -19 -120 0
-167 9 -20 59 -79 114 -132 82 -81 102 -105 120 -156 40 -107 25 -219 -49
-364 -56 -111 -192 -266 -264 -300 -95 -47 -225 -11 -292 80 -39 53 -66 137
-68 209 -1 76 2 82 157 315 l99 149 -5 56 c-3 30 -37 166 -76 301 -69 238 -78
279 -64 279 3 0 62 -18 129 -40 68 -22 137 -40 155 -40 68 0 117 55 158 179
23 71 30 146 14 162 -19 19 -164 -51 -335 -162 -34 -21 -69 -39 -79 -39 -22 0
-39 29 -39 67 0 33 70 103 233 233 172 137 209 150 268 94z m-1199 10 c42 -22
166 -120 270 -215 66 -60 90 -90 99 -119 9 -31 9 -43 -1 -55 -22 -26 -53 -17
-140 41 -114 75 -284 159 -306 150 -34 -13 1 -181 58 -274 21 -33 86 -82 111
-82 7 0 68 20 135 45 67 25 128 45 137 45 24 0 19 -27 -44 -248 -32 -114 -68
-248 -79 -299 l-20 -91 28 -34 c60 -73 220 -321 230 -356 26 -96 -11 -230 -89
-315 -37 -40 -72 -56 -138 -63 -83 -9 -132 8 -196 66 -176 161 -286 395 -258
551 17 96 92 204 188 270 55 38 73 78 73 163 0 105 -8 115 -141 171 -213 89
-284 216 -210 372 42 88 131 231 164 265 33 33 80 37 129 12z m472 -599 c-13
-55 -24 -128 -24 -162 l0 -63 95 0 c94 0 95 0 95 24 0 23 -34 234 -46 286 -18
79 90 -135 146 -289 26 -70 27 -79 15 -109 -18 -42 -37 -48 -175 -56 -149 -8
-216 2 -248 40 -31 35 -25 77 24 183 33 72 135 253 140 248 1 -1 -8 -47 -22
-102z m-1794 -416 c16 -29 4 -55 -42 -92 -39 -31 -40 -34 -34 -77 3 -25 8 -56
11 -70 6 -24 6 -24 -10 -5 -39 49 -60 210 -31 247 31 41 84 40 106 -3z m3810
11 c25 -25 34 -60 28 -118 -5 -52 -45 -152 -60 -152 -6 0 -7 8 -4 17 4 9 9 42
13 74 5 51 4 58 -16 69 -23 12 -61 66 -61 87 0 20 30 43 56 43 13 0 33 -9 44
-20z m-1727 -4 c22 -10 31 -48 20 -81 -12 -38 -236 -365 -248 -362 -15 4 -233
332 -241 361 -4 17 1 37 16 62 l23 36 206 -4 c113 -3 214 -8 224 -12z m-1406
-576 c107 -48 42 -140 -99 -140 l-46 0 5 -47 c18 -188 79 -399 174 -603 64
-136 147 -290 157 -290 4 0 48 36 97 80 150 134 196 159 298 160 62 0 88 -16
107 -66 21 -53 -42 -124 -94 -108 -11 4 -37 20 -56 35 -19 16 -44 29 -56 29
-26 0 -87 -44 -135 -97 -33 -36 -37 -48 -44 -114 -11 -128 -35 -312 -39 -317
-5 -5 -8 5 -26 98 -6 30 -31 96 -55 145 -48 94 -199 298 -226 303 -10 2 -30
-18 -54 -53 -21 -30 -42 -55 -47 -55 -4 0 -8 37 -9 83 -1 186 -15 292 -47 361
-17 36 -33 66 -36 66 -3 0 -19 -19 -36 -42 -41 -57 -39 -82 13 -128 34 -32 40
-42 32 -56 -31 -50 -90 -31 -114 36 -15 42 -19 45 -56 48 -107 9 -135 -96 -54
-206 31 -42 31 -42 7 -42 -33 1 -108 41 -130 70 -59 79 -7 187 137 283 33 22
70 49 83 61 21 19 22 21 5 27 -10 4 -33 8 -50 8 -55 1 -37 30 33 54 l39 14 16
110 c27 181 74 257 181 294 66 23 73 23 125 -1z m2472 4 c123 -36 191 -164
191 -360 l0 -51 38 -6 c70 -12 97 -56 34 -58 -15 0 -36 -4 -47 -8 -16 -6 -5
-17 70 -68 153 -102 206 -175 191 -258 -10 -53 -106 -121 -159 -113 -19 3 -19
4 7 35 85 101 64 213 -40 213 -46 0 -54 -6 -69 -60 -14 -48 -56 -68 -91 -46
-33 22 -30 36 16 81 50 48 51 77 6 129 l-33 40 -33 -67 c-31 -64 -33 -73 -41
-239 -5 -95 -10 -182 -12 -193 -2 -16 -12 -8 -47 37 -25 32 -50 58 -57 58 -15
0 -169 -193 -214 -269 -22 -37 -48 -103 -64 -166 -16 -58 -30 -103 -33 -101
-2 3 -15 88 -27 190 -19 152 -26 190 -45 216 -30 42 -117 110 -141 110 -11 0
-41 -16 -66 -35 -56 -43 -76 -44 -114 -6 -22 23 -29 39 -29 69 0 56 25 75 105
80 86 6 141 -21 278 -137 59 -50 112 -91 117 -91 29 0 199 349 260 532 32 97
70 282 70 343 l0 55 -48 0 c-62 0 -136 36 -140 68 -4 28 22 60 63 78 39 17 41
17 104 -2z m-1266 -226 c14 -18 39 -58 56 -89 l31 -56 107 -6 c105 -5 108 -6
135 -36 52 -58 39 -110 -65 -263 -71 -104 -87 -145 -87 -223 l-1 -50 -24 30
c-14 17 -33 52 -42 79 -33 90 -65 69 -111 -75 l-29 -90 -32 93 c-32 94 -60
136 -80 123 -7 -4 -26 -38 -43 -76 -17 -38 -34 -69 -38 -69 -4 0 -11 21 -15
48 -12 90 -25 120 -100 231 -68 102 -75 117 -75 161 0 55 15 96 39 105 9 4 62
9 119 12 l102 6 37 61 c51 85 73 116 83 116 5 0 20 -15 33 -32z m-644 -839
c10 -11 26 -49 35 -85 43 -169 124 -301 280 -459 105 -105 278 -245 303 -245
24 0 54 20 158 105 214 175 360 362 410 522 44 143 49 155 71 170 19 12 25 11
53 -12 26 -23 31 -34 31 -71 0 -31 4 -44 14 -44 8 0 28 -13 45 -29 27 -26 31
-35 31 -84 0 -60 -19 -114 -57 -165 -24 -33 -80 -68 -91 -58 -3 3 4 27 16 54
32 71 37 109 18 137 -9 14 -21 25 -26 25 -20 0 -50 -46 -81 -124 -48 -120 -93
-207 -132 -253 -33 -40 -34 -44 -40 -151 -5 -109 -17 -151 -53 -186 -24 -25
-36 -9 -18 25 8 17 14 47 12 67 -2 29 -9 40 -32 51 -52 25 -168 -11 -200 -61
-7 -12 -3 -26 20 -59 75 -108 78 -114 82 -171 2 -32 0 -58 -5 -58 -4 0 -44 36
-88 81 -44 44 -93 87 -108 95 -36 19 -48 12 -157 -92 -42 -41 -82 -74 -89 -74
-17 0 -13 60 8 106 10 22 35 63 55 91 20 28 36 60 36 71 0 59 -173 106 -227
61 -18 -15 -16 -64 3 -105 21 -44 11 -54 -21 -24 -31 30 -41 68 -50 195 -7 91
-10 103 -36 133 -33 37 -89 146 -140 271 -36 90 -67 123 -94 101 -22 -18 -19
-98 5 -145 31 -61 27 -70 -20 -44 -56 32 -89 85 -103 164 -13 79 -3 106 56
144 33 22 37 29 37 67 0 34 5 47 26 63 33 26 39 26 63 0z"/>
</g>
</svg>
