<?xml version="1.0" standalone="no"?>
<!DOCTYPE svg PUBLIC "-//W3C//DTD SVG 20010904//EN"
 "http://www.w3.org/TR/2001/REC-SVG-20010904/DTD/svg10.dtd">
<svg version="1.0" xmlns="http://www.w3.org/2000/svg"
 width="300.000000pt" height="500.000000pt" viewBox="0 0 300.000000 500.000000"
 preserveAspectRatio="xMidYMid meet">
<metadata>
Created by potrace 1.15, written by Peter Selinger 2001-2017
</metadata>
<g transform="translate(0.000000,500.000000) scale(0.100000,-0.100000)"
fill="#ffffff" stroke="none">
<path d="M1395 4984 c-16 -8 -43 -28 -60 -43 -16 -15 -90 -77 -164 -136 -74
-60 -167 -140 -208 -178 -145 -134 -197 -130 -393 32 l-75 62 -7 -48 c-3 -26
-9 -127 -13 -223 -10 -254 -10 -256 -196 -497 -80 -104 -257 -355 -265 -377
-3 -8 15 -18 53 -30 88 -27 232 -100 294 -149 103 -83 168 -208 183 -359 l7
-67 -35 -7 c-49 -9 -139 4 -206 29 -30 11 -110 58 -178 104 l-124 84 7 -33
c20 -89 82 -264 126 -353 59 -121 157 -254 240 -326 l61 -53 21 30 c11 16 46
54 77 85 127 126 237 90 336 -112 68 -137 154 -401 154 -471 0 -41 -42 -133
-65 -141 -47 -19 -178 7 -254 49 -24 13 -46 23 -48 21 -6 -6 45 -162 94 -287
59 -150 136 -300 221 -430 71 -108 188 -260 201 -260 10 0 96 240 128 355 51
185 41 372 -43 785 -68 336 -123 470 -317 774 -149 233 -201 389 -201 596 0
142 16 221 70 338 89 194 257 353 476 449 123 54 164 52 300 -14 296 -143 448
-311 520 -575 19 -70 22 -109 22 -243 1 -139 -3 -171 -23 -245 -45 -157 -106
-283 -203 -415 -148 -201 -193 -332 -208 -600 -14 -239 -37 -809 -56 -1359
-12 -361 -13 -494 -4 -580 14 -146 17 -158 37 -154 20 4 29 34 89 313 77 361
127 524 206 665 35 64 98 151 141 197 17 18 29 34 26 36 -2 2 -36 14 -76 26
-95 28 -162 81 -199 158 -28 57 -29 62 -29 218 1 175 13 255 66 425 63 200
234 493 312 533 80 41 152 -7 263 -175 36 -54 69 -96 74 -93 30 18 240 387
310 543 52 117 132 340 128 354 -2 5 -55 -32 -118 -82 -213 -169 -297 -206
-452 -201 -27 1 -28 3 -28 59 0 134 67 287 170 391 71 72 137 119 259 184 l79
42 -92 126 c-50 68 -129 173 -176 233 -168 213 -190 260 -190 400 0 71 -25
324 -32 331 -2 2 -56 -29 -121 -68 -97 -58 -128 -71 -171 -75 -63 -5 -92 8
-167 75 -161 145 -478 373 -517 373 -4 0 -20 -7 -37 -16z"/>
<path d="M1365 3678 c-194 -217 -234 -268 -241 -303 -5 -30 1 -49 45 -127 98
-177 296 -501 305 -500 5 0 76 130 158 289 163 319 167 331 121 401 -45 66
-277 341 -288 341 -5 0 -50 -45 -100 -101z"/>
</g>
</svg>
