<?xml version="1.0" standalone="no"?>
<!DOCTYPE svg PUBLIC "-//W3C//DTD SVG 20010904//EN"
 "http://www.w3.org/TR/2001/REC-SVG-20010904/DTD/svg10.dtd">
<svg version="1.0" xmlns="http://www.w3.org/2000/svg"
 width="690.000000pt" height="690.000000pt" viewBox="0 0 690.000000 690.000000"
 preserveAspectRatio="xMidYMid meet">

<g transform="translate(0.000000,690.000000) scale(0.100000,-0.100000)"
fill="#ffffff" stroke="none">
<path d="M3432 5943 c-6 -16 -23 -59 -37 -97 -36 -99 -94 -172 -125 -159 -184
73 -338 109 -419 97 l-45 -7 99 -32 c123 -39 175 -65 209 -105 28 -34 33 -73
14 -115 -8 -18 -16 -24 -27 -19 -111 46 -368 78 -571 71 -211 -6 -238 -18 -92
-41 197 -30 258 -59 234 -110 -10 -22 -16 -23 -134 -29 -123 -5 -228 -22 -228
-36 0 -5 35 -11 78 -14 88 -7 198 -36 238 -61 43 -29 16 -39 -56 -20 -91 23
-229 16 -290 -15 -52 -27 -130 -88 -130 -102 0 -13 38 -11 94 6 72 22 131 20
157 -6 18 -18 19 -23 6 -42 -40 -63 -141 -72 -363 -32 -93 17 -176 25 -250 25
-99 0 -115 -2 -145 -23 -45 -30 -97 -113 -80 -130 8 -8 16 -8 25 -2 61 47 117
76 164 86 49 10 61 9 116 -11 243 -87 295 -100 423 -100 106 0 169 16 212 55
35 33 36 35 36 109 0 42 2 75 5 73 3 -1 29 -15 59 -30 80 -43 147 -46 216 -12
109 53 138 147 76 247 -17 27 -31 50 -31 52 0 1 37 -2 83 -6 110 -11 244 -50
347 -101 47 -23 88 -43 91 -45 4 -2 7 48 7 111 0 132 12 172 52 172 36 0 49
-47 49 -178 1 -60 4 -107 9 -105 4 2 34 17 67 34 74 39 182 78 257 93 61 13
198 29 198 24 0 -2 -12 -21 -26 -43 -27 -41 -41 -111 -30 -154 8 -32 58 -81
107 -106 71 -37 130 -26 270 48 4 1 4 -26 2 -61 -11 -133 49 -178 243 -178
122 0 214 19 354 74 150 60 217 53 328 -30 34 -25 69 -24 59 1 -13 33 -59 97
-79 110 -33 21 -152 38 -217 31 -31 -4 -113 -17 -184 -31 -160 -30 -251 -31
-317 -3 -56 24 -67 42 -45 75 19 30 60 31 162 7 40 -9 76 -13 80 -9 21 21 -80
97 -160 121 -64 19 -174 19 -256 0 -35 -9 -66 -13 -69 -10 -3 3 3 15 14 26 21
21 223 69 292 69 17 0 32 4 32 9 0 17 -96 33 -230 40 -132 6 -135 7 -138 29
-8 52 54 81 230 109 142 23 117 34 -90 41 -211 6 -445 -21 -548 -64 -31 -13
-34 -12 -44 5 -5 11 -10 37 -10 58 0 70 81 128 240 172 40 11 75 23 77 25 12
12 -89 16 -148 7 -67 -11 -186 -48 -268 -83 -40 -17 -46 -17 -67 -3 -31 20
-66 83 -99 177 -33 93 -48 110 -63 71z"/>
<path d="M1841 4973 c-51 -27 -76 -66 -75 -118 0 -24 9 -55 18 -70 17 -26 17
-26 -41 -83 -99 -97 -192 -262 -228 -402 -20 -78 -23 -201 -6 -252 11 -32 18
-38 53 -45 l42 -8 -3 -68 -2 -67 41 0 c41 0 42 -1 35 -27 -50 -198 -51 -508
-2 -750 l22 -111 -39 -6 c-25 -4 -50 -18 -72 -40 -29 -29 -34 -41 -34 -83 0
-41 5 -54 28 -75 40 -38 68 -49 121 -50 121 0 219 113 291 337 70 217 140 259
326 195 31 -11 59 -18 61 -16 7 6 -26 79 -45 99 -44 49 -136 71 -236 56 -81
-11 -220 -63 -246 -92 -11 -11 -23 -18 -26 -14 -13 13 -16 284 -5 383 14 124
43 248 72 309 43 92 146 183 313 279 l77 44 -29 20 c-59 42 -159 37 -285 -14
l-58 -23 -16 37 c-30 72 -68 96 -115 71 -19 -10 -20 -9 -14 17 14 57 68 160
104 198 20 21 61 56 91 78 29 22 61 53 70 69 13 23 23 29 51 29 49 0 110 19
110 33 0 19 -50 45 -108 58 -42 8 -54 17 -71 44 -38 65 -110 90 -170 58z"/>
<path d="M4950 4973 c-19 -10 -46 -34 -58 -54 -20 -31 -34 -39 -87 -54 -68
-18 -107 -47 -88 -66 6 -6 40 -13 76 -16 55 -5 67 -9 75 -28 6 -13 41 -48 79
-78 37 -30 80 -68 95 -83 28 -30 82 -138 94 -188 6 -26 5 -27 -14 -17 -47 25
-85 1 -115 -71 l-15 -36 -64 23 c-139 50 -212 54 -277 14 l-34 -20 113 -67
c216 -128 289 -223 331 -432 24 -122 35 -317 24 -443 l-7 -89 -27 26 c-58 56
-215 101 -333 95 -94 -5 -144 -35 -178 -104 -12 -25 -20 -48 -18 -51 3 -2 30
5 61 15 180 62 252 24 317 -166 96 -285 203 -398 346 -362 145 37 141 217 -6
244 l-36 6 23 112 c45 225 48 484 8 692 -8 44 -15 81 -15 83 0 1 18 2 41 2
l40 0 -2 67 -3 68 42 8 c35 7 42 13 53 45 7 20 12 73 11 117 -2 172 -105 397
-245 535 -53 52 -55 55 -42 80 24 47 27 92 8 129 -36 69 -110 96 -173 64z"/>
<path d="M3312 4938 c-7 -7 -12 -42 -12 -86 0 -71 -1 -74 -35 -106 -32 -30
-35 -39 -35 -87 0 -76 24 -110 103 -149 99 -48 132 -49 221 -7 92 44 116 76
116 156 0 48 -3 57 -35 87 -34 32 -35 35 -35 106 0 81 -9 98 -52 98 -33 0 -35
-6 -41 -147 -4 -88 -8 -107 -29 -132 -12 -17 -26 -30 -29 -30 -3 -1 -16 14
-29 32 -21 28 -25 45 -28 132 -4 136 -6 145 -40 145 -15 0 -33 -5 -40 -12z"/>
<path d="M2800 4736 c-49 -27 -135 -155 -174 -256 -55 -148 -46 -210 44 -294
73 -67 132 -103 208 -126 39 -12 61 -25 69 -41 19 -38 26 -122 14 -180 -10
-49 -16 -57 -58 -84 -70 -44 -152 -131 -179 -189 -75 -161 22 -429 216 -596
116 -99 176 -121 263 -96 70 20 138 80 174 154 23 47 28 70 28 132 -1 93 -19
132 -150 309 -124 169 -119 158 -105 244 17 106 26 136 91 319 62 176 68 208
45 227 -11 10 -23 8 -53 -7 -21 -11 -89 -36 -151 -55 l-113 -36 -38 35 c-51
46 -89 134 -103 239 -10 73 -10 88 2 95 31 19 123 -23 290 -131 59 -38 116
-69 127 -69 24 0 48 49 38 79 -8 26 -152 162 -249 235 -139 104 -182 121 -236
92z"/>
<path d="M3923 4691 c-128 -87 -300 -243 -308 -281 -7 -32 15 -80 37 -80 6 0
70 36 141 81 149 93 221 129 260 129 25 0 27 -3 27 -37 -1 -113 -57 -265 -116
-309 l-35 -27 -77 23 c-42 12 -112 36 -156 52 -119 46 -122 30 -37 -206 55
-152 80 -243 96 -356 6 -45 6 -46 -99 -190 -139 -190 -161 -234 -161 -325 0
-59 5 -81 33 -138 53 -108 142 -164 246 -155 65 5 143 56 236 154 121 128 179
248 187 395 5 77 3 92 -20 141 -31 69 -82 127 -163 184 -34 24 -65 52 -69 62
-14 36 -15 139 -3 186 13 47 15 49 70 66 125 39 266 150 289 228 24 81 -24
229 -116 357 -92 129 -129 135 -262 46z"/>
<path d="M3379 4228 c-49 -82 -121 -249 -140 -320 -16 -58 -6 -92 34 -122 25
-18 45 -21 161 -24 149 -4 191 6 222 53 15 24 16 34 6 81 -13 66 -69 199 -130
308 -44 82 -72 120 -58 81 16 -41 76 -311 76 -338 0 -20 -7 -30 -26 -37 -37
-14 -109 -12 -148 4 l-34 14 24 114 c13 62 33 144 43 183 11 38 18 71 16 73
-2 2 -23 -29 -46 -70z"/>
<path d="M1509 3731 c-21 -17 -24 -30 -27 -100 -4 -87 6 -127 39 -157 20 -18
20 -17 13 50 l-7 68 37 34 c44 41 52 86 18 112 -22 17 -46 15 -73 -7z"/>
<path d="M5315 3736 c-32 -23 -22 -75 21 -111 l37 -31 -7 -70 -7 -69 28 28
c24 24 28 36 31 102 5 88 -1 118 -28 145 -23 23 -49 25 -75 6z"/>
<path d="M3233 3725 c-28 -12 -33 -19 -33 -50 0 -74 105 -257 200 -350 l52
-50 49 54 c98 105 199 281 199 346 0 57 -32 65 -252 65 -135 -1 -192 -4 -215
-15z"/>
<path d="M2170 3171 c-83 -27 -137 -79 -170 -168 -19 -49 -21 -74 -18 -164 l3
-106 -40 4 c-31 4 -46 0 -70 -18 l-29 -24 48 -7 c77 -11 77 -21 -4 -73 -40
-26 -98 -70 -128 -98 -92 -87 -102 -148 -34 -208 31 -27 129 -79 149 -79 4 0
-11 19 -34 43 -22 23 -46 52 -52 64 -17 33 -13 77 9 105 48 62 132 56 138 -10
6 -64 98 -83 124 -26 14 30 3 43 -43 53 -30 6 -35 12 -40 45 -6 35 -3 42 31
76 l38 38 27 -55 c42 -86 57 -180 53 -326 -2 -80 1 -127 7 -127 6 0 27 27 48
60 21 33 42 60 48 60 16 0 88 -70 136 -134 52 -69 114 -196 132 -270 7 -28 15
-87 18 -133 5 -71 9 -83 24 -83 33 0 39 34 39 219 0 155 3 185 19 224 29 68
84 123 140 142 l49 16 31 -31 c26 -27 37 -31 73 -28 35 2 46 9 65 37 30 45 29
85 -2 116 -20 21 -34 25 -83 25 -91 0 -179 -49 -303 -167 l-98 -95 -51 79
c-159 246 -272 571 -282 808 l-3 70 50 -2 c65 -3 85 2 113 27 29 27 29 70 -1
98 -25 24 -89 35 -127 23z"/>
<path d="M4640 3169 c-38 -16 -60 -40 -60 -66 0 -59 44 -86 131 -81 l54 3 -2
-65 c-8 -234 -124 -567 -283 -813 l-50 -79 -101 96 c-125 119 -211 166 -301
166 -50 0 -63 -4 -85 -26 -21 -21 -25 -32 -20 -66 6 -43 29 -75 65 -89 28 -11
83 10 104 40 12 18 19 19 49 11 77 -22 135 -78 164 -159 11 -32 15 -87 15
-215 0 -199 3 -216 36 -216 22 0 24 4 24 49 0 116 44 265 111 378 35 58 158
193 177 193 5 0 29 -30 52 -66 23 -36 44 -63 48 -59 3 3 5 61 3 128 -3 146 10
229 51 318 l30 67 37 -37 c33 -32 36 -40 31 -76 -4 -35 -9 -40 -38 -46 -47
-10 -58 -23 -44 -53 13 -30 54 -43 91 -30 21 8 27 17 29 47 6 73 91 84 142 19
38 -48 21 -110 -51 -181 -32 -31 -32 -33 -9 -26 80 24 160 85 175 133 18 59
-49 141 -199 241 -88 60 -89 76 -5 76 l50 0 -32 29 c-27 24 -38 28 -73 24
l-42 -5 4 97 c5 116 -12 188 -61 251 -51 68 -159 112 -217 88z"/>
<path d="M3417 2886 c-16 -35 -42 -77 -58 -92 -28 -26 -33 -27 -137 -28 -142
-1 -146 -4 -139 -107 6 -86 14 -107 68 -166 58 -63 90 -136 98 -218 l6 -70 21
21 c12 12 29 43 39 70 10 27 23 55 28 61 20 27 44 -7 73 -101 16 -53 31 -96
34 -96 3 0 15 37 28 83 23 84 45 127 62 127 6 0 26 -34 45 -75 46 -101 54 -99
69 12 9 62 38 121 95 192 57 71 73 117 69 194 -4 70 -23 80 -140 72 -118 -9
-134 1 -184 104 -22 44 -41 80 -44 80 -3 0 -18 -28 -33 -63z"/>
<path d="M2762 2084 c-20 -14 -22 -22 -17 -54 6 -35 4 -38 -22 -48 -85 -33
-114 -110 -74 -198 36 -79 120 -153 151 -134 11 7 8 21 -19 77 -41 82 -46 127
-15 131 29 4 40 -13 88 -130 43 -105 92 -191 152 -265 l34 -42 -6 -99 c-6 -85
-4 -104 11 -129 17 -30 72 -70 81 -60 3 3 -1 33 -8 67 -12 61 -12 63 11 81 39
31 73 23 169 -43 l42 -29 -44 -53 c-46 -53 -85 -126 -86 -158 0 -9 5 -29 10
-43 l10 -27 102 96 c56 53 108 96 115 96 13 0 146 -113 192 -163 13 -15 28
-24 32 -21 5 3 9 29 9 57 0 57 -16 90 -81 169 l-39 46 72 47 c65 43 75 47 106
39 50 -13 58 -31 42 -98 -7 -31 -10 -59 -6 -63 11 -11 60 31 79 68 15 29 17
48 12 125 l-6 91 57 79 c62 88 110 176 144 272 24 66 55 97 84 86 22 -8 16
-34 -25 -123 -35 -77 -36 -81 -3 -81 34 0 117 85 139 145 31 79 0 154 -77 186
-27 11 -29 15 -23 49 8 45 -12 70 -54 70 -38 0 -46 -12 -65 -101 -34 -156
-131 -314 -278 -455 -78 -75 -222 -189 -285 -226 l-28 -16 -100 71 c-131 93
-317 279 -378 378 -55 89 -92 177 -108 261 -16 80 -50 105 -97 72z"/>
</g>
</svg>
