<?xml version="1.0" encoding="utf-8"?>
<!-- Generator: Adobe Illustrator 19.2.0, SVG Export Plug-In . SVG Version: 6.00 Build 0)  -->
<svg version="1.1" id="Layer_1" xmlns="http://www.w3.org/2000/svg" xmlns:xlink="http://www.w3.org/1999/xlink" x="0px" y="0px"
	 viewBox="0 0 1400 1400" style="enable-background:new 0 0 1400 1400;" xml:space="preserve">
<style type="text/css">
	.st0{fill-rule:evenodd;clip-rule:evenodd;}
</style>
<g>
	<path class="st0" d="M1026,249.57c0,0-10.15,47.77-10.86,76.02c63.05,48.26,119.59,103.03,152.04,181.9
		c-44.7,11.15-108.14,26.52-141.18,57.01c-14.72,13.59-31.87,40.52-29.86,62.45c4.87,53.16,73.85,42.17,124.88,38.01
		c-9.22,38.63-35.21,67.75-54.3,97.73c-19.72,30.98-40.46,60.21-62.44,89.6c-32.15-16.79-43.29-34.33-73.3-35.3
		c-57.04-1.84-115.87,86.77-122.18,135.75c-6.91,53.73,19.78,76.6,73.31,65.16c-36.5,81.14-69.98,165.32-70.59,282.35
		c-82.38-73.09-95.53-194.08-89.59-301.36c11.15-201.47,171.75-276.21,154.75-483.26c-6.53-79.5-61.12-157.95-138.46-176.47
		c-142.83-34.2-225.34,90.05-225.34,211.77c0,161.1,121.44,262.24,133.03,412.67c6.08,78.94-11.92,145.52-19.01,228.05
		c-56.8-71.7-100.46-156.55-146.6-238.91c127.07,30.94,49.56-134.81-19.01-143.89c-36.46-4.83-54.09,17.51-84.16,29.86
		c-21.76-25.85-40.84-56.92-59.73-86.88c-18.38-29.16-40.07-59.78-46.15-92.3c51.36-1.3,117.42,0.69,119.46-54.3
		c2.08-56.31-86.02-112.01-157.47-100.46c15.82-88.25,85.64-146.03,157.47-187.33c0.76-28.81-5.43-78.73-5.43-78.73l78.73,13.57
		c0,0,43.15-25.26,59.73-35.29c59.9-36.25,132.76-82.6,181.9-116.74c47.85,28.27,113.44,81.41,168.32,122.17
		c15.52,11.53,57.02,38.01,57.02,38.01L1026,249.57z"/>
	<path class="st0" d="M694.46,474.13l67.87,97.74c0,0-44.49,65.91-67.87,97.74c-24.76-29.54-46.02-62.58-67.87-95.03
		C646.15,538.04,694.46,474.13,694.46,474.13z"/>
</g>
</svg>
