<?xml version="1.0" encoding="utf-8"?>
<!-- Generator: Adobe Illustrator 21.1.0, SVG Export Plug-In . SVG Version: 6.00 Build 0)  -->
<svg version="1.1" id="Calque_1" xmlns="http://www.w3.org/2000/svg" xmlns:xlink="http://www.w3.org/1999/xlink" x="0px" y="0px"
	 viewBox="0 0 612 612" style="enable-background:new 0 0 612 612;" xml:space="preserve">
<path class="st0" d="M532.8,531.5c61.2-61.2,65.5-156.6,12.8-223.5c-4.3-4.3-7.1-8.5-12.8-14.2l-14.2-14.2L334.9,97.4
	c-4.3,2.8-7.1,7.1-11.4,10l-10,10l199.3,199.3c4.3,4.3,8.5,10,14.2,15.7c39.9,54.1,34.2,132.4-14.2,179.3
	c-25.6,25.6-61.2,39.9-96.8,39.9c-28.5,0-55.5-8.5-78.3-24.2L325,540c-2.8,2.8-7.1,5.7-10,8.5c28.5,21.3,64,32.7,99.6,32.7
	C458.7,581.3,501.4,564.2,532.8,531.5L532.8,531.5z M494.3,313.7l-185,185L295.1,513c-4.3,2.8-10,8.5-15.7,12.8
	c-24.2,17.1-52.7,27-82.5,27c-37,0-71.2-14.2-96.8-39.9c-47-47-54.1-122.4-15.7-176.5l-12.8-12.8c-2.8-2.8-5.7-7.1-8.5-10
	c-49.8,66.9-42.7,159.4,15.7,217.8c31.3,31.3,74,48.4,118.1,48.4c38.4,0,75.4-12.8,103.9-37c4.3-4.3,8.5-7.1,14.2-12.8l14.2-14.2
	L512.8,335c-2.8-4.3-7.1-7.1-10-11.4L494.3,313.7L494.3,313.7z M101.5,295.2c-4.3-4.3-8.5-10-14.2-15.7
	c-39.9-54.1-34.2-132.4,14.2-179.3c25.6-25.6,59.8-39.9,96.8-39.9c28.5,0,55.5,8.5,78.3,24.2l12.8-12.8c2.8-2.8,7.1-5.7,10-8.5
	c-28.5-21.3-64-32.7-99.6-32.7c-44.1,0-86.8,17.1-118.1,48.4c-61.2,61.2-65.5,156.6-12.8,223.5c4.3,4.3,7.1,8.5,12.8,14.2
	l197.8,197.8c4.3-2.8,7.1-7.1,11.4-10l10-10l-185-185L101.5,295.2L101.5,295.2z M296.5,80.3c5.7-5.7,10-8.5,14.2-12.8
	c28.5-24.2,65.5-37,103.9-37c44.1,0,86.8,17.1,118.1,48.4c58.4,59.8,65.5,152.3,15.7,219.2c-2.8-2.8-5.7-7.1-8.5-10l-12.8-14.2
	c38.4-54.1,31.3-129.5-15.7-176.5c-25.6-25.6-59.8-39.9-96.8-39.9c-29.9,0-58.4,10-82.5,27c-5.7,5.7-11.4,10-15.7,14.2L117.2,298
	l-10-10c-2.8-2.8-5.7-7.1-8.5-10L296.5,80.3L296.5,80.3z"/>
</svg>
