<?xml version="1.0" encoding="utf-8"?>
<!-- Generator: Adobe Illustrator 22.1.0, SVG Export Plug-In . SVG Version: 6.00 Build 0)  -->
<!DOCTYPE svg PUBLIC "-//W3C//DTD SVG 1.1//EN" "http://www.w3.org/Graphics/SVG/1.1/DTD/svg11.dtd">
<svg version="1.1" id="Calque_1" xmlns="http://www.w3.org/2000/svg" xmlns:xlink="http://www.w3.org/1999/xlink" x="0px" y="0px"
	 viewBox="0 0 800 800" style="enable-background:new 0 0 800 800;" xml:space="preserve">
<g>
	<circle cx="247.6" cy="374.9" r="25.7"/>
	<circle cx="551.7" cy="374.9" r="25.7"/>
	<path d="M533.2,476c-13.9-8.2-28.6-15.1-43.6-20.8c2.9-14.5,2.3-30.1-0.5-45.1c-4.4-23.6-13.6-47.4-25.4-68.4
		c-9.4-16.6-35-1.7-25.6,15c2.5,4.4,4.7,9,6.8,13.5c1,2.2,2,4.5,3,6.7c0.1,0.2-0.6-1.6,0.5,1.3c0.6,1.5,1.2,3.1,1.8,4.6
		c2.3,5.9,4.3,12,6.1,18.1c4.2,14.5,6.2,24.2,5.8,38.5c-0.1,2.2-0.3,4.5-0.6,6.7c-0.9,6.4-3,12.6-6.2,17.7c-1.2,1.9-2.5,3.6-4,5.2
		c-3.8,3.9-8.5,6.9-13.6,9.1c-0.4,0.2-0.8,0.4-1.2,0.6c-8.9,3.5-18.5,5-28,5.5c-15.2,0.8-31.8,0.2-45.6-5.7
		c-2.9-1.2-5.6-2.6-8.2-4.3c-4-2.6-6.8-5.7-9.3-9.9c-0.2-0.4-0.4-0.7-0.7-1.1c-2.3-4.2-1.3-1.8-2.6-6.4c-0.5-1.5-0.8-3.1-1.2-4.6
		c-0.2-0.7-0.3-1.3-0.4-2c0-0.2-0.1-0.4-0.1-0.5c0.1,0.8-0.3-1.5,0,0c0-0.1,0-0.2,0-0.3c-0.1-1-0.2-2-0.3-3c-1-13.3,1-22.4,4.8-35.6
		c5.7-19.8,12.5-35.6,23.9-54.1c10-16.3-15.6-31.2-25.6-15c-18,29.2-38.8,75.9-32.3,113.9c-14.5,5.5-28.8,12.2-42.6,20
		c-18,10.2-26.6,30.5-21.3,50.5c5.3,20.2,23.4,34.4,43.9,34.4c7.8,0,15.5-2.1,22.4-6c28.6-16.3,60.8-25.6,88.2-25.6
		c26.9,0,58.1,9.2,85.5,25.3c7,4.1,15,6.3,23,6.3c20.3,0,38.3-14,43.7-34C559.3,506.8,551,486.5,533.2,476z M304.3,538.3
		c-4.1,2.3-8.6,3.5-13.2,3.5c-12,0-22.6-8.4-25.8-20.4c-3.1-11.6,1.9-23.4,12.4-29.4c12.6-7.2,25.7-13.3,38.9-18.4
		c2.6,5.4,5.9,10.5,10.1,15.2c-2.1,0.8-4.3,1.6-6.4,2.4c-7.1,2.8-14,5.9-20.8,9.2c-4.5,2.2-8.9,4.6-13.1,7c-0.5,0.3-0.9,0.6-1.3,0.9
		c-0.1,0.1-0.1,0.1-0.2,0.2c-0.4,0.3-0.7,0.6-1,1c-0.1,0.1-0.1,0.1-0.2,0.2c-0.3,0.3-0.5,0.7-0.7,1.1v0.1c-0.2,0.4-0.4,0.7-0.5,1.1
		c0,0.1,0,0.1-0.1,0.2c-0.1,0.4-0.2,0.8-0.3,1.2c0,0.1,0,0.2,0,0.2c0,0.4-0.1,0.8-0.1,1.2c0,0.1,0,0.1,0,0.2c0,0.4,0.1,0.8,0.1,1.2
		v0.1c0.1,0.4,0.2,0.8,0.3,1.2c0,0.1,0,0.1,0.1,0.2c0.1,0.4,0.3,0.8,0.5,1.1c0,0.1,0.1,0.1,0.1,0.2c0.2,0.4,0.4,0.7,0.6,1.1l0,0
		c0.2,0.3,0.5,0.7,0.8,1c0.1,0.1,0.1,0.1,0.2,0.2c0.3,0.3,0.6,0.6,0.9,0.8c0.1,0,0.1,0.1,0.2,0.1c0.3,0.3,0.7,0.5,1,0.7
		c0,0,0,0,0.1,0c0.4,0.2,0.7,0.4,1.1,0.5c0.1,0,0.1,0.1,0.2,0.1c0.4,0.1,0.8,0.3,1.2,0.3c0.1,0,0.2,0,0.2,0c0.4,0.1,0.8,0.1,1.3,0.1
		l0,0c0.1,0,0.1,0,0.2,0c0.2,0,0.5,0,0.7,0c0.1,0,0.2,0,0.4-0.1c0.2,0,0.4-0.1,0.7-0.1c0.1,0,0.2-0.1,0.4-0.1
		c0.2-0.1,0.5-0.2,0.7-0.2c0.1,0,0.2-0.1,0.3-0.1c0.3-0.1,0.7-0.3,1-0.5c3.9-2.2,8-4.4,12.1-6.4c4.1-2.1,8.4-4,12.6-5.8
		c7.5-3.2,15.3-6.1,23.2-8.6c10,5.6,21.1,8.7,32.5,10.5C352.2,516.4,327.2,525.3,304.3,538.3z M535.8,521.7
		c-3.2,11.9-13.8,20.2-25.6,20.2c-4.6,0-9.3-1.3-13.5-3.7c-22.3-13.1-47.1-22.1-70.8-25.9c11.1-1.9,21.9-5.3,31.5-10.8
		c0.7,0.2,1.5,0.5,2.2,0.7c0.8,0.3,1.7,0.5,2.5,0.8c1.5,0.5,2.9,1,4.4,1.5c0.7,0.3,1.5,0.5,2.2,0.8c1.4,0.5,2.8,1.1,4.2,1.6
		c0.7,0.3,1.5,0.6,2.2,0.9c1.3,0.5,2.7,1.1,4,1.7c0.8,0.3,1.6,0.7,2.4,1c1.3,0.6,2.7,1.2,4,1.8c0.7,0.3,1.5,0.7,2.2,1
		c1.3,0.6,2.6,1.3,3.9,1.9c0.7,0.4,1.5,0.7,2.2,1.1c1.2,0.6,2.4,1.3,3.6,1.9c0.8,0.4,1.6,0.8,2.4,1.3c2,1.1,3.9,2.2,5.8,3.3
		c0.4,0.2,0.7,0.4,1,0.5c0.1,0,0.2,0.1,0.3,0.1c0.2,0.1,0.5,0.2,0.7,0.3c0.1,0,0.2,0.1,0.4,0.1c0.2,0.1,0.5,0.1,0.7,0.1
		c0.1,0,0.2,0,0.3,0.1c0.3,0,0.6,0.1,0.8,0.1h0.1l0,0c0.4,0,0.9,0,1.3-0.1c0.1,0,0.2,0,0.2,0c0.4-0.1,0.8-0.2,1.2-0.3
		c0.1,0,0.1-0.1,0.2-0.1c0.4-0.2,0.8-0.3,1.1-0.5l0,0c0.4-0.2,0.7-0.4,1-0.7c0.1,0,0.1-0.1,0.2-0.1c0.3-0.3,0.6-0.5,0.9-0.8
		c0.1-0.1,0.1-0.1,0.2-0.2c0.3-0.3,0.5-0.6,0.8-1c0,0,0-0.1,0.1-0.1c0.2-0.3,0.4-0.7,0.6-1c0-0.1,0.1-0.1,0.1-0.2
		c0.2-0.4,0.3-0.7,0.5-1.1c0-0.1,0.1-0.2,0.1-0.2c0.1-0.4,0.2-0.8,0.3-1.2c0-0.1,0-0.1,0-0.2c0.1-0.4,0.1-0.8,0.1-1.2
		c0-0.1,0-0.1,0-0.2c0-0.4,0-0.8-0.1-1.2c0-0.1,0-0.2,0-0.2c-0.1-0.4-0.1-0.8-0.3-1.2c0-0.1,0-0.1-0.1-0.2c-0.1-0.4-0.3-0.8-0.5-1.1
		v-0.1c-0.2-0.4-0.5-0.7-0.7-1.1c-0.1-0.1-0.1-0.1-0.2-0.2c-0.3-0.3-0.6-0.7-1-1c-0.1-0.1-0.1-0.1-0.2-0.2c-0.4-0.3-0.8-0.6-1.3-0.9
		c-2.1-1.2-4.2-2.4-6.3-3.6c-0.8-0.5-1.7-0.9-2.6-1.4c-1.3-0.7-2.6-1.4-3.9-2.1c-1.2-0.6-2.4-1.2-3.6-1.8c-1-0.5-2-1-3-1.5
		c-1.2-0.6-2.4-1.1-3.5-1.6s-2.2-1-3.2-1.5c-1.2-0.5-2.4-1-3.5-1.5s-2.2-1-3.4-1.4c-1.3-0.5-2.7-1-4-1.5c-1-0.4-2-0.8-3-1.2
		c-0.2-0.1-0.4-0.2-0.7-0.2c4.1-4.6,7.4-9.7,10-15.2c13.7,5.2,27.1,11.6,39.9,19.1C534.1,498.3,538.9,510.2,535.8,521.7z"/>
	<path d="M792.6,467.6c-4.9-9.7-17-13.8-70.2-9c-16.2,1.5-32,3.4-42.4,4.8c-1.3-73-30.3-141.4-82.1-193.2
		c-53-53-123.4-82.1-198.3-82.1s-145.3,29.2-198.3,82.1c-51.9,51.9-80.9,120.6-82.1,193.8c-10.4-1.4-25.6-3.2-41.2-4.6
		c-53.1-4.8-65.3-0.7-70.2,9c-7.2,14.3,0.3,66.2,20.4,91.9c9.6,12.3,21.7,18.8,35,18.8c3,0,6.1-0.3,9.1-1
		c29.1-6.3,50-20.8,62.5-31.8c1.1,1.5,2.3,3,3.3,4.3c34.4,39.6,124.8,60.5,261.4,60.5s227.1-20.9,261.4-60.5c1.6-1.8,3-3.6,4.2-5.4
		c12.4,11.1,33.5,25.7,62.9,32.1c3.1,0.7,6.1,1,9.1,1c13.2,0,25.4-6.5,35-18.8C792.2,533.8,799.7,482,792.6,467.6z M120,510.2
		L80.7,530l37.1-0.2c-10.3,8.8-27.2,20.1-50.5,25.2c-6.9,1.5-12.5-0.5-18.1-6.5c-15.5-16.6-20.9-53.9-20.3-66.8
		c13.3-2.1,54,1.2,90.9,6.3c0.1,1.4,0.2,2.8,0.3,4.2l-42.5,5.2L120,510.2z M646.3,521.7c-1.1,3.1-3.4,7.4-8.2,12.3
		c-17.5,18.3-71.9,49-238.5,49s-221-30.7-238.5-49c-4.7-5-7.1-9.2-8.2-12.3c-3.7-17.1-5.7-34.9-5.7-53.2
		c0-139.4,113-252.4,252.4-252.4S652,329.2,652,468.6C652,486.8,650,504.6,646.3,521.7z M751.2,547.7c-5.6,6-11.2,8-18.1,6.5
		c-23.3-5.1-40.2-16.4-50.5-25.2l37.1,0.2l-39.3-19.7l42.3-12.9l-43.6-5.3c0-0.2,0-0.5,0.1-0.7l0.5-3.2c37.2-5.1,78.5-8.5,91.9-6.4
		C772.2,493.9,766.7,531.2,751.2,547.7z"/>
</g>
</svg>
