<!--?xml version="1.0" standalone="no"?-->

<svg version="1.0" xmlns="http://www.w3.org/2000/svg" width="300.000000pt" height="299.000000pt" viewBox="0 0 300.000000 299.000000" preserveAspectRatio="xMidYMid meet">
<g transform="translate(0.000000,299.000000) scale(0.100000,-0.100000)" fill="#131213" stroke="none">
<path class="node" id="node1" d="M800 2796 c-69 -15 -197 -77 -269 -132 -31 -24 -117 -105 -192 -181
l-136 -138 -6 -81 c-4 -53 -16 -105 -33 -148 -36 -91 -33 -96 67 -94 44 1 73
5 62 9 -10 4 -25 14 -32 23 -14 17 1 44 60 109 16 17 29 36 30 42 0 5 9 -29
19 -76 10 -48 21 -96 24 -107 5 -16 2 -21 -16 -24 -22 -4 -22 -5 -3 -13 11 -5
24 -14 28 -22 4 -7 19 -13 32 -13 25 0 25 0 25 103 0 113 14 177 54 251 31 59
33 85 6 119 -28 35 -26 47 23 114 110 148 261 233 416 233 163 -1 333 -78 449
-204 54 -58 54 -48 1 21 -77 99 -214 186 -337 212 -67 14 -201 13 -272 -3z"></path>
<path class="node" id="node2" d="M1950 2792 c-75 -20 -176 -74 -238 -128 -45 -38 -127 -142 -119 -150
2 -2 14 10 27 28 36 52 124 122 203 162 175 88 373 86 512 -6 59 -39 149 -127
189 -186 31 -45 32 -39 -9 -113 -14 -24 -12 -31 20 -96 44 -89 57 -148 55
-248 -1 -44 -2 -86 -1 -92 1 -15 51 -18 51 -3 0 5 12 16 28 24 25 14 26 15 5
16 -27 0 -27 -1 -8 70 8 30 15 72 15 93 0 21 4 37 10 35 18 -6 100 -113 100
-130 0 -10 -12 -23 -26 -31 -23 -12 -19 -13 56 -15 88 -2 104 8 81 51 -27 53
-44 118 -51 195 l-7 82 -149 148 c-82 82 -170 162 -195 180 -75 50 -182 101
-250 117 -84 19 -218 18 -299 -3z"></path>
<path class="node" id="node3" d="M896 2684 c-63 -15 -212 -89 -220 -110 -2 -6 14 -1 37 11 77 43 151
58 257 53 81 -4 108 -10 161 -35 124 -58 218 -173 253 -308 35 -133 11 -342
-58 -497 -38 -85 -22 -70 25 24 75 149 92 222 93 388 0 129 -2 152 -23 205
-43 108 -103 187 -176 229 -91 54 -228 69 -349 40z"></path>
<path class="node" id="node4" d="M1904 2686 c-137 -33 -241 -145 -288 -308 -25 -89 -22 -262 8 -370
25 -89 95 -250 114 -262 7 -4 -1 22 -17 57 -74 164 -94 372 -51 514 84 278
385 404 653 274 81 -39 46 -3 -42 43 -118 62 -257 81 -377 52z"></path>
<path class="node" id="node5" d="M894 2563 c-9 -27 -25 -68 -35 -92 -11 -24 -19 -45 -19 -46 0 -1 21
-10 46 -20 l46 -18 39 44 c52 60 102 136 95 147 -7 12 -86 32 -125 32 -26 0
-31 -5 -47 -47z"></path>
<path class="node" id="node6" d="M2032 2600 c-66 -15 -64 -29 14 -130 62 -82 63 -83 117 -64 l47 16
-16 36 c-9 21 -25 63 -36 95 -19 56 -21 57 -56 56 -21 -1 -52 -5 -70 -9z"></path>
<path class="node" id="node7" d="M2218 2584 c-3 -2 2 -38 10 -79 l15 -75 53 0 c30 0 54 2 54 5 0 26
-120 161 -132 149z"></path>
<path class="node" id="node8" d="M774 2538 c-23 -24 -51 -58 -64 -76 l-22 -33 58 3 58 3 13 60 c21
102 17 106 -43 43z"></path>
<path class="node" id="node9" d="M1051 2459 l-83 -90 33 -34 c19 -19 41 -35 50 -35 16 0 170 98 202
129 18 17 16 20 -39 70 -32 28 -63 51 -68 51 -6 0 -49 -41 -95 -91z"></path>
<path class="node" id="node10" d="M1836 2499 c-31 -28 -53 -55 -50 -60 9 -15 104 -83 162 -116 l52 -30
41 39 41 39 -61 62 c-33 34 -70 74 -83 90 -13 15 -29 27 -35 27 -6 0 -36 -23
-67 -51z"></path>
<path class="node" id="node11" d="M599 2457 c-14 -10 -37 -87 -26 -87 23 0 67 25 67 38 0 10 3 27 6 40
5 17 2 22 -12 22 -11 0 -26 -6 -35 -13z"></path>
<path class="node" id="node12" d="M2403 2430 c8 -29 19 -42 39 -51 36 -15 41 -10 33 34 -5 23 -15 38
-31 46 -45 20 -52 15 -41 -29z"></path>
<path class="node" id="node13" d="M685 2364 c-21 -8 -50 -24 -63 -36 l-23 -22 73 -18 c184 -46 294
-154 324 -318 l11 -65 24 50 c44 96 25 257 -39 328 -30 34 -90 67 -149 82 -70
18 -106 18 -158 -1z"></path>
<path class="node" id="node14" d="M2209 2366 c-131 -28 -206 -115 -216 -251 -6 -77 15 -173 43 -196 12
-9 14 -4 14 29 0 76 50 174 119 236 55 50 101 73 189 98 45 12 82 26 82 30 0
23 -126 73 -169 67 -3 0 -31 -6 -62 -13z"></path>
<path class="node" id="node15" d="M1285 2344 c-16 -9 -70 -31 -120 -51 -49 -19 -91 -36 -92 -37 -2 -1
5 -28 13 -59 l16 -56 56 21 c56 21 138 27 180 14 19 -6 22 -4 22 20 0 23 -37
164 -43 164 -1 0 -15 -7 -32 -16z"></path>
<path class="node" id="node16" d="M1708 2293 c-9 -38 -19 -79 -22 -93 l-5 -25 83 3 c69 3 92 0 131 -17
27 -12 49 -20 50 -19 1 2 9 27 18 55 16 57 13 64 -33 78 -26 7 -44 15 -144 59
-32 14 -59 26 -60 26 -1 0 -9 -30 -18 -67z"></path>
<path class="node" id="node17" d="M1191 2121 c-63 -16 -79 -31 -90 -80 -5 -25 -13 -54 -16 -63 -7 -17
-5 -17 31 -2 43 18 156 14 195 -6 15 -9 24 -9 32 -1 14 14 22 130 10 142 -13
13 -122 20 -162 10z"></path>
<path class="node" id="node18" d="M1728 2123 c-45 -7 -52 -24 -38 -99 12 -60 14 -65 34 -59 72 24 117
28 173 18 32 -6 59 -9 61 -8 2 2 -2 28 -9 58 -11 47 -18 58 -47 71 -35 17
-128 27 -174 19z"></path>
<path class="node" id="node19" d="M1145 1930 c-76 -15 -89 -25 -125 -93 -19 -36 -32 -68 -29 -71 3 -4
20 -1 38 5 31 11 149 7 202 -6 25 -6 29 -3 57 56 17 35 28 67 26 71 -19 30
-109 50 -169 38z"></path>
<path class="node" id="node20" d="M1806 1929 c-22 -5 -48 -17 -57 -25 -16 -15 -16 -19 -1 -59 8 -24 23
-53 32 -65 15 -20 20 -21 56 -11 51 14 142 14 183 0 18 -6 34 -9 37 -6 7 7
-41 105 -63 129 -29 32 -125 51 -187 37z"></path>
<path class="node" id="node21" d="M1447 1855 c-57 -117 -157 -228 -362 -405 -135 -115 -147 -127 -217
-215 -61 -77 -104 -156 -138 -255 -29 -83 -32 -252 -7 -348 33 -122 81 -209
160 -286 40 -39 92 -80 117 -92 25 -12 61 -29 80 -38 l35 -17 -45 6 c-73 10
-169 62 -236 129 -72 72 -125 173 -152 292 -17 76 -19 79 -48 82 -46 5 -55
-13 -44 -89 20 -123 66 -229 140 -318 121 -145 321 -222 505 -193 115 18 217
79 266 159 21 33 24 35 33 18 49 -85 162 -158 277 -177 144 -25 332 30 451
132 95 82 173 238 196 388 10 71 2 86 -44 80 -26 -3 -30 -9 -49 -83 -43 -159
-92 -247 -178 -320 -52 -44 -153 -93 -209 -100 l-43 -6 40 20 c22 11 44 20 49
21 5 0 37 20 71 45 151 107 234 270 243 478 7 169 -20 267 -116 412 -61 92
-153 188 -287 300 -171 143 -261 245 -338 380 -36 64 -25 21 18 -70 46 -98
137 -206 315 -375 260 -246 334 -363 356 -556 22 -206 -97 -450 -274 -561 -66
-41 -81 -47 -146 -51 -64 -4 -81 -1 -135 23 -100 45 -169 142 -140 197 21 41
42 58 70 58 35 0 69 -35 69 -71 0 -26 -22 -59 -40 -59 -22 0 -40 14 -40 32 0
10 -4 16 -10 13 -5 -3 -10 -17 -10 -30 0 -61 82 -76 131 -24 71 76 5 209 -104
209 -44 0 -70 -12 -110 -49 -28 -25 -29 -25 -43 -7 -41 57 -131 74 -185 35
-65 -46 -80 -140 -30 -190 39 -39 93 -41 117 -4 13 20 14 31 6 48 -8 16 -11
18 -11 6 -2 -29 -28 -43 -56 -31 -20 9 -25 19 -25 47 0 69 68 98 115 50 70
-69 -20 -209 -160 -246 -60 -17 -152 -6 -213 25 -108 54 -215 191 -273 346
-21 56 -24 82 -24 190 1 114 3 131 29 193 61 146 135 235 404 482 63 59 180
200 219 265 27 44 65 140 61 152 -2 5 -16 -16 -31 -47z"></path>
<path class="node" id="node22" d="M995 1721 c-21 -4 -35 -17 -47 -41 -9 -19 -17 -39 -17 -45 -1 -6 29
-10 69 -10 41 0 75 -6 82 -13 7 -7 17 -12 24 -12 14 0 64 71 64 92 0 31 -94
47 -175 29z"></path>
<path class="node" id="node23" d="M1904 1720 c-36 -14 -37 -28 -7 -75 28 -45 49 -55 71 -33 7 7 41 13
82 13 39 0 70 4 70 8 0 4 -9 25 -19 46 -17 31 -27 39 -58 44 -52 9 -114 8
-139 -3z"></path>
<path class="node" id="node24" d="M882 1555 c-31 -39 -27 -50 16 -51 21 -1 53 -9 71 -19 32 -16 35 -16
59 2 69 52 49 85 -56 91 -65 4 -70 3 -90 -23z"></path>
<path class="node" id="node25" d="M2012 1570 c-36 -15 -38 -38 -5 -71 l29 -30 54 21 c30 12 64 19 77
15 31 -7 31 18 -2 50 -20 21 -34 25 -77 24 -29 0 -63 -4 -76 -9z"></path>
<path class="node" id="node26" d="M806 1427 c-14 -14 -26 -30 -26 -36 0 -5 28 -11 63 -13 54 -4 65 -1
87 19 31 29 19 42 -47 50 -46 5 -54 3 -77 -20z"></path>
<path class="node" id="node27" d="M2135 1443 c-35 -9 -40 -21 -18 -45 19 -20 30 -23 87 -20 60 3 65 5
56 22 -25 46 -60 58 -125 43z"></path>
<path class="node" id="node28" d="M752 1324 c-13 -6 -42 -56 -42 -74 0 -5 21 -10 48 -10 43 0 49 3 71
35 13 20 22 37 20 39 -8 7 -84 15 -97 10z"></path>
<path class="node" id="node29" d="M2223 1323 l-32 -4 26 -40 c24 -36 29 -39 74 -39 53 0 57 6 34 49
-14 28 -36 43 -58 39 -7 0 -27 -3 -44 -5z"></path>
<path class="node" id="node30" d="M670 1174 c-16 -41 -13 -44 39 -44 38 0 50 4 54 18 2 9 8 25 12 35 6
15 1 17 -44 17 -46 0 -53 -3 -61 -26z"></path>
<path class="node" id="node31" d="M2277 1168 c17 -29 25 -33 66 -35 50 -3 54 2 35 42 -10 22 -17 25
-66 25 l-54 0 19 -32z"></path>
<path class="node" id="node32" d="M616 1065 c-28 -42 -22 -50 38 -47 50 3 56 6 65 32 12 36 7 40 -45
40 -33 0 -45 -5 -58 -25z"></path>
<path class="node" id="node33" d="M2325 1081 c-3 -5 0 -21 6 -34 10 -21 20 -26 63 -29 28 -2 52 -3 54
-2 2 1 -4 18 -12 38 -14 34 -18 36 -60 36 -25 0 -47 -4 -51 -9z"></path>
<path class="node" id="node34" d="M604 963 c-21 -4 -34 -28 -34 -65 0 -15 7 -17 48 -11 52 7 62 15 62
56 0 23 -4 27 -27 26 -16 -1 -38 -4 -49 -6z"></path>
<path class="node" id="node35" d="M2360 965 c0 -5 5 -24 12 -42 9 -26 18 -33 38 -33 14 0 36 -3 49 -7
23 -6 24 -4 17 28 -3 18 -10 37 -14 41 -11 11 -102 22 -102 13z"></path>
<path class="node" id="node36" d="M600 841 c-21 -6 -26 -14 -28 -49 -3 -45 3 -49 57 -33 20 5 24 13 25
46 1 43 -8 49 -54 36z"></path>
<path class="node" id="node37" d="M2390 807 c0 -42 2 -45 31 -51 56 -11 59 -9 59 39 0 40 -3 45 -22 45
-13 0 -33 3 -45 6 -21 6 -23 3 -23 -39z"></path>
</g>
<g transform="translate(0.000000,299.000000) scale(0.100000,-0.100000)" fill="#A1A1A1" stroke="none">

</g>
</svg>