<?xml version="1.0" encoding="utf-8"?>
<!-- Generator: Adobe Illustrator 22.1.0, SVG Export Plug-In . SVG Version: 6.00 Build 0)  -->
<!DOCTYPE svg PUBLIC "-//W3C//DTD SVG 1.1//EN" "http://www.w3.org/Graphics/SVG/1.1/DTD/svg11.dtd">
<svg version="1.1" id="Calque_1" xmlns="http://www.w3.org/2000/svg" xmlns:xlink="http://www.w3.org/1999/xlink" x="0px" y="0px"
	 viewBox="0 0 800 800" style="enable-background:new 0 0 800 800;" xml:space="preserve">
<g>
	<path d="M467.3,607.5c-1.7-24-30.9-43.2-66.8-43.2s-65.1,19.1-66.8,43.2h-0.2c0,0,0,0.2,0.1,0.7c0,0.5-0.1,1-0.1,1.5
		c0,6.8,2.3,13.2,6.2,18.9c8,18.9,25.5,43.6,62.9,43.6c41.1,0,56.2-29.9,61.7-49c2-4.3,3.1-8.8,3.1-13.6c0-0.4-0.1-0.8-0.1-1.2
		c0.1-0.6,0.1-1,0.1-1L467.3,607.5L467.3,607.5z"/>
	<circle cx="251.6" cy="408.9" r="34.5"/>
	<circle cx="558.1" cy="408.9" r="34.5"/>
	<path d="M795.5,284.8l-2.2-26.9c-3.7-24.1-12.1-47.5-24.9-69.5c32.9-52,18.5-121.3-33-155.6C687.7,1,624.4,10.1,587.2,51.7
		c-56.7-20.3-120.5-31.2-186.7-31.2c-67.1,0-131.7,11.2-189.1,32.1c-37-42.4-100.8-51.9-148.9-19.8C10.3,67.5-3.9,138.4,31,190.6
		l0.5-0.3c-12.2,21.5-20.2,44.2-23.8,67.6l-2.2,26.9c0,0.4,0,0.7,0,1.1c0,10.8,1.1,22.1,3.2,33.5c7.3,62.4,28.4,179.3,87.5,268
		c91.3,136.9,181.4,197.2,301.2,201.5h5.7h0.5c119.9-4.3,209.9-64.5,301.2-201.5c59.1-88.6,80.2-205.6,87.5-268
		c2.1-11.4,3.2-22.7,3.2-33.5C795.5,285.5,795.5,285.2,795.5,284.8z M703.7,80.1c19.2,12.8,28.1,35.4,24.5,56.9
		c-15.5-15.4-33.4-29.8-53.9-42.9c-9.3-6-18.9-11.6-28.9-16.9C663.4,67.7,685.7,68.1,703.7,80.1z M94.1,80.1
		c18.5-12.3,41.6-12.3,59.8-2c-9.4,5-18.5,10.3-27.3,16C105,108,86.2,123.3,70.1,139.6C65.3,117.3,74.1,93.4,94.1,80.1z
		 M741.3,310.7l-0.3,1.8c-5.4,46.3-23.9,163.1-79.3,246.1C580.9,679.9,503.2,733.3,402.2,737h-3.4c-101-3.8-178.7-57.1-259.5-178.4
		c-55.4-83-73.9-199.8-79.3-246.1l-0.3-1.8c-1.5-7.8-2.3-15.1-2.4-22.3l0.1-4.2c1.3-91.7,96.3-169.9,227.8-199.4l-46.5,60.9l82,47.5
		l-56.1,4.3l69.1,56.1l-38.9,25.9l103.6,125.2L502,279.5l-38.9-25.9l69.1-56.1l-56.1-4.3l82-47.5l-47.4-61.9
		c134.1,28.6,231.7,107.6,232.9,200.4l0.1,3.8C743.6,295.3,742.8,302.7,741.3,310.7z"/>
</g>
</svg>
