<?xml version="1.0" encoding="UTF-8"?>
<svg width="220px" height="294px" viewBox="0 0 220 294" version="1.1" xmlns="http://www.w3.org/2000/svg" xmlns:xlink="http://www.w3.org/1999/xlink">
    <!-- Generator: Sketch 43.2 (39069) - http://www.bohemiancoding.com/sketch -->
    <title>Snek</title>
    <desc>Created with Sketch.</desc>
    <defs></defs>
    <g id="Page-1" stroke="none" stroke-width="1" fill="none" fill-rule="evenodd">
        <g id="Letter" transform="translate(-86.000000, -253.000000)" fill="#000000">
            <g id="Snek" transform="translate(86.143145, 253.500000)">
                <path d="M36.1773696,0.123245115 C15.732164,15.3188583 1.65110164,38.2488085 0.325061814,69.0043239 C86.2835253,322.49801 138.33397,304.427554 219.51233,71.4919407 C218.973797,44.6770269 208.554633,23.5611947 192.523153,8.20537327 C202.716684,22.7861109 209.071605,41.3729147 209.497894,63.9603044 C133.597206,299.509117 83.8072725,301.259905 11.5069476,63.9603044 C12.60139,36.9482651 22.0072717,15.6723439 36.1773696,0.123245115 Z" id="Combined-Shape"></path>
                <path d="M103.129741,241.380082 L102.846892,293.224621 L109.326089,283.29643 L116.208729,292.924232 L116.208729,241.380082 C107.038414,242.343422 103.129741,241.380082 103.129741,241.380082 Z" id="Path-6"></path>
                <ellipse id="Oval-3" cx="46.752587" cy="96.7522242" rx="9.77522242" ry="9.02328223"></ellipse>
                <ellipse id="Oval-3" cx="175.705944" cy="96.7522242" rx="9.77522242" ry="9.02328223"></ellipse>
            </g>
        </g>
    </g>
</svg>