<?xml version="1.0" encoding="UTF-8"?>
<svg width="254px" height="255px" viewBox="0 0 254 255" version="1.1" xmlns="http://www.w3.org/2000/svg" xmlns:xlink="http://www.w3.org/1999/xlink">
    <!-- Generator: Sketch 43.2 (39069) - http://www.bohemiancoding.com/sketch -->
    <title>Hunnybadger</title>
    <desc>Created with Sketch.</desc>
    <defs></defs>
    <g id="Page-1" stroke="none" stroke-width="1" fill="none" fill-rule="evenodd">
        <g id="Letter" transform="translate(-588.000000, -69.000000)" fill="#000000">
            <g id="Hunnybadger" transform="translate(588.638060, 68.500000)">
                <path d="M0.0822637177,75.1376436 C0.0822637177,75.1376436 1.59247371,14.8949056 16.397372,2.72385297 C31.2932154,-9.52196545 70.6349776,41.2335644 70.6349776,41.2335644 C92.9420167,38.4581231 108.247137,37.218871 108.247137,37.218871 C108.247137,37.218871 87.8191172,49.7109066 83.534628,82.8350443 C79.2501388,115.959182 106.907943,140.46131 93.991244,184.954372 C92.6965979,192.169955 104.877091,185.710058 115.061243,184.878392 C115.061243,184.878392 79.9528109,195.620941 72.4420031,211.473971 C84.9297717,177.883112 30.0380519,92.8747577 6.59748477,105.242502 C6.59748477,105.242502 12.3391802,75.280091 49.6605479,53.566548 C27.5935163,-7.74006833 3.19692831,56.970578 0.0822637177,75.1376436 Z" id="Path-3"></path>
                <path d="M138.082264,75.1376436 C138.082264,75.1376436 139.592474,14.8949056 154.397372,2.72385297 C169.293215,-9.52196545 208.634978,41.2335644 208.634978,41.2335644 C230.942017,38.4581231 246.247137,37.218871 246.247137,37.218871 C246.247137,37.218871 225.819117,49.7109066 221.534628,82.8350443 C217.250139,115.959182 244.907943,140.46131 231.991244,184.954372 C230.696598,192.169955 242.877091,185.710058 253.061243,184.878392 C253.061243,184.878392 217.952811,195.620941 210.442003,211.473971 C222.929772,177.883112 168.038052,92.8747577 144.597485,105.242502 C144.597485,105.242502 150.33918,75.280091 187.660548,53.566548 C165.593516,-7.74006833 141.196928,56.970578 138.082264,75.1376436 Z" id="Path-3" transform="translate(195.571753, 106.145701) scale(-1, 1) translate(-195.571753, -106.145701) "></path>
                <path d="M90.0028043,237.375217 C99.8660797,210.363101 148.889015,202.647469 162.273642,237.375217 C121.690469,262.346702 124.279621,258.451196 90.0028043,237.375217 Z" id="Path-4"></path>
            </g>
        </g>
    </g>
</svg>