<?xml version="1.0" encoding="UTF-8"?>
<svg width="327px" height="180px" viewBox="0 0 327 180" version="1.1" xmlns="http://www.w3.org/2000/svg" xmlns:xlink="http://www.w3.org/1999/xlink">
    <!-- Generator: Sketch 43.2 (39069) - http://www.bohemiancoding.com/sketch -->
    <title>Galacticat</title>
    <desc>Created with Sketch.</desc>
    <defs></defs>
    <g id="Page-1" stroke="none" stroke-width="1" fill="none" fill-rule="evenodd">
        <g id="Letter" transform="translate(-33.000000, -27.000000)" fill="#000000">
            <g id="Galacticat" transform="translate(32.643145, 27.072824)">
                <path d="M92.4654373,60.0479507 C83.8628327,72.1079326 78.8662025,86.4960873 78.8662025,101.946547 C78.8662025,144.494204 116.758044,178.985895 163.5,178.985895 C210.241956,178.985895 248.133798,144.494204 248.133798,101.946547 C248.133798,86.4960873 243.137167,72.1079326 234.534563,60.0479507 C238.706446,69.5065261 241.021517,79.9578611 241.021517,90.9465468 C241.021517,133.494204 206.313952,167.985895 163.5,167.985895 C120.686048,167.985895 85.9784829,133.494204 85.9784829,90.9465468 C85.9784829,79.9578611 88.2935541,69.5065261 92.4654373,60.0479507 Z" id="Combined-Shape"></path>
                <g id="Whiskers" transform="translate(0.000000, 117.000000)">
                    <polygon id="Path-2" points="82.4487144 0.330743345 0.338338708 3.0820646 83.8990293 5.0953972"></polygon>
                    <polygon id="Path-2" points="93.4487144 10.3307433 11.3383387 13.0820646 94.8990293 15.0953972"></polygon>
                    <polygon id="Path-2" points="101.756955 21.9579326 27.3383387 24.0820646 104.506721 25.9278294"></polygon>
                </g>
                <g id="Whiskers" transform="translate(274.500000, 130.000000) scale(-1, 1) translate(-274.500000, -130.000000) translate(222.000000, 117.000000)">
                    <polygon id="Path-2" points="82.4487144 0.330743345 0.338338708 3.0820646 83.8990293 5.0953972"></polygon>
                    <polygon id="Path-2" points="93.4487144 10.3307433 11.3383387 13.0820646 94.8990293 15.0953972"></polygon>
                    <polygon id="Path-2" points="101.756955 21.9579326 27.3383387 24.0820646 104.506721 25.9278294"></polygon>
                </g>
                <path d="M163.505138,136.673205 L163.455325,136.673205 C162.943456,128.051985 158.077337,118.461958 151.150912,112.762323 L151.150912,112.673205 L175.150912,112.673205 L175.150912,112.834183 C168.388571,118.812143 163.681629,128.278879 163.505138,136.673205 Z" id="Combined-Shape"></path>
                <path d="M116.824236,32.9384845 C120.294044,30.749488 124.076821,28.9433475 128.187591,27.6868643 C128.187591,27.6868643 106.367164,9.60393854 86.8697714,0.723635457 C71.0851289,34.6565932 84.701212,78.3580197 84.701212,78.3580197 C84.701212,78.3580197 86.2027483,73.3400259 89.4849658,66.4030942 C85.9989749,53.0386748 83.9765926,34.0259082 92.138494,15.4016615 C100.542631,19.4646424 109.537949,26.5005495 116.824236,32.9384845 Z" id="Combined-Shape"></path>
                <path d="M236.824236,32.9384845 C240.294044,30.749488 244.076821,28.9433475 248.187591,27.6868643 C248.187591,27.6868643 226.367164,9.60393854 206.869771,0.723635457 C191.085129,34.6565932 204.701212,78.3580197 204.701212,78.3580197 C204.701212,78.3580197 206.202748,73.3400259 209.484966,66.4030942 C205.998975,53.0386748 203.976593,34.0259082 212.138494,15.4016615 C220.542631,19.4646424 229.537949,26.5005495 236.824236,32.9384845 Z" id="Combined-Shape" transform="translate(223.715988, 39.540828) scale(-1, 1) translate(-223.715988, -39.540828) "></path>
            </g>
        </g>
    </g>
</svg>