<?xml version="1.0" encoding="UTF-8"?>
<svg width="314px" height="245px" viewBox="0 0 314 245" version="1.1" xmlns="http://www.w3.org/2000/svg" xmlns:xlink="http://www.w3.org/1999/xlink">
    <!-- Generator: Sketch 43.2 (39069) - http://www.bohemiancoding.com/sketch -->
    <title>Group</title>
    <desc>Created with Sketch.</desc>
    <defs></defs>
    <g id="Page-1" stroke="none" stroke-width="1" fill="none" fill-rule="evenodd">
        <g id="Letter" transform="translate(-373.000000, -400.000000)" fill="#000000">
            <g id="Group" transform="translate(373.334184, 400.500000)">
                <path d="M51.1100666,146.00879 C51.0450347,146.231754 50.9799491,146.454839 50.9148098,146.678043 C-82.3754387,73.4805724 91.1873428,0.181207754 91.1873428,0.181207754 C91.1873428,0.181207754 91.1699322,0.249783607 91.1354342,0.385249599 C55.3390199,19.6058304 -34.071446,78.0743906 51.1100517,146.008778 Z" id="Combined-Shape"></path>
                <path d="M273.250892,146.00879 C273.18586,146.231754 273.120774,146.454839 273.055635,146.678043 C139.765386,73.4805724 313.328168,0.181207754 313.328168,0.181207754 C313.328168,0.181207754 313.310757,0.249783607 313.276259,0.385249599 C277.479845,19.6058304 188.069379,78.0743906 273.250877,146.008778 Z" id="Combined-Shape" transform="translate(268.021177, 73.429626) scale(-1, 1) translate(-268.021177, -73.429626) "></path>
                <path d="M78.5575116,31.2080089 C27.3643293,88.0751081 69.7045359,143.908095 57.6115098,183.865873 C65.819278,171.757398 66.467744,147.890165 66.467744,147.890165 C66.467744,147.890165 79.6508577,157.543347 87.6306749,174.77319 C85.2810329,162.875111 65.1389479,137.653858 65.1389479,137.653858 C65.1389479,137.653858 48.2778239,79.7542861 78.5575116,31.2080089 Z" id="Path-9"></path>
                <path d="M253.322331,31.2080089 C202.129149,88.0751081 244.469356,143.908095 232.37633,183.865873 C240.584098,171.757398 241.232564,147.890165 241.232564,147.890165 C241.232564,147.890165 254.415677,157.543347 262.395495,174.77319 C260.045853,162.875111 239.903768,137.653858 239.903768,137.653858 C239.903768,137.653858 223.042644,79.7542861 253.322331,31.2080089 Z" id="Path-9" transform="translate(244.856067, 107.536941) scale(-1, 1) translate(-244.856067, -107.536941) "></path>
                <path d="M103.284691,156.99813 C103.284691,156.99813 72.4978964,261.78072 157.668268,229.541266 C46.2217637,285.627028 103.284691,156.99813 103.284691,156.99813 Z" id="Path-10"></path>
                <path d="M171.427719,156.99813 C171.427719,156.99813 140.640925,261.78072 225.811296,229.541266 C114.364792,285.627028 171.427719,156.99813 171.427719,156.99813 Z" id="Path-10" transform="translate(191.316187, 200.349627) scale(-1, 1) translate(-191.316187, -200.349627) "></path>
                <path d="M128.859899,194.692111 C128.859899,194.692111 127.452098,188.707667 134.377328,185.934777 C144.03608,182.067375 157.010329,182.795662 157.010329,182.795662 L157.010329,222.586502 C157.010329,222.586502 130.7936,212.166949 128.859899,194.692111 Z" id="Path-11"></path>
                <path d="M157.127952,194.692111 C157.127952,194.692111 155.72015,188.707667 162.645381,185.934777 C172.304133,182.067375 185.278381,182.795662 185.278381,182.795662 L185.278381,222.586502 C185.278381,222.586502 159.061653,212.166949 157.127952,194.692111 Z" id="Path-11" transform="translate(171.144355, 202.663826) scale(-1, 1) translate(-171.144355, -202.663826) "></path>
            </g>
        </g>
    </g>
</svg>