<?xml version="1.0" encoding="utf-8"?>
<!-- Generator: Adobe Illustrator 19.2.1, SVG Export Plug-In . SVG Version: 6.00 Build 0)  -->
<svg version="1.1" id="Layer_2" xmlns="http://www.w3.org/2000/svg" xmlns:xlink="http://www.w3.org/1999/xlink" x="0px" y="0px"
	 viewBox="0 0 800 800" style="enable-background:new 0 0 800 800;" xml:space="preserve">
<path d="M95.2,154.7c-6.1-5.9-6.7-31.1-18.4-43c-23-23.6-77.9,7.4-74.4,37.1c4.5,39,46.4,17.3,65.8,31.7
	c49,36.5,159.9,159.8,159.9,245.9c0,3,0,6-0.1,9c41.4-39.5,65.4-83.6,71.7-131.6C222,273.7,158.8,216.1,95.2,154.7z M49.9,141.6
	c-10.7,5.5-22.2,4.3-25.8-2.6c-3.5-6.9,2.3-17,13-22.5s22.2-4.3,25.8,2.6C66.4,126.1,60.6,136.2,49.9,141.6z"/>
<path d="M227.6,575.6c-5.7-6.3-15.7-11-29.4-10.8c-22.3,43.3-55.4,67-93,50.4c-17.9-7.9-25.9,36.1-0.7,44.9
	c8.3,2.9,17.9,5.9,32.1,3.4c15.7-2.7,23.5-8.8,37.7-17.9c16.7-10.7,34.8-26.5,58.4-40.7C236.6,594.4,234.8,583.5,227.6,575.6z"/>
<g>
	<path d="M400,325.7c-34-0.7-55.1-6.4-84.3-16.1c-8.2,55.4-38.1,105.6-89.1,149.7c-3,32.5-10.2,63.3-20.8,89
		c19.2,1.9,30.1,11.6,34.1,16c7.7,8.5,11.6,19.2,11.5,30.2c37.6-19.2,104.5-29.7,148.6-29.6v-29.7c0,0-7.4-30.8-8.3-83.8
		c-0.8-47,8.3-83.8,8.3-83.8V325.7z M333.8,378.2c-0.3,4.7-1,11.3-2.1,19.1c-2.2,15.7-6.6,36.2-12.3,56.4
		c-5.7,20.2-12.7,40-19.1,54.5c-3.2,7.3-6,13.3-8.2,17.4c-2.1,4.2-3.5,6.5-3.5,6.5s0-2.7,0.4-7.4c0.3-4.7,1-11.3,2.1-19.1
		c2.2-15.7,6.6-36.2,12.3-56.4c5.7-20.2,12.7-40,19-54.5c3.2-7.3,6.1-13.3,8.2-17.4c2.1-4.2,3.6-6.5,3.6-6.5
		S334.2,373.5,333.8,378.2z"/>
</g>
<path d="M264.3,616.5c-3.6,4.2-7.2,19.1-3.8,39c3.2,18.4,11.1,33.1,22,41.2c28.3-11.9,81.6-46.8,96.7-77c6.1-12.2,2-27.7-0.9-32.2
	C357.5,581.4,287.6,589.5,264.3,616.5z"/>
<path d="M500.4,303.9c6.3,48,30.3,92.2,71.7,131.6c-0.1-3-0.1-6-0.1-9c0-86.1,110.8-209.4,159.9-245.9c19.4-14.5,61.3,7.2,65.8-31.7
	c3.5-29.8-51.5-60.7-74.4-37.1c-11.7,12-12.2,37.2-18.4,43C641.2,216.1,578,273.7,500.4,303.9z M737.1,119.2
	c3.5-6.9,15.1-8.1,25.8-2.6s16.5,15.5,13,22.5c-3.5,6.9-15.1,8.1-25.8,2.6S733.6,126.1,737.1,119.2z"/>
<path d="M572.4,575.6c5.7-6.3,15.7-11,29.4-10.8c22.3,43.3,55.4,67,93,50.4c17.9-7.9,25.9,36.1,0.7,44.9c-8.3,2.9-17.9,5.9-32.1,3.4
	c-15.7-2.7-23.5-8.8-37.7-17.9c-16.7-10.7-34.8-26.5-58.4-40.7C563.4,594.4,565.2,583.5,572.4,575.6z"/>
<g>
	<path d="M484.3,309.7c-29.1,9.6-50.3,15.4-84.3,16.1v41.9c0,0,9.2,36.8,8.3,83.8c-0.9,53-8.3,83.8-8.3,83.8V565
		c44.2-0.2,111,10.4,148.6,29.6c-0.1-11.1,3.7-21.7,11.5-30.2c4-4.4,14.9-14.1,34.1-16c-10.6-25.7-17.9-56.5-20.8-89
		C522.4,415.2,492.5,365,484.3,309.7z M477.6,394.7c6.3,14.5,13.3,34.3,19,54.5s10,40.7,12.3,56.4c1.1,7.9,1.8,14.5,2.1,19.1
		c0.4,4.7,0.4,7.4,0.4,7.4s-1.4-2.3-3.5-6.5c-2.2-4.2-5-10.1-8.2-17.4c-6.3-14.5-13.4-34.3-19.1-54.5s-10.1-40.7-12.3-56.4
		c-1.1-7.9-1.8-14.5-2.1-19.1c-0.4-4.7-0.4-7.4-0.4-7.4s1.4,2.3,3.6,6.5C471.5,381.4,474.4,387.4,477.6,394.7z"/>
</g>
<path d="M535.7,616.5c3.6,4.2,7.2,19.1,3.8,39c-3.2,18.4-11.1,33.1-22,41.2c-28.3-11.9-81.6-46.8-96.7-77c-6.1-12.2-2-27.7,0.9-32.2
	C442.5,581.4,512.4,589.5,535.7,616.5z"/>
</svg>
