<?xml version="1.0" encoding="utf-8"?>
<!-- Generator: Adobe Illustrator 19.2.1, SVG Export Plug-In . SVG Version: 6.00 Build 0)  -->
<svg version="1.1" id="Layer_2" xmlns="http://www.w3.org/2000/svg" xmlns:xlink="http://www.w3.org/1999/xlink" x="0px" y="0px"
	 viewBox="0 0 800 800" style="enable-background:new 0 0 800 800;" xml:space="preserve">
<path d="M784.3,446.3c-40-25-75.2,3.2-98.5,21.9c-7,5.6-13.1,10.5-18,13.1c-20,10.5-34,1.4-44.2-5.1c-0.3-0.2-0.5-0.3-0.8-0.5
	c-0.6-6.7-1.9-13.4-3.7-19.8c0.3,0,0.6,0,0.9,0c25.8,0,60.1-33.2,74.2-66.8c4-9.7,7-18.9,9.9-27.7c9.2-28.9,17.3-53.8,59.7-78.1
	l19.5-11.2h-22.4c-48.7,0-78.1,42.3-109.4,87.1c-2.2,3.2-4.4,6.4-6.7,9.6c-19.3,27.4-45.3,31.2-57.5,31.4
	c-5.5-6-11.7-11.9-18.3-17.3c23.1-12.1,46.6-50.5,43.2-85.3c-0.8-8.2-2.1-16.6-3.4-25.4c-6.2-40.3-13.4-86,30.1-134.9l15.1-17.1
	l-21.5,7.4c-32.4,11.2-52.3,29-62.6,56c-9.6,24.9-10.7,56.2-11.1,94.6c-0.6,52.4-28.8,67.7-44.6,72.1
	c-33.3-14.1-72.2-22.2-113.7-22.2l0,0c-0.1,0-0.1,0-0.2,0c-0.1,0-0.1,0-0.2,0l0,0c-41.5,0-80.4,8.1-113.7,22.2
	c-15.9-4.4-44-19.6-44.6-72.1c-0.4-38.3-1.5-69.7-11.1-94.6c-10.4-27-30.3-44.8-62.6-56l-21.5-7.4l15.1,17.1
	c43.4,49,36.3,94.7,30.1,134.9c-1.4,8.8-2.7,17.2-3.4,25.4c-3.3,34.8,20.1,73.3,43.2,85.3c-6.6,5.4-12.8,11.3-18.3,17.3
	c-12.2-0.1-38.2-3.8-57.5-31.4c-2.2-3.2-4.5-6.4-6.7-9.6C117.4,314.3,87.9,272,39.3,272H16.9l19.5,11.2
	c42.3,24.3,50.4,49.3,59.7,78.1c2.8,8.8,5.8,18.1,9.9,27.7c14.1,33.6,48.5,66.8,74.2,66.8c0.3,0,0.6,0,0.9,0
	c-1.8,6.4-3,13.1-3.7,19.8c-0.3,0.2-0.5,0.3-0.8,0.5c-10.3,6.5-24.3,15.6-44.2,5.1c-4.9-2.5-11-7.4-18-13.1
	c-23.3-18.7-58.5-47.1-98.5-21.9L2,454.9l16.1,2.3c42.9,6.3,52.5,21.2,62.6,37.1c4.5,7,9.1,14.3,16.6,20.9
	c22.7,20.2,46,24.6,62,24.6c0.5,0,1,0,1.5,0c12.4-0.2,21.8-2.9,26.5-4.6c28.9,63.9,113,110.3,212.3,110.4l0,0c0.1,0,0.1,0,0.2,0
	c0.1,0,0.1,0,0.2,0l0,0c99.4-0.1,183.6-46.5,212.3-110.4c4.7,1.6,14.3,4.3,26.5,4.6c0.5,0,1,0,1.5,0c16,0,39.3-4.4,62-24.6
	c7.4-6.6,12.1-13.9,16.6-20.9c10.1-15.8,19.6-30.8,62.6-37.1l16.1-2.3L784.3,446.3z M105.4,506.3c-6.2-5.5-10.2-11.8-14.5-18.4
	c-9-14.1-19-29.8-51.6-38.5c25.7-5.4,48.6,13,67.6,28.3c7.5,6,14,11.3,19.9,14.4c21.7,11.3,38.8,4.6,50.1-1.9
	c0.3,11.8,2.5,23.1,6.2,34.2C173.5,527.6,139.2,536.3,105.4,506.3z M185.4,443v-0.1c-16.1,6.4-52.8-21.3-68.4-58.5
	c-3.8-9.2-6.7-18.1-9.6-26.7c-7.5-23.4-14.8-45.8-39.8-67.3c27.5,12.9,49,43.5,71.3,75.5c2.2,3.2,4.5,6.4,6.7,9.7
	c18.3,25.9,41.8,33.7,57.9,35.8C196,421.2,190,431.9,185.4,443z M242.5,374.2c-8.8-1.8-19.9-11.6-28.6-25.2
	c-10.4-16.3-15.4-34.6-13.9-50.5c0.7-7.8,2-16.1,3.3-24.7c5.6-35.9,12.4-79.5-18.3-125.8c16.8,9.6,27.6,22.2,34.3,39.6
	c8.8,23,9.9,53.3,10.3,90.5c0.3,23.8,6.3,56,33.5,74.2c2.7,1.8,5.4,3.3,8,4.6C260.9,362.1,251.4,367.8,242.5,374.2z M296,488.6
	c-9.7-3.7-13.7-15.6-8.9-26.4c4.7-10.9,16.3-16.7,25.9-13c9.7,3.7,13.7,15.6,8.9,26.4C317.3,486.5,305.7,492.3,296,488.6z
	 M400.1,563.2c-39.2,0-57.8-11.3-79.6-29.3c0,0,30,14.6,79.4,14.6l0,0c0.1,0,0.1,0,0.2,0c0.1,0,0.1,0,0.2,0l0,0
	c49.5-0.1,79.4-14.6,79.4-14.6C457.9,551.9,439.3,563.2,400.1,563.2z M504.2,488.6c-9.7,3.7-21.2-2.1-25.9-13
	c-4.7-10.9-0.7-22.7,8.9-26.4c9.7-3.7,21.2,2.1,25.9,13C517.8,473,513.8,484.9,504.2,488.6z M529,356.9c2.6-1.3,5.3-2.8,8-4.6
	c27.1-18.2,33.2-50.4,33.5-74.2c0.4-37.1,1.5-67.4,10.3-90.5c6.6-17.4,17.5-30.1,34.3-39.6c-30.7,46.2-23.8,89.9-18.3,125.8
	c1.3,8.6,2.6,16.8,3.3,24.7c1.5,15.8-3.5,34.2-13.9,50.5c-8.6,13.7-19.7,23.3-28.6,25.2C548.8,367.8,539.3,362.1,529,356.9z
	 M614.8,443c-4.4-11.2-10.6-21.7-18.2-31.8c16-2,39.6-9.8,57.9-35.8c2.2-3.2,4.5-6.4,6.7-9.7c22.3-32,43.7-62.6,71.3-75.5
	c-25,21.4-32.3,43.8-39.8,67.3c-2.8,8.6-5.6,17.6-9.6,26.7c-15.6,37.2-52.3,65-68.4,58.5L614.8,443z M709.2,487.9
	c-4.2,6.6-8.2,12.9-14.5,18.4c-33.8,30.1-68.1,21.3-77.7,17.9c3.7-11,5.8-22.4,6.2-34.2c11.3,6.4,28.5,13.2,50.1,1.9
	c5.9-3.1,12.5-8.3,19.9-14.4c19-15.3,41.8-33.6,67.6-28.3C728.3,458.1,718.2,473.8,709.2,487.9z"/>
</svg>
