<svg id="Calque_1" data-name="Calque 1" xmlns="http://www.w3.org/2000/svg" viewBox="0 0 44.52 38.51"><title>Ranger</title><g id="Ranger"><g id="Group-2"><path id="Combined-Shape" d="M25,5l4,10H21Zm0,2.8L22.5,14h5Z" transform="translate(-2.75 -5)"/><path id="Combined-Shape-2" data-name="Combined-Shape" d="M28,25.5l-3,1.7-3-1.7V18a3,3,0,0,1,6,0Zm-1-.6V18a2,2,0,0,0-4,0v6.9l2,1.2Z" transform="translate(-2.75 -5)"/></g><g id="Group-2-2" data-name="Group-2"><path id="Combined-Shape-3" data-name="Combined-Shape" d="M47.27,43.51,36.61,42l4-6.93Zm-2.43-1.4-4.12-5.26-2.5,4.33Z" transform="translate(-2.75 -5)"/><path id="Combined-Shape-4" data-name="Combined-Shape" d="M28,35.86l0-3.45,3-1.74,6.49,3.75a3,3,0,1,1-3,5.19Zm1-.56,6,3.45a2,2,0,0,0,2-3.47l-6-3.45L29,33Z" transform="translate(-2.75 -5)"/></g><g id="Group-2-3" data-name="Group-2"><path id="Combined-Shape-5" data-name="Combined-Shape" d="M2.75,43.51l6.66-8.46,4,6.93Zm2.42-1.4,6.62-.93-2.5-4.33Z" transform="translate(-2.75 -5)"/><path id="Combined-Shape-6" data-name="Combined-Shape" d="M19,30.67l3,1.74,0,3.45-6.49,3.75a3,3,0,1,1-3-5.19Zm0,1.16-6,3.45a2,2,0,0,0,2,3.47l6-3.45L21,33Z" transform="translate(-2.75 -5)"/></g><path id="Combined-Shape-7" data-name="Combined-Shape" d="M25,27.2,28,29v3.5L25,34.2l-3-1.75V29Zm0,1-2.17,1.25V32L25,33.2,27.17,32v-2.5Z" transform="translate(-2.75 -5)"/><path id="Combined-Shape-8" data-name="Combined-Shape" d="M22,25.48l-.07,3.42L19,30.67,13.68,27.6l3-5.2ZM21,26l-3.94-2.27-2,3.46L19,29.51l2-1.19Z" transform="translate(-2.75 -5)"/><path id="Combined-Shape-9" data-name="Combined-Shape" d="M22,35.85l3-1.65,3,1.65V42H22Zm1,.6V41h4V36.45l-2-1.1Z" transform="translate(-2.75 -5)"/><path id="Combined-Shape-10" data-name="Combined-Shape" d="M31,30.67,28.08,28.9,28,25.47l5.32-3.07,3,5.2Zm0-1.16L35,27.23l-2-3.46L29,26l0,2.28Z" transform="translate(-2.75 -5)"/></g></svg>