<svg id="Calque_1" data-name="Calque 1" xmlns="http://www.w3.org/2000/svg" viewBox="0 0 50 50"><defs><style>.cls-1{fill:none;stroke:#fff;}</style></defs><title>Explorer</title><g id="Explorer"><g id="Group-2"><g id="Group"><path id="Combined-Shape" d="M29,17l-4,2.3L21,17,25,0Zm-1-.5L25,4.3,22,16.5l3,1.7Z" transform="translate(0)"/><path id="Combined-Shape-2" data-name="Combined-Shape" d="M21,33l4-2.3L29,33,25,50Zm1,.5,3,12.2,3-12.2-3-1.7Z" transform="translate(0)"/></g><g id="Group-2-2" data-name="Group"><path id="Combined-Shape-3" data-name="Combined-Shape" d="M33,29l-2.3-4L33,21l17,4Zm.5-1,12.2-3L33.5,22l-1.7,3Z" transform="translate(0)"/><path id="Combined-Shape-4" data-name="Combined-Shape" d="M17,21l2.3,4L17,29,0,25Zm-.5,1L4.3,25l12.2,3,1.7-3Z" transform="translate(0)"/></g></g><g id="Group-3"><path id="Combined-Shape-5" data-name="Combined-Shape" d="M21.34,17.1l-1,3.21-3.21,1-6-10.22Zm-1,.39-7.07-4.25,4.25,7.07,2.12-.7Z" transform="translate(0)"/><path id="Combined-Shape-6" data-name="Combined-Shape" d="M28.7,32.94l1-3.22,3.22-1,6,10.21Zm1-.39,7.07,4.24-4.24-7.07-2.12.71Z" transform="translate(0)"/></g><g id="Group-3-2" data-name="Group-3"><path id="Combined-Shape-7" data-name="Combined-Shape" d="M32.9,21.34l-3.21-1-1-3.21,10.22-6Zm-.39-1,4.25-7.07-7.07,4.25.7,2.12Z" transform="translate(0)"/><path id="Combined-Shape-8" data-name="Combined-Shape" d="M17.06,28.7l3.22,1,1,3.22-10.21,6Zm.39,1-4.24,7.07,7.07-4.24-.71-2.12Z" transform="translate(0)"/></g><circle id="Oval-3" class="cls-1" cx="25" cy="25" r="5.5"/><path id="Combined-Shape-9" data-name="Combined-Shape" d="M25,31a6,6,0,1,1,6-6A6,6,0,0,1,25,31Zm0-1a5,5,0,1,0-5-5A5,5,0,0,0,25,30Z" transform="translate(0)"/></g></svg>