<?xml version="1.0" encoding="iso-8859-1"?>
<!-- Generator: Adobe Illustrator 18.0.0, SVG Export Plug-In . SVG Version: 6.00 Build 0)  -->
<!DOCTYPE svg PUBLIC "-//W3C//DTD SVG 1.1//EN" "http://www.w3.org/Graphics/SVG/1.1/DTD/svg11.dtd">
<svg version="1.1" id="Capa_1" xmlns="http://www.w3.org/2000/svg" xmlns:xlink="http://www.w3.org/1999/xlink" x="0px" y="0px"
	 viewBox="0 0 196.075 196.075" style="enable-background:new 0 0 196.075 196.075;" xml:space="preserve">
<path d="M161.88,9.922c-10.316,1.681-13.284,6.32-13.284,6.32s-13.151-4.506-23.857-4.388c-10.7-0.118-23.85,4.388-23.85,4.388
	s-2.965-4.64-13.289-6.32C77.288,8.25,70.714,0,70.714,0s3.482,10.059,10.317,15.089c6.833,5.029,6.192,13.532,3.737,18.175
	c-2.447,4.646-4.636,8.002-4.516,12.901c0.086,3.121,1.658,11.325,7.758,16.729c-17.993,11.488-47.628,31.9-58.281,104.217
	c-6.861,7.285-33.359,52.633,21.528,12.756c23.584,5.149,85.389,10.896,111.165-57.165c8.567-22.339,6.176-45.103-2.131-58.837
	c7.087-5.338,8.85-14.393,8.936-17.7c0.133-4.899-2.061-8.256-4.512-12.901c-2.45-4.643-3.093-13.145,3.74-18.175
	C175.292,10.059,178.774,0,178.774,0S172.197,8.25,161.88,9.922z"/>
<g>
</g>
<g>
</g>
<g>
</g>
<g>
</g>
<g>
</g>
<g>
</g>
<g>
</g>
<g>
</g>
<g>
</g>
<g>
</g>
<g>
</g>
<g>
</g>
<g>
</g>
<g>
</g>
<g>
</g>
</svg>
