<?xml version="1.0" encoding="iso-8859-1"?>
<!-- Generator: Adobe Illustrator 19.0.0, SVG Export Plug-In . SVG Version: 6.00 Build 0)  -->
<svg version="1.1" id="Capa_1" xmlns="http://www.w3.org/2000/svg" xmlns:xlink="http://www.w3.org/1999/xlink" x="0px" y="0px"
	 viewBox="0 0 512 512" style="enable-background:new 0 0 512 512;" xml:space="preserve">
<g>
	<g>
		<path d="M324.649,104.329c-51.553,0-100.024,20.076-136.479,56.532c-36.455,36.454-56.532,84.924-56.532,136.478
			c0,13.437,1.404,26.902,4.175,40.017l0.584,2.766v26.768l32.224-8.635v-21.992h0c-3.158-12.699-4.758-25.778-4.758-38.922
			c0-88.658,72.128-160.788,160.788-160.788c35.275,0,67.927,11.428,94.467,30.763l3.2-5.543l13.044-22.593
			C403.15,116.532,364.837,104.329,324.649,104.329z"/>
	</g>
</g>
<g>
	<g>
		<path d="M102.383,315.918H23.751c1.059,21.297,4.369,42.414,9.88,62.961l3.891,14.504l68.832-18.443v-31.683
			C104.467,334.254,103.148,325.111,102.383,315.918z"/>
	</g>
</g>
<g>
	<g>
		<path d="M189.416,31.735l36.042,65.708c26.062-12.963,54.554-20.689,84.171-22.646V0C266.582,2.124,225.889,13.335,189.416,31.735
			z"/>
	</g>
</g>
<g>
	<g>
		<path d="M56.587,163.476c-19.06,37.03-30.669,78.493-32.836,122.401h78.137c1.484-29.51,8.687-57.964,21.08-84.077L56.587,163.476
			z"/>
	</g>
</g>
<g>
	<g>
		<path d="M475.275,40.057C433.964,16.114,387.37,2.389,339.67,0.002v74.795c40.055,2.647,78.054,15.856,110.76,38.282
			l37.819-65.503L475.275,40.057z"/>
	</g>
</g>
<g>
	<g>
		<path d="M163.296,46.584c-36.683,23.356-67.993,54.424-91.638,90.906l66.019,38.116c8.39-12.829,18.157-24.893,29.25-35.986
			c10.111-10.111,21.029-19.119,32.596-26.99L163.296,46.584z"/>
	</g>
</g>
<g>
	<g>
		<path d="M454.784,298.016v-0.675c0-71.757-58.378-130.136-130.135-130.136s-130.136,58.379-130.136,130.136
			c0,11.403,1.485,22.739,4.412,33.695l0.346,1.296v128.012c22.535-3.882,41.67-20.359,48.365-42.704l3.62-12.083l11.068,6.051
			c18.99,10.382,40.541,15.87,62.324,15.87h10.217v10c0,41.092,33.431,74.524,74.524,74.524h45.394V328.057h-66.398v-30.041H454.784
			z"/>
	</g>
</g>
<g>
</g>
<g>
</g>
<g>
</g>
<g>
</g>
<g>
</g>
<g>
</g>
<g>
</g>
<g>
</g>
<g>
</g>
<g>
</g>
<g>
</g>
<g>
</g>
<g>
</g>
<g>
</g>
<g>
</g>
</svg>
