<?xml version="1.0" encoding="utf-8"?>
<!-- Generator: Adobe Illustrator 21.0.0, SVG Export Plug-In . SVG Version: 6.00 Build 0)  -->
<svg version="1.1" id="Слой_1" xmlns="http://www.w3.org/2000/svg" xmlns:xlink="http://www.w3.org/1999/xlink" x="0px" y="0px"
	 viewBox="0 0 612 612" style="enable-background:new 0 0 612 612;" xml:space="preserve">
<g id="svgg">
	<path id="path0" d="M196.3,25.4c-2.9,1.2-5.7,4.7-14.6,18c-12.9,19.4-12.8,19.4-18.4,0.6c-4.1-13.8-6-16.1-9.7-12.2
		c-2,2.1-2.5,9.9-1.2,18.3c1.8,11.8,1.4,14-4.5,22.8c-1.6,2.5-4.8,7.7-7.1,11.6c-8.6,15-16.2,27.5-24.6,40.5
		c-24.1,37.4-21,49.4,15.4,59.8c8,2.3,7.9,1.6,0.3,7.7c-33.9,27.1-52.8,62.5-52.8,98.6C79.1,354.9,97.8,409.6,126,428
		c4.3,2.8,4.7,3.2,3.3,3.5c-21.6,5.8-28,24-15.1,43.3c1.5,2.3,3.3,4.9,3.9,5.8c0.6,0.9-1.7-1.1-5-4.5c-6.5-6.6-12-14.3-16.9-23.4
		c-5.8-10.8-7.6-12.5-12.8-11.5c-4.3,0.8-3.9,3.5,2.1,16.9c2.9,6.5,3.6,8.7,3.6,11.6l0,3.5l-2.9-0.1c-2.3-0.1-5.6-1.4-15.4-6.4
		c-16.9-8.5-22.4-10.3-26.3-8.6c-5.5,2.3-1.6,6.7,20,22.4c20.1,14.7,19.8,16.7-3.3,18.1c-17.2,1-22.4,2.5-24.3,7
		c-1.5,3.7,0.4,4.4,22,7.8c12.9,2,16.6,3,17.1,4.3c0.1,0.5-3.9,5.1-9.1,10.3c-9.4,9.6-11,12-9.4,14c1.9,2.3,8.4,0.9,30.9-6.7
		c30-10.2,25.5-10.3,55.5,2.4c38,16.2,42,16.5,44.3,3.2c1-5.7-0.7-5.9,15.8,2c77,37.1,148.2,47.7,200.3,29.8
		c50.4-17.2,76.4-33.1,111.3-67.9c28.8-28.6,43.8-58.6,53.6-106.7c9.1-44.9,8.9-68-1.4-115.2c-10.2-47-21.7-74.6-41-98.4
		c-17.5-21.7-47.4-49.8-60.3-56.8c-6.8-3.7-5.6-1.4,5.6,10.3c32.9,34.4,46.4,56,59.1,94.8c18.7,57.2,17.7,108.3-3.1,155
		c-18.5,41.3-37.2,65.8-63.9,83.4c-79.4,52.4-142.7,60.1-186.8,22.8c-4.9-4.1-5-4,2.1-2.5c19.4,4.1,20.6,2.6,20.4-23.8
		c-0.4-40.9,2.9-48,29.7-64.9c17.7-11.1,25-19.1,21-22.7c-1.6-1.4-1.9-1.4-13,1.2c-18.8,4.4-19.4,3.9-12.9-12.1
		c7-17.3,8.3-23,6.2-26c-2.2-3.2-5.6-0.5-14.8,11.7c-16,21.4-16.8,21.3-19.3-2.9c-2.3-22.2-6.2-30.8-12.8-28.3
		c-3.9,1.5-4.5,4.7-4.7,24.1c-0.3,23.7-1.1,25.2-9.4,15.2c-11.5-13.8-14.4-15.8-17.2-12.1c-3.7,4.9-1.8,12.2,6.2,22.8
		c6.5,8.7,7.2,10.1,6.5,14.2l-0.5,3.1l-0.8-2.9c-3.6-13.6-18-17.2-40.4-10.3c-4.8,1.5-4.5,2-4.6-6.9c-0.1-6.7-0.5-9.1-3.5-21.4
		c-5-20.3-4.8-17.2-1.6-42.1c5.6-43.7,8.5-53.6,12.5-42.9c1.3,3.5,1.3,3.8,0.4,8.2c-10.4,47.5-0.3,63.8,33.3,53.4
		c18.6-5.7,28.6-10,56.6-23.9c25.2-12.5,25-12.5,39.7-8.8c11,2.8,16.3,2.2,17.7-1.9c1-2.8,0.2-3.7-6.8-7.5c-12-6.5-13-7.2-14.3-8.8
		c-2.5-3.1-1.8-3.7,12.2-9.5c19.4-8.1,25.4-13,21.7-17.3c-2.6-3-6.9-2.5-26,3.1c-15.7,4.6-16,4.5-11-5.5
		c10.2-20.3,15.3-38.6,12.4-44.2c-2.1-4.1-4.8-1.5-16.3,15.5c-17.2,25.3-21.7,25.8-24.1,2.8c-1-9.8-1.9-12.4-4.5-14.1
		c-2.7-1.8-3.1-0.6-3.6,10.9c-1.2,27.6-12.6,44.4-37.8,55.5c-13.7,6.1-14.6,2.4-5-22.6c9.7-25.3,11.5-39.1,5.8-45.4
		c-1-1.1-0.9-1.2,0.5-1.7c0.8-0.3,4.5-1.8,8.1-3.2c3.6-1.4,12-4.7,18.6-7.2c52.6-19.9,66-29.7,91.5-66.8
		C413.4,99,419,79.8,410.9,72.5c-1.8-1.6-5.4-2.8-14.7-5.1c-26.1-6.2-31.5-6.9-46.6-5.8c-11.8,0.8-10.3,1.2-19.1-5.2
		c-6.8-4.9-13.2-8.2-16-8.2c-7.9,0-16.6,6.5-24.4,18.2c-3.9,5.9-4.9,6.9-15.5,15.4c-17.8,14.3-25.9,22.8-40.4,42.3
		c-3.5,4.8-8.6,10.6-11.2,13.1l-4.8,4.4l-0.4-1.8c-0.2-1-0.4-3-0.5-4.3c-0.3-10.5-10.6-11-43.7-1.9c-20.6,5.6-23.2,5-14.6-3.3
		c11.2-10.9,23.8-19.4,31.8-21.6c6.1-1.7,7.6-1.8,22.3-2.3c13.5-0.4,14.3-0.5,16.5-2c6.5-4.4,4.4-6.4-12.9-12.3
		c-18.2-6.2-18.1-6.5,5.3-16.9c19.3-8.5,23.6-12,20.4-16.4c-1.8-2.5-5.9-2.4-21.3,0.2c-25.9,4.4-25.3,4.9-21.2-14.9
		C203.1,28.4,202.1,23,196.3,25.4 M359.6,121.4c2,3.4,1.9,16.1-0.3,21.5c-4.2,10.8-18.3,17.6-26.8,13c-4.4-2.4,2-19.3,10.6-27.5
		C352.3,119.3,357.2,117.3,359.6,121.4"/>
</g>
</svg>
