<svg id="Layer_1" data-name="Layer 1" xmlns="http://www.w3.org/2000/svg" viewBox="0 0 50 50"><title>Pioneer_1</title><g id="Pioneer-intra"><rect id="Rectangle" width="50" height="50" fill="none"/><path id="Combined-Shape" d="M25,29a4,4,0,1,1,4-4A4,4,0,0,1,25,29Zm0-1a3,3,0,1,0-3-3A3,3,0,0,0,25,28Z"/><path id="Combined-Shape-2" data-name="Combined-Shape" d="M25,50c-3.87,0-7-11.19-7-25S21.13,0,25,0s7,11.19,7,25S28.87,50,25,50Zm0-1.5c3.31,0,6-10.52,6-23.5S28.31,1.5,25,1.5,19,12,19,25,21.69,48.5,25,48.5Z"/><path id="Combined-Shape-3" data-name="Combined-Shape" d="M3.35,37.5C1.42,34.15,9.54,25.84,21.5,18.94S44.72,9.15,46.65,12.5,40.46,24.16,28.5,31.06,5.28,40.85,3.35,37.5Zm1.3-.75C6.31,39.62,16.76,36.69,28,30.2S47,16.12,45.35,13.25,33.24,13.31,22,19.8,3,33.88,4.65,36.75Z"/><path id="Combined-Shape-4" data-name="Combined-Shape" d="M46.8,37.5c-1.93,3.35-13.19.47-25.15-6.44S1.57,15.85,3.5,12.5,16.69,12,28.65,18.94,48.73,34.15,46.8,37.5Zm-1.3-.75c1.66-2.87-6.11-10.46-17.35-16.95S6.46,10.38,4.8,13.25s6.11,10.46,17.35,17S43.85,39.62,45.5,36.75Z"/></g></svg>