<?xml version="1.0" encoding="utf-8"?>
<!-- Generator: Adobe Illustrator 21.0.0, SVG Export Plug-In . SVG Version: 6.00 Build 0)  -->
<svg version="1.1" id="Layer_1" xmlns="http://www.w3.org/2000/svg" xmlns:xlink="http://www.w3.org/1999/xlink" x="0px" y="0px"
	 viewBox="0 0 699.1 616.6" style="enable-background:new 0 0 699.1 616.6;" xml:space="preserve">
<g>
	<path d="M698.3,558.4l-30.7,54.8c-1.2,2.1-3.4,3.4-5.8,3.4l-603.1-0.7c-5.1,0-8.3-5.5-5.8-10l249-433.4c2.6-4.4,9-4.4,11.5,0
		l32.1,55.6c1.2,2.1,1.2,4.6,0,6.7l-6.7,11.6l-124,215.9L172,535c-2.6,4.4,0.6,10,5.7,10l514.9,3.4
		C697.6,548.5,700.8,553.9,698.3,558.4"/>
	<path d="M697.9,529.6c2.6,4.5-0.7,10-5.8,10l-498.9-3.3c-5.1,0-8.3-5.6-5.7-10l31.8-53.8c1.2-2,3.4-3.3,5.7-3.3l262.4,0.3l86.3,0.6
		c5.1,0,8.4-5.5,5.8-10L320.2,10.3c-2.6-4.4,0.6-10,5.7-10L388.6,0c2.4,0,4.6,1.3,5.8,3.3L697.9,529.6"/>
	<path d="M357.8,231.5L357.8,231.5l-44.3-76.8c-2.6-4.4-9-4.4-11.5,0L45.4,601.3c-2.6,4.4-9,4.4-11.5,0l-33-57.2
		c-1.2-2.1-1.2-4.6,0-6.6L301.1,14.9c2.6-4.4,9-4.5,11.5,0l251.5,436.2c2.6,4.5-0.7,10-5.8,10l-64.5-0.4c-2.4,0-4.5-1.3-5.7-3.3
		L357.8,231.5z"/>
</g>
</svg>
