<svg id="svg" version="1.1" xmlns="http://www.w3.org/2000/svg" xmlns:xlink="http://www.w3.org/1999/xlink" width="400" height="400" viewBox="0, 0, 400,400"><g id="svgg"><path id="path0" d="M194.689 5.988 C 167.543 13.754,146.875 21.938,146.875 24.921 C 146.875 34.095,176.089 78.348,180.776 76.275 C 191.635 71.472,220.812 62.756,232.031 60.964 L 243.750 59.092 243.750 29.546 L 243.750 0.000 228.906 0.223 C 220.742 0.345,205.345 2.939,194.689 5.988 M262.500 29.546 L 262.500 59.092 274.219 61.051 C 296.460 64.771,317.593 71.727,335.211 81.129 L 352.887 90.561 365.080 69.499 C 386.950 31.724,387.897 36.918,356.481 22.321 C 326.360 8.327,296.624 0.119,275.781 0.046 L 262.500 0.000 262.500 29.546 M112.500 44.970 C 97.747 55.752,61.790 92.774,56.535 102.593 C 53.815 107.675,79.382 126.294,103.682 136.929 C 104.928 137.474,117.418 126.310,131.437 112.120 L 156.928 86.319 145.217 64.253 C 128.451 32.660,128.946 32.952,112.500 44.970 M207.776 87.094 C 145.300 110.109,105.537 161.069,102.608 221.875 C 101.620 242.391,105.919 287.507,108.860 287.483 C 110.003 287.473,116.343 285.964,122.951 284.129 L 134.964 280.794 132.626 258.366 C 128.172 215.620,132.850 192.460,151.666 164.113 C 184.792 114.206,254.213 94.852,305.968 121.094 C 330.483 133.524,328.568 133.592,335.871 120.030 L 341.913 108.811 334.238 102.996 C 308.368 83.397,240.855 74.908,207.776 87.094 M38.898 134.692 C 31.149 149.679,21.825 182.782,19.191 204.663 L 16.742 225.000 48.703 225.000 L 80.664 225.000 82.889 208.594 C 84.114 199.570,87.856 184.823,91.205 175.822 C 98.653 155.802,99.387 156.985,68.753 139.629 L 43.689 125.429 38.898 134.692 M231.250 132.460 C 198.562 139.708,174.127 159.375,160.308 189.559 C 151.546 208.699,151.161 214.215,152.350 303.614 L 153.125 361.915 160.156 360.215 C 172.328 357.272,188.220 343.198,192.940 331.180 L 197.485 319.612 210.249 325.779 C 217.269 329.171,231.044 332.674,240.859 333.564 L 258.705 335.182 260.685 347.565 C 266.545 384.210,287.172 400.000,329.181 400.000 L 356.250 400.000 356.250 328.125 L 356.250 256.250 331.250 256.250 L 306.250 256.250 306.250 245.313 L 306.250 234.375 331.250 234.375 L 356.250 234.375 356.250 223.555 C 356.250 166.648,291.122 119.185,231.250 132.460 M18.226 245.316 C 15.417 248.125,25.783 309.565,29.027 309.326 C 29.390 309.300,41.641 305.999,56.250 301.992 L 82.813 294.706 83.797 279.393 C 84.338 270.970,83.922 259.505,82.874 253.915 L 80.967 243.750 50.379 243.750 C 33.556 243.750,19.087 244.455,18.226 245.316 " stroke="none" fill="#000000" fill-rule="evenodd"></path></g></svg>