<svg id="svg" version="1.1" xmlns="http://www.w3.org/2000/svg" xmlns:xlink="http://www.w3.org/1999/xlink" width="400" height="400" viewBox="0, 0, 400,400"><g id="svgg"><path id="path0" d="M277.992 10.575 C 270.184 16.306,260.340 25.077,256.117 30.066 C 248.687 38.842,247.829 39.058,229.688 36.734 C 191.704 31.869,147.043 43.055,112.587 66.063 C 85.203 84.349,83.439 89.152,105.966 84.091 C 125.237 79.761,124.577 81.099,98.117 100.023 C 68.140 121.462,40.490 150.965,30.319 172.365 C 20.534 192.952,21.200 193.686,40.251 183.318 C 59.771 172.694,59.524 172.603,53.770 188.281 C 35.268 238.699,61.578 316.476,108.881 351.200 C 156.751 386.340,252.408 413.269,257.249 392.969 C 266.189 355.487,263.165 329.327,246.747 302.105 C 214.010 247.827,210.911 202.801,238.401 180.852 C 244.487 175.992,245.478 176.488,260.667 191.984 C 270.574 202.093,283.037 210.885,293.750 215.324 C 306.454 220.587,312.160 225.020,315.625 232.316 C 324.621 251.260,352.376 253.874,368.915 237.335 C 378.357 227.893,377.410 198.748,367.172 183.681 C 362.866 177.344,355.658 161.901,351.154 149.361 C 341.937 123.701,324.381 87.511,314.984 74.801 C 309.949 67.991,308.682 61.138,308.445 39.427 C 308.171 14.382,306.310 7.944,301.563 15.625 C 297.338 22.460,293.321 18.442,295.313 9.375 C 297.915 -2.472,295.542 -2.308,277.992 10.575 " stroke="none" fill="#000000" fill-rule="evenodd"></path></g></svg>