<?xml version="1.0" encoding="utf-8"?>
<!-- Generator: Adobe Illustrator 24.0.1, SVG Export Plug-In . SVG Version: 6.00 Build 0)  -->
<svg version="1.1" id="Layer_1" xmlns="http://www.w3.org/2000/svg" xmlns:xlink="http://www.w3.org/1999/xlink" x="0px" y="0px"
	 viewBox="0 0 509.8 545.6" style="enable-background:new 0 0 509.8 545.6;" xml:space="preserve">
<style type="text/css">
	.st0{fill:#FFFFFF;}
</style>
<g>
	<g>
		<path class="st0" d="M196.7,58.7c6.2,2.5,12.2,5.7,17.8,9.4c18.2-13.6,31.9-26.3,40.4-34.8c8.8,8.9,23.2,22.1,42.3,36.2
			c0.9-10.7,2.8-22.3,6.1-34.3c-14-11.3-24.1-21.2-30-27.3c-4.8-5-11.5-7.9-18.4-7.9c-6.9,0-13.6,2.9-18.4,7.9
			c-8.9,9.4-28,27.7-55.4,46C186.3,55.1,191.5,56.6,196.7,58.7z"/>
		<path class="st0" d="M167.3,450.3c-35.9-32.4-64.9-68.7-87.1-108.7c-7.5-3.4-14.8-7.8-21-13.5c-12.2-11.1-18.8-25.5-19.1-41.6
			c-0.2-10,2-19,6.1-26.9C30.3,204.5,30.1,159,31.4,136.9c13.3-0.6,26.2-2.2,38.6-4.4c1.5-12.5,5.1-23.8,10.8-33.8
			c-17.3,4.2-35.7,6.9-55.2,7.5c-13.1,0.4-23.7,10.5-24.7,23.5c-2,25.2-3.3,92.3,26.5,171.1c32.4,85.6,90.2,157.5,172.3,214.5
			C186.5,493,175.7,471.3,167.3,450.3z"/>
		<path class="st0" d="M508.9,129.7c-1-13-11.6-23.1-24.7-23.5h0c-31.6-1-60.5-7.5-86.2-16.8c-3.4,7.2-5.3,14.2-6.2,20.5
			c3.6,1.7,7.2,3.7,10.7,5.8c6.4,3.9,12,8.1,16.7,12.5c18.5,4.6,38.2,7.8,59.1,8.8c1.5,26.1,1,84.5-24.9,152.9
			c-34.1,90.1-99,164.3-192.9,220.6c-3.9,7.8-6.1,13.9-7.3,17.6c-1.9,6.2-6.2,11.1-11.7,13.9c0.2,0.1,0.3,0.2,0.5,0.3
			c3.9,2.3,8.3,3.4,12.8,3.4c4.4,0,8.8-1.1,12.7-3.4c104.8-60.6,177.1-141.8,214.8-241.4C512.3,221.9,510.9,154.8,508.9,129.7z"/>
	</g>
	<g>
		<g>
			<path class="st0" d="M167.5,323.5c-2,13.8-2.4,28.9-0.7,45.3c21.9,13.7,45.9,25.5,71.5,35.1c22.9,8.5,46.1,14.9,69,18.9
				c8.6-7.2,18.1-14.6,28.6-21.9c5.1-3.5,9.7-7.1,13.9-10.8c-32.3-3.8-65.2-11.7-97.6-23.8C221.8,354.9,193.3,340.4,167.5,323.5z"/>
		</g>
		<g>
			<path class="st0" d="M174.1,408c9,33.6,25.9,71.7,53.6,114.8c1.7,2.7,5.7,2.1,6.7-0.9c4.1-13.1,15.7-41,46.1-73.7
				c-17.7-4.1-35.3-9.4-52.8-16C209,425.2,191.1,417.1,174.1,408z"/>
		</g>
		<g>
			<path class="st0" d="M193.3,255.7c-7.1,10.7-13.4,22.7-18.2,36.3c26.1,18.3,55.7,33.9,87.7,45.8c37.4,13.9,75.5,22,112.1,24
				c8.4-12.8,13.3-25.8,16-38.3c-37.3-2.8-75.7-11.3-113.3-25.3C247.3,286.9,218.9,272.5,193.3,255.7z"/>
		</g>
		<g>
			<path class="st0" d="M392.2,132.3c-7.4-4.5-14.4-7.6-21-9.6c-0.3-13.4,2.1-32.4,14-51.6c11.9,0.3,22.1-11.4,16.5-25.8
				c-0.5-1.2-1.2-2.3-2.1-3.2c-12-11.8-28.4-5-31.1,8c-0.7,3.2-0.4,6.4,0.7,9.3c-14.1,22-17.7,44-17.8,60.5
				c-3.7,0.1-7.3,0.4-10.6,1.1c-4.1-16.5-8.5-47.5,3.4-83.6c9.7-2.4,16.7-12.8,11.8-25.3c-0.5-1.2-1.2-2.4-2.2-3.3
				c-12-11.7-28.4-5-31.1,8c-1,4.9,0.2,9.7,2.8,13.5c-14.3,42.6-8.6,78.9-3.5,97.6c-25.1,14.3-28.8,49.9-6,68
				c34.2,27.2,103.7,30.4,103.8,30.4C419.7,226.4,449.3,167.2,392.2,132.3z M400.5,185.1c-1.2,2.6-4,4-6.8,3.4
				c-11.7-2.6-42.4-10.9-43.8-28.2c-0.4-5.1,2.3-9.8,6.8-12.5c6.8-4.1,19.6-8.4,34.5,2.9C407.4,162.9,403.7,177.8,400.5,185.1z"/>
		</g>
		<g>
			<path class="st0" d="M383.7,247.2c-1.2-2.9-4-4.8-7.1-4.8c-16.8-0.3-72.1-5.2-99.7-55c0,0,0,0-0.1,0l-0.7-1.9
				c-1.3-3.5-32.8-86.4-87-108.5c-18.9-7.7-38.4-7-57.9,2.2c-27.2,12.8-41.4,34.1-42.2,63.4c-1.2,41.6,26.1,88.4,42.4,106.2
				c-15-1.7-44-2.9-60.1,10.5c-7.7,6.5-11.5,15.4-11.4,26.7c0.2,10.6,4.4,19.8,12.6,27.2c11.2,10.2,27.9,15.3,39.9,17.7
				c11,2.2,21.6,3,29.3,3c2.5,0,4.7-0.1,6.5-0.2l2.5-0.2l0.1-2.5c0.1-2.7,0.3-5.4,0.5-7.9l0,0c0.1-1.6-1.1-3-2.8-3.1
				c-11.3-0.3-41.3-1-54.1-15.4c-4.7-5.2-6.5-11.7-5.8-19.7c0.5-5,2.5-8.6,6.1-11.2c12.4-9,41.2-3.9,64.8,1.6l0.1,0
				c2.9-0.1,3.6-3,3.6-3s0-0.1,0-0.1c2.7-7.1,5.4-12.9,7.3-16.8c0,0,0,0,0,0c1.2-3.1-0.6-5.3-0.6-5.3l0,0
				c-16.2-21.1-50.8-71.3-44.6-107.6c2.1-12.2,8.8-22,19.8-29c12.7-8.1,25.6-10.1,38.2-5.8c41.3,14,68.8,89,69.1,89.7l0.8,2.3
				c-11.9,7.2-26.8,17.9-40.9,32.7c23.1,14.9,48.5,27.7,75.8,37.8c35,13.1,70.7,20.9,105.2,23.5
				C392.7,272.2,386.9,255.1,383.7,247.2z"/>
		</g>
	</g>
</g>
</svg>
