<?xml version="1.0" encoding="utf-8"?>
<!-- Generator: Adobe Illustrator 24.0.1, SVG Export Plug-In . SVG Version: 6.00 Build 0)  -->
<svg version="1.1" id="Layer_1" xmlns="http://www.w3.org/2000/svg" xmlns:xlink="http://www.w3.org/1999/xlink" x="0px" y="0px"
	 viewBox="0 0 995.1 929.5" style="enable-background:new 0 0 995.1 929.5;" xml:space="preserve">
<style type="text/css">
	.st0{fill:#FFFFFF;}
</style>
<g>
	<path class="st0" d="M388.3,165c3.6-1.8,6.6-6.2,6.6-6.2c2.9-4.7,6.6-9,11.2-12.2c15.9-11,38.1-4,47.7,11.2c4.3,7,12.8,11,20.1,8
		c8.5-3.5,11.6-14.8,7.1-22.6c-11.5-19.9-34.2-32.5-57.2-32.8c-0.5,0-1,0-1.6,0c-21.9,0.4-41,12.9-52.6,30.7
		c-0.3,0.5-0.6,0.9-0.9,1.4C359.8,156.9,377,170.6,388.3,165z"/>
	<path class="st0" d="M984,141.9c-9-14.2-24.4-22.2-40.4-22.4c-0.5,0-0.5,0-1.1,0c-11.6,0.1-22.9,3.5-33.5,8.2
		c-28.5,12.7-55.3,29.3-80.9,47.2c-40.2,28-77.5,59.4-112.2,93.6c2.3-12.7,3.6-25.7,3.6-38.6c0.1-19.6-0.6-39.7-4.8-59.1
		c-1-4.4-2-8.9-3.1-13.1c18.8-11.5,33-31,36.8-53c7.8-45.2-30.7-84.1-71.9-84.5c-0.5,0-0.5,0-1,0c-16,0.2-31.7,6.8-44.2,16.9
		c-1.4,1.1-2.8,2.3-4.2,3.5C589.7,13.9,543.9,0.2,497.8,0c-1,0-2.1,0-3.1,0c-43.3,0.5-86.6,13.3-122.1,37.7
		c-13.3-12-30.9-19-48.9-19.2c-1.3,0-2.5,0-3.8,0.1c-34.7,1.5-64.6,29.6-69.3,63c-4.3,30.7,13.6,56.6,37.7,72l0,0
		c-9.8,30.9-13.5,63.7-10.8,96c0.6,6.9,1.5,13.8,2.8,20.6c-53.8-53.6-113.2-102.5-180.8-136.4c-14.4-7.2-30-14.2-46.4-14.3
		c-0.5,0-0.5,0-1.1,0c-8.9,0.1-17.9,2.4-25.4,7.2c-13.8,8.7-21.1,24-24.1,39.2c-10.4,52.8,12.2,110.5,47.3,153.6
		c11.9,14.6,26,27.3,40.8,39.1c0.5,0.4,1.1,0.8,1.6,1.3c-6.6-1.3-13.4-1.8-20.1-0.9c-9.6,1.3-18.7,6.1-24.5,13.7
		c-13.3,17.3-8.6,40.4-0.4,59.9c17.8,42,55.9,75.7,100.1,88.6c52.6,15.4,109,20.5,164.4,22.6c0,0,1,0,1.8,0.1
		c6.2,18.2,17,34.5,30.8,47.4c-8,34.3-8.5,70.1-2.7,104.8c8.2,49.1,29.8,97.5,68,128.1c15.6,12.5,34,21.3,53.5,26l33,79.4l38-79.7
		c48.1-12.5,83.4-50.6,103.5-94.3c24.4-53.2,30.8-115,22-173.7c9.4-11.2,16.6-24.2,21.4-38.2c0.4,0,0.8,0,1.3,0l1.5-0.1
		c52.9-2,106-6.5,156.8-20.4c2.1-0.6,4.2-1.2,6.3-1.8c42.2-12.2,78.1-42.3,97.6-81c9.3-18.3,15.1-38.7,9.1-57
		c-7-21.1-28.9-27.3-48.3-24c-3.9,0.7-1.3-0.1-1.3-0.1c26-20.6,48.4-44.5,63.8-73c15.2-28.1,25.4-59.2,27.1-90.9
		C995.9,177.2,993.9,157.7,984,141.9z M307.3,512.6c-48.7-2-97.5-6.3-144.1-19.1c-21.9-6-42.4-16.7-58.7-32.3
		c-15.6-15-28.7-33.3-33.1-53.9c-1.4-6.8-2.4-15.7,3.2-17.4c6.8-2,14.8,0.6,22,3.2c59.8,21.6,118,47.2,176.6,72.3
		c3.6,1,4.6,1.7,8.5,1.1c7.2-1.1,12.9-7.9,13-15c0.1-3.9-0.8-4.8-2.2-8.2l-2.7-3.3c-7.5-6.9-17.1-11.5-26.4-16.2
		c-58.8-30.5-120.5-58.1-169.2-102.4c-21.8-19.9-38.5-44.1-49.3-71C35.4,226.8,29,201.6,32,177c1-8.4,2.9-18.3,10.2-23.7
		c8.4-6.3,20.5-2.4,30.5,1.9c27.2,11.6,52.6,27.8,77,44.9c61.7,43.2,117,96,166.2,153.7c2.9,4,5.9,7.9,9.1,11.7
		c10.3,12.3,21.7,23.8,34.4,33.5c-8.8,5.9-16.8,12.8-23.8,20.8C313.6,445,304.5,479.2,307.3,512.6z M618.5,720.5l-7.7,3.8
		c-69.8,34.3-157.4,34.1-227.9,0.7l-2.8-1.3c-3-9.2-5.4-18.6-7.2-28.2c78.8,31.5,172.2,32.7,251.6,0.2c0.3-0.1,0.7-0.3,1-0.5
		C623.6,703.6,621.3,712.1,618.5,720.5z M571.1,796.3c-30,26.1-73.7,34.2-110.8,21.2c-14.7-5.2-27.7-13.8-38.9-24.5
		c52.6,16,103,15.6,155.8-2.3C575.1,792.6,573.1,794.5,571.1,796.3z M644.7,550.2c-15.3,26-47,44.6-76.2,39.9
		c-4.7-0.7-10-1.8-10.9-5.3c-1.7-6.4-0.7-12.5,3.6-16.4c13.5-12.1,40.6-16.9,51.4-35.6c9-15.6,5.4-42.7-10.4-45.3
		c-9.9-1.6-18.9,7.8-17.8,17.1c0.1,1,0.2,1.2,0.4,2.2l0.3,1.1c2,5.7,0.7,10.7-3.3,13.7c-14.6,10.7-36,15.7-47.4,30.6
		c-8.4,11-10.2,26.3-6.8,39.9c3.6,14.5,16.4,23.9,30.4,27.4c24.1,6,51-0.2,73.4-13.7c0.8,9.6,1.2,19.3,1,28.9l-14.1,7l-0.4,0.2
		c-26.9,13.2-56.5,20.6-86.3,23.6c-53.1,5.4-107.7-2.1-155.4-24.9c-2.5-1.2-4.9-2.4-7.4-3.5c0.5-9,1.5-17.9,3.1-26.7
		c3,1.5,6,2.8,9.1,4c23.9,9.2,51.3,11.5,70.9-1.2c13-8.5,18.6-24.8,16.7-40.5c-2.1-17.1-15.7-30-31-38c-9.7-5.1-21.2-8.1-27.8-15.7
		c-4.4-5.1,1.9-12.8,0.3-19.6c-2.9-12.4-20.8-14.8-27.5-5.4c-1.2,1.7-2,3.9-2,3.9c-5.6,15.8-2.6,33.3,8.8,44.3
		c13.8,13.2,34.3,15.6,45.6,27.9c3.5,3.8,3.5,9.6,2.3,14.8c-0.9,3.4-5.6,4.5-9.5,5.3c-19.9,4-42.1-4.4-58.6-17.7
		c-22-17.7-31.9-46.2-31.3-73.9c0.8-36.6,21.4-67.1,51.8-80.8c4,1.8,8.1,3.4,12.3,4.8c9.1,3,19.2,4.4,25.2-1.3
		c8.1-7.7,4.1-22.9-6.1-26c-1.7-0.5-3.7-0.6-3.7-0.6c-6.4-0.4-12.5-3.8-18.3-6.9c-15.5-8.1-29.4-18.8-41.5-31.3
		c-0.4-0.6-0.8-1.3-1.3-2.2l-1-1.2c-5.4-6.6-10.8-13.2-16.4-19.6c-9.4-13.8-16.9-28.9-22.1-44.7c-14.7-44.5-11.5-92.1,4.3-135
		c0.2-0.5,0.4-1,0.5-1.6c0.7-1.7,1.1-3.6,1.1-5.5c0-2.4-0.7-4.6-1.7-6.4c-1.3-3.1-3.5-5.7-6.5-7.3c-0.8-0.4-1.4-0.7-2.2-1
		c-10.9-5-20.4-13.1-26.4-23.4c-8.5-14.5-4.7-33,6.1-44.9c15.3-16.9,43.7-17.8,60.1-2.8c2.5,2.3,4.9,5.1,7.6,7.1
		c4.1,4.7,10.8,7.2,16.7,5c2.2-0.8,4.3-2.4,4.3-2.4c67.6-53.4,171.8-50.7,237,1.6c0.4,0.3,0.8,0.6,1.1,0.9c6.8,5.5,15.7,3.9,21-1.2
		c1.7-1.3,2.8-2.5,2.8-2.5c7.7-9.3,18.4-16.6,30.2-17.9c22.5-2.5,43.4,16.3,45.6,38c2,19.4-11.5,36.8-29.4,45.7
		c-0.3,0.1-0.5,0.3-0.8,0.4c-5.8,1.7-10.3,7.1-11,13.1c-0.2,1.7-0.4,2.4,0.5,6.1l0.4,1.2c7.7,19.8,10.2,41,10.6,62.1
		c0.3,17-0.5,34.4-4.2,51.3c-4.8,22.3-14.3,43.6-27.2,62.5c-5.6,6.6-11.2,13.3-16.7,20c0,0-1.9,2.3-1.9,2.4
		c-0.4,0.6-0.8,1.2-1.1,1.7c-14.7,15.1-32.1,27.6-51.2,36.3c-7.5,3.4-16.2,4.8-19.9,11.3c-5.5,9.9,3.1,23.1,13.8,22.8
		c1.1,0,1.4-0.1,2.5-0.2l1.2-0.3c3.9-1,7.7-2.4,11.4-4c3.2-1.3,6.3-2.8,9.4-4.3c10.8,4.8,20.7,11.7,28.9,20.2
		C660.4,465.4,665.5,514.8,644.7,550.2z M963.6,201.1c-4.3,40.5-23.2,81.4-52.7,111.1c-46,46.4-107,75.4-165.8,104.9
		c-13.5,6.8-27.6,12.6-38.6,22.2c-3.2,2.9-3.9,3.8-5,7.8c-2.4,8.6,4,18,12.5,19.3c3.8,0.6,4.8-0.1,8.5-1.1l4.4-1.9
		c55.3-23.6,110.3-47.5,166.9-68.5c11.1-4.1,26.8-9.6,30.2-2.9c3,6,0.9,14.2-1.4,21.3c-11.9,37.3-45.8,67.3-84.1,78.4
		c-48.9,14.2-99.8,18.8-150.8,20.8c1.9-21-1.1-42.5-9.2-61.9c-8.8-21.2-24.4-39.4-43.6-52c17.8-13.3,33.5-29.7,46.4-47.9
		c29-33.7,60.3-65.5,93.7-94.9c41.4-36.4,85.8-69.9,135-94.6c9.9-5,19.9-10.2,30.6-11c8.1-0.6,15.5,3.8,18.8,10.6
		C965.4,173.2,965,187.5,963.6,201.1z"/>
	<path class="st0" d="M663.4,285.5c0.3-0.5,0.6-0.9,0.9-1.4c6.8-11.1-3-24.7-14.2-23.8c-6.9,0.6-11.9,7.4-11.9,7.4
		c-8.6,14.3-20.9,26.9-36.3,33.3c-28.9,12-63.6,1.1-83.4-22.2c8.3-4.7,14.9-12.2,18.6-21.1c4.2-9.5,5-20.2,0.8-29.2
		c-0.1-0.2-0.2-0.3-0.2-0.5c0-0.1-0.1-0.1-0.1-0.2c-6.3-12.5-20.1-14.4-32.8-15.1c-0.1,0-0.2,0-0.3,0c-1-0.1-2.1-0.1-3.1-0.1
		c-0.1,0-0.2,0-0.2,0c-1,0-1.9,0-2.9,0c-0.2,0-0.3,0-0.5,0c-12,0-26.4,0.1-36.1,8.9c-0.1,0.1-0.1,0.1-0.2,0.2
		c-0.1,0.1-0.1,0.1-0.2,0.2c-11,10.3-9.5,27.8-1.4,41.2c1.9,3.3,4.3,6.4,7,9.1c0.4,0.4,0.7,0.7,1.1,1c0.1,0.1,0.1,0.1,0.2,0.2
		c0.2,0.2,0.5,0.4,0.7,0.6c0.1,0.1,0.2,0.2,0.4,0.3c0.3,0.3,0.7,0.6,1,0.8c0.2,0.1,0.3,0.3,0.5,0.4c1.6,1.3,3.3,2.4,5.1,3.4
		c-14.4,17-36.9,27.3-59.3,27c-22.7-0.3-42.2-12.7-55-30.1c-4-5.4-7.2-12.4-13.5-14.6c-7.7-2.7-17,1.9-19.6,9.5
		c-2.2,6.4,1.6,13.5,1.6,13.5c14.3,23.4,35.7,41.9,61.4,49c12.4,3.5,25.4,4.2,38.1,2.7l21.5,93.6c0.2,0.7,0.2,0.9,0.4,1.5
		c1.6,4.5,5.3,8.2,9.9,9.7c1.4,0.4,2.1,0.7,4.7,0.7h62.1c0.7,0,0.9,0,1.6-0.1c5.1-0.5,9.7-3.7,12-8.1c0.5-1,0.8-1.4,1.4-3.7
		l21.5-93.5c1.6,0.2,3.1,0.3,4.7,0.5C609.2,339.4,643.7,317.1,663.4,285.5z M516,410.6h-37.6l-19-82.8c7.9-3.4,15.5-7.7,22.4-12.8
		v69.7c0.2,6.3,4.2,12.3,10.1,14.5c9.7,3.6,20.5-4.5,20.8-14.5v-69.6c6.9,5.1,14.5,9.4,22.4,12.8L516,410.6z"/>
	<path class="st0" d="M526.9,166.3c6.6-1.2,10.7-7.5,10.7-7.5c2.9-4.7,6.6-9,11.2-12.2c15.9-11,38.1-4,47.7,11.2
		c3.1,5.1,8,9,13.7,9.1c12,0.4,19.1-14,13.5-23.7c-11.5-19.9-34.2-32.5-57.2-32.8c-0.5,0-1,0-1.6,0c-21.9,0.4-41,12.9-52.6,30.7
		c-0.3,0.5-0.6,0.9-0.9,1.4C503.9,154.7,515.5,168.4,526.9,166.3z"/>
</g>
</svg>
