<?xml version="1.0" encoding="utf-8"?>
<!-- Generator: Adobe Illustrator 24.0.1, SVG Export Plug-In . SVG Version: 6.00 Build 0)  -->
<svg version="1.1" id="Layer_1" xmlns="http://www.w3.org/2000/svg" xmlns:xlink="http://www.w3.org/1999/xlink" x="0px" y="0px"
	 viewBox="0 0 257.8 257.8" style="enable-background:new 0 0 257.8 257.8;" xml:space="preserve">
<style type="text/css">
	.st0{fill:#FFFFFF;}
</style>
<path class="st0" d="M128.9,0C57.8,0,0,57.8,0,128.9s57.8,128.9,128.9,128.9c71.1,0,128.9-57.8,128.9-128.9S200,0,128.9,0z
	 M128.9,95.2c-6.5,0-11.9-5.3-11.9-11.9s5.3-11.9,11.9-11.9s11.9,5.3,11.9,11.9S135.5,95.2,128.9,95.2z M137.4,240.5v-68.7
	l29.2-17.4l-0.2-0.4c5.1,4.4,11.7,7.1,19,7.1c15.9,0,28.9-13,28.9-28.9s-13-28.9-28.9-28.9s-28.9,13-28.9,28.9
	c0,2.7,0.4,5.3,1.1,7.8l-20.1,12v-41.2c11.8-3.6,20.4-14.6,20.4-27.6c0-15.9-13-28.9-28.9-28.9S100,67.4,100,83.3
	c0,13,8.6,24,20.4,27.6v69.7l-19.6-14.1c1.4-3.4,2.2-7.2,2.2-11.1c0-15.9-13-28.9-28.9-28.9s-28.9,13-28.9,28.9s13,28.9,28.9,28.9
	c5.8,0,11.2-1.7,15.7-4.7l30.5,21.9v39C62.7,236.2,17,187.8,17,128.9C17,67.2,67.2,17,128.9,17s111.9,50.2,111.9,111.9
	C240.8,187.8,195.2,236.2,137.4,240.5z M173.5,132.3c0-6.5,5.3-11.9,11.9-11.9s11.9,5.3,11.9,11.9s-5.3,11.9-11.9,11.9
	S173.5,138.8,173.5,132.3z M74.2,167.3c-6.5,0-11.9-5.3-11.9-11.9s5.3-11.9,11.9-11.9S86,148.8,86,155.4S80.7,167.3,74.2,167.3z"/>
</svg>
