<?xml version="1.0" encoding="utf-8"?>
<!-- Generator: Adobe Illustrator 21.0.0, SVG Export Plug-In . SVG Version: 6.00 Build 0)  -->
<svg version="1.1" id="Layer_1" xmlns="http://www.w3.org/2000/svg" xmlns:xlink="http://www.w3.org/1999/xlink" x="0px" y="0px"
	 viewBox="0 0 725.2 699.9" style="enable-background:new 0 0 725.2 699.9;" xml:space="preserve">
<g>
	<path d="M612.2,5.9v469.2c0,3.3-2.7,6-6,6h-91.3c-3.3,0-6-2.7-6-6V95.8c0-3.3-2.7-6-6-6h-480c-7.9,0-9.8-4.6-4.3-10.2L91.9,4.3
		C94.2,1.9,98.8,0,102.1,0h504.1C609.6-0.1,612.2,2.6,612.2,5.9z"/>
	<path d="M722.1,597.5H239c-3.3,0-6-2.7-6-6v-91.2c0-3.3,2.7-6,6-6h263.9c3.3,0,6-0.1,6-0.2s2.7-0.2,6-0.2h103.9c3.3,0,6-2.7,6-6
		V23.4c0-8,4.6-9.9,10.3-4.3l90.1,90.1"/>
	<path d="M490.3,205.7H109.9c-3.3,0-6,2.7-6,6v464.8c0,8-4.6,9.9-10.3,4.3L4.3,591.4c-2.3-2.3-4.3-7-4.3-10.3V108.3c0-3.3,2.7-6,6-6
		h484.3c3.3,0,6,2.7,6,6v91.3C496.3,203,493.6,205.7,490.3,205.7z"/>
	<path d="M122.5,699.9c-3.3,0-6-2.7-6-6V224.3c0-3.3,2.7-6,6-6h91.9c3.3,0,6,2.7,6,6V604c0,3.3,2.7,6,6,6h478.2
		c8,0,9.9,4.6,4.3,10.3l-75.2,75.3"/>
</g>
</svg>
