<svg xmlns="http://www.w3.org/2000/svg" viewBox="0 0 186.5 186.5"><defs><style>.cls-1{opacity:0.68;}.cls-2{fill:#fff;}</style></defs><title>icon_02dog</title><g id="レイヤー_3" data-name="レイヤー 3"><path class="cls-2" d="M20.18,63.64c8-5.33,7.1-15.09.59-20.12-3.85-3-5.92-2.36-7.1,1.78C11.31,53.88,13.67,68.07,20.18,63.64ZM59.52,142c6.21-1.19,23.66-14.2,29.57-26.92-8.28-13-12.42-28.1-14.49-45.25-.59-5.62-2.37-9.47-10.35-12.13C54.19,54.47,56,44.41,45.32,44.41c-5.62,0-10.06,3.85-12.42,12.72-1.48,5.32-11.54,10.94-10.36,18.93C26.09,100.61,40,126.64,59.52,142ZM162.45,82.27c1.47-7.39,2.36-13.31-4.14-16.27-3.26-1.48-5-4.73-5.92-7.39-2.37-7.1-3-11.54-11.83-12.13-4.44-.29-7.69,1.78-10.35,5.33-2.37,2.95-4.74,8-8.58,8.87-8.58,2.07-10.06,7.1-10.94,14.79-5.33,46.14-37,83.41-86.37,77.79,3.55,4.73,19.52,14.49,39.93,14.49C106.54,167.75,153.87,125.45,162.45,82.27Zm-136.06-42C29.05,45,35,45,37.63,40.86,40,37,40.29,31.1,38.22,24c-1.48-5-6.8-3.84-9.17-.88C24.91,28.14,24,35.83,26.39,40.27ZM46.8,37.61c3.84,8.28,15.38,2.66,13.9-5-.89-4.73-4.44-9.76-7.69-12.42-3.55-2.66-6.51-1.48-7.69,3A22.09,22.09,0,0,0,46.8,37.61ZM71.35,55.36a6.56,6.56,0,0,0,7.69-5c.29-1.48,1.77-10.36-5-15.09-6.51-4.43-9.76,3-9.76,10.65C64.25,50.33,66.61,54.47,71.35,55.36Zm92,97c-8.28.89-24,.3-34.6-2.37-9.17,6.81-18.64,12.13-28.69,15.38a65.34,65.34,0,0,0,13.31,1.19C131.69,166.57,149.43,163.31,163.33,152.37ZM106.84,55.06c1.18,6.8,14.49,3.55,14.49-6.51a21,21,0,0,0-2.07-9.46c-1.77-3.55-5-3.55-7.39-.59C106.84,44.71,106.54,53.29,106.84,55.06ZM125.47,35A7,7,0,0,0,136.42,42c3.84-2.95,5.91-7.68,4.14-16.85-.89-4.44-4.14-5.33-8-3C129.32,24.3,126.36,29.62,125.47,35Zm23.67,7.39c4.43,3,7.39,4.44,10.35-.3,2.66-4.43,2.36-11.83-3.55-17.45-3.25-2.95-6.51-3.25-7.69,1.19C146.77,31.4,145.59,40,149.14,42.34Zm23.07,4.73c-1.19-4.14-4.14-5-7.4-2.07-5.32,4.74-7.1,12.72-2.66,17.75,3.55,3.85,6.8,4.14,9.17.89S174.87,56.54,172.21,47.07Z"/></g></svg>