<svg xmlns="http://www.w3.org/2000/svg" viewBox="0 0 186.5 186.5"><defs><style>.cls-1{opacity:0.68;}.cls-2{fill:#fff;}</style></defs><title>icon_03monkey</title><g id="レイヤー_3" data-name="レイヤー 3"><path class="cls-2" d="M80.35,141a44.67,44.67,0,0,1-9.57,6.25c-20.41,10.2-45.19.62-55.19-19.58C5,106,16.43,79.34,36.63,71.22S83.69,72.05,89.1,92c-8.33-9.78-30.19-17.07-46.44-10-11.45,5-18.32,18.32-13.11,24.57a6.91,6.91,0,0,0,4.79,2.29c-4.38,1.87-4.79,9.58-.84,15.2,6.87,9.58,21,11.25,32.49,6.25,3.33-1.46,7.7-3.33,9.78-5.83C75.57,130.57,78.06,138.06,80.35,141ZM28.3,38.11a13.83,13.83,0,0,1,16-10.83c3.54.63,7.08,2.09,9,4.58-4.17,6.88-5.84,17.29-5,22.49-3.33,1-6.25,1.46-10,.21C31,52.06,26.63,45.61,28.3,38.11ZM97.22,12.29c22.49.83,38.94,20.62,37.9,42.9-1,21.65-16.87,40-44.35,37.69,7.28-1.88,17.49-5.42,23.74-13.75,9.37-12.28,12.7-31.23,2.7-40.81-5-4.79-11.45-5.41-14.57-1.67.41-2.5-1.25-6-7.08-7.49-10-2.5-22.7,5.2-26,20-1.25,5.62-1.25,13.74,0,17.07a40.82,40.82,0,0,0-16-3.12c-.83-3.75-.83-10.62-.62-13.33C54.74,26.24,74.32,11.46,97.22,12.29ZM81.6,157.22c2.09,7.08-2.29,14.37-9.37,16.45a13.71,13.71,0,0,1-17.07-8.74c-1.25-3.75-1.46-6-.63-9.17A35.67,35.67,0,0,0,77,148.89,18,18,0,0,1,81.6,157.22Zm20-3.33c-22.48-12.5-26.23-39.77-12.07-60-4.79,18.32-1.46,35.81,13.53,45.39,10.41,6.67,26.87,6,28.53-1.87a10.93,10.93,0,0,0,0-5.21c1.88,1.67,6.46,1.67,9.58-.83,12.7-10.2,5.41-34.36-17.49-41.23,4.58-3.12,9.37-8.54,11.24-12.49,28.11,9.37,36.24,41.85,21.24,63.09C142.83,159.72,116.17,162,101.59,153.89ZM170.52,90c-2.91,2.29-5.62,4-8.33,4.58-4-7.91-8.33-12.49-16.24-16.66,1.25-3.33,2.71-6.66,6-8.95,5.83-4,14.16-3.75,18.95,1.67C176.35,76.63,176.35,85.38,170.52,90Z"/></g></svg>