<svg xmlns="http://www.w3.org/2000/svg" viewBox="0 0 186.5 186.5"><defs><style>.cls-1{opacity:0.68;}.cls-2{fill:#fff;}</style></defs><title>icon_01pheasant</title><g id="レイヤー_3" data-name="レイヤー 3"><path class="cls-2" d="M51.43,115.69a42.23,42.23,0,0,1,5.65-20.42c-3.1-1.28-14.59-1.65-29,1.82-12,2.92-19.33,6.38-25,9.85A78.61,78.61,0,0,1,22.61,85.42C35.38,75.93,50.7,70.1,64.19,69.55c23.9-.91,45.42,8.21,56.72,27,8,13.5,6,33.38-1.09,42.49s-18.06,14.23-30.28,14.23C68.57,153.26,50.88,137.39,51.43,115.69ZM128.75,99C117.45,74,89.18,61.08,60,64.55,59.45,45,73,33.18,91,33.18A31.11,31.11,0,0,1,117.63,48.5l16.78.18L121.64,60.17a30.35,30.35,0,0,1,.37,4,35.83,35.83,0,0,1-.37,4.56c28.45,6.39,48.15,19.7,61.46,45.41C168.69,101.57,153.37,99,128.75,99ZM99.39,114.41a9.48,9.48,0,1,0-9.48,9.49A9.41,9.41,0,0,0,99.39,114.41Z"/></g></svg>