<svg id="Layer_1" data-name="Layer 1" xmlns="http://www.w3.org/2000/svg" viewBox="0 0 688 670.5"><defs><style>.cls-1{fill:#fff;}.cls-2{fill:none;}</style></defs><title>metropolis_icon</title><g id="Capa_5" data-name="Capa 5"><g id="layer102"><path class="cls-1" d="M573,28.45c4.3.3,8.1.6,11.5.8l-3-3,0,0c-3.1-.3-6.4-.6-10-.9-52.4-4-143.6-3.4-197.3,1.4l-12.9,1.1-13.5-9.6-13.6-9.5-8.6,11.9L317,32.75l-9.3.9c-19,2.1-81.4,13.3-108.1,19.3-32.37,7.29-64.79,16.16-95.81,26.13,0,1-.1,2-.19,2.93a1167.18,1167.18,0,0,1,130.6-33.46c26.2-5.2,76.1-12.9,78.4-12.1.8.3-8.6,14.4-20.7,31.5l-22.2,31.1-.3,60.3-.5,60.2-21.3-15-21.4-15-26.5,37.2-26.5,37v158.4L161,439.45l-12.2,17.3V679h56.6l.3-143.3.5-143.3,35.2,25c19.4,13.6,37.5,26.5,40.3,28.5l4.9,3.7v229.5h52v-23.3c0-12.9.2-158,.3-322.4.5-263.8.8-299.1,2.8-300.3,1.2-.8,4.7-1.4,7.7-1.4,4.4,0,12.4,5.2,46.4,29.4l41,29.4v216.9l-6.1,8.6-6.1,8.4v-205l-4.6-2.6-4.6-2.8v111.4c0,108.7-.2,111.6-3.1,116l-3.1,4.6V110.55l-3.4-3.5c-1.8-2-3.8-3.5-4.6-3.5-.6,0-1.2,57.3-1.2,127.2v127.4l-3.4,5.5-3.5,5.5-.5-135.3c-.3-123.4-.6-135.6-2.9-138.2-1.4-1.5-3.1-2.8-3.8-2.8s-1.2,132-1.2,293.2v293.2h61.2l.3-184.6.5-184.5,39.8,28.2,39.8,28.2.5,156.3c.3,137.6.6,156.4,2.6,156.4s2.3-18.8,2.3-158.1V362.75l-44.4-31.4-44.4-31.2V85.35L404.25,58l-38.7-27.2,8.4-1.1C410,25.25,522.85,24.45,573,28.45Zm-304.6,229.6c-.9,0-1.7,28.2-1.8,85.1-.3,68-.8,84.7-2.3,83.1s-2-21.1-2-87.3v-85.3l-3.8-2.4-3.8-2.4v85c0,84.7,0,85.1-3.1,83.4s-3.1-3.2-3.1-87.1c0-83.4,0-85.4-3.1-88.2s-3.1-2.6-3.1,82.4c0,47-.6,85.3-1.2,85.3s-3.4-1.8-6.1-4.1l-5.1-4.3.5-100.7.5-100.7,19.1,13.5,19.1,13.5.5,15.8C270,252.45,269.45,258.05,268.35,258.05Zm78.9-229.4c-1.8,2.9-6.6,1.4-7.2-2.4-.5-2.1-.3-3.8.2-3.8C342.45,22.35,348,27.25,347.25,28.65Z" transform="translate(0 -8.75)"/><path class="cls-1" d="M217.85,555.55c0-123.2,0-123.4,3.1-120.6s3.1,4.7,3.1,123.5c0,119.6,0,120.6-3.1,120.6S217.85,678,217.85,555.55Z" transform="translate(0 -8.75)"/><path class="cls-1" d="M230.15,560.45V441.75l3.8,2.4,3.8,2.4V679h-7.6Z" transform="translate(0 -8.75)"/><path class="cls-1" d="M242.35,565c0-62.8.6-114,1.4-114,.6,0,2.3,1.2,3.7,2.8,2.4,2.6,2.6,12.7,2.6,114v111.3h-7.6V565Z" transform="translate(0 -8.75)"/><path class="cls-1" d="M256.15,569.55V460.15l3.8,2.4,3.8,2.4V679h-7.6Z" transform="translate(0 -8.75)"/><path class="cls-1" d="M268.35,574.15c0-57.7.6-104.9,1.2-104.9.8,0,2.4,1.2,3.8,2.8,2.4,2.6,2.6,12.1,2.6,104.9v102.1h-7.6V574.15Z" transform="translate(0 -8.75)"/><path class="cls-1" d="M352.55,374.25V69.65l4.6,2.8,4.6,2.6v604h-9.2Z" transform="translate(0 -8.75)"/><path class="cls-1" d="M367.85,379.65c0-239,.5-299.1,2-298.2a52.18,52.18,0,0,1,4.6,3.4c2.4,2.1,2.6,18.4,2.6,298.4v295.9h-9.2Z" transform="translate(0 -8.75)"/><path class="cls-1" d="M457.85,514.45c-.3-90.5,0-164.6.5-164.6s2,1.2,3.4,2.8c2.4,2.6,2.6,16.2,2.6,164.6,0,160.6,0,161.8-3.1,161.8S458.15,677.65,457.85,514.45Z" transform="translate(0 -8.75)"/><path class="cls-1" d="M470.45,519V358.75l3.5,2.1,3.4,2.3.5,158,.3,157.8h-7.6V519Z" transform="translate(0 -8.75)"/><path class="cls-1" d="M482.65,523.65c0-85.4.6-155.4,1.2-155.4.8,0,2.4,1.2,3.8,2.8,2.4,2.6,2.6,15.6,2.6,155.4v152.6h-7.5V523.65Z" transform="translate(0 -8.75)"/><path class="cls-1" d="M496.45,528.25V377.45l3.8,2.4,3.8,2.4v296.6h-7.6Z" transform="translate(0 -8.75)"/><path class="cls-1" d="M508.75,532.85c0-80.4.6-146.2,1.2-146.2.8,0,2.4,1.2,3.8,2.8,2.4,2.6,2.6,15,2.6,146.2v143.4h-7.6Z" transform="translate(0 -8.75)"/></g><g id="layer102-2" data-name="layer102"><path d="M573,28.45c4.3.3,8.1.6,11.5.8l-3-3,0,0c-3.1-.3-6.4-.6-10-.9-52.4-4-143.6-3.4-197.3,1.4l-12.9,1.1-13.5-9.6-13.6-9.5-8.6,11.9L317,32.75l-9.3.9c-19,2.1-81.4,13.3-108.1,19.3-32.37,7.29-64.79,16.16-95.81,26.13,0,1-.1,2-.19,2.93a1167.18,1167.18,0,0,1,130.6-33.46c26.2-5.2,76.1-12.9,78.4-12.1.8.3-8.6,14.4-20.7,31.5l-22.2,31.1-.3,60.3-.5,60.2-21.3-15-21.4-15-26.5,37.2-26.5,37v158.4L161,439.45l-12.2,17.3V679h56.6l.3-143.3.5-143.3,35.2,25c19.4,13.6,37.5,26.5,40.3,28.5l4.9,3.7v229.5h52v-23.3c0-12.9.2-158,.3-322.4.5-263.8.8-299.1,2.8-300.3,1.2-.8,4.7-1.4,7.7-1.4,4.4,0,12.4,5.2,46.4,29.4l41,29.4v216.9l-6.1,8.6-6.1,8.4v-205l-4.6-2.6-4.6-2.8v111.4c0,108.7-.2,111.6-3.1,116l-3.1,4.6V110.55l-3.4-3.5c-1.8-2-3.8-3.5-4.6-3.5-.6,0-1.2,57.3-1.2,127.2v127.4l-3.4,5.5-3.5,5.5-.5-135.3c-.3-123.4-.6-135.6-2.9-138.2-1.4-1.5-3.1-2.8-3.8-2.8s-1.2,132-1.2,293.2v293.2h61.2l.3-184.6.5-184.5,39.8,28.2,39.8,28.2.5,156.3c.3,137.6.6,156.4,2.6,156.4s2.3-18.8,2.3-158.1V362.75l-44.4-31.4-44.4-31.2V85.35L404.25,58l-38.7-27.2,8.4-1.1C410,25.25,522.85,24.45,573,28.45Zm-304.6,229.6c-.9,0-1.7,28.2-1.8,85.1-.3,68-.8,84.7-2.3,83.1s-2-21.1-2-87.3v-85.3l-3.8-2.4-3.8-2.4v85c0,84.7,0,85.1-3.1,83.4s-3.1-3.2-3.1-87.1c0-83.4,0-85.4-3.1-88.2s-3.1-2.6-3.1,82.4c0,47-.6,85.3-1.2,85.3s-3.4-1.8-6.1-4.1l-5.1-4.3.5-100.7.5-100.7,19.1,13.5,19.1,13.5.5,15.8C270,252.45,269.45,258.05,268.35,258.05Zm78.9-229.4c-1.8,2.9-6.6,1.4-7.2-2.4-.5-2.1-.3-3.8.2-3.8C342.45,22.35,348,27.25,347.25,28.65Z" transform="translate(0 -8.75)"/><path d="M217.85,555.55c0-123.2,0-123.4,3.1-120.6s3.1,4.7,3.1,123.5c0,119.6,0,120.6-3.1,120.6S217.85,678,217.85,555.55Z" transform="translate(0 -8.75)"/><path d="M230.15,560.45V441.75l3.8,2.4,3.8,2.4V679h-7.6Z" transform="translate(0 -8.75)"/><path d="M242.35,565c0-62.8.6-114,1.4-114,.6,0,2.3,1.2,3.7,2.8,2.4,2.6,2.6,12.7,2.6,114v111.3h-7.6V565Z" transform="translate(0 -8.75)"/><path d="M256.15,569.55V460.15l3.8,2.4,3.8,2.4V679h-7.6Z" transform="translate(0 -8.75)"/><path d="M268.35,574.15c0-57.7.6-104.9,1.2-104.9.8,0,2.4,1.2,3.8,2.8,2.4,2.6,2.6,12.1,2.6,104.9v102.1h-7.6V574.15Z" transform="translate(0 -8.75)"/><path d="M352.55,374.25V69.65l4.6,2.8,4.6,2.6v604h-9.2Z" transform="translate(0 -8.75)"/><path d="M367.85,379.65c0-239,.5-299.1,2-298.2a52.18,52.18,0,0,1,4.6,3.4c2.4,2.1,2.6,18.4,2.6,298.4v295.9h-9.2Z" transform="translate(0 -8.75)"/><path d="M457.85,514.45c-.3-90.5,0-164.6.5-164.6s2,1.2,3.4,2.8c2.4,2.6,2.6,16.2,2.6,164.6,0,160.6,0,161.8-3.1,161.8S458.15,677.65,457.85,514.45Z" transform="translate(0 -8.75)"/><path d="M470.45,519V358.75l3.5,2.1,3.4,2.3.5,158,.3,157.8h-7.6V519Z" transform="translate(0 -8.75)"/><path d="M482.65,523.65c0-85.4.6-155.4,1.2-155.4.8,0,2.4,1.2,3.8,2.8,2.4,2.6,2.6,15.6,2.6,155.4v152.6h-7.5V523.65Z" transform="translate(0 -8.75)"/><path d="M496.45,528.25V377.45l3.8,2.4,3.8,2.4v296.6h-7.6Z" transform="translate(0 -8.75)"/><path d="M508.75,532.85c0-80.4.6-146.2,1.2-146.2.8,0,2.4,1.2,3.8,2.8,2.4,2.6,2.6,15,2.6,146.2v143.4h-7.6Z" transform="translate(0 -8.75)"/></g></g><line class="cls-2" y1="341.1" x2="29" y2="341.1"/><line class="cls-2" x1="688" y1="341.1" x2="659" y2="341.1"/></svg>