<svg id="Layer_1" data-name="Layer 1" xmlns="http://www.w3.org/2000/svg" viewBox="0 0 661.33 608.1"><defs><style>.cls-1{fill:none;}</style></defs><title>atlantis_icon</title><g id="Capa_3" data-name="Capa 3"><path d="M462.58,158l44.8,79.7-35.2-22.2,100.6,342.2-168.1-61.3L392.78,388l88.7,42.5-68-350.7Z" transform="translate(0 -26.62)"/><polygon points="330.79 0 272.49 497 330.79 608.1 382.19 499.2 330.79 0"/><path d="M191.68,158l-44.8,79.7,35.2-22.2L81.48,557.72l168.1-61.3,12-108.4-88.7,42.5,68-350.7Z" transform="translate(0 -26.62)"/><path d="M484.68,512.42c.7-2,3-3.3,5.9-4.4-18.9.4-57.8.7-87.7.9H398c-1.1,0-4,4.3-4,8.5,0,2.9,1.4,5.7,5.5,7.3a16.37,16.37,0,0,1,4.8,2.8c6.3,5.6-13.6,8.2-6.1,13.4,6.3,4.4,18.6,2.2,25.9,2.2,21.9,0,68.4,4.2,85.5-12.4C520.38,520.32,481.08,523.52,484.68,512.42Z" transform="translate(0 -26.62)"/><path d="M144.18,543.12c2.4,8.4,16.9,10.2,23.6,15.7a60.71,60.71,0,0,1-15.7,3.1c7.3,9.6,61.2,18.5,59.7,1.6,12.4-3.1,28.1-1.7,39.3-7.9-17-4.6-35.9,0-53.4-1.9C179.48,551.82,162.18,543.62,144.18,543.12Z" transform="translate(0 -26.62)"/><path d="M404.78,554.12v3.1c12.6,1.7,25,3.6,37.7,4.7-1.6,19.6,52,11.2,59.7,0-6.4-.3-9.8-1.5-14.1-6.3,8.6-2.1,18.6-4.7,23.6-12.6-15.1.2-29,6.6-44,8.7C446.68,554.82,425.78,554.12,404.78,554.12Z" transform="translate(0 -26.62)"/><path d="M294.88,552.52c11,13.8,49.2,5.1,64.4,3.1v-3.1Z" transform="translate(0 -26.62)"/><path d="M181.78,587.12c-9.8-6.7-27.6-4.6-39.3-7.9-2.8-.8-9.6-3.4-11.1.8-1.9,5.4,7.6,8.5,11.1,9.6C155,593.72,170.18,592.92,181.78,587.12Z" transform="translate(0 -26.62)"/><path d="M134.68,576.12l1.6,1.6Z" transform="translate(0 -26.62)"/><path d="M263.48,576.12c8.7,6.6,22.4,6.8,33,8.1,30.1,3.7,65.6,5.4,94.2-6.5-11.1-3.7-28.8,0-40.8,0C321,577.62,292.18,576.12,263.48,576.12Z" transform="translate(0 -26.62)"/><path d="M473.88,583.92c7.2,12,26.1,9.3,37.7,6,3.4-1,15.5-5.2,12-10.9-2.4-3.9-10.5.1-13.6,1C498.38,583.52,485.88,585.92,473.88,583.92Z" transform="translate(0 -26.62)"/><path d="M125.28,599.62c6,10.8,17.8,7.7,28.3,6.3C145,602.72,134.38,601.82,125.28,599.62Z" transform="translate(0 -26.62)"/><path d="M128.48,599.62l1.6,1.6-1.6-1.6m395.6,0,1.6,1.6Z" transform="translate(0 -26.62)"/><path d="M503.68,604.32c8.9,5.6,21.1,4.5,26.7-4.7C521.38,601.32,513,604.12,503.68,604.32Z" transform="translate(0 -26.62)"/><path d="M169.28,512.42c-.7-2-3-3.3-5.9-4.4,18.9.4,57.8.7,87.7.9H256c1.1,0,4,4.3,4,8.5,0,2.9-1.4,5.7-5.5,7.3a16.37,16.37,0,0,0-4.8,2.8c-6.3,5.6,13.6,8.2,6.1,13.4-6.3,4.4-18.6,2.2-25.9,2.2-21.9,0-68.4,4.2-85.5-12.4C133.58,520.32,173,523.52,169.28,512.42Z" transform="translate(0 -26.62)"/></g><line class="cls-1" y1="304.05" x2="23.74" y2="304.05"/><line class="cls-1" x1="661.33" y1="304.05" x2="639.59" y2="304.05"/></svg>