<svg id="Layer_1" data-name="Layer 1" xmlns="http://www.w3.org/2000/svg" viewBox="0 0 681 660.5"><defs><style>.cls-1{fill:#fff;}.cls-2{fill:none;}</style></defs><title>wakanda_icon</title><g id="Capa_1" data-name="Capa 1"><g id="layer102"><path class="cls-1" d="M348.54,633.69c-6.2-28.5-11.3-52.3-11.4-52.9-.3-1.4,22.5-50.4,23.4-50.4.4,0,1.1,1.2,1.7,2.8s5.5,12.7,11,24.8l10.1,22.2-8.9,41.3c-4.8,22.8-9.8,46.5-11.1,52.7s-2.6,11.2-2.9,11.2S354.74,662.19,348.54,633.69Z" transform="translate(-25 -24.89)"/><path class="cls-1" d="M465.34,591.69c-8.5-8.7-20.2-20.7-26.1-26.8l-10.6-11-2.1-16.6c-1.2-9.1-2.1-17.5-2.1-18.7,0-1.8,2.2-.7,15.6,8.1l15.6,10.2,9.7,26.5c13,35.3,16.1,44,15.8,44S473.94,600.39,465.34,591.69Z" transform="translate(-25 -24.89)"/><path class="cls-1" d="M245.44,600.49c1.1-3,6.9-18.9,12.9-35.3l10.8-29.8,15.6-10.5c13.1-8.7,15.7-10.1,15.7-8.4,0,1.2-.9,9.5-2,18.7l-2.1,16.6-5.5,6.1c-3,3.3-14.9,15.6-26.5,27.1l-21,21Z" transform="translate(-25 -24.89)"/><path class="cls-1" d="M538.94,535.19c-2.7-1.6-14.7-8.5-26.5-15.3L491,507.49l-5.9-14.1c-3.2-7.7-5.7-14.3-5.5-14.5.6-.5,27.8,8.3,29.3,9.6,1.9,1.6,35.8,49,35.4,49.4A23.17,23.17,0,0,1,538.94,535.19Z" transform="translate(-25 -24.89)"/><path class="cls-1" d="M180.44,536c0-.2,8-11.6,17.8-25.2l17.7-24.8,14.5-4.7c8-2.5,14.6-4.4,14.7-4s-2.3,6.8-5.5,14.4l-5.7,13.9-13,7.5c-7.2,4.1-18.8,10.9-26,15.1C179.24,537.39,180.44,536.69,180.44,536Z" transform="translate(-25 -24.89)"/><path class="cls-1" d="M549.94,468.39l-24-5.8-7.2-7.8c-4-4.3-7.2-8-7.3-8.3s4.4-.2,9.7.1,11.2.7,12.9.8c2.2.1,8.3,3.7,22,13.2,10.3,7.1,19.1,13.2,19.3,13.5C576,474.69,575.14,474.49,549.94,468.39Z" transform="translate(-25 -24.89)"/><path class="cls-1" d="M154.44,468.69c3-2.1,11.9-8.2,19.6-13.5l14.1-9.6,12.2-.7c6.7-.4,12.4-.5,12.6-.3s-3,4.1-7.3,8.5l-7.7,8.1-22,5.1c-12.1,2.8-23.1,5.4-24.5,5.7C149.74,472.49,150.74,471.49,154.44,468.69Z" transform="translate(-25 -24.89)"/><path class="cls-1" d="M275.34,408.49c-4.1-4.9-7.8-10.1-8.3-11.4-.8-2.1.3-4.6,7.8-17.1,4.8-8,8.6-14.9,8.4-15.3s-4.2-6.5-8.9-13.7c-18.4-27.8-33.2-54.9-43.2-79-6.3-15.3-8.7-22.4-12.2-36-3.9-15.7-2.9-15.3,2.6,1,8.5,25.3,17.3,41.9,27.2,51.2,6.5,6.2,11.2,8.3,18.1,8.3H272l5.3,12.8c8.3,19.8,20.7,44.3,24.7,49l3.6,4.3-3.5,9.2c-2,5.1-6.7,17.3-10.5,27.2s-7.4,18.1-7.9,18.2S279.44,413.49,275.34,408.49Z" transform="translate(-25 -24.89)"/><path class="cls-1" d="M437.74,415.79c-.3-1.1-5.1-13.3-10.5-27.2s-9.8-25.9-9.8-26.6a5.93,5.93,0,0,1,2-3.1c4.2-3.8,19.5-34.3,28.7-57.2l2.5-6.3h5.5c7.4,0,13.1-2.9,19.9-10.3,9.6-10.4,16.4-23.7,25-49.2,2.9-8.8,5.4-15.4,5.4-14.7,0,3.4-4.6,21.7-8.1,31.7-10.6,30.8-27.6,63.6-51.1,98.7-4.3,6.5-7.8,12.2-7.8,12.7s3.8,7.4,8.5,15.3,8.5,14.8,8.5,15.4c0,1.3-6.1,9.3-13.7,17.9C439,417.09,438.34,417.49,437.74,415.79Z" transform="translate(-25 -24.89)"/><path class="cls-1" d="M350.94,311.69c-1.6-.1-7.3-.8-12.6-1.4s-10-1.4-10.5-1.7c-.8-.6-21.8-34.8-26.6-43.4-4.6-8.3-10.6-10.8-27.5-11.2-9.8-.2-11.4-.5-16.2-3.1a45.3,45.3,0,0,1-9.8-8c-4.5-5.1-13.8-22.5-13.1-24.6.2-.6,3.8,3.1,7.9,8.2,8.5,10.6,15.5,16.4,25,20.8,5.5,2.7,8.4,3.3,19.9,4.2,7.4.7,14.4,1.8,15.6,2.5,3.1,1.9,8.9,11.1,16.5,26.3,3.7,7.5,8.3,15.4,10.2,17.5,4.2,5,7.1,5.4,35.9,5.5,21.4.1,21.7.1,23.3-2.1.9-1.3,8.1-12.6,15.9-25.3l14.3-23,5.4-.2c16.2-.7,32.1-4.7,40.8-10.2,6.1-4,9.7-7.9,16.2-17.9,6.3-9.7,7.7-8.6,2.4,1.9-4.6,9.2-8.3,14.5-13.7,19.7-6.6,6.5-11.2,8.2-21.6,8.2-19,0-30,6.7-33.3,20.3-.8,3.7-4.1,9.5-11,19.8-11,16.4-8.8,15-25.4,16.9C370.34,312.29,357.44,312.59,350.94,311.69Z" transform="translate(-25 -24.89)"/><path class="cls-1" d="M289.44,268.59c-5.4-4-19.1-7-31.9-7.1-4.6,0-7.3-.6-9.5-2-4.4-2.7-10.8-10.4-15-18.1-3.4-6.3-8.6-21.3-8.6-24.8,0-.9-3.2-9.6-7-19.1-5.3-13-7.4-19.6-8.1-25.5-2-14.6.7-46.9,4.7-56.3,1.9-4.6,2.7-3.7,1.2,1.4-2,6.5-1.6,37.5.6,45.4,4.4,15.9,10.6,27.7,19.8,37.5,6.8,7.3,6.8,7.4-.8,12.2-2.4,1.5-4.4,3.2-4.4,3.7,0,3.2,13.9,25.5,19.9,32,6.8,7.2,10.4,8.6,23.5,8.6,12.4,0,17.1,1.1,21.8,5.1l3.3,2.7-2.9,3.1C292.54,271,292.64,271,289.44,268.59Z" transform="translate(-25 -24.89)"/><path class="cls-1" d="M426.14,267.69c-2.6-2.8-2.7-2.9-1-4.9,3.9-4.5,8.2-5.7,22.3-6.3,16.9-.7,19.2-1.7,27.1-11.7,5.9-7.5,16.9-26,16.9-28.5,0-.8-2.5-3.2-5.5-5.2l-5.4-3.8,6.8-7.9q15.3-17.7,20.2-42.4c1.5-7.6,1.5-29.1-.1-37.4-1.4-7.9-.7-9,1.3-1.9,2.9,10.1,3.9,17.4,4.4,33.9.7,21.1-.1,25.7-8.1,45.5-3.5,8.8-7.4,20-8.5,24.9-3.2,13.4-8.8,24.1-16.9,32.4l-6.7,6.9-11.5.6c-15.3.8-27.2,3.9-29.5,7.6C430.84,271.19,428.94,270.59,426.14,267.69Z" transform="translate(-25 -24.89)"/><path class="cls-1" d="M325.74,256.09c-4.5-4.7-8.9-9.9-9.8-11.6-2-3.9-1.9-3.8,9.8,5.2,4.9,3.7,9.7,6.8,10.6,6.8s3.6-1.9,5.9-4.3l4.1-4.2-.9-29c-.5-16-1-29.3-1-29.7s-2.8-1.6-6.2-2.7c-37.1-12.5-58.8-53.9-58.8-112.6,0-16.7.8-23.2,2.9-24,2.5-1,15-3.3,15.4-2.8.2.2-.2,2.9-.9,6.1-4.4,18.4-5.6,43.4-2.9,59.7,2.4,15,8.5,30.2,16.1,40.6,7.8,10.7,22.7,22,34.7,26.4l4.7,1.8v20.1c0,11,.3,25.2.7,31.4l.6,11.3,4.1-4c2.3-2.3,4.9-4.1,5.7-4.1s3.7,1.6,6.2,3.5a34.85,34.85,0,0,0,5.1,3.5c.3,0,.7-13.8.8-30.6.3-26.1.5-30.8,1.8-31.5.8-.5,4.9-2.5,9-4.4,20.7-10,35.4-27.5,42.3-50.5,6.5-21.5,6.2-49.3-.8-76.4l-.8-2.8,4.4.7c2.4.4,6.3,1.1,8.6,1.7l4.1,1,.7,12.4c2.1,36.4-6.1,70.6-22.3,93.3-9.3,13.1-22.9,24.5-35.9,30.1l-5.1,2.2-.6,10.1c-.3,5.6-.8,19-1.1,29.8l-.6,19.7,3.9,4.1c2.4,2.5,4.8,4.1,6.2,4.1,2.3,0,10.4-5.5,16.8-11.4,1.7-1.6,3.2-2.6,3.2-2.2,0,2.2-11.6,18-14.4,19.7-5.6,3.4-7.9,2.4-19.1-8.7-3.6-3.5-7.7-6.7-9-7-3.9-1-7.9,1.2-17.3,9.7-4.8,4.4-9.6,7.9-10.7,7.9S330.64,261.09,325.74,256.09Z" transform="translate(-25 -24.89)"/><path class="cls-1" d="M267.64,237.79c-5.3-2.6-15-12.2-17.8-17.5l-1.5-3,7.3.6c19.8,1.8,32.8,4.6,38.7,8.3,4.4,2.7,13.1,10.3,14.1,12.3,1,1.8.5,1.9-17.3,1.9S272.64,240.29,267.64,237.79Z" transform="translate(-25 -24.89)"/><path class="cls-1" d="M312.24,236.09c-1.6-2.4-2.8-4.7-2.8-5.2s1.8-2.1,3.9-3.6c4.3-3.1,4.6-4,5.6-17.8l.7-8.6L289.34,181c-16.7-10.9-32.1-21.4-34.1-23.3-7.7-7.3-11.9-22.5-11.7-42.4.1-6.8.4-10.9.6-9.3.9,7.4,4.5,25.5,6,30,2.6,8.2,7.4,16.5,10.5,18.1,1.5.8,13.3,8.7,26.1,17.6s27.1,18.9,32,22.2l8.7,6v29.2l-5.8,5.7a80.18,80.18,0,0,1-6.2,5.7C315.14,240.49,313.74,238.49,312.24,236.09Z" transform="translate(-25 -24.89)"/><path class="cls-1" d="M401.14,235.19l-5.7-5.2v-29.5l30.5-21.3C442.64,167.49,458,157,460,156c7.1-3.7,12.3-14.7,15.8-33.1.9-4.4,2-10.2,2.5-13,.8-3.9.9-1.8.7,10-.3,12.6-.8,16.2-2.8,22.5-4.3,13.2-5.5,14.5-28,29.3-11.2,7.2-25.7,16.8-32.3,21.3l-12,8,.2,8c.5,14,.9,15.6,5.3,18.7,2.2,1.6,4,3.3,4,3.8,0,1.2-5.1,8.9-5.9,8.9A57.12,57.12,0,0,1,401.14,235.19Z" transform="translate(-25 -24.89)"/><path class="cls-1" d="M416,237.19c9.9-10.6,16.7-14.2,32-16.7,12.8-2.2,26.4-3.4,26.4-2.5,0,3.1-13.2,16.9-19.2,20-4.5,2.3-5.6,2.4-23.5,2.4H413Z" transform="translate(-25 -24.89)"/><path class="cls-1" d="M279.44,210.79c-3-1.9-9.8-5.6-15-8.1-8.1-3.9-10.5-4.6-16-4.8l-6.5-.1-4.3-5.4c-8.6-10.7-8.9-11.7-2-5.6,6,5.1,7,5.7,11.2,5.7,6,0,13.9,3.1,22.8,8.9,6.4,4.2,17.2,13.1,15.8,13C285.14,214.29,282.44,212.69,279.44,210.79Z" transform="translate(-25 -24.89)"/><path class="cls-1" d="M434.44,213.69c.1-.9,12-10.2,18.5-14.3,6.7-4.3,14.4-6.9,20.3-6.9,3.9,0,5.3-.5,7.3-2.6,3.2-3.4,10.8-9.4,8.8-6.9-.8,1.1-3.9,5-6.8,8.7-5,6.3-5.5,6.6-8.7,6.1-6.4-1.1-19.9,4.2-34,13.2C436.84,212.79,434.44,214.09,434.44,213.69Z" transform="translate(-25 -24.89)"/><path class="cls-1" d="M359.54,97.79c-1.7-7.6-3.1-27.4-3.1-45V36.39h10v15.8c0,24.1-2.6,50.2-5,50.2C361,102.49,360.14,100.29,359.54,97.79Z" transform="translate(-25 -24.89)"/><path class="cls-1" d="M207.64,66.79c-1.8-8.1-3.2-19-3.1-24.6.1-10.1,3.7-18.5,5.3-12.4.3,1.3,2.7,5.5,5.2,9.3s4.7,7.3,4.7,7.8a24.1,24.1,0,0,1-2.1,5.5c-1.1,2.5-3.6,7.8-5.5,11.9l-3.4,7.4Z" transform="translate(-25 -24.89)"/><path class="cls-1" d="M515.24,66.19c-3.1-4.9-10.8-19.6-10.8-20.7,0-.7,1.8-3.9,4.1-7.2a73.34,73.34,0,0,0,5.6-9.7l1.6-3.7,1.8,4c2.8,6.2,3.3,14.7,1.5,27.4-.9,6.3-1.8,11.6-2,11.8S516,67.39,515.24,66.19Z" transform="translate(-25 -24.89)"/></g><g id="layer102-2" data-name="layer102"><path d="M348.54,633.69c-6.2-28.5-11.3-52.3-11.4-52.9-.3-1.4,22.5-50.4,23.4-50.4.4,0,1.1,1.2,1.7,2.8s5.5,12.7,11,24.8l10.1,22.2-8.9,41.3c-4.8,22.8-9.8,46.5-11.1,52.7s-2.6,11.2-2.9,11.2S354.74,662.19,348.54,633.69Z" transform="translate(-25 -24.89)"/><path d="M465.34,591.69c-8.5-8.7-20.2-20.7-26.1-26.8l-10.6-11-2.1-16.6c-1.2-9.1-2.1-17.5-2.1-18.7,0-1.8,2.2-.7,15.6,8.1l15.6,10.2,9.7,26.5c13,35.3,16.1,44,15.8,44S473.94,600.39,465.34,591.69Z" transform="translate(-25 -24.89)"/><path d="M245.44,600.49c1.1-3,6.9-18.9,12.9-35.3l10.8-29.8,15.6-10.5c13.1-8.7,15.7-10.1,15.7-8.4,0,1.2-.9,9.5-2,18.7l-2.1,16.6-5.5,6.1c-3,3.3-14.9,15.6-26.5,27.1l-21,21Z" transform="translate(-25 -24.89)"/><path d="M538.94,535.19c-2.7-1.6-14.7-8.5-26.5-15.3L491,507.49l-5.9-14.1c-3.2-7.7-5.7-14.3-5.5-14.5.6-.5,27.8,8.3,29.3,9.6,1.9,1.6,35.8,49,35.4,49.4A23.17,23.17,0,0,1,538.94,535.19Z" transform="translate(-25 -24.89)"/><path d="M180.44,536c0-.2,8-11.6,17.8-25.2l17.7-24.8,14.5-4.7c8-2.5,14.6-4.4,14.7-4s-2.3,6.8-5.5,14.4l-5.7,13.9-13,7.5c-7.2,4.1-18.8,10.9-26,15.1C179.24,537.39,180.44,536.69,180.44,536Z" transform="translate(-25 -24.89)"/><path d="M549.94,468.39l-24-5.8-7.2-7.8c-4-4.3-7.2-8-7.3-8.3s4.4-.2,9.7.1,11.2.7,12.9.8c2.2.1,8.3,3.7,22,13.2,10.3,7.1,19.1,13.2,19.3,13.5C576,474.69,575.14,474.49,549.94,468.39Z" transform="translate(-25 -24.89)"/><path d="M154.44,468.69c3-2.1,11.9-8.2,19.6-13.5l14.1-9.6,12.2-.7c6.7-.4,12.4-.5,12.6-.3s-3,4.1-7.3,8.5l-7.7,8.1-22,5.1c-12.1,2.8-23.1,5.4-24.5,5.7C149.74,472.49,150.74,471.49,154.44,468.69Z" transform="translate(-25 -24.89)"/><path d="M275.34,408.49c-4.1-4.9-7.8-10.1-8.3-11.4-.8-2.1.3-4.6,7.8-17.1,4.8-8,8.6-14.9,8.4-15.3s-4.2-6.5-8.9-13.7c-18.4-27.8-33.2-54.9-43.2-79-6.3-15.3-8.7-22.4-12.2-36-3.9-15.7-2.9-15.3,2.6,1,8.5,25.3,17.3,41.9,27.2,51.2,6.5,6.2,11.2,8.3,18.1,8.3H272l5.3,12.8c8.3,19.8,20.7,44.3,24.7,49l3.6,4.3-3.5,9.2c-2,5.1-6.7,17.3-10.5,27.2s-7.4,18.1-7.9,18.2S279.44,413.49,275.34,408.49Z" transform="translate(-25 -24.89)"/><path d="M437.74,415.79c-.3-1.1-5.1-13.3-10.5-27.2s-9.8-25.9-9.8-26.6a5.93,5.93,0,0,1,2-3.1c4.2-3.8,19.5-34.3,28.7-57.2l2.5-6.3h5.5c7.4,0,13.1-2.9,19.9-10.3,9.6-10.4,16.4-23.7,25-49.2,2.9-8.8,5.4-15.4,5.4-14.7,0,3.4-4.6,21.7-8.1,31.7-10.6,30.8-27.6,63.6-51.1,98.7-4.3,6.5-7.8,12.2-7.8,12.7s3.8,7.4,8.5,15.3,8.5,14.8,8.5,15.4c0,1.3-6.1,9.3-13.7,17.9C439,417.09,438.34,417.49,437.74,415.79Z" transform="translate(-25 -24.89)"/><path d="M350.94,311.69c-1.6-.1-7.3-.8-12.6-1.4s-10-1.4-10.5-1.7c-.8-.6-21.8-34.8-26.6-43.4-4.6-8.3-10.6-10.8-27.5-11.2-9.8-.2-11.4-.5-16.2-3.1a45.3,45.3,0,0,1-9.8-8c-4.5-5.1-13.8-22.5-13.1-24.6.2-.6,3.8,3.1,7.9,8.2,8.5,10.6,15.5,16.4,25,20.8,5.5,2.7,8.4,3.3,19.9,4.2,7.4.7,14.4,1.8,15.6,2.5,3.1,1.9,8.9,11.1,16.5,26.3,3.7,7.5,8.3,15.4,10.2,17.5,4.2,5,7.1,5.4,35.9,5.5,21.4.1,21.7.1,23.3-2.1.9-1.3,8.1-12.6,15.9-25.3l14.3-23,5.4-.2c16.2-.7,32.1-4.7,40.8-10.2,6.1-4,9.7-7.9,16.2-17.9,6.3-9.7,7.7-8.6,2.4,1.9-4.6,9.2-8.3,14.5-13.7,19.7-6.6,6.5-11.2,8.2-21.6,8.2-19,0-30,6.7-33.3,20.3-.8,3.7-4.1,9.5-11,19.8-11,16.4-8.8,15-25.4,16.9C370.34,312.29,357.44,312.59,350.94,311.69Z" transform="translate(-25 -24.89)"/><path d="M289.44,268.59c-5.4-4-19.1-7-31.9-7.1-4.6,0-7.3-.6-9.5-2-4.4-2.7-10.8-10.4-15-18.1-3.4-6.3-8.6-21.3-8.6-24.8,0-.9-3.2-9.6-7-19.1-5.3-13-7.4-19.6-8.1-25.5-2-14.6.7-46.9,4.7-56.3,1.9-4.6,2.7-3.7,1.2,1.4-2,6.5-1.6,37.5.6,45.4,4.4,15.9,10.6,27.7,19.8,37.5,6.8,7.3,6.8,7.4-.8,12.2-2.4,1.5-4.4,3.2-4.4,3.7,0,3.2,13.9,25.5,19.9,32,6.8,7.2,10.4,8.6,23.5,8.6,12.4,0,17.1,1.1,21.8,5.1l3.3,2.7-2.9,3.1C292.54,271,292.64,271,289.44,268.59Z" transform="translate(-25 -24.89)"/><path d="M426.14,267.69c-2.6-2.8-2.7-2.9-1-4.9,3.9-4.5,8.2-5.7,22.3-6.3,16.9-.7,19.2-1.7,27.1-11.7,5.9-7.5,16.9-26,16.9-28.5,0-.8-2.5-3.2-5.5-5.2l-5.4-3.8,6.8-7.9q15.3-17.7,20.2-42.4c1.5-7.6,1.5-29.1-.1-37.4-1.4-7.9-.7-9,1.3-1.9,2.9,10.1,3.9,17.4,4.4,33.9.7,21.1-.1,25.7-8.1,45.5-3.5,8.8-7.4,20-8.5,24.9-3.2,13.4-8.8,24.1-16.9,32.4l-6.7,6.9-11.5.6c-15.3.8-27.2,3.9-29.5,7.6C430.84,271.19,428.94,270.59,426.14,267.69Z" transform="translate(-25 -24.89)"/><path d="M325.74,256.09c-4.5-4.7-8.9-9.9-9.8-11.6-2-3.9-1.9-3.8,9.8,5.2,4.9,3.7,9.7,6.8,10.6,6.8s3.6-1.9,5.9-4.3l4.1-4.2-.9-29c-.5-16-1-29.3-1-29.7s-2.8-1.6-6.2-2.7c-37.1-12.5-58.8-53.9-58.8-112.6,0-16.7.8-23.2,2.9-24,2.5-1,15-3.3,15.4-2.8.2.2-.2,2.9-.9,6.1-4.4,18.4-5.6,43.4-2.9,59.7,2.4,15,8.5,30.2,16.1,40.6,7.8,10.7,22.7,22,34.7,26.4l4.7,1.8v20.1c0,11,.3,25.2.7,31.4l.6,11.3,4.1-4c2.3-2.3,4.9-4.1,5.7-4.1s3.7,1.6,6.2,3.5a34.85,34.85,0,0,0,5.1,3.5c.3,0,.7-13.8.8-30.6.3-26.1.5-30.8,1.8-31.5.8-.5,4.9-2.5,9-4.4,20.7-10,35.4-27.5,42.3-50.5,6.5-21.5,6.2-49.3-.8-76.4l-.8-2.8,4.4.7c2.4.4,6.3,1.1,8.6,1.7l4.1,1,.7,12.4c2.1,36.4-6.1,70.6-22.3,93.3-9.3,13.1-22.9,24.5-35.9,30.1l-5.1,2.2-.6,10.1c-.3,5.6-.8,19-1.1,29.8l-.6,19.7,3.9,4.1c2.4,2.5,4.8,4.1,6.2,4.1,2.3,0,10.4-5.5,16.8-11.4,1.7-1.6,3.2-2.6,3.2-2.2,0,2.2-11.6,18-14.4,19.7-5.6,3.4-7.9,2.4-19.1-8.7-3.6-3.5-7.7-6.7-9-7-3.9-1-7.9,1.2-17.3,9.7-4.8,4.4-9.6,7.9-10.7,7.9S330.64,261.09,325.74,256.09Z" transform="translate(-25 -24.89)"/><path d="M267.64,237.79c-5.3-2.6-15-12.2-17.8-17.5l-1.5-3,7.3.6c19.8,1.8,32.8,4.6,38.7,8.3,4.4,2.7,13.1,10.3,14.1,12.3,1,1.8.5,1.9-17.3,1.9S272.64,240.29,267.64,237.79Z" transform="translate(-25 -24.89)"/><path d="M312.24,236.09c-1.6-2.4-2.8-4.7-2.8-5.2s1.8-2.1,3.9-3.6c4.3-3.1,4.6-4,5.6-17.8l.7-8.6L289.34,181c-16.7-10.9-32.1-21.4-34.1-23.3-7.7-7.3-11.9-22.5-11.7-42.4.1-6.8.4-10.9.6-9.3.9,7.4,4.5,25.5,6,30,2.6,8.2,7.4,16.5,10.5,18.1,1.5.8,13.3,8.7,26.1,17.6s27.1,18.9,32,22.2l8.7,6v29.2l-5.8,5.7a80.18,80.18,0,0,1-6.2,5.7C315.14,240.49,313.74,238.49,312.24,236.09Z" transform="translate(-25 -24.89)"/><path d="M401.14,235.19l-5.7-5.2v-29.5l30.5-21.3C442.64,167.49,458,157,460,156c7.1-3.7,12.3-14.7,15.8-33.1.9-4.4,2-10.2,2.5-13,.8-3.9.9-1.8.7,10-.3,12.6-.8,16.2-2.8,22.5-4.3,13.2-5.5,14.5-28,29.3-11.2,7.2-25.7,16.8-32.3,21.3l-12,8,.2,8c.5,14,.9,15.6,5.3,18.7,2.2,1.6,4,3.3,4,3.8,0,1.2-5.1,8.9-5.9,8.9A57.12,57.12,0,0,1,401.14,235.19Z" transform="translate(-25 -24.89)"/><path d="M416,237.19c9.9-10.6,16.7-14.2,32-16.7,12.8-2.2,26.4-3.4,26.4-2.5,0,3.1-13.2,16.9-19.2,20-4.5,2.3-5.6,2.4-23.5,2.4H413Z" transform="translate(-25 -24.89)"/><path d="M279.44,210.79c-3-1.9-9.8-5.6-15-8.1-8.1-3.9-10.5-4.6-16-4.8l-6.5-.1-4.3-5.4c-8.6-10.7-8.9-11.7-2-5.6,6,5.1,7,5.7,11.2,5.7,6,0,13.9,3.1,22.8,8.9,6.4,4.2,17.2,13.1,15.8,13C285.14,214.29,282.44,212.69,279.44,210.79Z" transform="translate(-25 -24.89)"/><path d="M434.44,213.69c.1-.9,12-10.2,18.5-14.3,6.7-4.3,14.4-6.9,20.3-6.9,3.9,0,5.3-.5,7.3-2.6,3.2-3.4,10.8-9.4,8.8-6.9-.8,1.1-3.9,5-6.8,8.7-5,6.3-5.5,6.6-8.7,6.1-6.4-1.1-19.9,4.2-34,13.2C436.84,212.79,434.44,214.09,434.44,213.69Z" transform="translate(-25 -24.89)"/><path d="M359.54,97.79c-1.7-7.6-3.1-27.4-3.1-45V36.39h10v15.8c0,24.1-2.6,50.2-5,50.2C361,102.49,360.14,100.29,359.54,97.79Z" transform="translate(-25 -24.89)"/><path d="M207.64,66.79c-1.8-8.1-3.2-19-3.1-24.6.1-10.1,3.7-18.5,5.3-12.4.3,1.3,2.7,5.5,5.2,9.3s4.7,7.3,4.7,7.8a24.1,24.1,0,0,1-2.1,5.5c-1.1,2.5-3.6,7.8-5.5,11.9l-3.4,7.4Z" transform="translate(-25 -24.89)"/><path d="M515.24,66.19c-3.1-4.9-10.8-19.6-10.8-20.7,0-.7,1.8-3.9,4.1-7.2a73.34,73.34,0,0,0,5.6-9.7l1.6-3.7,1.8,4c2.8,6.2,3.3,14.7,1.5,27.4-.9,6.3-1.8,11.6-2,11.8S516,67.39,515.24,66.19Z" transform="translate(-25 -24.89)"/></g></g><line class="cls-2" y1="338.11" x2="36" y2="338.11"/><line class="cls-2" x1="681" y1="338.11" x2="646" y2="338.11"/></svg>