<?xml version="1.0" encoding="utf-8"?>
<!-- Generator: Adobe Illustrator 21.1.0, SVG Export Plug-In . SVG Version: 6.00 Build 0)  -->
<svg version="1.1" id="Calque_1" xmlns="http://www.w3.org/2000/svg" xmlns:xlink="http://www.w3.org/1999/xlink" x="0px" y="0px"
	 viewBox="0 0 612 612" style="enable-background:new 0 0 612 612;" xml:space="preserve">
<path class="st0" d="M323.8,497.3l-12.4,21l-5,7.4l-4.9-7.4l-14.8-23.5l-29.6-48.2L121.2,220.6c-2.5,12.4-3.7,24.7-3.7,35.8
	c0,7.4,0,16.1,1.2,24.7l77.8,127.3l42,70.4L306.5,590l60.5-98.9C352.2,493.6,337.4,496.1,323.8,497.3L323.8,497.3z M320.1,487.4
	h-24.7l-21-35.8c11.1,1.2,21,2.5,32.1,2.5c14.8,0,29.7-1.2,44.5-4.9c25.9-6.2,50.7-17.3,72.9-33.4c43.2-32.1,72.9-79.1,80.3-131
	l34.6-53.1c1.2,8.6,1.2,18.5,1.2,27.2c0,100.1-65.5,187.8-163.1,218.7C358.4,482.5,339.9,486.2,320.1,487.4L320.1,487.4z
	 M148.4,136.5c-16.1,19.8-27.2,43.2-34.6,68c-4.9,16.1-7.4,34.6-7.4,51.9c0,8.7,0,18.5,1.2,27.2c7.4,51.9,35.8,100.1,79.1,131
	l34.6,56.8C132.3,436.8,73,352.8,73,257.6c0-14.8,1.2-29.7,3.7-43.3c3.7-18.5,8.7-37.1,17.3-54.4c5-7.4,8.7-16.1,13.6-23.5H148.4
	L148.4,136.5z M606.8,92.1l-71.7,118.6l-42,69.2l-77.8,127.3c-17.3,12.4-35.8,21-55.6,27.2L498,210.7l29.6-48.2l16.1-27.2l4.9-8.7
	h-38.3c-7.4-12.4-16.1-23.5-25.9-33.4v-1.2H606.8L606.8,92.1z M4.2,92l391.2,0.1c16.1,9.9,30.9,19.8,44.5,33.4H64.3l4.9,8.6
	l14.8,24.7C77.9,172.4,73,186,69.3,199.5L4.2,92z M213.8,80.9h-59.3c42-34.6,95.1-54.4,150.8-54.4c60.5,0,118.6,22.2,161.9,64.3
	c13.6,13.6,25.9,28.4,35.8,43.2c4.9,7.4,9.9,16.1,12.4,21l-21,35.8c-8.7-23.5-21-45.7-38.3-65.5C440,108.1,420.2,92.1,398,80.9
	c-28.4-14.8-60.5-22.2-92.7-22.2C274.4,58.7,242.3,67.3,213.8,80.9z"/>
</svg>
