<?xml version="1.0" encoding="utf-8"?>
<!-- Generator: Adobe Illustrator 21.0.0, SVG Export Plug-In . SVG Version: 6.00 Build 0)  -->
<svg version="1.1" id="Layer_1" xmlns="http://www.w3.org/2000/svg" xmlns:xlink="http://www.w3.org/1999/xlink" x="0px" y="0px"
	 viewBox="0 0 644.2 700" style="enable-background:new 0 0 644.2 700;" xml:space="preserve">
<g id="_x31_0_2_">
	<path d="M107.1,541.9c58.3,50.5,133.5,78.6,211.8,79.3c1.1,0,2.1,0,3.1,0s2,0,3.1,0c63.6-0.8,123.1-25.2,167.8-68.9
		s69.4-101.6,69.4-163c0-1.3,0-2.5,0-3.7c0-0.8,0-1.5,0-2.3c0-2.2-0.1-4.4-0.3-6.6c-30.3,102.2-128.2,174.6-240,174.6
		c-59.3,0-116.8-20.4-161.9-57.6c-44.5-36.7-74.4-87.5-84-143c-0.6-3.7-1.2-7.3-1.6-11l0,0c0-0.2-0.1-0.4-0.1-0.6
		c-0.1-0.9-0.2-1.8-0.3-2.7c-0.2-1.7-0.4-3.5-0.5-5.2c-0.4-4.7-0.7-9.4-0.8-14.1c0-0.7,0-1.5,0-2.3c0-1.4,0-2.8,0-4.1
		c0-63.7,25.6-123.8,72-169.2C191.2,96.2,253,70.8,319,70c2.1,0,4.3,0,6.5,0c80.5,0.7,157.8,29.7,217.7,81.6
		c1.6,1.4,3.2,2.8,4.7,4.2c1,0.9,2,1.8,3,2.8c1.4,1.3,2.8,2.6,4.2,3.9c1.3,1.3,2.7,2.5,3.9,3.8c0.2,0.2,0.3,0.3,0.5,0.5
		c1.5,1.5,2.9,2.9,4.3,4.4c3.9,4,7.7,8.1,11.4,12.4c1.1,1.2,2.2,2.5,3.3,3.7c0.7,0.9,1.5,1.8,2.2,2.7c1.2,1.5,2.4,2.9,3.6,4.4
		c1.1,1.3,2.1,2.7,3.2,4c0.4,0.5,0.8,1,1.2,1.5c1.1,1.5,2.3,2.9,3.3,4.4c2.8,3.8,5.5,7.6,8.1,11.5c0.9,1.3,1.8,2.7,2.7,4
		c0.3,0.5,0.7,1,1,1.5c0.6,0.9,1.1,1.7,1.7,2.6c0.9,1.4,1.8,2.9,2.7,4.4c0.2,0.3,0.4,0.6,0.6,0.9c1.1,1.9,2.3,3.8,3.4,5.7
		c1.2,2.1,2.3,4.1,3.5,6.2c1.1,2.1,2.2,4.2,3.3,6.3c1.2,2.4,2.4,4.8,3.6,7.2c0.9,1.8,1.7,3.6,2.6,5.5c0.1,0.2,0.2,0.4,0.3,0.6
		c0.7,1.5,1.4,3.1,2.1,4.7c0.3,0.7,0.7,1.5,1,2.2c0.8,1.9,1.6,3.9,2.4,5.8c0.8,2.1,1.7,4.3,2.5,6.4c0.1,0.3,0.2,0.6,0.3,0.8
		c0.7,1.9,1.4,3.8,2.1,5.7c0.2,0.6,0.5,1.3,0.6,1.9c0.6,1.6,1.1,3.2,1.6,4.8c0.1,0.4,0.3,0.7,0.3,1.1c0.6,1.7,1.1,3.4,1.6,5.1
		c0.3,0.8,0.5,1.6,0.7,2.4c0.3,1.1,0.7,2.3,1,3.4c0.3,1.1,0.6,2.1,0.9,3.2c0.5,2,1.1,4.1,1.6,6.1c0-1.3,0-2.5,0-3.8
		C643.8,139.3,499.5,0,322,0S0.1,139.3,0.1,310.6c0,12.9,0.8,26,2.5,38.8C12.2,423.5,49.3,491.8,107.1,541.9z"/>
	<path d="M536.9,158.1c-58.3-50.5-133.5-78.6-211.8-79.4c-1.1,0-2.1,0-3.2,0c-1,0-2,0-3,0c-63.6,0.8-123.1,25.3-167.8,68.9
		c-44.7,43.7-69.4,101.6-69.4,163c0,1.3,0,2.5,0,3.8c0,0.7,0,1.4,0,2.1c0,1.4,0.1,2.8,0.1,4.3c0,0.9,0.1,1.7,0.2,2.6
		c13.9-47.1,42.8-89.5,82.4-120.7c44.3-34.8,100.2-54,157.4-54c59.3,0,116.8,20.5,161.9,57.6c44.6,36.7,74.4,87.5,84.1,143
		c0.4,2.4,0.8,4.7,1.1,7.1l0,0c0,0.2,0.1,0.3,0.1,0.5c0.1,0.7,0.2,1.3,0.3,2c0,0.1,0,0.3,0,0.4c0.2,1.6,0.4,3.2,0.6,4.8
		c0.3,2.7,0.5,5.5,0.7,8.2c0,0.2,0,0.5,0,0.7c0.1,0.9,0.1,1.9,0.2,2.8c0.1,1.1,0.1,2.2,0.2,3.4c0.1,1.1,0.1,2.3,0.1,3.4
		c0,0.9,0.1,1.7,0.1,2.6c0,1.4,0,2.7,0,4.1c0,63.8-25.6,123.8-72,169.2c-46.2,45.4-108,70.7-174,71.5c-2.1,0-4.3,0-6.5,0
		c-80.5-0.7-157.8-29.7-217.7-81.6c-1.6-1.4-3.2-2.8-4.7-4.2c-1.4-1.3-2.9-2.6-4.3-3.9c-0.1-0.1-0.3-0.2-0.4-0.4c-1-0.9-2-1.9-3-2.8
		c-1-1-2-2-3-3c-0.5-0.5-1-0.9-1.4-1.4c-1.2-1.2-2.5-2.5-3.7-3.7c-4-4.1-7.8-8.3-11.6-12.6c-1.1-1.3-2.2-2.6-3.4-3.9
		c-0.5-0.6-1-1.2-1.5-1.9c-0.9-1.1-1.9-2.2-2.8-3.4c-0.6-0.7-1.1-1.4-1.7-2.1c-1.2-1.5-2.4-3-3.5-4.5c-1.2-1.5-2.3-3-3.4-4.5
		c-1.7-2.3-3.5-4.7-5.1-7.1c-1.3-1.9-2.6-3.8-3.9-5.7c-1.1-1.6-2.1-3.2-3.2-4.9c-0.6-0.9-1.1-1.8-1.7-2.6c-0.9-1.4-1.8-2.9-2.7-4.4
		c-0.2-0.3-0.4-0.6-0.6-0.9c-1.1-1.9-2.3-3.8-3.4-5.7c-1.2-2.1-2.3-4.1-3.5-6.2c-1.1-2.1-2.3-4.2-3.3-6.3c-1-1.9-1.9-3.8-2.9-5.8
		c-0.2-0.5-0.5-0.9-0.7-1.4c-0.9-1.9-1.8-3.8-2.7-5.7c-1-2.2-2-4.3-2.9-6.5s-1.9-4.4-2.7-6.6c-0.9-2.2-1.8-4.4-2.6-6.6
		c-1.7-4.5-3.3-8.9-4.7-13.5c-0.7-2-1.3-4.1-1.9-6.1c-0.2-0.5-0.3-1-0.4-1.5c-0.6-2-1.2-4.1-1.8-6.1c-0.5-1.7-0.9-3.4-1.4-5.2
		c-0.2-0.6-0.3-1.3-0.5-1.9c0,1.3,0,2.5,0,3.8C0.2,560.7,144.5,700,322,700c177.4,0,321.8-139.3,321.8-310.6c0-12.9-0.8-26-2.5-38.8
		C631.8,276.6,594.7,208.2,536.9,158.1z"/>
</g>
</svg>
