<?xml version="1.0" encoding="utf-8"?>
<!-- Generator: Adobe Illustrator 21.1.0, SVG Export Plug-In . SVG Version: 6.00 Build 0)  -->
<svg version="1.1" id="Calque_1" xmlns="http://www.w3.org/2000/svg" xmlns:xlink="http://www.w3.org/1999/xlink" x="0px" y="0px"
	 viewBox="0 0 612 612" style="enable-background:new 0 0 612 612;" xml:space="preserve">
<path id="Fill-2" class="st0" d="M305.5,568.6L181.7,496v-86.8l123.8,72.6l152.3-88.2l74-42.7v85.4L305.5,568.6L305.5,568.6z
	 M79.2,172.9l125.2-72.6l72.6,44.1l-123.8,71.2l-1.4,263.3l-72.6-42.7C79.2,436.3,79.2,172.9,79.2,172.9z M305.5,163l89.7,52.7
	l32.7,18.5v140.9l-123.8,71.2l-121-71.2V232.7L305.5,163L305.5,163z M530.4,172.9v143.7l-74,42.7V215.6l-47-27L314,131.7l-81.1-49.8
	l71.2-41.3L530.4,172.9z M305.5,6.4L49.3,155.9v298.9l256.2,149.4l256.2-149.4V155.9L305.5,6.4L305.5,6.4z"/>
</svg>
