<?xml version="1.0" encoding="utf-8"?>
<!-- Generator: Adobe Illustrator 21.1.0, SVG Export Plug-In . SVG Version: 6.00 Build 0)  -->
<svg version="1.1" id="Calque_1" xmlns="http://www.w3.org/2000/svg" xmlns:xlink="http://www.w3.org/1999/xlink" x="0px" y="0px"
	 viewBox="0 0 612 612" style="enable-background:new 0 0 612 612;" xml:space="preserve">
<path class="st0" d="M353.2,241.3c-12.8,4.3-25.6,10-37,17.1c35.6,28.5,59.8,69.7,62.6,116.7c0,5.7,0,10,0,15.7
	c0,14.2-1.4,28.5-5.7,41.3c-10,38.4-34.2,72.6-65.5,95.4c-15.7,11.4-32.7,19.9-51.2,24.2c-15.7,4.3-29.9,7.1-45.5,7.1
	c-92.5,0-167.9-75.4-167.9-166.5c0-44.1,17.1-85.4,48.4-116.7c-1.4-17.1-2.8-32.7-2.8-47v-1.4C37.2,265.5,7.3,325.3,7.3,389.3
	c0,112.4,92.5,204.9,204.9,204.9c31.3,0,62.6-7.1,91.1-21.3c17.1-8.5,34.2-19.9,48.4-32.7c39.9-35.6,62.6-84,65.5-136.6
	c0-5.7,0-8.5,0-14.2c0-15.7-1.4-29.9-5.7-44.1C403,305.4,383.1,269.8,353.2,241.3L353.2,241.3z M522.5,227.1
	c0,15.7-1.4,31.3-4.3,45.5c31.3,31.3,48.4,72.6,48.4,116.7c0,92.5-75.4,166.5-167.9,166.5c-14.2,0-28.5-1.4-42.7-5.7
	c-11.4,10-24.2,18.5-37,27c25.6,10,51.2,15.7,79.7,15.7c112.4,0,204.9-91.1,204.9-204.9C603.7,325.3,573.8,265.5,522.5,227.1
	L522.5,227.1z M398.7,184.4c-31.3,0-62.6,7.1-91.1,21.3c-17.1,8.5-34.2,19.9-48.4,32.7c-31.3,28.5-52.7,65.5-61.2,106.7
	c-2.8,14.2-4.3,28.5-4.3,44.1c0,4.3,0,8.5,0,14.2c2.8,51.2,25.6,99.6,64,135.2c12.8-4.3,25.6-10,37-17.1
	c-28.5-22.8-49.8-54.1-58.4-89.7c-2.8-14.2-5.7-28.5-5.7-42.7c0-5.7,0-10,0-15.7c5.7-48.4,31.3-92.5,71.2-121
	c15.7-11.4,32.7-19.9,51.2-24.2c15.7-4.3,29.9-7.1,45.5-7.1c21.3,0,42.7,4.3,61.2,11.4v-5.7c0-11.4-1.4-24.2-4.3-34.2
	C438.6,187.2,418.6,184.4,398.7,184.4L398.7,184.4z M306.2,396.5c-21.3,0-42.7-4.3-61.2-11.4v5.7c0,11.4,1.4,24.2,4.3,34.2
	c17.1,5.7,37,8.5,56.9,8.5c19.9,0,39.9-2.8,58.4-8.5c2.8-11.4,4.3-22.8,4.3-34.2v-7.1C347.5,392.2,327.6,396.5,306.2,396.5z
	 M306.2,23.6c-108.2,0-197.8,84-204.9,192.1c0,5.7,0,8.5,0,12.8c0,15.7,1.4,29.9,5.7,44.1c10,47,37,88.2,74,118.1v-1.4
	c0-14.2,1.4-29.9,4.3-44.1c-25.6-27-42.7-64-47-101.1c0-5.7,0-10,0-15.7c0-14.2,1.4-28.5,5.7-41.3C162.5,113.2,229.4,62,306.2,62
	S450,113.2,468.5,187.2c2.8,14.2,5.7,27,5.7,41.3c0,5.7,0,10,0,15.7c-2.8,38.4-19.9,74-47,101.1c2.8,14.2,4.3,29.9,4.3,44.1v1.4
	c38.4-29.9,65.5-71.2,75.4-118.1c2.8-15.7,5.7-29.9,5.7-44.1c0-4.3,0-8.5,0-14.2C504,107.5,413,23.6,306.2,23.6L306.2,23.6z
	 M212.3,184.4c-19.9,0-39.9,2.8-58.4,8.5c-2.8,11.4-4.3,22.8-4.3,34.2v7.1c19.9-8.5,41.3-11.4,61.2-11.4c14.2,0,28.5,1.4,42.7,5.7
	c11.4-10,24.2-18.5,37-27C266.4,190.1,239.3,184.4,212.3,184.4L212.3,184.4z"/>
</svg>
