<?xml version="1.0" encoding="utf-8"?>
<!-- Generator: Adobe Illustrator 21.0.0, SVG Export Plug-In . SVG Version: 6.00 Build 0)  -->
<svg version="1.1" id="Layer_1" xmlns="http://www.w3.org/2000/svg" xmlns:xlink="http://www.w3.org/1999/xlink" x="0px" y="0px"
	 viewBox="0 0 611.2 700" style="enable-background:new 0 0 611.2 700;" xml:space="preserve">
<g>
	<g>
		<g>
			<path d="M58.7,559.3c2.4,1.4,5.5-0.4,5.5-3.2c0-47.5,0-92.5,0-137.5c0-34.9,0.4-69.9,0.1-104.8c-0.1-9.9,4.6-14.7,12.6-19.3
				c66.9-38.3,133.7-77,200.4-115.6c2.8-1.6,5.4-3.3,8.8-5.5c2.3-1.5,2.2-4.9-0.2-6.3c-18.6-10.9-35.9-21.3-53.7-30.9
				c-3-1.6-9.1-0.1-12.6,1.9c-69.5,39.7-139,79.4-208,119.9c-5.5,3.2-11,12.1-11,18.4C-0.2,356.3,0,436.2,0.3,516.1
				c0,4.5,2.6,11,6.1,13.2C22.8,539.5,39.8,548.7,58.7,559.3z"/>
			<path d="M364.5,668.6c2.4-1.4,2.4-5,0-6.4c-35.5-20.6-69.7-40.4-103.9-60.2c-35.2-20.3-70.2-40.9-105.6-60.8
				c-8.7-4.9-12.3-10.6-12.3-20.9c0.5-75.2,0.3-150.3,0.3-225.5c0-4.8,0-9.6,0-16.1c0-2.8-3.1-4.6-5.5-3.2
				c-19.7,11.4-38,21.8-55.7,33c-2.7,1.7-3.3,8.3-3.3,12.7c-0.2,79.3,0.1,158.6-0.5,237.9c-0.1,13,8.8,17,17,21.8
				c48.1,28,96.4,55.5,144.6,83.3c18,10.4,36.3,20.4,53.9,31.4c8.5,5.3,15.4,6.2,24.2,0.6C332.7,686.7,348.2,678,364.5,668.6z"/>
			<path d="M611,458.7c0-2.8-3.1-4.6-5.5-3.2c-38.6,22.4-74.5,43.2-110.5,64.1c-33.7,19.6-67.5,39-101,58.9
				c-8.2,4.9-13.9,2.5-21.2-1.8c-67.4-39.5-135-78.6-202.5-117.8c-2.1-1.2-4.3-2.3-7.5-3.9c-2.4-1.2-5.3,0.5-5.3,3.3
				c0,22.8-0.3,44,0.5,65.1c0.1,3.1,6.1,6.6,10,8.8c67.5,39.1,135.2,78,202.6,117.3c9.9,5.8,17.4,6.2,27.8,0
				c67.2-39.5,135-78.1,202.3-117.4c4.6-2.7,9.7-8.8,10-13.6C611.5,499.6,611.1,480.6,611,458.7z"/>
		</g>
		<path d="M447.2,242.1c2.4,1.3,5.4-0.4,5.4-3.2c0.1-21.2,0.4-40.5-0.4-59.8c-0.2-3.8-5.4-8.5-9.4-10.8
			c-67.9-39.5-135.9-78.9-204.3-117.6c-5.5-3.1-15.5-3.8-20.7-0.9C149.3,88.4,81.1,127.6,13.3,167.5C7.5,170.9,2.6,180.2,2,187.1
			c-1.4,16.7-0.7,33.5-0.6,52.7c0,2.8,3,4.6,5.5,3.2c13.5-7.6,25-14.1,36.4-20.6c58-33.6,115.9-67.4,174.3-100.3
			c5.3-3,15.4-2.5,20.8,0.6c58.1,32.8,115.6,66.6,173.4,100C422.9,228.9,434,234.9,447.2,242.1z"/>
		<path d="M553.6,141c-2.4-1.4-5.5,0.4-5.5,3.2c0,4.4,0,7.9,0,11.4c0.1,75.7,0.3,151.4,0.5,227.1c0,9-0.4,16-10.6,21.7
			c-69.4,39.1-138.2,79.2-207.1,119.1c-1.5,0.9-3,1.9-5,3.1c-2.3,1.5-2.1,4.9,0.3,6.3c19.3,10.7,37.3,20.9,55.5,30.5
			c2.4,1.3,7.1,0,9.9-1.6C461.8,521.4,532,481,601.9,440c4.1-2.4,7.7-9.6,7.8-14.6c0.5-78.8,0.1-157.6,0.6-236.4
			c0.1-11.1-2.5-18.1-12.9-23.3C582.9,158.6,569.2,150,553.6,141z"/>
	</g>
	<g>
		<path d="M248.3,31.4c-2.4,1.4-2.4,5,0,6.4C283.8,58.4,318,78.2,352.2,98c35.2,20.3,70.2,40.9,105.6,60.8
			c8.7,4.9,12.3,10.6,12.3,20.9c-0.5,75.2-0.3,150.3-0.3,225.5c0,4.8,0,9.6,0,16.1c0,2.8,3.1,4.6,5.5,3.2c19.7-11.4,38-21.8,55.7-33
			c2.7-1.7,3.3-8.3,3.3-12.7c0.2-79.3-0.1-158.6,0.5-237.9c0.1-13-8.8-17-17-21.8c-48.1-28-96.4-55.5-144.6-83.3
			c-18-10.4-36.3-20.4-53.9-31.4c-8.5-5.3-15.4-6.2-24.2-0.6C280.2,13.3,264.7,22,248.3,31.4z"/>
		<path d="M1.8,241.3c0,2.8,3.1,4.6,5.5,3.2c38.6-22.4,74.5-43.2,110.5-64.1c33.7-19.6,67.5-39,101-58.9c8.2-4.9,13.9-2.5,21.2,1.8
			c67.4,39.5,135,78.6,202.5,117.8c2.1,1.2,4.3,2.3,7.5,3.9c2.4,1.2,5.3-0.5,5.3-3.3c0-22.8,0.3-44-0.5-65.1
			c-0.1-3.1-6.1-6.6-10-8.8c-67.5-39.1-135.2-78-202.6-117.3c-9.9-5.8-17.4-6.2-27.8,0C147.2,90,79.4,128.6,12.1,167.9
			c-4.6,2.7-9.7,8.8-10,13.6C1.3,200.4,1.7,219.4,1.8,241.3z"/>
	</g>
</g>
</svg>
