<?xml version="1.0" encoding="utf-8"?>
<!-- Generator: Adobe Illustrator 22.0.0, SVG Export Plug-In . SVG Version: 6.00 Build 0)  -->
<svg version="1.1" id="Слой_1" xmlns="http://www.w3.org/2000/svg" xmlns:xlink="http://www.w3.org/1999/xlink" x="0px" y="0px"
	 viewBox="0 0 813.1 1080" style="enable-background:new 0 0 813.1 1080;" xml:space="preserve">
<g>
	<path d="M518.4,849.3c1.7-7.3,3.6-14.6,6.2-21.8c0,0.1,0,0.1,0,0.2c-0.2,1.1-0.3,2.1-0.5,3.2c-0.4,2.7-0.8,5.5-1.2,8.5
		c-0.3,2-0.6,4.2-0.8,6.4c-0.3,2.5-0.6,5.2-0.9,7.9c-0.2,1.7-0.4,3.4-0.5,5.1c-0.4,3.9-0.8,8-1.1,12.3c-0.2,2-0.3,4-0.5,6.1
		c-0.1,0.6-0.1,1.2-0.1,1.9c-0.1,1.5-0.2,3-0.3,4.5c-0.2,2.4-0.3,4.9-0.4,7.4c-0.2,2.8-0.3,5.7-0.4,8.6c0,0.2,0,0.5,0,0.7
		c-0.1,2.3-0.2,4.6-0.2,6.9c-0.1,4.8-0.2,9.7-0.2,14.7c-5.5,5.1-11.1,10.2-16.6,15.3c-11.8,10.9-23.6,21.8-35.4,32.8l11.4-12.4
		c4-4.4,8-9,12.1-13.4c4.1-4.4,8.3-8.8,12.5-13l11.3-11.2c-0.2-7.5-0.3-15-0.3-22.5c0-8.1,0.6-16.2,1.7-24.3
		C515.1,865.2,516.6,857.2,518.4,849.3z"/>
	<path d="M680,435.5c-4.1-0.5-8-1-11.8-1.6v0l5.4,43.6l15.4-41h0v0C686,436.2,683,435.9,680,435.5z"/>
	<path d="M506.3,335.2c0,0,5.7,5,3.4,14.4c-2.2,8.7-7.3,12.7-7.3,12.7C518.3,360.6,522.5,340.7,506.3,335.2z"/>
	<path d="M506.3,335.2c0,0,5.7,5,3.4,14.4c-2.2,8.7-7.3,12.7-7.3,12.7C518.3,360.6,522.5,340.7,506.3,335.2z"/>
	<path d="M506.3,335.2c0,0,5.7,5,3.4,14.4c-2.2,8.7-7.3,12.7-7.3,12.7C518.3,360.6,522.5,340.7,506.3,335.2z"/>
	<path d="M506.3,335.2c0,0,5.7,5,3.4,14.4c-2.2,8.7-7.3,12.7-7.3,12.7C518.3,360.6,522.5,340.7,506.3,335.2z"/>
	<path d="M506.3,335.2c0,0,5.7,5,3.4,14.4c-2.2,8.7-7.3,12.7-7.3,12.7C518.3,360.6,522.5,340.7,506.3,335.2z"/>
	<path d="M506.3,335.2c0,0,5.7,5,3.4,14.4c-2.2,8.7-7.3,12.7-7.3,12.7C518.3,360.6,522.5,340.7,506.3,335.2z"/>
	<path d="M506.3,335.2c0,0,5.7,5,3.4,14.4c-2.2,8.7-7.3,12.7-7.3,12.7C518.3,360.6,522.5,340.7,506.3,335.2z"/>
	<path d="M610,378c-1.9-3.6-5.4-5.5-7.2-5.5c-0.2,0-0.3,0-0.4,0l-0.4,0.2c-1.7,1.7-2.4,5.5-0.3,10c1.8,3.8,4.6,5.8,6.4,5.8
		c0.3,0,0.6-0.1,0.9-0.2c0.5-0.3,1.2-1.1,1.7-2.6C611.4,383.9,611.5,380.8,610,378z"/>
	<path d="M610.7,392.3c0.4-0.4,0.8-0.9,1.1-1.4C611.5,391.4,611.1,391.9,610.7,392.3z"/>
	<path d="M610.7,392.3c0.4-0.4,0.8-0.9,1.1-1.4C611.5,391.4,611.1,391.9,610.7,392.3z"/>
	<path d="M506.3,335.2c0,0,5.7,5,3.4,14.4c-2.2,8.7-7.3,12.7-7.3,12.7C518.3,360.6,522.5,340.7,506.3,335.2z"/>
	<path d="M765.3,412.5c0,1.7,0,3.6-0.1,5.6l0,0C765.3,416.1,765.3,414.2,765.3,412.5z"/>
	<path d="M704.5,437.4L704.5,437.4c7.3,0.2,14.4-0.2,21-1.1c0,0,0,0,0,0C718.9,437.1,711.8,437.5,704.5,437.4z"/>
	<path d="M680,435.5c-4.1-0.5-8-1-11.8-1.6l5.4,43.6l15.4-41C686,436.2,683,435.9,680,435.5z"/>
	<path d="M639.1,427.1c0.1,0.6,0.2,1.1,0.2,1.5C639.2,428.2,639.2,427.7,639.1,427.1z"/>
	<path d="M639.5,429.7c0,0-0.1-0.4-0.2-1C639.4,429.3,639.5,429.7,639.5,429.7c5,0.8,10.3,1.6,16,2.4v0
		C649.8,431.2,644.5,430.4,639.5,429.7z"/>
	<path d="M610.7,392.3c0.4-0.4,0.8-0.9,1.1-1.4C611.5,391.4,611.1,391.9,610.7,392.3z"/>
	<path d="M506.3,335.2c0,0,5.7,5,3.4,14.4c-2.2,8.7-7.3,12.7-7.3,12.7C518.3,360.6,522.5,340.7,506.3,335.2z"/>
	<path d="M506.3,335.2c0,0,5.7,5,3.4,14.4c-2.2,8.7-7.3,12.7-7.3,12.7C518.3,360.6,522.5,340.7,506.3,335.2z"/>
	<path d="M610.7,392.3c0.4-0.4,0.8-0.9,1.1-1.4C611.5,391.4,611.1,391.9,610.7,392.3z"/>
	<path d="M610.7,392.3c0.4-0.4,0.8-0.9,1.1-1.4C611.5,391.4,611.1,391.9,610.7,392.3z"/>
	<path d="M506.3,335.2c0,0,5.7,5,3.4,14.4c-2.2,8.7-7.3,12.7-7.3,12.7C518.3,360.6,522.5,340.7,506.3,335.2z"/>
	<path d="M506.3,335.2c0,0,5.7,5,3.4,14.4c-2.2,8.7-7.3,12.7-7.3,12.7C518.3,360.6,522.5,340.7,506.3,335.2z"/>
	<path d="M506.3,335.2c0,0,5.7,5,3.4,14.4c-2.2,8.7-7.3,12.7-7.3,12.7C518.3,360.6,522.5,340.7,506.3,335.2z"/>
	<path d="M506.3,335.2c0,0,5.7,5,3.4,14.4c-2.2,8.7-7.3,12.7-7.3,12.7C518.3,360.6,522.5,340.7,506.3,335.2z"/>
	<path d="M506.3,335.2c0,0,5.7,5,3.4,14.4c-2.2,8.7-7.3,12.7-7.3,12.7C518.3,360.6,522.5,340.7,506.3,335.2z"/>
	<path d="M813,371.4v-0.2c0-0.1,0-0.2,0-0.4c0-0.1,0-0.3,0-0.5c0,0,0-0.1,0-0.1c0-0.2-0.1-0.4-0.1-0.6c0-0.1,0-0.3-0.1-0.4
		c0-0.1,0-0.2,0-0.2c0-0.1,0-0.1-0.1-0.2c0-0.2-0.1-0.4-0.2-0.6c0,0,0-0.1,0-0.1c-0.1-0.3-0.2-0.5-0.3-0.8c-0.1-0.2-0.2-0.4-0.3-0.6
		c0,0,0-0.1,0-0.1c0-0.1-0.1-0.2-0.2-0.4c0,0,0-0.1-0.1-0.1c-0.1-0.1-0.1-0.2-0.2-0.3c-0.1-0.2-0.3-0.4-0.4-0.6c0,0,0-0.1-0.1-0.1
		c0,0,0,0,0,0c0,0,0-0.1-0.1-0.1c-0.2-0.3-0.5-0.5-0.7-0.8c-0.2-0.2-0.4-0.4-0.6-0.5c-0.1,0-0.1-0.1-0.2-0.1c-0.1,0-0.1-0.1-0.2-0.1
		c-0.1-0.1-0.3-0.2-0.4-0.3c-0.1-0.1-0.2-0.1-0.3-0.2c0,0-0.1-0.1-0.1-0.1c0-0.1-0.1-0.1-0.1-0.1c0,0,0,0,0,0
		c-0.4-0.3-0.9-0.6-1.3-0.9c-1.2-0.8-2.3-1.5-3.5-2.1c-0.2-0.1-0.4-0.3-0.6-0.4c-0.4-0.2-0.8-0.5-1.2-0.6c-1.1-0.6-2.2-1.1-3.2-1.6
		c-0.3-0.2-0.6-0.3-1-0.4c-0.9-0.4-1.7-0.7-2.6-1.1c-0.7-0.2-1.3-0.5-2-0.7c-0.6-0.2-1.2-0.4-1.8-0.6c-1.3-0.4-2.6-0.8-3.8-1.1
		c-0.3-0.1-0.5-0.1-0.8-0.2h-0.1c-0.1,0-0.3-0.1-0.4-0.1c-0.5-0.1-1-0.2-1.5-0.3c-0.4-0.1-0.8-0.2-1.2-0.2c-0.7-0.1-1.3-0.3-2-0.4
		c-0.1,0-0.1,0-0.2,0c-0.4-0.1-0.7-0.1-1.1-0.2c-0.3,0-0.5-0.1-0.8-0.1c-0.6-0.1-1.3-0.2-1.9-0.2c-0.3,0-0.6-0.1-0.9-0.1
		c-0.3,0-0.5,0-0.6,0c-0.1,0-0.2,0-0.3,0c0-0.2-0.1-0.4-0.2-0.5v0c-0.1-0.5-0.3-1-0.5-1.5c-0.2-0.5-0.3-0.9-0.5-1.4
		c-0.1-0.3-0.2-0.6-0.3-0.8c-0.4-1.2-0.8-2.4-1.3-3.7c0,0,0,0,0,0c0-0.1,0-0.1,0-0.1c-0.5-1.2-0.9-2.3-1.4-3.5
		c-0.5-1.2-1-2.3-1.6-3.5c-0.3-0.5-0.5-1.1-0.8-1.7c-0.3-0.6-0.6-1.1-0.9-1.7c-0.6-1.1-1.2-2.3-1.8-3.4c-0.6-1.1-1.3-2.2-1.9-3.3
		c-0.6-1-1.2-1.9-1.8-2.9c0,0-0.1-0.1-0.1-0.2c-0.3-0.5-0.6-0.9-0.9-1.4c-0.4-0.6-0.8-1.2-1.3-1.9c0,0,0,0,0,0l0,0
		c0-0.1,0.1-0.2,0.2-0.3c0.1-0.2,0.2-0.4,0.3-0.6c0-0.1,0.1-0.1,0.1-0.1c0.1-0.2,0.2-0.3,0.2-0.5c0.1-0.2,0.2-0.4,0.3-0.6l0,0
		c0-0.1,0.1-0.2,0.2-0.3c0-0.1,0.1-0.2,0.1-0.3c0.2-0.4,0.3-0.7,0.5-1.1c0.1-0.1,0.1-0.3,0.2-0.4c0.3-0.6,0.5-1.2,0.8-1.8
		c0-0.1,0-0.1,0.1-0.2c0.1-0.2,0.2-0.4,0.3-0.6c0-0.1,0.1-0.2,0.1-0.3c0.3-0.7,0.5-1.4,0.8-2.2c0-0.1,0.1-0.2,0.1-0.3
		c0.1-0.3,0.2-0.6,0.3-0.9c0.1-0.4,0.3-0.8,0.4-1.2c0.3-0.8,0.5-1.6,0.8-2.6c0-0.1,0-0.1,0-0.2c0.3-0.9,0.5-1.8,0.8-2.7
		c0.1-0.5,0.3-1,0.4-1.5c0.1-0.5,0.2-1,0.3-1.5c0.1-0.5,0.2-1,0.3-1.6c0.1-0.5,0.2-0.9,0.3-1.3c0.1-0.7,0.3-1.5,0.4-2.3
		c0-0.1,0-0.1,0-0.2c0-0.1,0-0.1,0-0.2l0.1-0.4c0-0.2,0.1-0.4,0.1-0.5v-0.1c0.1-0.3,0.1-0.7,0.1-1c0-0.3,0.1-0.5,0.1-0.7
		c0-0.4,0.1-0.8,0.1-1.2c0-0.1,0-0.3,0-0.4V290c0-0.5,0.1-1.1,0.1-1.6v-0.1c0.1-1.1,0.1-2.3,0.1-3.4c0-0.7,0-1.4,0-2
		c0-0.2,0-0.4,0-0.7c0-0.3,0-0.6,0-0.9c0-0.5-0.1-0.9-0.1-1.4c0-0.1,0-0.3,0-0.5c0-0.3,0-0.5-0.1-0.8c0-0.1,0-0.2,0-0.3
		c0-0.5-0.1-1.1-0.2-1.6c0-0.1,0-0.2,0-0.2c-0.1-1-0.2-2-0.4-3c-0.1-0.5-0.2-1.1-0.3-1.7c-0.1-0.5-0.2-1.1-0.3-1.6
		c-0.2-1.1-0.4-2.2-0.6-3.3c-0.1-0.5-0.2-1.1-0.4-1.6c0-0.1,0-0.2,0-0.3c-0.2-1-0.5-2-0.7-3c-0.1-0.5-0.3-1.1-0.4-1.6
		c-0.1-0.5-0.3-1-0.4-1.5c-0.3-1-0.6-2-1-3c-0.2-0.5-0.4-1-0.5-1.5c-0.2-0.4-0.3-0.9-0.5-1.3c-0.2-0.5-0.4-0.9-0.6-1.4
		c-0.2-0.5-0.4-0.9-0.6-1.4c-0.2-0.5-0.4-0.9-0.7-1.3c-0.2-0.3-0.3-0.5-0.4-0.8c-0.6-1.1-1.3-2-2-2.8c-0.2-0.2-0.4-0.4-0.5-0.5
		c0,0,0,0,0,0c-0.1-0.2-0.3-0.3-0.5-0.4c-0.1-0.1-0.1-0.1-0.2-0.1l0,0c-0.1-0.1-0.3-0.2-0.4-0.3c0,0-0.1-0.1-0.1-0.1
		c-0.2-0.1-0.3-0.2-0.5-0.2c-0.1-0.1-0.3-0.1-0.4-0.2c-0.2-0.1-0.4-0.1-0.5-0.2c-0.1,0-0.2-0.1-0.2-0.1c-0.2,0-0.4-0.1-0.6-0.1h0
		c0,0,0,0,0,0h-0.3c0,0,0-0.1-0.1-0.4c-0.1-0.3-0.2-0.9-0.4-1.8c-0.2-0.6-0.3-1.3-0.5-1.9c-0.1-0.4-0.2-0.8-0.3-1.2
		c-0.1-0.4-0.3-0.9-0.4-1.3c-0.1-0.4-0.3-0.8-0.4-1.2c-0.1-0.3-0.2-0.7-0.3-1c-0.1-0.3-0.2-0.5-0.3-0.8c-0.3-1.1-0.7-2.2-1.2-3.4
		c0,0,0,0,0,0c-0.4-1.1-0.8-2.2-1.2-3.3c-0.8-2-1.7-4-2.6-6c-0.2-0.4-0.3-0.7-0.5-1.1c-0.5-1.2-1.1-2.4-1.7-3.6c-1-2-2.1-4-3.2-6
		c-0.1-0.1-0.1-0.2-0.2-0.3c-0.5-0.9-1-1.7-1.5-2.6c0-0.1-0.1-0.1-0.1-0.2c-0.2-0.4-0.5-0.7-0.7-1.1c-0.8-1.4-1.7-2.7-2.6-4.1
		c-0.6-0.9-1.2-1.8-1.9-2.8c-0.6-0.8-1.2-1.7-1.7-2.5c-1.3-1.7-2.5-3.4-3.8-5.1c-0.6-0.8-1.3-1.6-1.9-2.4c-0.7-0.8-1.3-1.6-2-2.4
		c-1.3-1.6-2.7-3.1-4.1-4.7c-0.9-1-1.8-1.9-2.7-2.9c-0.9-0.9-1.8-1.9-2.7-2.8c-1.8-1.8-3.8-3.6-5.7-5.4c-1.5-1.3-2.9-2.6-4.4-3.9
		c-0.1-0.1-0.2-0.2-0.3-0.3c-1.4-1.2-2.8-2.3-4.2-3.5c-0.5-0.4-1-0.7-1.5-1.1c-0.5-0.4-1.1-0.8-1.6-1.2c-0.6-0.5-1.3-1-1.9-1.4
		c-0.5-0.4-1-0.7-1.5-1.1c-0.6-0.5-1.3-0.9-2-1.4c-1.4-1-2.7-1.9-4.1-2.8c-0.7-0.5-1.4-0.9-2.1-1.4c-0.7-0.5-1.4-0.9-2.1-1.4
		c-0.2-0.1-0.4-0.2-0.6-0.4c-0.1,0-0.2-0.1-0.2-0.1c0,0,0,0,0,0s0,0,0,0c-0.4-0.3-0.9-0.5-1.3-0.8c-0.5-0.3-0.9-0.6-1.4-0.8
		c-1.3-0.8-2.6-1.5-3.9-2.3c-0.2-0.1-0.5-0.3-0.7-0.4c-1.1-0.6-2.2-1.2-3.3-1.8c-0.5-0.3-1.1-0.6-1.7-0.9c-0.2-0.1-0.4-0.2-0.5-0.3
		c-0.6-0.3-1.2-0.6-1.8-1c0,0,0,0,0,0c-0.3-0.2-0.5-0.3-0.8-0.4c-0.6-0.3-1.3-0.6-1.9-0.9c-9.8-4.9-20.6-9.3-32.7-13.2
		c-1.7-0.5-3.4-1.1-5-1.6c-1.5-0.5-2.9-0.9-4.4-1.3c-1.5-0.5-3-0.9-4.5-1.3c-3.2-0.9-6.5-1.7-9.9-2.5c-3-0.7-6.1-1.4-9.3-2
		c-3.3-0.7-6.7-1.3-10.2-1.9c-1.7-0.3-3.5-0.6-5.2-0.8c-4.2-0.6-8.6-1.3-13.1-1.8c-0.4,0-0.9-0.1-1.3-0.2c-0.7-0.1-1.4-0.2-2.1-0.3
		c-1.9-0.2-3.8-0.4-5.7-0.6c-0.2,0-0.4,0-0.5,0c-0.7-0.1-1.4-0.1-2.1-0.2c-0.7-0.1-1.4-0.1-2.1-0.2c-0.2,0-0.3,0-0.5,0
		c-0.1,0-0.2,0-0.3,0c-0.5,0-0.9-0.1-1.4-0.1c-0.4,0-0.7-0.1-1.1-0.1c-0.4,0-0.7-0.1-1.1-0.1c-0.5,0-1-0.1-1.6-0.1
		c-0.8-0.1-1.6-0.1-2.5-0.2c-1.1-0.1-2.3-0.1-3.4-0.2c-0.4,0-0.8,0-1.2-0.1c-0.4,0-0.8-0.1-1.2-0.1c-0.5,0-1.1,0-1.6-0.1
		c-4.5-0.2-6.3-0.3-8.1-0.3v0c0-0.5,0.1-1,0.2-1.4c0.1-0.9,0.2-1.7,0.4-2.6c1.9-10.7,7.4-18.7,13.7-24.4c0.4-0.4,0.8-0.7,1.2-1.1
		c8.7-7.6,18.5-11.3,22.2-12.4c0.1,0,0.2-0.1,0.4-0.1c0.4-0.1,0.7-0.2,1.1-0.3c0.1,0,0.1,0,0.1,0s-0.1-0.2-0.4-0.6
		c-0.1-0.2-0.2-0.3-0.3-0.5c-0.1-0.2-0.2-0.3-0.3-0.5c-0.3-0.5-0.7-1-1.1-1.5c-2.9-4-8.9-11.5-18.3-20.1c-1-0.9-2-1.8-3-2.7
		c-0.7-0.7-1.5-1.3-2.2-1.9c-0.1-0.1-0.3-0.2-0.4-0.3c-1-0.9-2.1-1.7-3.2-2.6c-0.2-0.2-0.5-0.4-0.7-0.5c-1.1-0.9-2.2-1.7-3.3-2.6
		c-1.7-1.3-3.4-2.5-5.2-3.7c-0.9-0.7-1.9-1.4-2.9-2c-1.7-1.1-3.4-2.2-5.1-3.3c-1-0.6-2.1-1.2-3.1-1.8c-0.1,0-0.2-0.1-0.3-0.1
		c-0.6-0.4-1.2-0.7-1.8-1c-1.1-0.6-2.1-1.2-3.2-1.8c-0.6-0.3-1.2-0.6-1.8-0.9c-1-0.5-2.1-1.1-3.1-1.6c-0.2-0.1-0.5-0.2-0.7-0.3
		c-0.9-0.5-1.9-0.9-2.9-1.4c-1-0.5-2-0.9-2.9-1.4c-0.2-0.1-0.4-0.2-0.6-0.3c-2-0.9-4-1.8-6.1-2.6C485.8,7.7,468.9,3.2,449.6,1
		c-0.6-0.1-1.3-0.1-1.9-0.2c-2.2-0.2-4.4-0.4-6.6-0.6c-11.6-0.8-23.7,0.1-35.8,2.1c-1.4,0.2-2.7,0.5-4.1,0.7
		c-1.8,0.3-3.7,0.7-5.6,1.1c-1.5,0.3-3,0.7-4.5,1.1c-16.4,4-31.8,10-44.3,16.8c-0.7,0.4-1.5,0.8-2.2,1.3c-1,0.5-2,1.1-2.9,1.7
		c-0.1,0.1-0.2,0.1-0.3,0.2c0,0-0.1,0-0.1,0c-0.5,0.3-0.9,0.6-1.4,0.9c-0.4,0.3-0.9,0.5-1.3,0.8c-7.5,4.8-13.3,9.9-16.9,14.8
		c-0.2,0.3-0.5,0.7-0.7,1c-0.2,0.3-0.4,0.6-0.6,1c-0.2,0.2-0.3,0.4-0.4,0.7c-0.1,0.2-0.2,0.3-0.3,0.5c-0.1,0.3-0.3,0.5-0.4,0.7
		c-3.7,7.9-6.1,16.2-8.6,23.5c-0.4,1.2-0.8,2.4-1.2,3.6c-0.9,2.5-2,5.1-3.2,7.5c-0.5,1-1.1,1.9-1.6,2.8c0,0,0,0,0,0
		c-0.2,0.4-0.5,0.7-0.7,1.1c-0.4,0.5-0.7,1-1.1,1.5c-0.3,0.4-0.7,0.8-1,1.1c-1,1.1-2.2,2-3.4,2.7c-0.4,0.2-0.8,0.5-1.1,0.7
		c-0.1,0.1-0.2,0.1-0.4,0.2c-0.1,0.1-0.3,0.1-0.4,0.2c-0.1,0-0.2,0.1-0.3,0.1c-0.3,0.1-0.6,0.2-0.9,0.4c-0.2,0-0.4,0.1-0.6,0.2
		c-0.3,0.1-0.5,0.2-0.8,0.2c-0.2,0.1-0.4,0.1-0.6,0.2c0,0-0.1,0-0.2,0h-0.1c-0.3,0.1-0.5,0.1-0.8,0.2c-0.3,0.1-0.6,0.1-0.9,0.1
		c-0.4,0.1-0.9,0.1-1.4,0.1c-0.5,0-0.9,0-1.4,0c-2,0-4.2,0-6.6,0.1c-0.6,0-1.3,0-1.9,0.1c-1.5,0-2.9,0.1-4.4,0.2
		c-1.1,0-2.1,0.1-3.2,0.2c-1.1,0.1-2.1,0.1-3.2,0.2c-0.8,0.1-1.7,0.1-2.5,0.2h-0.2c-0.9,0.1-1.8,0.1-2.7,0.2
		c-0.8,0.1-1.6,0.1-2.4,0.2c-11.9,1.2-25,3.3-37,7.2c-1.7,0.5-3.4,1.1-5,1.8c-0.6,0.2-1.2,0.5-1.8,0.7c-0.6,0.2-1.2,0.5-1.8,0.7
		c0,0,0,0-0.1,0c-0.4,0.2-0.8,0.4-1.2,0.5c-0.4,0.2-0.8,0.4-1.2,0.5c-1,0.5-2,0.9-3,1.4c-0.7,0.3-1.4,0.7-2.1,1.1
		c-0.2,0.1-0.4,0.2-0.5,0.3c-0.2,0.1-0.4,0.2-0.6,0.3c0,0,0,0-0.1,0.1c-0.6,0.3-1.3,0.7-1.8,1.1c-1.7,1-3.2,2.1-4.8,3.2
		c-0.7,0.5-1.6,1.3-2.7,2.1c-0.5,0.4-1.1,0.8-1.6,1.3c-0.3,0.3-0.6,0.5-0.9,0.8c-0.5,0.4-1,0.8-1.5,1.2c-0.2,0.1-0.3,0.3-0.5,0.4
		c-0.4,0.3-0.7,0.6-1,0.9l0,0c-0.8,0.6-1.5,1.3-2.3,2c-0.4,0.4-0.8,0.7-1.2,1.1c-0.4,0.4-0.8,0.7-1.2,1.1l0,0
		c-0.1,0-0.2,0.1-0.3,0.2c-0.1,0.1-0.3,0.3-0.5,0.4c-0.2,0.2-0.4,0.3-0.5,0.5c-0.9,0.8-1.8,1.6-2.7,2.5c-0.1,0.1-0.1,0.1-0.2,0.2
		c-1.3,1.2-2.5,2.4-3.8,3.7c-0.1,0.1-0.2,0.2-0.3,0.3v0c-0.5,0.5-1,1-1.5,1.5l-1.5,1.5c-0.1,0.1-0.2,0.2-0.4,0.4
		c-0.2,0.2-0.3,0.3-0.5,0.5l-0.4,0.4c-0.1,0.1-0.2,0.2-0.4,0.3c0,0,0,0,0,0c-0.5,0.5-1.1,1.1-1.6,1.6c-0.3,0.3-0.6,0.6-0.8,0.9
		c-0.3,0.3-0.5,0.5-0.8,0.8c0,0,0,0,0,0c-0.6,0.6-1.1,1.2-1.7,1.7c-0.6,0.6-1.1,1.2-1.7,1.8c0,0,0,0,0,0c-1.2,1.3-2.4,2.6-3.6,3.8
		c-0.5,0.6-1,1.1-1.6,1.7c-1.3,1.4-2.6,2.8-3.8,4.3c-0.6,0.7-1.3,1.4-1.9,2.1c-0.4,0.4-0.7,0.8-1.1,1.2c-1.1,1.2-2.1,2.4-3.2,3.6
		c-0.5,0.6-1,1.2-1.6,1.8c-0.7,0.8-1.3,1.6-2,2.4c-0.4,0.4-0.7,0.8-1.1,1.3c-1.3,1.5-2.6,3.1-3.8,4.6c-0.1,0.1-0.2,0.2-0.2,0.3
		c-0.3,0.4-0.6,0.8-1,1.2v0c-0.7,0.8-1.4,1.7-2,2.5c-0.2,0.2-0.4,0.4-0.5,0.7c0,0-0.1,0.1-0.1,0.1c-1.2,1.5-2.3,2.9-3.5,4.4
		c-0.1,0.2-0.3,0.4-0.5,0.6c-2,2.6-4,5.2-6,7.9c-0.7,0.9-1.3,1.8-2,2.7c-0.7,1-1.5,1.9-2.2,2.9v0c-0.7,1-1.5,1.9-2.2,3
		c-0.8,1.1-1.6,2.1-2.4,3.2c-1,1.4-1.9,2.7-2.9,4.1c-0.4,0.6-0.9,1.2-1.3,1.8c0,0,0,0,0,0c-0.4,0.6-0.8,1.2-1.3,1.8
		c-0.8,1.3-1.7,2.5-2.6,3.8c-1.7,2.5-3.4,5.1-5.1,7.6c-0.7,1-1.4,2.1-2.1,3.2c-0.7,1.1-1.5,2.3-2.2,3.4c-0.6,0.9-1.2,1.8-1.7,2.7
		c-68.8,108.3-138.3,292-83,550.9c12.6,11.6,25.1,23.2,37.7,34.8c3.4,3.2,6.8,6.3,10.3,9.5c6.8,6.3,13.7,12.6,20.5,18.9
		c0.1,0.1,0.2,0.2,0.3,0.3c-0.2-34.5,4.5-65.3,11.1-91.2c13.7-54.3,35.2-87.3,35.2-87.3s-6.1,25.5-5.4,66.2
		c1,52,13.2,128.8,63.9,209.2c8.2,7.5,16.3,15.1,24.4,22.6c15.7,14.6,31.5,29.1,47.2,43.6c3.6,3.3,7.2,6.6,10.7,9.9
		c2.8,2.6,5.6,5.2,8.5,7.8c15.5,14.4,31.1,28.7,46.7,43.1c4.8,4.5,9.7,8.9,14.5,13.4c0.7,0.7,0.5,0.7,1.2,0.1c1.4-1.1,2.7-2.5,4-3.7
		c13.7-12.6,27.4-25.3,41.1-38c14.8-13.7,29.6-27.4,44.4-41.1c2.7-2.5,5.4-5,8.1-7.5c-17.6-7.9-37-17.9-57.1-30.5
		c-3.9-2.5-7.9-5.1-11.9-7.8c-0.9-0.6-1.8-1.2-2.7-1.8c-4-2.7-8.1-5.6-12.1-8.6c-1.3-1-2.6-1.9-3.9-2.9
		c-7.1-5.4-14.3-11.1-21.5-17.1c-0.9-0.8-1.8-1.5-2.7-2.3c-1.1-0.9-2.2-1.9-3.3-2.9c-1.2-1.1-2.4-2.1-3.6-3.2
		c-1.3-1.1-2.6-2.3-3.8-3.5c-0.9-0.8-1.7-1.6-2.6-2.4c-0.9-0.9-1.8-1.7-2.8-2.6c-0.9-0.8-1.8-1.7-2.7-2.5c-1.7-1.7-3.5-3.4-5.2-5
		c-8.9-8.8-17.7-18.3-26.2-28.4c-0.9-1-1.7-2-2.6-3c-0.9-1-1.7-2-2.6-3.1l-1.8-2.2c-2-2.5-4.1-5.1-6-7.7c-0.7-0.9-1.5-1.9-2.1-2.8
		c-1.2-1.6-2.4-3.1-3.6-4.8c-1.2-1.6-2.3-3.1-3.5-4.7c-1.1-1.5-2.2-3.1-3.3-4.7c-0.6-0.9-1.3-1.8-1.9-2.7c-0.8-1.1-1.6-2.3-2.4-3.5
		c-0.5-0.8-1.1-1.6-1.6-2.4c-1-1.6-2.1-3.1-3.1-4.7c-0.9-1.3-1.7-2.7-2.6-4c-0.8-1.3-1.7-2.7-2.5-4c-0.8-1.3-1.6-2.7-2.5-4
		c-0.8-1.3-1.6-2.7-2.4-4c-0.8-1.3-1.6-2.7-2.4-4c-0.7-1.2-1.4-2.4-2.1-3.6c-5.4-9.4-10.3-18.9-14.8-28.4c-0.6-1.2-1.1-2.4-1.7-3.6
		c-2.7-5.8-5.2-11.6-7.6-17.4c-0.4-1-0.8-2-1.2-3c-5.2-12.9-9.8-25.7-13.6-38.4c-0.4-1.4-0.8-2.7-1.3-4.1c-0.1-0.3-0.1-0.5-0.2-0.8
		c-0.8-2.6-1.5-5.2-2.2-7.8c-33.8-122.8-9.2-227.1-9-228.1c-1,0.9-67.4,54.6-98.6,177C94.6,572.6,112.1,507,134.8,448
		c-3.4-0.8-42.9-11.3-44.7-55.3c0,0,19.2,33.3,58,22.7c38.1-87.5,88-158.9,146.3-210.3c-0.1,0.2-0.5,0.6-1.1,1.3
		c-0.4,0.5-0.9,1.1-1.5,1.9c-0.3,0.3-0.5,0.7-0.8,1.1c-0.2,0.2-0.4,0.5-0.6,0.8c-0.3,0.4-0.5,0.7-0.9,1.1c-0.3,0.5-0.7,0.9-1.1,1.4
		c-1.6,2.1-3.4,4.5-5.4,7.4c-0.6,0.9-1.3,1.8-1.9,2.7c-0.6,0.9-1.3,1.8-1.9,2.8c-0.3,0.4-0.5,0.8-0.8,1.3c-0.2,0.2-0.3,0.4-0.5,0.7
		c-0.4,0.5-0.8,1.1-1.1,1.7c-0.4,0.6-0.8,1.2-1.2,1.8c-0.5,0.8-1.1,1.7-1.7,2.6c-0.4,0.6-0.7,1.1-1.1,1.7c-0.4,0.7-0.9,1.4-1.3,2.1
		c-0.4,0.7-0.9,1.4-1.4,2.2c-0.3,0.5-0.6,1.1-1,1.6c-1.6,2.7-3.3,5.5-5,8.4c-0.7,1.2-1.4,2.4-2.1,3.6c-2.1,3.7-4.2,7.5-6.4,11.6
		c-0.7,1.4-1.4,2.7-2.2,4.1c-0.1,0.2-0.2,0.4-0.3,0.6c-0.6,1.2-1.2,2.4-1.9,3.7c-0.2,0.3-0.3,0.6-0.4,0.8c-0.5,1-1,2-1.5,3
		c-0.6,1.3-1.3,2.6-1.9,3.9c-2.5,5.2-5,10.7-7.5,16.4c-0.6,1.3-1.2,2.7-1.7,4c-0.5,1.1-0.9,2.2-1.4,3.4c0,0.1,0,0.2-0.1,0.2
		c-1.1,2.7-2.2,5.4-3.3,8.2c-0.5,1.2-0.9,2.3-1.4,3.5c-0.3,0.7-0.5,1.4-0.8,2.1c-0.6,1.7-1.3,3.4-1.9,5.1c-0.5,1.2-0.9,2.4-1.3,3.7
		c-0.5,1.2-0.9,2.5-1.3,3.7c-0.1,0.4-0.2,0.7-0.4,1c-0.3,0.9-0.6,1.8-0.9,2.7c0,0.2-0.1,0.3-0.2,0.5c-0.5,1.5-1,2.9-1.5,4.4
		c-0.5,1.4-0.9,2.8-1.3,4.2c-0.3,0.8-0.5,1.6-0.8,2.5c-0.6,1.9-1.2,3.8-1.7,5.7c-0.2,0.7-0.5,1.5-0.6,2.2v0
		c-16.4,56.6-25.6,127.4-13,209c6.7,43.4,18,79.9,32,110.5c1,2.1,1.9,4.2,2.9,6.2c0.9,1.9,1.9,3.9,2.8,5.8c1,2.1,2.1,4.1,3.2,6.1
		c0.5,0.9,1,1.8,1.5,2.7c0.5,1,1.1,2,1.6,3c0.5,1,1,1.9,1.6,2.8c0.5,0.9,1,1.8,1.6,2.7c0.5,0.9,1,1.8,1.6,2.7
		c1.1,1.8,2.1,3.6,3.2,5.3c0.5,0.9,1.1,1.8,1.6,2.6c1.1,1.7,2.2,3.4,3.3,5.1c0.5,0.8,1.1,1.7,1.7,2.5c0.5,0.8,1.1,1.6,1.7,2.5
		c0.5,0.8,1.1,1.6,1.7,2.4c0.9,1.2,1.7,2.4,2.6,3.6c0.9,1.2,1.7,2.3,2.6,3.5c0.5,0.7,0.9,1.3,1.4,1.9c0.8,1,1.5,2,2.3,2.9
		c0.5,0.6,1,1.3,1.5,1.9c1.2,1.5,2.3,2.9,3.5,4.3c0.6,0.7,1.2,1.4,1.8,2.1c0.6,0.7,1.2,1.4,1.7,2.1c0.6,0.7,1.2,1.4,1.8,2.1
		c0.7,0.8,1.5,1.7,2.2,2.5c2.2,2.5,4.4,4.9,6.7,7.2c1.1,1.2,2.3,2.4,3.5,3.6c1.2,1.2,2.5,2.5,3.7,3.7c0.6,0.6,1.2,1.2,1.8,1.7
		c0.6,0.6,1.2,1.1,1.8,1.7c1.2,1.1,2.4,2.2,3.6,3.3c1.2,1.1,2.4,2.1,3.6,3.2c1.3,1.1,2.6,2.3,3.9,3.4c1.1,0.9,2.1,1.8,3.2,2.6
		c0.6,0.5,1.2,1,1.8,1.4c0.6,0.5,1.2,0.9,1.8,1.4c0.6,0.5,1.2,0.9,1.8,1.4c1.2,0.9,2.3,1.8,3.5,2.7c0.6,0.5,1.2,0.9,1.8,1.3
		c0.6,0.4,1.2,0.8,1.7,1.2c0.6,0.4,1.2,0.8,1.7,1.2c2.9,2.1,5.8,4,8.5,5.8c1.1,0.7,2.3,1.5,3.4,2.1c0.6,0.4,1.1,0.7,1.7,1
		c2.3,1.4,4.5,2.7,6.7,4c0.7,0.4,1.5,0.8,2.2,1.3c0.8,0.4,1.6,0.9,2.3,1.3c2.1,1.1,4.1,2.2,6.1,3.2c4.8,2.5,9.3,4.6,13.6,6.4
		l1.8,0.8c0.5,0.2,0.9,0.4,1.3,0.5c0.8,0.3,1.5,0.6,2.3,0.9c0.1,0,0.2,0,0.2,0.1c0.7,0.3,1.4,0.5,2,0.8c0.1,0.1,0.2,0.1,0.4,0.2
		c0.6,0.2,1.2,0.5,1.8,0.7c9,3.4,15.7,5.3,18.9,6.1c0.2,0.1,0.3,0.1,0.5,0.1c0.2,0.1,0.4,0.1,0.5,0.1c0.1,0,0.3,0.1,0.3,0.1
		c0.5,0.1,0.8,0.2,0.8,0.2c-1.7-1.3-3.3-2.6-4.9-3.8c-1.4-1.1-2.8-2.2-4.1-3.3c-0.8-0.6-1.6-1.3-2.4-2c-2.4-2-4.8-4-7.1-6
		c-0.9-0.7-1.7-1.5-2.6-2.3c-2.1-1.8-4.1-3.7-6.1-5.6c-0.9-0.8-1.8-1.7-2.7-2.6c-1-1-2.1-2-3.1-3c-1.5-1.5-3-2.9-4.4-4.4
		c-1.7-1.7-3.3-3.4-4.9-5.1c-0.9-0.9-1.7-1.8-2.6-2.8c-0.6-0.7-1.3-1.4-1.9-2c-1.1-1.2-2.1-2.4-3.2-3.6c-1.6-1.8-3.2-3.7-4.8-5.6
		c-0.8-0.9-1.5-1.9-2.3-2.8c-1.5-1.9-3-3.8-4.5-5.6c-0.7-0.9-1.4-1.9-2.2-2.8c-0.7-0.9-1.4-1.9-2.1-2.8c-1-1.4-2.1-2.8-3.1-4.2
		c-1-1.4-2-2.8-2.9-4.2c-0.6-0.9-1.3-1.9-1.9-2.8c-1.9-2.8-3.7-5.6-5.4-8.4c-0.6-0.9-1.2-1.9-1.7-2.8c-1.1-1.9-2.2-3.8-3.3-5.6
		c-0.5-0.9-1.1-1.9-1.6-2.8c-0.5-0.9-1-1.9-1.5-2.8c-0.5-0.9-1-1.9-1.5-2.8c-0.4-0.7-0.7-1.4-1.1-2.1c-0.2-0.4-0.4-0.8-0.6-1.1
		c-0.4-0.8-0.8-1.6-1.2-2.4c-0.9-1.9-1.8-3.7-2.7-5.6c-0.9-1.8-1.7-3.7-2.5-5.5c-0.4-0.9-0.8-1.8-1.2-2.7c0-0.1-0.1-0.2-0.2-0.4
		c-0.7-1.7-1.4-3.4-2.1-5.1c-0.4-0.9-0.7-1.8-1.1-2.7c-1.1-2.7-2.1-5.4-3-8.1c-0.3-0.9-0.6-1.8-0.9-2.7c-0.3-0.9-0.6-1.8-0.9-2.7
		c-0.3-0.9-0.6-1.8-0.9-2.7c-0.3-0.9-0.6-1.8-0.8-2.7c-0.5-1.6-1-3.3-1.5-4.9c-0.1-0.2-0.1-0.4-0.2-0.6c-0.2-0.8-0.4-1.6-0.6-2.4
		c-1-3.5-1.8-6.9-2.6-10.3c-0.4-1.7-0.7-3.4-1.1-5c-0.2-0.8-0.4-1.7-0.5-2.5c-12.1-59.8-0.2-104.4-0.2-104.4
		c12.6,43.1,31.2,72.4,50.8,93.8c0.4,0.4,0.8,0.9,1.2,1.3c0.4,0.4,0.8,0.9,1.2,1.3c0.6,0.6,1.2,1.3,1.8,1.9c0.9,0.9,1.8,1.9,2.8,2.8
		c0.8,0.8,1.5,1.5,2.3,2.2c0.8,0.7,1.5,1.5,2.3,2.2c1.5,1.4,3,2.8,4.6,4.1c0.8,0.7,1.5,1.4,2.3,2c0.7,0.6,1.4,1.2,2.1,1.8
		c3.1,2.6,6.2,5.1,9.2,7.4c0.9,0.7,1.7,1.4,2.6,2c0.6,0.5,1.2,0.9,1.7,1.3c2.9,2.2,5.8,4.2,8.6,6.2c1.4,1,2.8,2,4.2,2.9
		c0.2,0.2,0.5,0.3,0.7,0.5c2.5,1.7,4.9,3.3,7.1,4.9c0.1,0.1,0.1,0.1,0.1,0.1c1.3,0.9,2.6,1.7,3.8,2.6c0.2,0.1,0.4,0.3,0.6,0.4
		c1.4,1,2.7,1.9,4,2.8c0.1,0.1,0.2,0.1,0.3,0.2c1.4,1,2.7,2,4,2.9c0.7,0.5,1.3,1,1.9,1.5c2.5,1.9,4.9,3.8,7,5.7
		c0.7,0.7,1.5,1.4,2.3,2.1c0.5,0.5,1,0.9,1.5,1.4c2.5,2.3,4.9,4.8,7.4,7.2c0.7,0.7,1.5,1.5,2.2,2.3c2.2,2.3,4.4,4.6,6.6,7
		c1.5,1.6,3,3.2,4.5,4.8c1.5,1.6,3,3.2,4.5,4.9c1.5,1.6,3.1,3.3,4.6,5c9.4,10.1,19.5,20.6,31.4,31.1c1,0.9,2,1.7,3,2.6
		c4.1,3.5,8.3,7,12.9,10.6c7,5.4,15.3,11.1,24.4,16.7c16.1,9.9,35,19.7,54.2,27.7h0c0,0,0,0,0,0c1.5,0.6,3,1.2,4.5,1.8
		c0.1,0.1,0.3,0.1,0.4,0.2c1.2,0.5,2.4,0.9,3.5,1.4c1.2,0.5,2.4,0.9,3.7,1.4c0.1,0.1,0.2,0.1,0.3,0.1c1.1,0.4,2.2,0.8,3.3,1.2
		c0.6,0.2,1.2,0.4,1.8,0.6c0.7,0.3,1.5,0.5,2.2,0.8c0.3,0.1,0.6,0.2,0.8,0.3c1,0.4,2,0.7,3,1c0.3,0.1,0.5,0.2,0.8,0.3
		c0.1,0,0.1,0,0.2,0.1c0.4,0.1,0.8,0.3,1.3,0.4c0.1,0,0.2,0.1,0.3,0.1c0,0,0.1,0,0.1,0c0.1,0,0.2,0.1,0.2,0.1
		c0.9,0.3,1.8,0.5,2.7,0.8c0.1,0,0.2,0.1,0.3,0.1c1.3,0.4,2.7,0.8,4,1.2c0.2,0.1,0.4,0.1,0.5,0.1c0.1,0,0.2,0.1,0.3,0.1l0,0
		c0.2,0,0.3,0.1,0.5,0.1c0.2,0,0.3,0.1,0.5,0.1c0.3,0.1,0.5,0.1,0.7,0.2c0.7,0.2,1.5,0.4,2.2,0.6c0.3,0.1,0.6,0.2,0.9,0.3
		c0.3,0.1,0.5,0.1,0.8,0.2c0.1,0,0.2,0,0.2,0.1c0.3,0.1,0.5,0.2,0.8,0.2c0.2,0,0.4,0.1,0.6,0.1c0.3,0.1,0.6,0.1,0.9,0.2l0.3,0.1
		c0.7,0.2,1.4,0.3,2.1,0.5c0.2,0.1,0.5,0.1,0.7,0.2c0.2,0.1,0.5,0.1,0.7,0.2c0.6,0.1,1.3,0.3,1.9,0.4c0.2,0,0.3,0.1,0.5,0.1
		c0.7,0.1,1.4,0.3,2,0.4c0.1,0,0.2,0,0.3,0c0.7,0.1,1.4,0.3,2,0.4c0.1,0,0.2,0,0.2,0c0.8,0.1,1.5,0.3,2.3,0.4c0.1,0,0.1,0,0.2,0
		c1.1,0.2,2.2,0.4,3.3,0.5c0.3,0.1,0.7,0.1,1,0.2c0.2,0,0.3,0.1,0.5,0.1c0.6,0.1,1.1,0.1,1.7,0.2c0.3,0,0.6,0.1,0.8,0.1
		c0.5,0,0.9,0.1,1.3,0.1c0.5,0.1,1.1,0.1,1.6,0.1c0.3,0,0.5,0,0.8,0.1c0,0,0.1,0,0.1,0c0.2,0,0.4,0,0.6,0c0.2,0,0.3,0,0.5,0
		c0.6,0,1.1,0.1,1.7,0.1c0.8,0,1.5,0.1,2.2,0.1c0,0,0,0,0,0c0.3,0,0.6,0,0.9,0h0.2c0.3,0,0.5,0,0.8,0h0.9c0.5,0,0.9,0,1.4,0
		c0.3,0,0.6,0,0.9-0.1c0.3,0,0.5,0,0.8,0c0.3,0,0.5-0.1,0.8-0.1c0.1,0,0.2,0,0.3,0c0.5-0.1,1.1-0.1,1.6-0.2c0.6-0.1,1.2-0.2,1.8-0.4
		c0.7-0.1,1.4-0.3,2.1-0.5c0.1,0,0.2-0.1,0.3-0.1c0,0,0,0,0,0c1-0.3,1.9-0.6,2.9-0.9c0.5-0.2,1-0.4,1.5-0.5c0.4-0.1,0.7-0.3,1.1-0.5
		c0.2-0.1,0.5-0.2,0.7-0.3c0.2-0.1,0.4-0.2,0.6-0.3c0.1,0,0.1,0,0.1-0.1c0.3-0.1,0.6-0.3,0.9-0.4c0,0,0.1,0,0.1-0.1
		c0.5-0.2,1-0.5,1.5-0.8c0.5-0.3,1.1-0.5,1.6-0.8c2.3-1.3,4.6-2.8,6.7-4.3c0,0,0.1-0.1,0.1-0.1c0.3-0.3,0.7-0.5,1-0.8
		c0.1-0.1,0.2-0.1,0.3-0.2c0.5-0.4,1.1-0.8,1.6-1.2c0.5-0.5,1.1-0.9,1.6-1.3c0.7-0.6,1.4-1.2,2.1-1.8c0.2-0.2,0.4-0.4,0.6-0.5
		c0.3-0.2,0.5-0.5,0.8-0.8c0.2-0.1,0.3-0.3,0.5-0.4c0.1-0.1,0.3-0.3,0.4-0.4c0.1-0.1,0.2-0.2,0.3-0.4c0,0,0,0,0,0
		c0.3-0.3,0.6-0.6,0.9-0.9c0.8-0.8,1.6-1.7,2.5-2.6c0.9-0.9,1.7-1.9,2.6-2.9c0.5-0.6,0.9-1.1,1.4-1.7c1.9-2.4,3.7-4.8,5.5-7.4
		c0.6-0.9,1.2-1.8,1.8-2.7c0.6-0.9,1.2-1.9,1.8-2.8c0.6-0.9,1.2-1.9,1.7-2.9s1.1-2,1.6-3c0.3-0.6,0.7-1.2,1-1.9
		c0.5-0.9,0.9-1.7,1.3-2.6c0.4-0.8,0.7-1.6,1.1-2.3c0.1-0.1,0.1-0.2,0.1-0.3c0.6-1.3,1.1-2.5,1.6-3.8c0-0.1,0.1-0.2,0.1-0.3
		c0.3-0.8,0.7-1.6,1-2.5c0-0.1,0.1-0.2,0.1-0.3c0.3-0.9,0.7-1.8,1-2.7c0.1-0.1,0.1-0.3,0.2-0.4c0.2-0.4,0.3-0.8,0.4-1.2
		c0.4-1.1,0.8-2.3,1.1-3.4c0.7-2.3,1.4-4.7,2-7.1c0.6-2.2,1.1-4.5,1.6-6.8c0.1-0.3,0.2-0.7,0.2-1c0.3-1.3,0.5-2.6,0.7-3.9
		c0-0.3,0.1-0.7,0.2-1c0.2-1.3,0.4-2.5,0.5-3.8c0.1-0.4,0.1-0.9,0.2-1.3c0.2-1.5,0.3-2.9,0.4-4.4c0.1-0.8,0.1-1.6,0.2-2.4
		c0-0.5,0.1-1,0.1-1.5c0.1-2.1,0.2-4.2,0.2-6.3c0-0.1,0-0.3,0-0.4c0-0.5,0-1.1,0-1.6c0-0.2,0-0.5,0-0.7c0-0.2,0-0.5,0-0.7
		c0,0,0,0,0,0c0-0.8-0.1-1.6-0.1-2.4c0-0.4-0.1-0.8-0.1-1.2c0-0.5-0.1-1.1-0.2-1.6c-0.1-0.9-0.2-1.8-0.4-2.7c0-0.4-0.1-0.7-0.2-1.1
		c0,0,0-0.1,0-0.1c0,0,0-0.1,0-0.1c0-0.1,0-0.1,0-0.1c0,0,0,0,0-0.1c-0.1-0.6-0.2-1.2-0.3-1.8v0c-0.5-2.6-1.1-5.2-1.8-7.9
		c-9.8-36-38.6-76.2-46.8-111.2c-8.1-34.9,44.4-168.9,45.1-170.8c-6.6,0.9-13.7,1.2-21,1.1c-10.8,23.3-41,130.1-41,169.3
		c0,42.1,51.8,84.8,51.8,118.3c0,18.3-8,34.5-24.2,42.9l-12.5-51.6l-10.4,57.5c-1.5,0.1-3.1,0.1-4.7,0.1c-14.2,0-27.7-2.2-40.2-6
		l-5.1-47.9L605,761.2c-12.8-5.6-24.6-12.7-35.1-20.1l-4.7-37.3l-3-23.8l-18.7,40c-10-9-18.2-17.3-24.4-23.3
		c-4.9-4.7-9.9-9.1-15.1-13.4c0.2-0.2,0.3-0.6,0.1-0.9c-5.6-12.9-11.3-25.5-13.7-38.2c-1.1-6.3-1.5-12.4-0.5-18.4
		c0.4-3,1.1-6,1.9-9.3c0.8-3.3,1.7-6.9,2.2-11c0.5-4,0.4-8.7-0.7-13c-1-4.4-2.8-8.3-5-11.8c-4.3-7.1-11.2-13.1-18.8-16.3
		c-7.6-3.3-15.6-4.3-23.2-4.2c-3.8,0-7.6,0.4-11.3,1c-0.7,0.1-1.3,0.2-2,0.4c1.6-6.2,3.7-12.2,6.4-18c4.2-8.4,9.6-16.3,15.9-23.4
		c6.3-7.1,13.7-13.5,21.6-19.1c8-5.6,16.5-10.4,25.3-14.8c0.4-0.2,0.5-0.6,0.4-1c0,0,0,0,0,0c-0.2-0.4-0.6-0.6-1-0.4h0
		c-9.2,3.5-18.3,7.5-27,12.6c-8.6,5-16.8,11-24.2,17.9c-7.4,7-13.8,15-19,23.9c-5,9-8.8,18.7-11.2,28.8c-0.2,0.8-0.2,1.7,0,2.5
		c0.7,2.9,3.6,4.7,6.5,4l0.6-0.2c12-2.9,26.2-3,36.1,2.5c5,2.7,8.7,6.8,11.2,11.7c1.3,2.5,2.3,5,2.8,7.4c0.5,2.5,0.6,4.9,0.3,7.7
		c-0.5,5.6-2.4,12.9-2.7,20.8c-0.3,7.9,1.1,15.8,3.7,22.9c2.6,7.1,6.2,13.5,10.3,19.4c3,4.3,6.2,8.3,9.7,12.1
		c-33.4-26.1-71.9-45.2-99.1-65c-33-23.9-38.1-81.9-38.1-81.9c29.5-15.4,122-58.6,177.1-84.1c4.5-2.1,8.8-4.1,12.8-5.9l3.2,60.3
		l18.5-70.3c2.8-1.3,4.9-2.2,6.3-2.9c6.3-2.9,13.8-3.9,22.9-3.7c0,0.1,0,0.3,0,0.4v0c1.6,4.2,2.2,8.4,2.2,12.6
		c0,2.1-0.2,4.1-0.6,6.2c-0.3,2-0.8,4.1-1.4,6.1c-2.3,8.1-6,15.9-9.6,24.2c-1.8,4.1-3.6,8.3-5.2,12.8c-1.5,4.5-3,9.2-3.7,14.4
		c-0.3,2.6-0.5,5.2-0.4,8c0,1.4,0.2,2.8,0.4,4.2l0.7,3.7c1,4.9,2.6,9.8,4.8,14.4c2.2,4.5,4.9,8.7,7.6,12.5c2.7,3.8,5.4,7.2,7.4,10.4
		c0.5,0.8,0.8,1.6,1.3,2.4c0.3,0.8,0.6,1.5,0.9,2.3c0.2,0.7,0.5,1.5,0.5,2.2l0.2,1.1c0,0.3,0,0.3,0,0.5c0,0.5-0.3,1.2-1.3,2.4
		c-1,1.1-2.6,2.3-4.3,3.6c-3.4,2.5-7.5,5.1-11.2,8.4c-1.9,1.7-3.7,3.5-5.3,5.6c-1.6,2.1-3,4.4-4.2,6.8c-2.2,4.9-3.2,10.2-3.1,15.2
		c0,5,0.9,9.9,2,14.5l0.1,0.2c0.4,1.4,1.4,2.6,2.8,3.1c2.3,0.8,4.9-0.4,5.8-2.7c0.2-0.6,0.6-1.5,0.9-2.3c0.4-0.8,0.8-1.6,1.2-2.4
		c0.9-1.6,1.9-3.1,3-4.5c2.2-2.8,4.8-5.4,7.7-7.4c2.9-2,6.2-3.5,9.7-4.5c1.8-0.4,3.5-0.9,5.4-0.9c0.9-0.1,1.9-0.2,2.7-0.2
		c0.8,0,1.7,0,2.5,0.1c3.3,0.5,6.3,2.3,8.8,4.9c2.5,2.7,4.4,6,5.9,9.5c3,7.1,4.7,14.9,5.2,22.8v0c0,0.4,0.4,0.7,0.8,0.7
		c0.4,0,0.8-0.3,0.8-0.7c0.2-4-0.1-8.1-0.6-12.1c-0.5-4-1.4-8-2.7-12c-1.3-3.9-3.1-7.8-5.9-11.2c-2.7-3.4-6.6-6.3-11.2-7.3
		c-1.1-0.2-2.3-0.4-3.4-0.5c-1.1-0.1-2.2,0-3.2,0c-2.2-0.1-4.3,0.3-6.4,0.6c-4.2,0.9-8.4,2.4-12.3,4.6c-3.6,2.1-6.9,4.9-9.7,7.9
		c0.2-3.9,1.3-7.5,2.9-10.7c0.9-1.6,1.9-3.1,3.1-4.5c1.2-1.4,2.6-2.7,4.2-3.9c3.1-2.5,6.7-4.6,10.7-7.1c2-1.3,4.1-2.7,6.3-4.7
		c1.1-1,2.2-2.2,3.2-3.8c1-1.5,1.7-3.4,2.1-5.3c0.1-0.9,0.3-2,0.3-2.8l-0.1-2.2c0-1.5-0.4-2.9-0.6-4.4c-0.3-1.4-0.8-2.8-1.2-4.1
		c-0.5-1.2-1-2.6-1.6-3.7c-2.3-4.7-4.9-8.5-7.1-12.2c-2.2-3.7-4.1-7.2-5.6-10.8c-1.6-3.6-2.6-7.3-3.5-11.1l-0.6-2.9
		c-0.1-0.8-0.3-1.6-0.3-2.5c-0.2-1.7-0.1-3.5,0-5.4c0.6-7.6,3.2-15.9,5.6-24.4c2.5-8.6,5.1-17.6,5.8-27.2c0.3-4.8,0.2-9.7-1.1-14.5
		c-1.1-4.5-3.2-8.8-6.1-12.2c8,0.3,17.2,1.4,28,3l4.9,57l18.6-53.5c-5.7-0.8-11-1.6-16.1-2.4c0,0-0.1-0.4-0.2-1.1
		c0.1,0.6,0.2,1,0.2,1c5,0.8,10.4,1.6,16,2.4v0c4,0.6,8.2,1.2,12.7,1.8v0c3.8,0.5,7.8,1.1,11.8,1.6c3,0.4,6,0.7,8.9,1v0
		c5.3,0.5,10.5,0.8,15.5,0.9v0c7.4,0.1,14.4-0.2,21.1-1.1c0,0,0,0,0,0c16.4-2.2,30.2-7.8,39.7-18.2c0,0,0,0,0,0l0,0
		c0.1-2,0.1-3.8,0.1-5.6c0,1.7,0,3.6-0.1,5.6c0.5-0.6,1.1-1.2,1.6-1.9c0.4-0.4,0.7-0.9,1-1.3c0.2-0.2,0.4-0.5,0.6-0.8
		c0.4-0.5,0.7-1,1-1.5c0.2-0.2,0.3-0.5,0.5-0.7c0.2-0.3,0.4-0.7,0.6-1c0.4-0.6,0.8-1.3,1.2-2v0c0.2-0.4,0.4-0.7,0.5-1.1
		c0.1-0.2,0.2-0.3,0.3-0.5c0.2-0.5,0.5-1,0.7-1.5c0.3-0.5,0.5-1.1,0.7-1.6c0.6-1.4,1.2-2.9,1.6-4.4c0.1-0.3,0.2-0.6,0.3-0.9
		c0.1-0.5,0.3-0.9,0.4-1.4c0.1-0.5,0.2-0.9,0.4-1.3c0.1-0.2,0.1-0.3,0.1-0.5c0.1-0.5,0.3-0.9,0.4-1.4c0,0,0-0.1,0-0.2
		c0.2-0.7,0.3-1.4,0.4-2c0.1-0.2,0.1-0.5,0.1-0.7c0.1-0.6,0.2-1.2,0.3-1.9c0,0,0-0.1,0-0.2c0.1-0.5,0.2-1.1,0.2-1.6
		c0.1-0.5,0.2-1.1,0.2-1.6c0.1-0.5,0.1-1,0.1-1.5c0-0.4,0.1-0.7,0.1-1.1c0.1-0.8,0.1-1.6,0.2-2.5c0.1-0.9,0.1-1.8,0.1-2.7
		c0-0.5,0-1,0-1.5c0-0.2,0-0.4,0-0.6c0-0.2,0-0.4,0-0.6c0-0.2,0-0.3,0-0.4c0.7,0.1,1.4,0.3,2.1,0.5c0.7,0.2,1.5,0.4,2.2,0.6
		c0,0,0,0,0,0c0.2,0.1,0.4,0.1,0.5,0.2c0.2,0.1,0.4,0.1,0.6,0.2c0.8,0.3,1.6,0.6,2.5,0.9c0.2,0.1,0.3,0.1,0.5,0.2
		c0.3,0.1,0.5,0.2,0.8,0.4c0.4,0.2,0.7,0.3,1.1,0.5c0.1,0,0.1,0.1,0.2,0.1c0.1,0,0.1,0,0.2,0.1c0.2,0.1,0.4,0.2,0.7,0.3
		c0.2,0.1,0.3,0.2,0.5,0.3c0.2,0.1,0.5,0.2,0.7,0.4c0.6,0.3,1.2,0.6,1.8,0.9c0.1,0.1,0.2,0.1,0.4,0.2c0.1,0.1,0.2,0.1,0.3,0.2
		c0.1,0.1,0.2,0.1,0.3,0.2c0.2,0.1,0.3,0.2,0.5,0.3c0,0,0,0,0,0c0.2,0.1,0.3,0.2,0.5,0.3c1.1,0.6,2.3,1.3,3.5,2.1
		c0.2,0.1,0.4,0.2,0.6,0.4c0.2,0.2,0.4,0.3,0.6,0.4c0,0,0,0,0,0c0.3,0.2,0.5,0.4,0.8,0.5c0.1,0.1,0.2,0.1,0.3,0.1
		c0.1,0.1,0.2,0.1,0.2,0.1c0,0,0.1,0.1,0.2,0.1c0,0,0.1,0,0.2,0.1c0.2,0.1,0.5,0.1,0.7,0.2c0.2,0,0.5,0.1,0.7,0.1
		c0.4,0,0.8,0,1.2-0.1c0.2,0,0.3-0.1,0.5-0.1c0.1,0,0.3-0.1,0.4-0.2c0.1,0,0.2-0.1,0.4-0.2c0,0,0.1,0,0.1,0c0.1,0,0.1-0.1,0.2-0.1
		c0.1,0,0.2-0.1,0.3-0.1c0,0,0.1-0.1,0.1-0.1h0c0,0,0,0,0,0c0,0,0.1-0.1,0.1-0.1c0.1-0.1,0.3-0.2,0.4-0.2c0.2-0.1,0.3-0.2,0.5-0.4
		c0.2-0.2,0.5-0.4,0.7-0.6v0c0.1-0.1,0.2-0.2,0.3-0.3c0.1-0.1,0.2-0.2,0.3-0.4c0.2-0.2,0.4-0.4,0.6-0.7c0.3-0.4,0.6-0.7,0.8-1.1
		c0.1-0.1,0.1-0.2,0.1-0.3c0.1-0.2,0.2-0.3,0.3-0.4c0-0.1,0.1-0.1,0.1-0.2c0.1-0.2,0.2-0.4,0.3-0.6c0-0.1,0.1-0.2,0.1-0.3
		c0.3-0.5,0.5-1,0.7-1.6l0.3-1c0.1-0.2,0.1-0.5,0.2-0.7c0.2-0.5,0.3-1,0.3-1.5c0-0.2,0.1-0.3,0.1-0.5c0-0.2,0.1-0.4,0.1-0.5
		c0-0.1,0-0.2,0-0.3c0-0.1,0-0.2,0-0.3c0-0.1,0-0.2,0-0.3c0-0.3,0-0.6,0-0.9c0,0,0,0,0,0C813.1,371.9,813.1,371.7,813,371.4z
		 M350.8,107.9c-0.6,1.1-17.4,34.8,13.4,47.3c-10.6,5.9-21.1,12.5-31.3,19.6C333,174.8,320.3,135.1,350.8,107.9z M495.7,404.8
		C439.3,465.4,353.5,506,353.5,506s-58.6-4-77.7-53.6c-16.2-42-7.1-100.5,40.2-123.6c-0.6,1-30.4,51.6,0.8,81.2
		c24.2,22.9,50.9,15.5,64.1,6.1c20.1-14.4,30.5-47,9.9-75.2c-19.5-26.7-93.9-124.6,42.1-214.8c8-2.4,16-4.5,24.1-6.3
		c-38,18.1-106.7,128.5-1,183.7c-13.7,25.9-28.5,59.9-17.7,72.4c17.4,20.2,66.9,18.3,66.9,18.3C502,397.8,498.9,401.3,495.7,404.8z
		 M522.1,347.8c0,0.4-0.1,0.8-0.1,1.2c-0.2,1.2-0.4,2.3-0.8,3.4c-1.1,3.7-3.1,7-5.7,9.6c-0.5,0.5-1.1,1-1.6,1.5
		c-1.7,1.4-3.6,2.6-5.6,3.5c-0.7,0.3-1.4,0.5-2.1,0.8c-0.5,0.2-1.1,0.3-1.6,0.5c-1.1,0.3-2.2,0.5-3.4,0.5c-0.6,0-1.2,0.1-1.7,0.1
		c-0.6,0-1.3-0.1-1.9-0.2c0,0,0,0,0,0c-0.6-0.1-1.2-0.3-1.8-0.5c-1.2-0.4-2.3-1-3.4-1.8c-0.5-0.4-1.1-0.8-1.6-1.2
		c-0.8-0.7-1.6-1.6-2.4-2.4c-0.2-0.2-0.4-0.4-0.5-0.6c-0.9-1.2-1.8-2.4-2.5-3.8c-0.2-0.3-0.3-0.5-0.5-0.8c-0.9-1.7-1.6-3.4-2.2-5.2
		c-0.1-0.4-0.3-0.9-0.4-1.3c-0.3-1.2-0.6-2.4-0.7-3.6c-0.1-0.3-0.1-0.6-0.1-1c-0.1-0.6-0.1-1.3-0.1-1.9c0-10,7.6-24.4,18.2-24.4
		c11.4,0,22.8,12.1,22.8,25.2C522.3,346.2,522.2,347,522.1,347.8z M526.7,366.2c0.3-0.5,1.5-2.6,2.7-5.6c0.4-0.9,0.8-1.9,1.2-2.9
		c0.2-0.5,0.4-1.1,0.6-1.6c0.2-0.5,0.4-1.1,0.5-1.7c0.2-0.8,0.5-1.6,0.7-2.4c0.2-0.8,0.4-1.7,0.6-2.5c0.1-0.6,0.2-1.3,0.4-2
		c0.1-0.4,0.1-0.9,0.2-1.3c0-0.2,0.1-0.5,0.1-0.7c0.1-0.4,0.1-0.9,0.1-1.3v-0.2c0,0,0,0,0,0c0-0.2,0-0.4,0-0.5c0-0.2,0-0.5,0-0.7
		c0-0.2,0-0.5,0-0.7c0-0.2,0-0.5,0-0.7c0-1-0.1-2-0.2-3c-0.1-0.5-0.2-1-0.3-1.5c-0.1-0.5-0.2-1-0.3-1.5c-0.1-0.5-0.3-1-0.4-1.5h0
		c0,0,0-0.1,0-0.1c-0.1-0.2-0.1-0.3-0.2-0.5c-0.1-0.4-0.3-0.7-0.4-1.1c0-0.1-0.1-0.2-0.1-0.3c0,0,0,0,0,0v0c0-0.1-0.1-0.2-0.1-0.3
		c0,0,0-0.1,0-0.1c0,0,0-0.1,0-0.1c-0.2-0.4-0.3-0.8-0.5-1.1c0,0,0-0.1-0.1-0.1c0-0.1,0-0.1-0.1-0.2c0,0,0,0,0-0.1c0,0,0-0.1,0-0.1
		c0,0,0,0,0-0.1c-0.1-0.2-0.2-0.4-0.3-0.6l-0.4-0.7c-0.1-0.1-0.1-0.2-0.2-0.4c-0.2-0.3-0.3-0.6-0.5-0.9c0-0.1,0-0.1-0.1-0.2
		c0,0,0-0.1-0.1-0.1c0-0.1-0.1-0.2-0.1-0.2c-0.1-0.2-0.2-0.3-0.3-0.5c0,0,0-0.1-0.1-0.1c0,0,0-0.1,0-0.1c0,0,0,0,0,0
		c-0.1-0.2-0.3-0.5-0.4-0.7c-0.1-0.1-0.1-0.1-0.1-0.2c-0.2-0.3-0.4-0.6-0.6-0.9c-0.1-0.1-0.1-0.2-0.2-0.3v0h0
		c-0.3-0.5-0.7-0.9-1-1.4c-0.3-0.5-0.7-0.9-1.1-1.3c-0.7-0.9-1.5-1.7-2.3-2.6c-6.3-6.6-14.6-11.2-22.6-11.2c-12,0-31,13.4-31,38.1
		c0,20,16.8,34.3,17.3,34.7c-50.7-17.5-26.5-67.2-20-78.7c5.3-9.5,20.1-26.3,32.6-14.6c22.8,21.3,55.1,44.1,55.1,44.1
		C544.6,342.3,535.5,354.4,526.7,366.2z M559.7,324.9c0,0-22.1-14.6-45.3-35.6c0,0,20.3-36.9,0.1-82.9c1.3,2.3,20.4,34.2,49.9,48.9
		c-0.9,4-1.5,8.2-1.5,12.4c0,27.9,14.7,39.5,14.7,39.5C571.2,312.7,565.4,318.7,559.7,324.9z M639.1,427.1c0.1,0.6,0.2,1.1,0.2,1.5
		C639.2,428.2,639.1,427.7,639.1,427.1z M651.9,385.3c-4,0.8-7.7-2.9-10.5-8.2c-8,0.7-17.5,3.9-30.7,15.3c-0.5,0.5-1,0.9-1.6,1.2
		c-0.8,0.4-1.7,0.6-2.6,0.6c-3.6,0-7.6-3-9.9-8c-2.9-6.2-1.7-11.9,1.4-14.7c0.1-0.1,0.1-0.1,0.2-0.1c0,0,0,0,0,0
		c13.9-13.1,29.7-17.7,39.9-19.2c1.6-4.5,4.7-7.5,9.2-8.3c6.5-1.2,14.2,9.1,15.1,19C663.2,372.6,658.7,384,651.9,385.3z
		 M734.7,292.6c-17.4-13.8-38.7-22.7-61.5-22.7c-22.9,0-42.3,4.8-59.3,12.8c-11.1-3.5-17.8-11.5-22-20.2c5.1,0.2,10.4-0.3,15.9-1.6
		c54.6-13.1,63.7-43.2,63.7-43.2s38.9,44.8,78.2,49.9c-0.2,1.4-0.5,2.8-0.8,4.1C745.4,283.6,734.7,292.6,734.7,292.6z M751.4,397.2
		c0.5,0.2,1,0.4,1.6,0.5c0.6,0.1,1.2,0.2,1.8,0.2c1.8,0,3.3,0.2,4.6,0.6c-1.3-0.4-2.8-0.6-4.6-0.6 M761.1,383.2
		c-6,1.2-10-9.7-12-17.5c-2-7.8-0.6-19.8,5.6-19.8c3.2,0,5.6,2.6,7.5,6c-2.1,0.3-3.3,0.5-3.3,0.5c-4,0.5-7.6,5.4-6.9,12.2
		c0.7,6.8,5.9,12,9.6,11.5c1.5-0.2,3-0.5,4.4-0.7C765.3,379.3,763.9,382.6,761.1,383.2z M808.5,376c-1.3,4.2-3.8,6.2-5.1,6.2
		c-0.1,0-0.2,0-0.3,0c0,0-0.2-0.1-0.4-0.3l0,0c-1.5-1.3-2.8-5.1-1.4-8.7c1.9-4.7,4.6-6.2,5.6-6.2c0.1,0,0.1,0,0.2,0
		c0,0,0.1,0.1,0.1,0.1C808.8,368.3,809.9,371.6,808.5,376z"/>
	<path d="M533,335.4c-0.3-1.1-0.6-2.1-1-3.2c0-0.1-0.1-0.3-0.1-0.4c-0.4-0.9-0.8-1.9-1.2-2.8c-0.1-0.2-0.2-0.5-0.4-0.7
		c-0.4-0.9-0.9-1.7-1.5-2.6c-0.1-0.2-0.3-0.4-0.4-0.6c-0.6-1-1.3-1.9-2-2.8c-0.3-0.5-0.7-0.9-1.1-1.3c-0.7-0.9-1.5-1.7-2.3-2.6
		c-6.3-6.6-14.6-11.2-22.6-11.2c-12,0-31,13.4-31,38.1c0,20,16.8,34.3,17.3,34.7c0,0,0,0,0,0c6.9,2.4,15.3,4.2,25.3,5.2
		c4.8-6.1,9.6-12.5,14.4-19c0,0,0,0,0,0c0,0,0-0.1,0.1-0.1c0.3-0.5,1.5-2.6,2.7-5.6c0.4-0.9,0.8-1.9,1.2-2.9c0.4-1,0.8-2.2,1.1-3.3
		c0.2-0.8,0.5-1.6,0.7-2.4c0.2-0.8,0.4-1.7,0.6-2.5c0.5-2.6,0.9-5.3,0.9-8.1C533.8,339.4,533.6,337.4,533,335.4z M522.1,347.8
		c0,0.4-0.1,0.8-0.1,1.2c-0.2,1.2-0.4,2.3-0.8,3.4c-1.1,3.7-3.1,7-5.7,9.6c-0.5,0.5-1.1,1-1.6,1.5c-1.7,1.4-3.6,2.6-5.6,3.5
		c-0.7,0.3-1.4,0.6-2.1,0.8c-2.1,0.7-4.4,1.1-6.8,1.1c-0.6,0-1.3-0.1-1.9-0.2c0,0,0,0,0,0c-0.6-0.1-1.2-0.3-1.8-0.5
		c-1.2-0.4-2.3-1-3.4-1.8c-0.5-0.4-1.1-0.8-1.6-1.2c-0.8-0.7-1.6-1.6-2.4-2.4c-0.2-0.2-0.4-0.4-0.5-0.6c-0.9-1.2-1.8-2.4-2.5-3.8
		c-0.2-0.3-0.3-0.5-0.5-0.8c-0.9-1.7-1.7-3.4-2.2-5.2c-0.1-0.4-0.3-0.9-0.4-1.3c-0.3-1.2-0.6-2.4-0.7-3.6c-0.1-0.3-0.1-0.6-0.1-1
		c-0.1-0.6-0.1-1.3-0.1-1.9c0-10,7.6-24.4,18.2-24.4c11.4,0,22.8,12.1,22.8,25.2C522.2,346.2,522.2,347.1,522.1,347.8z"/>
	<path d="M466.8,301.3c-6.4,11.5-30.7,61.2,20,78.7c0,0,0,0,0,0c6.9,2.4,15.3,4.2,25.3,5.2c-2.4,3-4.7,5.9-7.1,8.8
		c0,0-49.5,1.9-66.9-18.3c-10.8-12.6,4-46.6,17.7-72.4c8.3-15.7,16.3-28.5,17.8-31.5c4-8-4.9-24.9-6.6-30.2
		c-1.7-5.3,1.1-9.1,4.4-3.2c10,18.2,26.7,36.1,43,50.8c23.2,21,45.3,35.6,45.3,35.6c-1.8,1.9-3.5,3.9-5.2,5.9
		c0,0-32.3-22.8-55.1-44.1C486.9,275.1,472.1,291.8,466.8,301.3z"/>
	<path d="M643.2,635.9c0,0.4-0.4,0.8-0.8,0.7c0-0.3,0-0.5,0-0.7c0-12.1-4.8-40.2-23.5-40.2c-0.7,0-1.4,0-2,0.1c-0.3,0-0.7,0-1,0.1
		c-0.5,0-1,0.1-1.5,0.1c-0.2,0-0.4,0-0.6,0.1c-0.6,0.1-1.1,0.2-1.7,0.3c-0.6,0.1-1.1,0.2-1.7,0.3c-0.1,0-0.1,0-0.2,0
		c-0.2,0-0.4,0.1-0.6,0.1c-0.5,0.1-1.1,0.3-1.6,0.5c-0.6,0.2-1.1,0.3-1.6,0.5c-2,0.7-3.8,1.5-5.4,2.5c-0.5,0.3-1,0.6-1.6,0.9
		c-0.4,0.2-0.7,0.5-1.1,0.7c-0.3,0.2-0.6,0.4-0.9,0.7c-1.2,0.9-2.3,1.8-3.3,2.7c-0.3,0.3-0.6,0.6-0.9,0.9c-0.3,0.3-0.6,0.6-0.9,0.9
		c-0.4,0.4-0.8,0.8-1.1,1.2c-0.5,0.5-0.9,1-1.3,1.6c-0.7,0.9-1.4,1.8-2,2.7v0c-0.2,0.3-0.4,0.5-0.5,0.8c-0.2,0.3-0.3,0.5-0.5,0.8
		c-1,1.6-1.6,2.9-2,3.8c-0.1,0.2-0.2,0.4-0.2,0.5c0,0.1-0.1,0.2-0.1,0.2c-0.1,0.2-0.2,0.4-0.2,0.4c0,0,0,0,0,0.1c0,0,0,0,0,0
		c-0.1-0.5-0.2-0.9-0.3-1.3c-0.2-1.1-0.4-2.2-0.6-3.2c-0.1-0.4-0.1-0.8-0.2-1.2c-0.1-0.5-0.1-0.9-0.2-1.4v0
		c-0.1-0.8-0.2-1.5-0.2-2.3c0-0.1,0-0.3,0-0.4c-0.1-0.8-0.1-1.6-0.1-2.4c0-29.4,31.1-29.7,31.1-43.6c0-15.5-17.7-23.9-21.9-50.4
		c-4.2-26.5,26.9-60.7,11-87.5c0.3,0,0.7,0,1,0c2.8,3.5,4.9,7.7,6.1,12.2c1.2,4.7,1.4,9.7,1.1,14.5c-0.7,9.6-3.3,18.6-5.8,27.2
		c-2.4,8.6-4.9,16.9-5.6,24.4c-0.1,1.9-0.2,3.7,0,5.4c0,0.9,0.2,1.6,0.3,2.5l0.6,2.9c0.9,3.8,1.9,7.5,3.5,11.1
		c1.5,3.6,3.4,7.1,5.6,10.8c2.2,3.7,4.8,7.5,7.1,12.2c0.6,1.1,1.1,2.5,1.7,3.7c0.5,1.3,0.9,2.7,1.2,4.1c0.3,1.5,0.6,2.9,0.6,4.4
		l0.1,2.2c0,0.8-0.1,1.9-0.3,2.8c-0.4,1.9-1.2,3.8-2.1,5.3c-1,1.6-2.1,2.7-3.2,3.8c-2.2,2.1-4.3,3.4-6.3,4.7
		c-4,2.5-7.6,4.6-10.7,7.1c-1.5,1.2-2.9,2.5-4.2,3.9c-1.2,1.4-2.2,2.9-3.1,4.5c-1.6,3.2-2.6,6.8-2.9,10.7c2.8-3.1,6-5.8,9.7-7.9
		c3.8-2.2,8-3.7,12.3-4.6c2.2-0.3,4.3-0.7,6.4-0.6c1.1,0,2.1-0.1,3.2,0c1.2,0.1,2.3,0.2,3.4,0.5c4.6,1,8.5,3.9,11.2,7.3
		c2.7,3.4,4.5,7.3,5.9,11.2c1.3,3.9,2.2,7.9,2.7,12C643.2,627.8,643.4,631.9,643.2,635.9z"/>
	<path d="M503.4,682.8c-1.6-1.3-3.1-2.5-4.7-3.7c-3.5-3.8-6.7-7.9-9.7-12.1c-4.1-5.9-7.7-12.3-10.3-19.4c-2.6-7.1-4-15-3.7-22.9
		c0.3-7.9,2.2-15.2,2.7-20.8c0.3-2.8,0.2-5.3-0.3-7.7c-0.5-2.4-1.5-4.9-2.8-7.4c-2.5-4.9-6.2-9-11.2-11.7
		c-9.9-5.5-24.1-5.4-36.1-2.5l-0.6,0.2c-2.9,0.7-5.8-1.1-6.5-4c-0.2-0.8-0.2-1.7,0-2.5c2.5-10.1,6.2-19.8,11.2-28.8
		c5.2-8.9,11.7-16.9,19-23.9c7.3-7,15.5-12.9,24.2-17.9c8.6-5.1,17.8-9.1,27-12.6h0c0.4-0.2,0.8,0,1,0.4c-0.2,0.1-0.5,0.2-0.7,0.3
		c-15,6.7-61.5,26.6-74.8,77.3c-0.3,1-0.5,2-0.7,3c-0.3,1-0.5,2.1-0.7,3.2c0,0,1.2-0.4,3.3-0.9c0.8-0.2,1.7-0.4,2.7-0.6
		c11.9-2.3,38.4-4.4,50.5,18.1C497,613.6,461.8,622.8,503.4,682.8z"/>
	<path d="M689,436.5l-15.4,41.1l-5.4-43.6c3.8,0.5,7.8,1.1,11.8,1.6C683,435.9,686,436.2,689,436.5z"/>
	<path d="M655.5,432.1L637,485.6l-4.9-57c2.4,0.4,4.9,0.7,7.4,1.1C644.5,430.4,649.8,431.3,655.5,432.1z"/>
	<path d="M691.1,767.9c-6.4,3.3-14,5.4-22.9,5.9l10.4-57.5L691.1,767.9z"/>
	<path d="M573.1,432.1l-18.5,70.3l-3.2-60.3v0C560.4,437.9,567.9,434.5,573.1,432.1z"/>
	<path d="M623.3,768c-6.3-1.9-12.5-4.2-18.3-6.8l13.2-41.1L623.3,768z"/>
	<g>
		<g>
			<path d="M651.4,370.6l-1.3,0c-2.9-0.1-5.8-0.1-9.3,0.3c-7.4,0.7-16.7,4.8-23.6,8.6c-0.4-1.3-0.9-2.5-1.5-3.7
				c-1.4-2.6-3.3-4.8-5.6-6.5c11.7-7.7,22-10,28.9-11.1c4.1-0.6,7.1-0.7,8.5-0.7c0.4,0,0.7,0,1,0v0c0.6,0.2,3.2,2.6,3.6,7.1
				C652.3,367.7,651.8,369.6,651.4,370.6z"/>
		</g>
		<path d="M610.7,392.3c0.4-0.4,0.8-0.9,1.1-1.4C611.5,391.4,611.1,391.9,610.7,392.3z"/>
	</g>
	<path d="M809.2,363.6c-0.3-0.2-0.6-0.3-1-0.5c-1.1-0.4-2.4-0.2-3.7,0.4c-0.8,0.4-1.7,0.9-2.5,1.7c-1.6,1.5-3.1,3.7-4.2,6.4
		c-2,5.1-0.3,10.8,2.6,13.2c-0.4-0.3-0.8-0.5-1.2-0.8c-1.7-1.1-3.3-2-4.9-2.9c-0.2-0.2-0.5-0.3-0.7-0.4c-0.6-0.4-1.2-0.7-1.8-0.9
		c-0.4-0.2-0.8-0.5-1.2-0.6c-0.2-0.1-0.5-0.2-0.7-0.3c-0.1,0-0.1-0.1-0.2-0.1c-0.1,0-0.1-0.1-0.2-0.1c-0.4-0.2-0.8-0.4-1.1-0.5
		c-0.3-0.1-0.6-0.2-0.8-0.4c-0.2-0.1-0.3-0.1-0.5-0.2c-0.8-0.4-1.7-0.7-2.5-0.9c-0.2-0.1-0.4-0.2-0.6-0.2c-0.2-0.1-0.4-0.1-0.6-0.2
		c-0.8-0.2-1.5-0.5-2.2-0.6c-0.7-0.2-1.4-0.4-2.1-0.5v0c-4.9-0.9-8.9-0.5-13,0.1c-1.4,0.2-2.9,0.5-4.4,0.7
		c-3.7,0.5-8.9-4.7-9.6-11.5c-0.7-6.8,2.9-11.6,6.9-12.2c0,0,1.2-0.3,3.3-0.5c2.9-0.4,7.5-0.7,13.1-0.3h0c0.1,0,0.2,0,0.3,0
		c0.5,0,1,0.1,1.6,0.1c0.6,0.1,1.3,0.1,1.9,0.2c0.7,0.1,1.4,0.2,2.1,0.3c0.7,0.1,1.3,0.2,2,0.4c0.4,0.1,0.8,0.1,1.2,0.2
		c0.5,0.1,1,0.2,1.5,0.3c0.1,0,0.3,0,0.4,0.1c0.3,0.1,0.6,0.1,0.9,0.2c1.3,0.3,2.5,0.7,3.8,1.1c0.6,0.2,1.2,0.4,1.8,0.6
		c0.6,0.2,1.3,0.5,2,0.7c0.9,0.3,1.7,0.7,2.6,1.1c0.3,0.1,0.6,0.3,1,0.4c1.1,0.5,2.2,1,3.2,1.6c0.4,0.2,0.8,0.4,1.2,0.6
		c0.2,0.1,0.4,0.2,0.6,0.4c1.2,0.6,2.3,1.3,3.5,2.1c0.5,0.3,0.9,0.6,1.3,0.9c0,0,0,0,0,0c0,0,0.1,0,0.1,0.1c0.2,0.1,0.3,0.2,0.5,0.3
		C808.9,363.4,809.1,363.5,809.2,363.6z"/>
	<g>
		<g>
			<path d="M610.7,392.3c0.4-0.4,0.8-0.9,1.1-1.4C611.5,391.4,611.1,391.9,610.7,392.3z"/>
		</g>
		<g>
			<path d="M808.2,365.3c-0.4-0.3-0.8-0.4-1.3-0.4c-2.2,0-5.4,2.6-7.4,7.5c-1.6,4.1-0.4,8.8,1.9,10.9l0.1,0.1c0.4,0.3,0.7,0.5,1,0.6
				c0.3,0.1,0.6,0.1,0.9,0.1c2.3,0,5.4-2.6,6.9-7.6C812.1,371.2,810.6,367.1,808.2,365.3z M808.5,376c-1.3,4.2-3.8,6.2-5.1,6.2
				c-0.1,0-0.2,0-0.3,0c0,0-0.2-0.1-0.4-0.3l0,0c-1.5-1.3-2.8-5.1-1.4-8.7c1.9-4.7,4.6-6.2,5.6-6.2c0.1,0,0.1,0,0.2,0
				c0,0,0.1,0.1,0.1,0.1C808.8,368.3,809.9,371.6,808.5,376z"/>
			<path d="M813,371.4c0-0.1,0-0.1,0-0.2c0-0.1,0-0.2,0-0.4c0-0.1,0-0.3,0-0.5c0,0,0-0.1,0-0.1c0-0.2-0.1-0.4-0.1-0.6
				c0-0.1,0-0.3-0.1-0.4c0-0.1,0-0.2,0-0.2c0-0.1,0-0.1-0.1-0.2c0-0.3-0.1-0.5-0.2-0.7c-0.1-0.3-0.2-0.5-0.3-0.8
				c-0.1-0.2-0.2-0.4-0.3-0.6c0,0,0-0.1,0-0.1c0-0.1-0.1-0.2-0.2-0.4c0,0,0-0.1-0.1-0.1c-0.1-0.1-0.1-0.2-0.2-0.3
				c-0.1-0.2-0.3-0.4-0.4-0.6c0,0,0-0.1-0.1-0.1c0,0,0,0,0,0c0,0,0-0.1-0.1-0.1c-0.2-0.3-0.5-0.5-0.7-0.8c-0.2-0.2-0.4-0.4-0.6-0.5
				c-0.1,0-0.1-0.1-0.2-0.1c-0.1,0-0.1-0.1-0.2-0.1c-0.5-0.3-1-0.5-1.6-0.6c-0.2,0-0.4,0-0.6,0c-0.4,0-0.7,0-1.1,0.1
				c-0.1,0-0.2,0-0.3,0.1c-0.4,0.1-0.7,0.2-1.1,0.4c-0.6,0.3-1.3,0.7-1.9,1.2c-1.9,1.5-3.6,3.8-4.9,7c-2,5.1-0.3,10.8,2.6,13.2v0
				c0,0,0,0,0,0c0.3,0.2,0.5,0.4,0.8,0.5c0.1,0.1,0.2,0.1,0.3,0.1c0.1,0.1,0.2,0.1,0.2,0.1c0.1,0.1,0.2,0.1,0.3,0.1
				c0.2,0.1,0.5,0.1,0.7,0.2c0.2,0,0.5,0.1,0.7,0.1c0.4,0,0.8,0,1.2-0.1c0.2,0,0.3-0.1,0.5-0.1c0.1,0,0.3-0.1,0.4-0.2
				c0.1,0,0.2-0.1,0.4-0.2c0,0,0.1,0,0.1,0c0.2-0.1,0.4-0.2,0.6-0.3c0,0,0,0,0,0c0,0,0,0,0,0c0,0,0.1,0,0.1-0.1
				c0.1-0.1,0.3-0.2,0.4-0.2c0.2-0.1,0.3-0.2,0.5-0.4c0.2-0.2,0.5-0.4,0.7-0.6c0.1-0.1,0.2-0.2,0.3-0.3c0.1-0.1,0.2-0.2,0.3-0.4
				c0.2-0.2,0.4-0.4,0.6-0.7c0.3-0.4,0.6-0.7,0.8-1.1c0.1-0.1,0.1-0.2,0.1-0.3c0.1-0.1,0.2-0.3,0.2-0.4c0-0.1,0.1-0.1,0.1-0.2
				c0.1-0.2,0.2-0.4,0.3-0.6c0-0.1,0.1-0.2,0.1-0.3c0.3-0.5,0.5-1,0.7-1.6c0.1-0.3,0.2-0.6,0.3-1c0.1-0.2,0.1-0.5,0.2-0.7
				c0.2-0.5,0.3-1,0.3-1.5c0-0.2,0.1-0.3,0.1-0.5c0-0.2,0.1-0.4,0.1-0.5c0-0.1,0-0.2,0-0.3c0-0.1,0-0.2,0-0.3c0-0.1,0-0.2,0-0.3
				c0-0.3,0-0.6,0-0.9c0,0,0,0,0,0C813.1,371.9,813.1,371.7,813,371.4z M802.8,381.9L802.8,381.9c-1.5-1.3-2.8-5.1-1.4-8.7
				c1.9-4.7,4.6-6.2,5.6-6.2c0.1,0,0.1,0,0.2,0c0,0,0.1,0.1,0.1,0.1c1.6,1.2,2.7,4.6,1.3,9c-1.3,4.2-3.8,6.2-5.1,6.2
				c-0.1,0-0.2,0-0.3,0C803.2,382.1,803,382.1,802.8,381.9z"/>
		</g>
		<g>
			<path d="M524.6,827.5c0,0.1,0,0.1,0,0.2c-0.2,1-0.3,2.1-0.5,3.2c-0.4,2.7-0.8,5.5-1.2,8.5c-0.3,2.1-0.6,4.2-0.8,6.4
				c-0.3,2.5-0.6,5.2-0.9,7.9c-0.2,1.7-0.4,3.4-0.5,5.1c-0.4,3.9-0.8,8-1.1,12.3c-0.2,2-0.3,4-0.5,6.1c-0.1,0.6-0.1,1.2-0.1,1.9
				c-0.1,1.5-0.2,3-0.3,4.5c-0.2,2.4-0.3,4.9-0.4,7.4c-0.2,2.8-0.3,5.7-0.4,8.6c0,0.2,0,0.5,0,0.7c-0.1,2.3-0.2,4.6-0.2,6.9
				c-0.1,4.8-0.2,9.7-0.2,14.7c-5.5,5.1-11.1,10.2-16.6,15.3c-11.8,10.9-23.6,21.8-35.4,32.8l11.4-12.4c4-4.4,8-9,12.1-13.4
				c4.1-4.4,8.3-8.8,12.5-13l11.3-11.2c-0.2-7.5-0.3-15-0.3-22.5c0-8.1,0.6-16.2,1.7-24.3c1.1-8,2.5-16,4.4-23.9
				C520.1,842,522,834.7,524.6,827.5z"/>
			<path d="M503.9,683.2c-0.2-0.1-0.3-0.3-0.5-0.4v0c-41.6-60-6.4-69.2-21.4-96.9c-12.1-22.5-38.6-20.4-50.5-18.1
				c-1,0.2-1.9,0.4-2.7,0.6c-2.1,0.5-3.3,0.9-3.3,0.9c0.2-1.1,0.4-2.1,0.7-3.2c0.2-1,0.5-2,0.7-3c13.3-50.8,59.8-70.7,74.8-77.3
				c0.2-0.1,0.5-0.2,0.7-0.3c0,0,0,0,0,0c0.1,0.4,0,0.8-0.4,1c-8.8,4.4-17.3,9.2-25.3,14.8c-7.9,5.6-15.3,11.9-21.6,19.1
				c-6.3,7.1-11.7,15-15.9,23.4c-2.7,5.8-4.8,11.9-6.4,18c0.7-0.1,1.3-0.3,2-0.4c3.7-0.6,7.4-1,11.3-1c7.6-0.1,15.5,1,23.2,4.2
				c7.6,3.2,14.5,9.1,18.8,16.3c2.2,3.5,4,7.4,5,11.8c1.1,4.3,1.2,9,0.7,13c-0.5,4.1-1.4,7.7-2.2,11c-0.8,3.3-1.5,6.3-1.9,9.3
				c-0.9,6-0.6,12.1,0.5,18.4c2.4,12.6,8.1,25.3,13.7,38.2C504.2,682.7,504.1,683,503.9,683.2z"/>
			<path d="M565.1,703.7c-0.1,0.2-0.3,0.3-0.4,0.5c-5.1,6.7-8.7,14.9-10,25.4c-2.7-2.3-5.4-4.5-7.9-6.7c-0.8-0.7-1.5-1.4-2.3-2
				c-0.4-0.3-0.7-0.6-1.1-1l18.7-40L565.1,703.7z"/>
			<path d="M642.5,635.9c0,0.3,0,0.5,0,0.7c-0.4,0-0.7-0.3-0.8-0.7v0c-0.5-7.8-2.2-15.7-5.2-22.8c-1.5-3.5-3.4-6.8-5.9-9.5
				c-2.5-2.6-5.5-4.4-8.8-4.9c-0.8-0.1-1.6-0.2-2.5-0.1c-0.8,0-1.8,0.2-2.7,0.2c-1.8,0.1-3.6,0.6-5.4,0.9c-3.5,1-6.8,2.5-9.7,4.5
				c-2.9,2.1-5.5,4.6-7.7,7.4c-1.1,1.4-2.1,2.9-3,4.5c-0.4,0.8-0.9,1.6-1.2,2.4c-0.4,0.8-0.7,1.7-0.9,2.3c-0.8,2.3-3.4,3.6-5.8,2.7
				c-1.5-0.5-2.5-1.7-2.8-3.1l-0.1-0.2c-1.2-4.6-2-9.4-2-14.5c-0.1-5,0.9-10.3,3.1-15.2c1.2-2.4,2.6-4.7,4.2-6.8
				c1.6-2.1,3.5-3.9,5.3-5.6c3.8-3.3,7.8-5.9,11.2-8.4c1.7-1.2,3.3-2.5,4.3-3.6c1-1.1,1.3-1.9,1.3-2.4c0-0.2,0-0.2,0-0.5l-0.2-1.1
				c0-0.7-0.3-1.5-0.5-2.2c-0.2-0.7-0.6-1.5-0.9-2.3c-0.5-0.8-0.7-1.5-1.3-2.4c-1.9-3.2-4.7-6.6-7.4-10.4c-2.7-3.8-5.4-8-7.6-12.5
				c-2.2-4.5-3.8-9.4-4.8-14.4l-0.7-3.7c-0.2-1.4-0.4-2.8-0.4-4.2c-0.1-2.8,0.1-5.4,0.4-8c0.7-5.2,2.1-9.9,3.7-14.4
				c1.6-4.5,3.4-8.7,5.2-12.8c3.5-8.2,7.3-16.1,9.6-24.2c0.6-2,1.1-4,1.4-6.1c0.4-2.1,0.6-4.1,0.6-6.2c0.1-4.1-0.6-8.4-2.2-12.6v0
				c-0.1-0.1-0.1-0.3,0-0.4c0.2,0,0.5,0,0.7,0c16,26.7-15.2,60.9-11,87.5c4.2,26.5,21.9,34.9,21.9,50.4c0,13.9-31.1,14.2-31.1,43.6
				c0,0.8,0,1.6,0.1,2.4c0,0.1,0,0.3,0,0.4c0,0.7,0.1,1.5,0.2,2.3v0c0,0.5,0.1,0.9,0.2,1.4c0,0.4,0.1,0.8,0.2,1.2
				c0.2,1,0.4,2.1,0.6,3.2c0.1,0.4,0.2,0.9,0.3,1.3c0,0,0,0,0,0c0,0,0,0,0-0.1c0-0.1,0.1-0.2,0.2-0.4c0-0.1,0.1-0.1,0.1-0.2
				c0.1-0.2,0.1-0.3,0.2-0.5c0.4-0.9,1.1-2.2,2-3.8c0.2-0.3,0.3-0.5,0.5-0.8c0.2-0.3,0.4-0.5,0.5-0.8v0c0.6-0.9,1.2-1.8,2-2.7
				c0.4-0.5,0.8-1,1.3-1.6c0.4-0.4,0.7-0.8,1.1-1.2c0.3-0.3,0.6-0.6,0.9-0.9c0.3-0.3,0.6-0.6,0.9-0.9c1-0.9,2.1-1.9,3.3-2.7
				c0.3-0.2,0.6-0.5,0.9-0.7c0.4-0.3,0.7-0.5,1.1-0.7c0.5-0.3,1-0.6,1.6-0.9c1.7-0.9,3.5-1.8,5.4-2.5c0.5-0.2,1-0.4,1.6-0.5
				c0.5-0.2,1.1-0.3,1.6-0.5c0.2,0,0.4-0.1,0.6-0.1c0.1,0,0.1,0,0.2,0c0.5-0.1,1.1-0.2,1.7-0.3c0.5-0.1,1.1-0.2,1.7-0.3
				c0.2,0,0.4-0.1,0.6-0.1c0.5-0.1,1-0.1,1.5-0.1c0.3,0,0.7-0.1,1-0.1c0.7,0,1.3-0.1,2-0.1C637.7,595.7,642.5,623.8,642.5,635.9z"/>
			<path d="M529.4,360.6c2-4.7,4.4-11.9,4.4-19.3c0-7.8-4.3-16.3-10.7-22.9c6.3,6.6,10.7,15.1,10.7,22.9
				C533.8,348.7,531.4,355.8,529.4,360.6z"/>
			<path d="M502.4,362.3c0,0,5.1-4,7.3-12.7c2.4-9.3-3.4-14.4-3.4-14.4C522.5,340.7,518.3,360.6,502.4,362.3z"/>
		</g>
	</g>
	<path d="M502.4,362.3c0,0,5.1-4,7.3-12.7c2.4-9.3-3.4-14.4-3.4-14.4C522.5,340.7,518.3,360.6,502.4,362.3z"/>
	<path d="M569.8,741.1c-5.3-3.7-10.3-7.6-15-11.4c-2.7-2.3-5.4-4.5-7.9-6.7c-0.8-0.7-1.5-1.4-2.3-2c-0.4-0.3-0.7-0.6-1.1-1l18.7-40
		l3,23.8L569.8,741.1z"/>
	<path d="M643.2,635.9c0,0.4-0.4,0.8-0.8,0.7c-0.4,0-0.7-0.3-0.8-0.7v0c-0.5-7.8-2.2-15.7-5.2-22.8c-1.5-3.5-3.4-6.8-5.9-9.5
		c-2.5-2.6-5.5-4.4-8.8-4.9c-0.8-0.1-1.6-0.2-2.5-0.1c-0.8,0-1.8,0.2-2.7,0.2c-1.8,0.1-3.6,0.6-5.4,0.9c-3.5,1-6.8,2.5-9.7,4.5
		c-2.9,2.1-5.5,4.6-7.7,7.4c-1.1,1.4-2.1,2.9-3,4.5c-0.4,0.8-0.9,1.6-1.2,2.4c-0.4,0.8-0.7,1.7-0.9,2.3c-0.8,2.3-3.4,3.6-5.8,2.7
		c-1.5-0.5-2.5-1.7-2.8-3.1l-0.1-0.2c-1.2-4.6-2-9.4-2-14.5c-0.1-5,0.9-10.3,3.1-15.2c1.2-2.4,2.6-4.7,4.2-6.8
		c1.6-2.1,3.5-3.9,5.3-5.6c3.8-3.3,7.8-5.9,11.2-8.4c1.7-1.2,3.3-2.5,4.3-3.6c1-1.1,1.3-1.9,1.3-2.4c0-0.2,0-0.2,0-0.5l-0.2-1.1
		c0-0.7-0.3-1.5-0.5-2.2c-0.2-0.7-0.6-1.5-0.9-2.3c-0.5-0.8-0.7-1.5-1.3-2.4c-1.9-3.2-4.7-6.6-7.4-10.4c-2.7-3.8-5.4-8-7.6-12.5
		c-2.2-4.5-3.8-9.4-4.8-14.4l-0.7-3.7c-0.2-1.4-0.4-2.8-0.4-4.2c-0.1-2.8,0.1-5.4,0.4-8c0.7-5.2,2.1-9.9,3.7-14.4
		c1.6-4.5,3.4-8.7,5.2-12.8c3.5-8.2,7.3-16.1,9.6-24.2c0.6-2,1.1-4,1.4-6.1c0.4-2.1,0.6-4.1,0.6-6.2c0.1-4.1-0.6-8.4-2.2-12.6v0
		c-0.1-0.1-0.1-0.3,0-0.4c0-0.3,0.2-0.5,0.5-0.6c0.3-0.1,0.7,0,0.9,0.2c0.1,0.2,0.3,0.3,0.4,0.5c2.8,3.5,4.9,7.7,6.1,12.2
		c1.2,4.7,1.4,9.7,1.1,14.5c-0.7,9.6-3.3,18.6-5.8,27.2c-2.4,8.6-4.9,16.9-5.6,24.4c-0.1,1.9-0.2,3.7,0,5.4c0,0.9,0.2,1.6,0.3,2.5
		l0.6,2.9c0.9,3.8,1.9,7.5,3.5,11.1c1.5,3.6,3.4,7.1,5.6,10.8c2.2,3.7,4.8,7.5,7.1,12.2c0.6,1.1,1.1,2.5,1.7,3.7
		c0.5,1.3,0.9,2.7,1.2,4.1c0.3,1.5,0.6,2.9,0.6,4.4l0.1,2.2c0,0.8-0.1,1.9-0.3,2.8c-0.4,1.9-1.2,3.8-2.1,5.3c-1,1.6-2.1,2.7-3.2,3.8
		c-2.2,2.1-4.3,3.4-6.3,4.7c-4,2.5-7.6,4.6-10.7,7.1c-1.5,1.2-2.9,2.5-4.2,3.9c-1.2,1.4-2.2,2.9-3.1,4.5c-1.6,3.2-2.6,6.8-2.9,10.7
		c2.8-3.1,6-5.8,9.7-7.9c3.8-2.2,8-3.7,12.3-4.6c2.2-0.3,4.3-0.7,6.4-0.6c1.1,0,2.1-0.1,3.2,0c1.2,0.1,2.3,0.2,3.4,0.5
		c4.6,1,8.5,3.9,11.2,7.3c2.7,3.4,4.5,7.3,5.9,11.2c1.3,3.9,2.2,7.9,2.7,12C643.2,627.8,643.4,631.9,643.2,635.9z"/>
	<path d="M503.9,683.2c-0.1,0.1-0.2,0.1-0.3,0.2c-0.3,0.1-0.7,0.1-0.9-0.2c-1.4-1.4-2.7-2.7-4-4.2c-3.5-3.8-6.7-7.9-9.7-12.1
		c-4.1-5.9-7.7-12.3-10.3-19.4c-2.6-7.1-4-15-3.7-22.9c0.3-7.9,2.2-15.2,2.7-20.8c0.3-2.8,0.2-5.3-0.3-7.7c-0.5-2.4-1.5-4.9-2.8-7.4
		c-2.5-4.9-6.2-9-11.2-11.7c-9.9-5.5-24.1-5.4-36.1-2.5l-0.6,0.2c-2.9,0.7-5.8-1.1-6.5-4c-0.2-0.8-0.2-1.7,0-2.5
		c2.5-10.1,6.2-19.8,11.2-28.8c5.2-8.9,11.7-16.9,19-23.9c7.3-7,15.5-12.9,24.2-17.9c8.6-5.1,17.8-9.1,27-12.6h0
		c0.4-0.2,0.8,0,1,0.4c0,0,0,0,0,0c0.1,0.4,0,0.8-0.4,1c-8.8,4.4-17.3,9.2-25.3,14.8c-7.9,5.6-15.3,11.9-21.6,19.1
		c-6.3,7.1-11.7,15-15.9,23.4c-2.7,5.8-4.8,11.9-6.4,18c0.7-0.1,1.3-0.3,2-0.4c3.7-0.6,7.4-1,11.3-1c7.6-0.1,15.5,1,23.2,4.2
		c7.6,3.2,14.5,9.1,18.8,16.3c2.2,3.5,4,7.4,5,11.8c1.1,4.3,1.2,9,0.7,13c-0.5,4.1-1.4,7.7-2.2,11c-0.8,3.3-1.5,6.3-1.9,9.3
		c-0.9,6-0.6,12.1,0.5,18.4c2.4,12.6,8.1,25.3,13.7,38.2C504.2,682.7,504.1,683,503.9,683.2z"/>
	<path d="M526.7,850.3c-0.1,8.1-0.5,16-0.9,24c-0.4,8-1.1,15.9-1.9,23.8c-0.8,7.9-1.6,15.8-1.9,23.8l0,0.3c0,1.2-0.6,2.3-1.5,3.1
		L506.8,937c-4.6,3.9-9.2,7.7-13.8,11.6l-13.8,11.7c-4.6,3.9-9.3,7.7-14,11.4c-0.3,0.2-0.6,0.2-0.8-0.1c-0.2-0.2-0.2-0.5,0-0.8
		l0.7-0.8l0.1-0.1l11.4-12.4c4-4.4,8-9,12.1-13.4c4.1-4.4,8.3-8.8,12.5-13l11.3-11.2c-0.2-7.5-0.3-15-0.3-22.5
		c0-8.1,0.6-16.2,1.7-24.3c1.1-8,2.5-16,4.4-23.9c1.7-7.3,3.6-14.6,6.2-21.8v0c0.2-0.5,0.4-1.1,0.6-1.6c0.1-0.3,0.5-0.5,0.8-0.4
		c0.2,0.1,0.4,0.3,0.4,0.5C526.9,834.2,526.9,842.3,526.7,850.3z"/>
</g>
</svg>
