<?xml version="1.0" encoding="utf-8"?>
<!-- Generator: Adobe Illustrator 24.3.0, SVG Export Plug-In . SVG Version: 6.00 Build 0)  -->
<svg version="1.1" id="Calque_1" xmlns="http://www.w3.org/2000/svg" xmlns:xlink="http://www.w3.org/1999/xlink" x="0px" y="0px"
	 viewBox="0 0 612 612" style="enable-background:new 0 0 612 612;" xml:space="preserve">
<path d="M574.7,194.7c-14.7-34-35.7-64.6-62.5-90.8c-26.8-26.2-58-46.8-92.7-61.2C383.5,27.8,345.3,20.2,306,20.2
	c-39.3,0-77.5,7.5-113.4,22.4c-34.7,14.4-65.9,35-92.7,61.2c-26.8,26.2-47.8,56.8-62.5,90.8c-15.2,35.3-23,72.7-23,111.3
	c0,38.6,7.7,76,23,111.3c14.7,34,35.8,64.6,62.6,90.8c26.8,26.2,58,46.8,92.7,61.2c35.9,14.9,74.1,22.4,113.4,22.4
	c39.3,0,77.5-7.5,113.4-22.4c34.7-14.4,65.9-35,92.7-61.2c26.8-26.2,47.8-56.8,62.6-90.8c15.2-35.3,23-72.7,23-111.3
	C597.6,267.4,589.9,229.9,574.7,194.7z M553.2,408.1c-13.5,31.2-32.8,59.3-57.4,83.4c-24.6,24.1-53.3,43-85.3,56.3
	c-27.3,11.3-56.1,18-85.7,20c-31.2-0.6-76.7-6.6-85.2-52.2c-2.6-27.9,7.5-54.4,25.6-74.3c10.8-11.8,24.8-20.9,40.4-26
	c15.7-7.2,33.2-9.8,50.7-7.4c1.7,0.2,2.6,0.4,4.6,0.6c7.4,1.1,16.4,9.3,25.4,13.6c8.9,4.3,23.9,9.3,27.3,0.2
	c2.3-5.9,10.2-7.6,16.5-8.2c6.3-0.6,14.5-2.2,16.6-8.4c0.6-2.9,0.9-6,0.7-9c0.4-3,1.9-6.3,4.9-6.8c2.6-0.4,5.7,1.3,7.7-0.5
	c1.2-1.3,1.5-2.5,1.5-3.8c0.2-10.8-4.8-21.1-10.3-30.8c-9.9-17.7-19.8-35-32.5-50.9c4.3,0.9,8.3-0.8,10.5-4.3
	c0.6-1.9,1.9-3.4,3.3-4.6c1.5-0.9,3.3-0.6,5-1.2s3-1.8,4-3.2c6.2-7.8,7-18.7,4.9-28.1c-2-9.5-7.5-18.3-12.8-26.9
	c-6.3-9.8-12.9-19.5-19.8-28.7c2.2-1.1,4.3-2.6,5.9-4.3c-2.3-0.3-4.3-1.4-6-3l19.8-7c-6.4-0.3-12.8-2.6-18.1-6.4
	c2.3-1.9,3.5-3.7,5.6-3.6c-3.5-1.3-6.4-3.7-10.2-4.4c10.5-1.9,20-7.9,26.3-16.5c1.3-2.1,2.8-4,4.5-5.9c1.5-1.5,3.2-2.8,4.7-4.2
	c3.1-3.6,5.6-7.6,6.8-12.1c3.9-9.4,7.6-18.9,11.2-28.1c-2.8,1.9-6.1,3-9.7,3c0.4-2,1.1-4,2.2-5.7c-6.2-0.2-12.6,1.7-17.6,5.3
	c2.1-2.8,3.2-6,2.6-9.5c-4.8,3.7-9.1,7.5-13.1,11.9c1.7-2.4,2.6-5.4,2.4-8.5c-25.1,25.6-50.1,42.4-85.3,52.1
	c2.2-1.1,4.5-2.5,6.6-3.9c13.9-9.6,21.5-25.6,28.9-40.9c-1.2,0.2-2.6,0.2-3.6-0.6c0.1-4.2,0.1-8.3,0.2-12.5l-3.6,0.8
	c0.6-3.5,0.4-7-0.8-10.5c-2.3,1.9-4.8,3.2-7.5,4.3c-0.4-2-1.3-4.1-2.8-5.6c-1.5,3-3.5,5.6-6.1,7.6c-1.4-2.2-2.6-4.4-3.6-7
	c-4.4,10.5-11.5,19.5-20.7,26.2c-12.2,8.8-27.4,13.1-39.2,22.3c-0.1-6.7-1-14.6-4.5-20.4c1.4,8.6-4.6,16.6-10.1,23.4
	c-2.2-1.2-4.4-2.3-6.7-3.1c1.5,5.5,0.2,11-3.6,15.1c-1.6-4.2-8-7.4-11.9-9.5c-1.6,9.1-11.1,14.6-19.5,19.1
	c-55.3,29.4-106.3,71.3-141.6,121.8c-18.8,26.8-32.2,58.3-31.5,90.8c0.4,11.4,2,22.8,5,33.9c4,15.4,9.7,30.3,16.8,44.5
	c-10.7-15-19.7-31-27-47.9c-14-32.3-21-66.6-21-102c0-35.4,7.1-69.7,21-102c13.5-31.2,32.8-59.3,57.4-83.4
	c24.6-24.1,53.3-43.1,85.3-56.3c33.1-13.7,68.2-20.6,104.5-20.6c36.3,0,71.4,6.9,104.5,20.6c31.9,13.2,60.6,32.2,85.3,56.3
	c24.6,24.1,43.9,52.2,57.4,83.4c14,32.3,21,66.7,21,102.1C574.2,341.4,567.1,375.7,553.2,408.1z M340.2,284.6c0,0,16.9,3.2,21.7,6.3
	c10.7,6.7,15,14.2,15,14.2s-10.9,15-23.4,8.3C341.1,306.7,336.8,291.2,340.2,284.6z"/>
</svg>
