<?xml version="1.0" encoding="utf-8"?>
<!-- Generator: Adobe Illustrator 22.1.0, SVG Export Plug-In . SVG Version: 6.00 Build 0)  -->
<!DOCTYPE svg PUBLIC "-//W3C//DTD SVG 1.1//EN" "http://www.w3.org/Graphics/SVG/1.1/DTD/svg11.dtd">
<svg version="1.1" id="Calque_1" xmlns="http://www.w3.org/2000/svg" xmlns:xlink="http://www.w3.org/1999/xlink" x="0px" y="0px"
	 viewBox="0 0 800 800" style="enable-background:new 0 0 800 800;" xml:space="preserve">
<g>
	<g>
		<circle cx="695.9" cy="146.9" r="10.1"/>
		<circle cx="580.2" cy="177.1" r="10.1"/>
		<g>
			<path d="M793.4,159.7c-2.3-2.2-5.4-3.2-8.3-3.4c-3-0.1-5.8,0.4-8.3,1.5c-2.5,1-4.9,2.5-6.8,4.6c5.5-0.2,10.3-1.1,14.8-0.8
				c2.2,0.1,4.2,0.5,6.2,1.4c1.9,0.9,3.6,2.6,5.6,4.6C796.6,164.9,795.7,161.8,793.4,159.7z"/>
			<path d="M772.3,175c-4.8,3.9-9.9,7.3-15.1,10.6c-7,4.5-14.2,8.4-21.6,12c-0.7-3.5-1.4-7-2.1-10.3c10.9-10.1,17.7-24.5,17.7-40.5
				c0-29.2-22.8-53.2-51.5-55.1c-9.4-10.7-22.7-20-42.1-24.4c-47.7-10.9-95,16.4-107.7,62c-0.2,0.6-0.3,1.2-0.4,1.7
				c-14.8,9.9-24.5,26.8-24.5,45.9c0,25,16.7,46.2,39.5,53l0.9,3.2c0.8,2.9,1.7,6.5,2.8,10.7c-7.2,0.9-14.3,1.6-21.5,1.9
				c-3.1,0.1-6.1,0.2-9.2,0.2c-3-0.2-6.1-0.1-9.2-0.4c-3.1-0.2-6.1-0.6-9.1-1.2c-2.8-0.5-5.6-1.2-8.2-2.4c0-0.1,0.1-0.2,0.1-0.3
				l2-5.4c0.7-1.7,1-3.6,2.5-5.2c-2.5-0.5-4.6,1.5-6,3c-1.5,1.7-2.5,3.6-3.4,5.6c-1.5,4-2.2,8.2-1.2,12.6c1.6-1.7,2.6-3.5,3.6-5.3
				c0.9-1.6,1.6-3.3,2.3-4.9c4.8,3.8,10.8,6,16.6,7.7c6.2,1.8,12.5,2.8,18.9,3.7c8.2,0.9,16.3,1.2,24.5,1.1
				c8.1,33.3,19.7,91.1,18.4,153.4c0,1.9,0.1,3.3,0.4,5.5c1.7,16.1,5.3,68.9-21.1,75c-3.1,0.6-18.9,2.4-31.6-24.2
				c-3-6.4-6.1-12.9-9.1-19.4c-20.9-44.8-44.6-95.5-84.4-132.2c-32.4-29.9-73.3-42.5-115.1-35.5c-44,7.4-82.1,35.5-104.5,77.1
				c-16.7,31.1-19.7,83-22.5,133.1c-1.1,20.1-2.7,47.8-5.6,64.8c-9.9-10.1-20-27.9-30.4-53.1c-0.7-1.8-1.3-3.3-1.8-4.4
				c-9.9-23.1-31.1-42.4-55.5-50.4c-20.7-6.8-41.6-5-58.8,5C8.9,473-4.7,521.8,16.1,568.1c17.5,39.2,41.7,76.5,69.8,107.9
				c33.9,37.9,78.8,59.7,123.2,59.7c0.1,0,0.1,0,0.2,0c38.5,0,73.3-16.1,100.7-46.6c44-49,48.6-108.2,53.1-165.4
				c0.9-11,1.8-22.5,2.9-33.4c0.2-1.5,0.4-3.1,0.6-4.6c5.7,9.5,13.7,24.9,23.9,49.7c28.2,68.4,85.6,116.6,153.7,129
				c60.7,11,144.5-34.2,183-98.7c26.6-44.5,39.7-102.9,39-173.6c-0.4-37.6-15.8-121.4-28.3-182.8c8.4-5.2,16.5-11,23.9-17.5
				c4.7-4.4,9.4-8.7,13.4-13.7c4.1-4.9,7.9-10.1,10.5-15.9C781.8,167.1,777.1,171.2,772.3,175z M62.2,547.5
				c-2.8-6.2-15.3-38.1,12.4-54.3c2.7-1.6,5.7-2.2,8.6-2.2c3.2,0,6.3,0.7,8.8,1.5c10.6,3.5,20.6,12.5,24.8,22.3
				c0.4,1,0.9,2.2,1.5,3.7c5.3,12.9,11.6,26.9,19.2,39.9c-14.6,10.9-31.3,26.5-42.7,47.1C82.3,587.2,71.3,567.6,62.2,547.5z
				 M123.6,642.4c-4-4.5-7.9-9.1-11.7-13.8c8.6-21.6,25.4-38.1,40.1-49.2c5.9,7.2,12.4,13.8,19.7,19.1c-1.2,8.2-2.1,17.6-2.1,27.5
				c0,20.6,3.8,38.9,11.2,54.6C160.2,674,140,660.7,123.6,642.4z M272.4,655.4c-16.8,18.7-36.7,28.5-59.1,29.6
				c-18.1-22.2-19.8-52.1-17.5-74.8c9.4,2,18.7,0.4,26.7-4.8c1.7-1.1,3.3-2.4,4.8-3.8c12.5,6,27.7,10.2,44.7,10.2
				c8.6,0,17.6-1.2,27-3.6C293.4,625.4,285.1,641.3,272.4,655.4z M306.2,579.1c-27.3,11.9-49.9,7.7-65.6,0.7
				c4.7-13.9,7.1-32.6,9-56.8c0.8,0.4,1.6,0.9,2.4,1.3c11.6,5.7,24.6,8.6,38.9,8.6c6.7,0,13.7-0.7,21-1.9
				C310.5,547.4,309,563.6,306.2,579.1z M315.8,485c-0.7,6.6-1.3,13.2-1.8,19.7c-20,4.5-36.9,3.6-50.5-3c-4.7-2.3-8.7-5.1-12-8
				c0.1-1.1,0.1-2.1,0.2-3.2c1.8-30.9,3.8-67.6,9.8-92.6c3.5,13.7,9.1,27.7,18,40.2c10,14.1,23,24.8,38.7,32.1
				C317,475.5,316.3,480.6,315.8,485z M350.3,423.6c-11.1,3.6-18.7,12.1-24,22.3c-10.6-5.4-19.4-12.8-26.2-22.4
				c-14.1-19.8-18-45.3-18.6-64.6c14.6-16.9,33.8-28.1,54.9-31.7c16.6-2.8,33-0.5,48,6.3C368.9,353.1,352.7,382.8,350.3,423.6z
				 M405.8,453.1c-9.4-14-19.3-23.9-30.2-28.4c2.3-35.8,16.9-61.2,30.3-77.3c1,0.9,2.1,1.8,3.1,2.7c19.9,18.3,35.3,42,48.8,67.3
				C441.4,424.1,421.2,435.3,405.8,453.1z M437.3,516.3c-6-14.5-11.9-27.8-17.9-39.6c12.8-18.9,33.8-30.3,49.9-36.7
				c4.3,8.8,8.4,17.6,12.5,26.4c3.1,6.7,6.2,13.3,9.3,19.8c0.5,1,0.9,1.9,1.4,2.8c-7.1,7.1-12.5,13.7-12.6,13.9
				c-9.7,11.9-19.8,27.7-25.4,45.9C448.3,539.4,442.4,528.6,437.3,516.3z M475.6,574.2c1.3-26,17.7-49.1,31.2-63.5
				c10.8,12.7,22.4,19.8,32.3,23.6c-3.3,22.4-4.7,53.7,5.9,78.7C527.4,608.6,500.3,598.3,475.6,574.2z M646.3,116.7
				c1,0.2,1.8,0.6,2.7,0.8c-5.4,8.5-8.5,18.6-8.5,29.4c0,26.7,19,49,44.2,54.2c1,5,2.1,10.3,3.2,15.8c-4.9,1.7-9.8,3.2-14.8,4.7
				c-5.8,1.9-11.8,3.4-17.8,4.8c-5.9,1.7-11.9,3.2-17.9,4.5c-6,1.4-12,2.8-18.1,4c-0.5,0.1-0.9,0.2-1.4,0.3
				c-1.5-5.9-2.8-10.8-3.8-14.6c12.9-10.1,21.3-25.9,21.3-43.5c0-21-11.8-39.3-29-48.7C615.8,118,630.7,113.2,646.3,116.7z
				 M621.7,249.8c12.7-2.2,25.2-4.9,37.7-8c6.1-1.6,12.3-3.3,18.3-5.4c4.4-1.4,8.9-2.9,13.2-4.5l4.6,23.6
				c3.7,19.5,7.4,39.7,10.6,58.8c-32.8,11.1-56.6,11.8-71.2,10.2c-2.7-21.7-6.3-41.4-9.8-58.1c0,0,0,0,0.1,0
				C625.3,266.5,623.3,257.1,621.7,249.8z M580.2,202.2c-13.9,0-25.1-11.3-25.1-25.1c0-13.9,11.3-25.1,25.1-25.1
				c6.9,0,13.2,2.8,17.7,7.3c4.6,4.6,7.4,10.9,7.4,17.8c0,2.9-0.6,5.6-1.5,8.2C600.4,195.1,591.2,202.2,580.2,202.2z M575.8,614.9
				c-16-18.2-15-51.8-11.7-75.6c7.2,0.2,12.8-0.8,15.7-1.4c14.5-3.3,25.6-9.9,34.2-18.5c16.4,13.3,39.1,24.2,67.3,24.6
				C659.5,577.1,614.6,609.4,575.8,614.9z M694.9,518c-30.5,4.1-52.4-7.5-66.3-19.4c9.8-19.9,12.5-43.7,12.6-63.6
				c8.8,1.7,19.1,2.9,30.6,2.9c12.7,0,26.9-1.4,42.5-5.1C711.7,465.4,705.2,493.9,694.9,518z M715.6,406.4
				c-32.7,9.1-58.8,6.7-75.7,2.6c0-0.3-0.1-0.6-0.1-0.8v-0.5c0.3-19.8-0.5-39.2-2.1-57.5c2.9,0.2,6,0.3,9.4,0.3
				c16.3,0,37.4-2.6,63.1-10.8c3.2,21.9,5.4,40.8,5.5,53.1C715.7,397.4,715.7,401.9,715.6,406.4z M695.9,172.1
				c-7.8,0-14.7-3.7-19.3-9.2c-3.6-4.3-5.8-9.8-5.8-15.9c0-1.4,0.2-2.7,0.4-4c1.9-12,12.2-21.2,24.7-21.2
				c13.9,0,25.1,11.3,25.1,25.1C721,160.8,709.7,172.1,695.9,172.1z"/>
		</g>
	</g>
</g>
</svg>
