<?xml version="1.0" encoding="utf-8"?>
<!-- Generator: Adobe Illustrator 24.3.0, SVG Export Plug-In . SVG Version: 6.00 Build 0)  -->
<svg version="1.1" id="Calque_1" xmlns="http://www.w3.org/2000/svg" xmlns:xlink="http://www.w3.org/1999/xlink" x="0px" y="0px"
	 viewBox="0 0 612 612" style="enable-background:new 0 0 612 612;" xml:space="preserve">
<path d="M352.7,193.8c-0.3,1.4-3.4-0.2-7.3-3c-5.1-3.1-11.8-8-16.2-11.4c-0.5-0.3-0.9-0.6-1.4-0.9c-0.2-0.1-3.4-2.6-8.2-5.9
	c-3.4-2.3-8-5.5-12.8-8.6c-3.7-2.4-7.5-4.7-11-6.6c-3.4-1.8-6.3-3.1-8.4-3.3c-0.2,0.1-0.4,0.2-0.5,0.3c-6.5,4.5,3.9,12.5,0.5,14.9
	c-2.5,2.1-3.3,0.3-3.8,4.5c0.4,3.9,1.9,4,11.5,8.8c6.7,3.4,1.4,2.3-4.1,2.5c-0.5,0.1-1.1,0.1-1.7,0.2c-0.6,2.3-1,7-0.1,11.3
	c2,5.5,6.8,8.9,12.7,8.9c1.7,0,4.3-0.6,4.9-1c0.3-0.1,0.6-0.1,1-0.3c3.4-2,5.4-4.4,6.3-6.8c0.2-0.5-0.1,0.3,0-0.2
	c3.4-6.7-2.3-11.3-2.4-11.4c0,0,0.1,0,0.3,0.1c-0.2-0.1-0.3-0.2-0.3-0.2c0,0,0.6,0.3,1.5,0.8c2.1,1,6.1,2.7,9.8,4.2c0,0,0,0,0,0
	c0.2-0.1,0.2-0.1,0.2,0.1c3.4,1.3,7.2,2.8,10.5,4.2c5.6,2.1,11.9,4.5,11.8,4.5c0.1,0.1-38.2,20.4-50.1,23.4
	c-4.1,1.7-7.2,2.6-8.5,2.4c-3.1-0.5-8.5-4.8-13-10.6c-1.7-1.8-3.3-4.3-4.8-7.3c-1.1-2-1.9-4.1-2.6-6.1c-1.9-5.6-3.1-11.7-2.9-17.1
	c-0.2-4.7-0.2-8.5,0-11.5c0.1-3.8,0.6-7,1.4-8.5c2.1-4,4.8-5.3,5-7.6c0.2-2.3,0-6.4,2.9-10.4c1.2-1.5,4.7-1.1,9.1,0.3
	c6.5,0.5,19.2,6.7,26.1,10.1c1.6,0.8,4.2,2.4,7.2,4.6C326.9,168.5,354.9,192.5,352.7,193.8z M562.2,421c0-0.3-0.1-0.5-0.2-0.6
	c0-0.3-0.1-0.6-0.1-0.9c-0.9-0.7-1.6,0.7-2.2,3.6c-0.5,2-1.2,4.8-1.9,8.1c-1.2,4.9-2.5,11-3.8,17.6c-4.6,20.4-11.3,45.3-20.6,53
	c-1.2,1.8-2.3,3-3.3,3.9c-1.1,0.3-2.4,0.7-3.7,1.2c-2.1-0.3-3.9-2.2-5.4-4.6c-0.1-1.9-0.1-4-0.1-6.2c0.1-3.8,0.2-8.4,0.3-14.2
	c0-6.3,0.1-14.1,0.4-22.8c2.4-56.1,6.3-123.9,21.1-129.5c16,17.2,13.5,53.8,15.9,52.1c0.2-0.1,0.4-0.4,0.6-0.9
	c0.4-0.6,0.9-1.6,1.4-2.8c5.5-10.5,19.5-44.4,21.9-66.3c1-5.9,1.1-11.6-0.5-16.4c-5.8-18.2-13.4-30.3-31.1-53.3
	c-2.1-2.9-4.4-5.8-6.8-8.9c-22.9-29.2-51.1-47.9-34.4-52.1c0.5-0.1,1-0.2,1.5-0.3c7.9,1.3,12.8,8.9,16.3,10.2
	c0.1,0.1,0.2,0.1,0.3,0.2c0.7,0.6,1.4,0.5,2-0.5c0.9-0.8,1.7-2.6,2.5-5.7c1.3-5.3-1.2-11.7-6-18.3c-4-6.5-10-13.3-16.8-19.4
	c-10.6-11.4-25-21.9-36.9-27.1c-5.4-2.3-10.5-4.5-15.4-6.5c-13.9-6.8-31.3-13.4-43.4-19.6c0,0-0.1-0.1-0.1-0.1
	c-5.4-3.9-12.5-13.3-16.7-23.1c-0.1-0.7-0.3-1.3-0.5-2.1c-0.2-0.8-0.3-1.5-0.3-2.2c0.9-4.9,8.3-4.6,17.2-1.5c3,1.4,6,3,8.8,4.8
	c3.9,2.4,8.1,7.5,11.4,12.9c2.7,5.2,4.9,11,6.5,15.5c1.5,4.8,2.3,8.5,3,8.5c0.4,0,0.8-2.8,1.2-5.2c0.2-0.7,0.2-1.2,0.3-2.1
	c0.1-1.4,0.2-1.8,0.4-3.9c0-4.9-0.5-9.3-1.5-13.4c-0.1-0.6-0.3-1.3-0.4-1.9c-1-5-2.4-8.9-4.7-12.3c-4.2-6.8-11.4-12.5-22.9-17.7
	c-1.9-1-4-2-5.5-2.6c-4.4-1.8-8.2-2.9-11.6-3.5c-1.9-0.3-3.7-0.5-5.4-0.5c-1.6-0.2-3.1-0.2-4.5-0.2c-4.5,0-9.3,1.2-11.5,2.4
	c-1.8,1-3.1,2.4-4.2,3.8c-2.8,3-4.6,6.7-5.1,8.4c-1.4,4.9-2,15.4,1.1,24.3c-14.4-1.5-29.4-1.7-42.3-1.2c-7.7,0.3-15.1,1.4-21.8,2.7
	c-9.8,1.6-18.3,4-24.4,5.7c-2.4-3.6-6.1-8.4-11.7-15c-4.7-5.5-9.4-10.6-14-14.7c-7.2-7.8-14.3-13.8-21.2-15.7
	c-5.1-2.1-10.2-2.2-15.1,0.8c-1.9,1.2-3.7,2.7-5.4,4.6c-8,6.5-14.3,28.1-16.3,47.1c-2.4,20.9,16.8,35.2,14.9,43
	c-0.8,3.3-16,24.1-36.3,49.3c-19.8,20.7-43.7,45.2-66,68.5l-30.2,28.1c-0.5,0.5-1,0.9-1.5,1.4c-0.4,0.4-0.9,0.8-1.3,1.1l0.2-0.1
	c-30.3,27.9-56.3,51.4-67.7,61l62.9-17.9l11.1,19.3c2.9,4.8,6.5-0.8,7.3-2c14.5-23,29.9-51.5,42-70.9
	c49.4-59.3,125-151.7,119.9-148.4c-3.7,2.5-10.8,0.7-17.2-4c-6.4-4.7-12.1-12.2-13.1-21c-1.8-16.3,3.1-31.1,12.8-33.5
	c2.6,0.5,5.5,2.3,8.5,5c6.1,6.9,11.9,15.4,15,20.7c1.3,2.2,4,5.7,4.3,6.5c2,2.8,3.6,4.6,4.9,5.7c0.3,0.3,0.6,0.5,0.9,0.6
	c0.6,0.3,1.2,0.5,1.8,0.5c0.7,1.4,6.5-2.5,25.4-6.9c20.6-4.2,8.1-4.8,40.4-6.9c7.3-0.5,12.8-0.8,17.1-1.1c11.6-0.5,14,0.2,26.5,2.5
	c17.7,3.3,48.7,20.1,75.2,32.7c8.5,4,17.1,8.2,24.3,12.3c7.4,6,10.4,11.9,3.3,18c-15.7,13.5,0,29.2,8.3,37.5
	c6.5,6.5,61.9,60.4,71.6,88.5c-3.6-4.7-8.2-8.6-13.7-10.6c-2.2-0.8-4.2-1.2-6.1-1.4c-12.5-3.6-23.2,4.8-26.5,8.6
	c-2.3,2.6-5.7,11.6-8.7,19.2c-8.6-7.4-21.4-15.5-25.5-17.2c-2.8-1.2-7.6-4.1-14.8-6.7c-8.5-4.5-21.5-8.7-38.6-6.7
	c-13.5,0.8-19.6,15.6-20.7,26.7c-4.3,15.1,13.6,54.3,25.9,68.9c6.4,8.2,10.9,12.7,13.6,14.3c5.7,5.2,11.5,3.9,12.9-1.3
	c0.6-2,0.2-4.9-0.4-8.4c0.1-1.5-0.4-4.4-0.8-9.2c0-0.1,0-0.3,0-0.4c-0.1-1.3-0.2-2.6-0.2-4c-0.5-11.7,1.1-28.3,13.7-30.5
	c0.6,0,1.2,0.1,1.8,0.2c15.6,16,27.7,53.8,25.8,84.8c-2.5,39.1-2,81.1-11.2,98.6c-1.8,3.5-4,6.2-6.6,8.5c-2.5,1.6-5.5,3.4-9.2,5.5
	c-9.1,3.5-20.6,3.9-33.6,4.9c-23.9-1.3-61.3-15.7-65.1-16.4c-0.6,0.2-0.6,0.8-0.1,1.6c0.2,1.9,7.2,8.4,18.5,14.5
	c8.4,5.9,22,13.1,38.9,17.2c11.8,2.6,26.7,5.1,40.5,5.2c9.9,0.4,19.4-0.3,27.3-2.8c12.4-2.1,22.2-6.1,34.1-11.7
	c9.6-4.4,17.2-11.8,20.5-17.8c2.6-3.3,4.9-7.9,7.4-14.8c5.4-14.8,3.8-61.3,1.7-80C562.5,423.3,562.4,422,562.2,421z"/>
</svg>
