<?xml version="1.0" encoding="utf-8"?>
<!-- Generator: Adobe Illustrator 19.2.1, SVG Export Plug-In . SVG Version: 6.00 Build 0)  -->
<svg version="1.1" id="Layer_2" xmlns="http://www.w3.org/2000/svg" xmlns:xlink="http://www.w3.org/1999/xlink" x="0px" y="0px"
	 viewBox="0 0 800 800" style="enable-background:new 0 0 800 800;" xml:space="preserve">
<g>
	<path d="M401.5,443.3L401.5,443.3c-0.5-0.1-1-0.1-1.5,0c-0.5,0-1,0-1.5,0v0.1c-74.5,2.2-134,50.2-134,109.1s59.5,106.9,134,109.1
		v0.1c0.5,0,1,0,1.5,0s1,0,1.5,0v-0.1c74.5-2.2,134-50.2,134-109.1C535.4,493.5,475.9,445.5,401.5,443.3z M400,632.8
		c-45.6-0.7-82.3-34.1-82.3-75.3s36.7-74.6,82.3-75.3c45.6,0.7,82.3,34.1,82.3,75.3S445.6,632.1,400,632.8z"/>
	<path d="M398.5,94.9L398.5,94.9c0.5,0,1,0,1.5,0s1,0,1.5,0l0,0c106.6-0.1,166.5,7.6,280.5,37.3C600.4,49.8,500,5.6,401.5,2.2V2.1
		c-0.5,0-1,0.1-1.5,0.1s-1-0.1-1.5-0.1v0.2c-98.4,3.3-198.9,47.6-280.5,130C232.1,102.5,292,94.8,398.5,94.9z"/>
	<path d="M510.1,436c-7.6-32.6-35.7-79.2-46.5-101.2c-13-26.5-37.1-40.5-62.1-42.3v-0.2c-0.5,0-1,0.1-1.5,0.1s-1-0.1-1.5-0.1v0.2
		c-25,1.8-49,15.8-62.1,42.3c-10.8,22-38.9,68.6-46.5,101.2c40.9-29.4,67-32.8,110.1-34.4C443,403.2,469.2,406.5,510.1,436z"/>
	<path d="M400,691.7c-54.2-1.4-111.2-23.9-145.3-74.3c-4.5,26.2,26.6,124.2,107.9,135.4c11.5,1.6,23.7,2.8,36,3.3v0.1
		c0.5,0,1-0.1,1.5-0.1s1,0.1,1.5,0.1v-0.1c12.3-0.5,24.5-1.7,36-3.3c81.3-11.2,112.4-109.2,107.9-135.4
		C511.2,667.8,454.2,690.3,400,691.7z"/>
	<path d="M709.6,229.5c-18.9-53.2-161-80.2-303-80.8c-2.2,0-4.4,0-6.6,0s-4.4,0-6.6,0c-142,0.6-284.1,27.6-303,80.8
		C70.5,285.7-4.9,456,11.6,517.9C28,579.9,171,751.2,213.6,779c18.3,11.9,102.3,18.7,184.9,18.8l0,0c0.5,0,1,0,1.5,0s1,0,1.5,0l0,0
		c82.7-0.1,166.6-6.9,184.9-18.8c42.7-27.8,185.6-199.1,202-261.1C804.9,456,729.5,285.7,709.6,229.5z M583.1,637
		c0.8,30.1-42.7,115.1-105.1,134.7c-25,7.8-52.1,11.1-77.9,11.9c-25.8-0.8-53-4.1-77.9-11.9c-62.5-19.6-106-104.6-105.3-134.7
		c-25.1,24.7-64.8,24.7-64.8,24.7c33.6-24.6,58.5-69.3,59.1-74c12.3-114.4,48.1-164.5,61.6-190.5c17.2-33.3,41.1-85.4,18.1-90.3
		c-72.1-15.5-83.8-103.5-83.8-103.5s39,90.3,141.3,50.9c19.2-7.4,35.3-12.1,51.7-12.7c16.4,0.5,32.5,5.3,51.7,12.7
		c102.3,39.4,141.3-50.9,141.3-50.9s-11.6,88-83.8,103.5c-23,4.9,0.9,57.1,18.1,90.3c13.4,26,49.3,76.1,61.6,190.5
		c0.5,4.7,25.5,49.4,59.1,74C647.8,661.7,608.1,661.7,583.1,637z"/>
</g>
</svg>
