<?xml version="1.0" encoding="utf-8"?>
<!-- Generator: Adobe Illustrator 19.2.1, SVG Export Plug-In . SVG Version: 6.00 Build 0)  -->
<svg version="1.1" id="Layer_3" xmlns="http://www.w3.org/2000/svg" xmlns:xlink="http://www.w3.org/1999/xlink" x="0px" y="0px"
	 viewBox="0 0 800 800" style="enable-background:new 0 0 800 800;" xml:space="preserve">
<g>
	<path d="M573.6,698.2c-0.9-19.2-28.6-261.5-35.7-307.9l-0.5-3.4l-3-1.6C494.1,363.9,451,354,398.7,354
		c-54.3,0-101.7,10.5-140.9,31.3l-3,1.6l-0.5,3.4c-7,45.9-35.7,289.4-35.7,308.2c0,23.9,7.8,43.7,23.1,59.1
		c35.6,35.5,105.7,40.1,157.1,40.1c1.3,0,2.7,0,4,0c70.7-0.3,124.2-15.9,150.8-43.9C567.9,738.6,574.7,719.9,573.6,698.2z
		 M402.7,791c-84,0.4-177.4-12-177.4-92.4c0-18.3,28.5-260.4,35.6-307.2c32.3-17.1,77.3-30.5,137.7-30.5
		c59.3,0,100.3,13.4,132.6,30.5c7.1,46.7,34.7,288.9,35.6,307.2C570.2,766.2,490.4,790.6,402.7,791z"/>
	<path d="M531.2,391.4c-32.3-17.1-73.2-30.5-132.6-30.5c-60.4,0-105.4,13.4-137.7,30.5c-7.1,46.7-35.6,288.8-35.6,307.2
		c-0.1,80.3,93.3,92.8,177.4,92.4c87.7-0.4,167.5-24.8,164.2-92.4C566,680.3,538.4,438.1,531.2,391.4z M543.7,744.5
		c-24,25.3-74,39.4-141,39.7c-49.1,0.1-118.4-3.3-151.4-36.2c-12.9-12.9-19.2-29-19.2-49.4c0-18.1,27.3-249.6,35-302.8
		c36.6-18.7,80.9-28.2,131.5-28.2c48.7,0,88.9,9,126.4,28.2c7.8,53.5,34.1,284.5,35.1,303.1C561,716.7,555.4,732.1,543.7,744.5z"/>
</g>
<g>
	<path d="M436.5,707.8c-12.9,0-23.1-7.7-23.1-17.5s10.1-17.5,23.1-17.5c12.9,0,23.1,7.7,23.1,17.5S449.4,707.8,436.5,707.8z
		 M436.5,681.9c-8.3,0-14,4.5-14,8.5c0,4.5,6.6,8.5,14,8.5c7.5,0,14-4,14-8.5C450.5,686.3,444.7,681.9,436.5,681.9z"/>
</g>
<g>
	<path d="M355.8,707.8c-12.9,0-23.1-7.7-23.1-17.5s10.1-17.5,23.1-17.5c12.9,0,23.1,7.7,23.1,17.5S368.8,707.8,355.8,707.8z
		 M355.8,681.9c-8.3,0-14,4.5-14,8.5c0,4.5,6.6,8.5,14,8.5s14-4,14-8.5C369.9,686.3,364.1,681.9,355.8,681.9z"/>
</g>
<path d="M541.7,41C494.1,11.7,453.6,2.1,402.1,2.3C350.6,2.4,298.2,11.7,250.6,41c-117.1,71.9-172.9,256.3-33.3,333.6
	c6.9,3.8,15,7.4,24.1,10.8c-11.9-21-21.9-75.2,2.5-99c7.8-7.6,24.8,0.5,44.4-11.9c17.2-10.8,18.1-31.8,34.2-46.3
	c10.3-9.2,48.3-17.5,73.7-17.4c33.2,0,66.1,7.9,73.7,17.4c13.2,16.8,17,35.5,34.2,46.3c19.7,12.4,36.7,4.3,44.4,11.9
	c24.3,23.7,14.4,78,2.5,99c9.1-3.4,17.2-7,24.1-10.8C714.6,297.3,658.8,112.9,541.7,41z M316.1,222.7c-10.6,7.1-64.5-44.2-56.7-58.7
	c2.9-5.3,15.2-7.9,24.3-6.1c4.3,0.9,7.4,2.6,8.1,3.1c6.1,3.6,9.1,9.1,11.1,13.2C307.9,184.6,323.6,217.6,316.1,222.7z M476.2,222.7
	c-7.5-5,8.3-38.1,13.2-48.4c2-4.1,5-9.6,11.1-13.2c0.8-0.5,3.8-2.2,8.1-3.1c9.1-1.8,21.4,0.8,24.3,6.1
	C540.6,178.4,486.8,229.8,476.2,222.7z"/>
</svg>
