<?xml version="1.0" encoding="utf-8"?>
<!-- Generator: Adobe Illustrator 22.0.0, SVG Export Plug-In . SVG Version: 6.00 Build 0)  -->
<svg version="1.1" id="Слой_1" xmlns="http://www.w3.org/2000/svg" xmlns:xlink="http://www.w3.org/1999/xlink" x="0px" y="0px"
	 viewBox="0 0 672.1 1080" style="enable-background:new 0 0 672.1 1080;" xml:space="preserve">
<g>
	<path d="M495,64.6c-21.7-5.1-44.1-12.1-68.4-21.3c5.6-3,11.2-6.6,16.8-10.1c8.2-5.1,19.4-12.2,23.4-12.2c0.3,0.1,3.3,1.1,9.4,9.9
		c4.7,7,9.5,16.1,14.2,24.8C491.9,58.8,493.5,61.8,495,64.6z"/>
	<path d="M596.2,167.9c-14.7,25.2-44.8,34-72.8,37.1c-17.9,2-33.8,20.8-34.3,21.4c0.5-0.2,14-5.1,14,1.4c0,5.6-23.3,30.2-30.9,38.2
		c28.9-28.7,93-47.7,97.1-39.9c3.8,7.3-23.8,54.3-28.7,62.5c12-19.2,55.2-53.4,55.2-53.4c3.8,14.7-1.5,59.1-1.7,61.2
		c4.9-20,21.4-48.4,21.4-74.7c0-29.1,10.5-49.5,10.5-49.5C618.9,174.5,596.2,167.9,596.2,167.9z M650.1,156.8c0-0.1,0-0.1,0-0.1
		c0.1-0.4,0.1-0.9,0.1-1.3C650.2,155.8,650.2,156.3,650.1,156.8z M318,89.7c-3.3-0.4-7,2-7.8,7.2c-0.7,5.2,7,6.6,10.2,7
		c3.1,0.4,10.2,1.1,11-4.4C332.2,94,323.3,90.4,318,89.7z M318,89.7c-3.3-0.4-7,2-7.8,7.2c-0.7,5.2,7,6.6,10.2,7
		c3.1,0.4,10.2,1.1,11-4.4C332.2,94,323.3,90.4,318,89.7z M318,89.7c-3.3-0.4-7,2-7.8,7.2c-0.7,5.2,7,6.6,10.2,7
		c3.1,0.4,10.2,1.1,11-4.4C332.2,94,323.3,90.4,318,89.7z M318,89.7c-3.3-0.4-7,2-7.8,7.2c-0.7,5.2,7,6.6,10.2,7
		c3.1,0.4,10.2,1.1,11-4.4C332.2,94,323.3,90.4,318,89.7z M651.3,78.8c-0.2,0.1-0.4,0.1-0.6,0.2c0.3-0.1,0.5-0.2,0.8-0.2
		C651.4,78.7,651.4,78.8,651.3,78.8z M601.4,80.6c-0.2-0.1-0.5-0.1-0.7-0.2c0.5,0.1,0.9,0.3,1.4,0.4c-0.2-0.1-0.3-0.1-0.5-0.2
		C601.5,80.6,601.4,80.6,601.4,80.6z M586,80.3c0.2-0.1,0.3-0.3,0.5-0.4C586.3,80,586.2,80.1,586,80.3L586,80.3z M311.2,118.4
		c-13,0-30.5-11.1-30.5-32.1c0-21,16.1-33.8,21.5-33.8c-1.4-1.5-2.8-3-4.1-4.3c-10.1,0-40.2,21.2-33.6,57.3
		c3.8,20.4,29.2,35.7,51.9,33.5c0,0,0,0,0,0c7.3-4.8,15.6-8.9,24.3-11.7c6.2-6.6,10.6-16.3,12.2-29.6c-3.1-2.3-6.3-4.7-9.7-7.3
		C343.3,110,324.2,118.4,311.2,118.4z M310.2,96.9c-0.7,5.2,7,6.6,10.2,7c3.1,0.4,10.2,1.1,11-4.4c0.9-5.5-8.1-9.1-13.4-9.8
		C314.6,89.3,311,91.8,310.2,96.9z M291,96.9c0,0-1.4-25.6,23.3-32c-1.6-1.6-3.1-3.1-4.7-4.7c-0.4-0.4-0.8-0.8-1.2-1.2
		c-0.4-0.4-0.8-0.8-1.2-1.2h0C299.7,62.4,282.3,76.1,291,96.9z M318,89.7c-3.3-0.4-7,2-7.8,7.2c-0.7,5.2,7,6.6,10.2,7
		c3.1,0.4,10.2,1.1,11-4.4C332.2,94,323.3,90.4,318,89.7z M606.8,433c-6.8,5.1-13.7,10-20.9,14.5c-3.5,2.2-7.2,4.3-10.8,6.3
		c-3.6,2-7.4,3.9-11.1,5.5c-7.5,3.3-15.2,6.2-23,8c-7.8,1.7-15.6,2.8-23.4,2.4c-0.9,0-1.9,0.1-2.8,0.4c-3.8,1.4-5.8,5.5-4.4,9.4
		l0.2,0.7c1.4,4,2.4,8.6,3.5,13.4c1,4.7,1.9,9.4,2.6,14.2c1.5,9.5,2.6,19.3,3.5,29c1.8,19.5,2.8,39.1,3.3,58.8
		c1.3,38.7-7,77.7-20,114.7c-3.3,9.3-6.9,18.4-10.8,27.4c-1.9,4.5-4,9-6.1,13.4l-1.6,3.3l-0.3,0.6l-0.5,0.8
		c-0.2,0.4-0.6,0.9-0.9,1.9c-0.1,0.4-0.3,1.1-0.4,1.8c0,0.4,0,0.8,0,1.2c0,0.3,0.1,0.4,0.1,0.5l0.1,0.3c0.4,1.5,0.8,2.3,1.2,3
		c0.4,0.7,0.7,1.3,1,1.7l0.3,0.5l0.4,0.8l0.8,1.7c4,8.8,7.4,18.1,10.5,27.5c3.1,9.4,6,18.8,8.6,28.4c2.6,9.6,5,19.2,6.9,29
		c2,9.7,4.2,19.4,6.1,29.2l0.7,3.7l0.3,1.6l-5.2,5l-10.7,10.4l-21.4,20.9c-0.3,0.3-0.4,0.9-0.1,1.2l0,0c0.2-0.2,0.4-0.4,0.6-0.6
		c8.6-7.9,17.2-15.9,25.8-23.8c4.4-4,8.7-8.1,13.1-12.1c0.1-0.1,0.2-0.2,0.3-0.3c-14-91.8-34.1-129.4-34.1-129.4
		s44.1-77.7,44.1-162.8c0-2,0-4,0-6c0-1.4,0-2.8,0-4.1c0-1.8-0.1-3.5-0.1-5.3c0-1.5-0.1-3.1-0.1-4.6c0-1.3-0.1-2.6-0.1-3.8
		c0-0.8-0.1-1.6-0.1-2.4c0-1.2-0.1-2.3-0.1-3.4c0-0.1,0-0.3,0-0.4c-0.1-1.7-0.1-3.3-0.2-4.9c-0.2-3.7-0.4-7.3-0.7-10.8
		c-0.1-1-0.1-2-0.2-3c-0.1-0.8-0.1-1.6-0.2-2.4c-0.1-0.8-0.1-1.6-0.2-2.4c-0.1-0.8-0.1-1.5-0.2-2.3c-0.1-1.1-0.2-2.2-0.3-3.3
		c0-0.4-0.1-0.7-0.1-1.1c-0.2-1.8-0.4-3.6-0.6-5.3c-0.1-1.2-0.3-2.3-0.4-3.4c-0.1-0.8-0.2-1.6-0.3-2.3c-0.1-0.6-0.1-1.1-0.2-1.7
		c-0.1-0.8-0.2-1.6-0.3-2.3c-0.1-0.5-0.1-1-0.2-1.5c-0.1-0.9-0.2-1.8-0.4-2.6c-0.2-1.6-0.5-3.1-0.7-4.6c-0.2-1.4-0.4-2.7-0.7-4
		c-0.2-1-0.3-1.9-0.5-2.8c-0.2-0.9-0.3-1.8-0.5-2.7c0-0.1-0.1-0.3-0.1-0.4c-0.2-1-0.4-2-0.6-3c-0.2-1.1-0.4-2.1-0.7-3.1
		c-0.2-1-0.4-2-0.7-2.9c-0.6-2.3-1.1-4.4-1.6-6.2c-0.3-1.1-0.6-2.1-0.9-3c0-0.1,0-0.1-0.1-0.2c-0.1-0.4-0.3-0.9-0.4-1.3
		c-0.1-0.4-0.2-0.8-0.4-1.2c-0.1-0.4-0.2-0.7-0.3-1c-0.3-0.9-0.6-1.7-0.8-2.3c-0.1-0.1-0.1-0.3-0.1-0.4c-0.1-0.2-0.2-0.4-0.2-0.6
		c-0.2-0.5-0.3-0.7-0.3-0.7c1,0,1.9,0,2.9-0.1c0.6,0,1.2-0.1,1.8-0.1c0.2,0,0.3,0,0.5,0h0.1c0.5,0,1-0.1,1.5-0.1
		c0.4,0,0.9-0.1,1.3-0.1c0.2,0,0.4,0,0.7-0.1c0.9-0.1,1.8-0.2,2.7-0.3c0.8-0.1,1.7-0.2,2.5-0.4c0.7-0.1,1.5-0.3,2.3-0.4
		c0.4-0.1,0.8-0.1,1.2-0.2c0.9-0.2,1.7-0.4,2.6-0.6c0.7-0.2,1.5-0.4,2.2-0.6c3.1-0.8,6.3-1.8,9.4-2.9c0.7-0.3,1.5-0.5,2.2-0.8
		c0.2-0.1,0.4-0.2,0.6-0.2c0.7-0.3,1.4-0.6,2.1-0.9c2.8-1.2,5.6-2.4,8.3-3.8c1.5-0.7,2.9-1.5,4.3-2.2c0.2-0.1,0.5-0.3,0.7-0.4
		c0.8-0.4,1.6-0.9,2.5-1.4c0.1,0,0.1-0.1,0.2-0.1c0.9-0.5,1.7-1,2.6-1.5c0.7-0.4,1.3-0.8,2-1.2c2.1-1.3,4.2-2.6,6.2-4
		c0.7-0.5,1.3-0.9,2-1.4c0.4-0.2,0.7-0.5,1.1-0.7c1.3-0.9,2.6-1.9,3.9-2.8c0.8-0.6,1.6-1.2,2.4-1.8c0.9-0.7,1.8-1.4,2.6-2.1
		c0.7-0.6,1.4-1.2,2.2-1.7c0.8-0.6,1.6-1.3,2.3-1.9c0.8-0.7,1.6-1.3,2.3-2c0.8-0.7,1.5-1.3,2.3-2c0.9-0.8,1.8-1.7,2.8-2.5
		c0.2-0.1,0.3-0.3,0.5-0.5c0.7-0.6,1.4-1.2,2.1-1.9c0.2-0.1,0.3-0.2,0.4-0.4C607.7,432.8,607.2,432.7,606.8,433z M318,89.7
		c-3.3-0.4-7,2-7.8,7.2c-0.7,5.2,7,6.6,10.2,7c3.1,0.4,10.2,1.1,11-4.4C332.2,94,323.3,90.4,318,89.7z"/>
	<path d="M232.2,68.1l-7.9,10.6l-0.1,0.1C226.1,75.3,228.6,71.7,232.2,68.1z"/>
	<g>
		<path d="M291,96.9c-8.7-20.8,8.6-34.5,16.2-39.2c0.4,0.4,0.8,0.8,1.2,1.2c0.4,0.4,0.8,0.8,1.2,1.2c1.5,1.6,3.1,3.2,4.7,4.7
			C289.6,71.3,291,96.9,291,96.9z"/>
		<path d="M331.4,99.5c-0.8,5.5-7.8,4.8-11,4.4c-3.1-0.4-10.9-1.8-10.2-7c0.7-5.2,4.4-7.6,7.8-7.2C323.3,90.4,332.2,94,331.4,99.5z"
			/>
		<path d="M596.2,167.9c-14.7,25.2-44.8,34-72.8,37.1c-17.9,2-33.8,20.8-34.3,21.4c0.5-0.2,14-5.1,14,1.4c0,5.6-23.3,30.2-30.9,38.2
			c28.9-28.7,93-47.7,97.1-39.9c3.8,7.3-23.8,54.3-28.7,62.5c12-19.2,55.2-53.4,55.2-53.4c3.8,14.7-1.5,59.1-1.7,61.2
			c4.9-20,21.4-48.4,21.4-74.7c0-29.1,10.5-49.5,10.5-49.5C618.9,174.5,596.2,167.9,596.2,167.9z"/>
		<path d="M608,433.1c-0.1,0.2-0.3,0.3-0.4,0.4c-0.7,0.7-1.4,1.3-2.1,1.9c-0.2,0.2-0.3,0.3-0.5,0.5c-0.9,0.9-1.8,1.7-2.8,2.5
			c-0.8,0.7-1.5,1.3-2.3,2c-0.8,0.7-1.5,1.3-2.3,2c-0.8,0.7-1.6,1.3-2.3,1.9c-0.7,0.6-1.4,1.2-2.2,1.7c-0.9,0.7-1.8,1.4-2.6,2.1
			c-0.8,0.6-1.6,1.2-2.4,1.8c-1.3,0.9-2.6,1.9-3.9,2.8c-0.4,0.2-0.7,0.5-1.1,0.7c-0.7,0.4-1.3,0.9-2,1.4c-2,1.4-4.1,2.7-6.2,4
			c-0.7,0.4-1.3,0.8-2,1.2c-0.9,0.5-1.7,1-2.6,1.5c-0.1,0-0.1,0.1-0.2,0.1c-0.8,0.5-1.6,0.9-2.5,1.4c-0.2,0.1-0.5,0.3-0.7,0.4
			c-1.4,0.8-2.9,1.5-4.3,2.2c-2.7,1.4-5.5,2.6-8.3,3.8c-0.7,0.3-1.4,0.6-2.1,0.9c-0.2,0.1-0.4,0.2-0.6,0.2c-0.7,0.3-1.5,0.6-2.2,0.8
			c-3.1,1.1-6.2,2.1-9.4,2.9c-0.7,0.2-1.5,0.4-2.2,0.6c-0.9,0.2-1.7,0.4-2.6,0.6c-0.4,0.1-0.8,0.2-1.2,0.2c-0.7,0.1-1.5,0.3-2.3,0.4
			c-0.8,0.1-1.7,0.3-2.5,0.4c-0.9,0.1-1.8,0.2-2.7,0.3c-0.2,0-0.4,0.1-0.7,0.1c-0.4,0.1-0.9,0.1-1.3,0.1c-0.5,0.1-1,0.1-1.5,0.1
			h-0.1c-0.2,0-0.3,0-0.5,0c-0.6,0-1.2,0.1-1.8,0.1c-1,0-1.9,0.1-2.9,0.1c0,0,0.1,0.2,0.3,0.7c0.1,0.2,0.1,0.3,0.2,0.6
			c0,0.1,0.1,0.2,0.1,0.4c0.2,0.6,0.5,1.4,0.8,2.3c0.1,0.3,0.2,0.7,0.3,1c0.1,0.4,0.2,0.7,0.4,1.2c0.1,0.4,0.2,0.8,0.4,1.3
			c0,0.1,0,0.1,0.1,0.2c0.3,0.9,0.6,1.9,0.9,3c0.5,1.8,1,3.9,1.6,6.2c0.2,0.9,0.4,1.9,0.7,2.9c0.2,1,0.5,2,0.7,3.1
			c0.2,1,0.4,2,0.6,3c0,0.1,0,0.3,0.1,0.4c0.3,1.7,0.7,3.6,1,5.5c0.2,1.3,0.4,2.6,0.7,4c0.2,1.5,0.5,3,0.7,4.6
			c0.1,0.9,0.3,1.7,0.4,2.6c0.1,0.5,0.1,1,0.2,1.5c0.1,0.8,0.2,1.5,0.3,2.3c0.1,0.6,0.2,1.1,0.2,1.7c0.1,0.8,0.2,1.5,0.3,2.3
			c0.1,1.1,0.3,2.3,0.4,3.4c0.2,1.7,0.4,3.5,0.6,5.3c0.1,0.4,0.1,0.7,0.1,1.1c0.1,1.1,0.2,2.2,0.3,3.3c0.1,0.8,0.1,1.5,0.2,2.3
			c0.1,0.8,0.1,1.6,0.2,2.4c0.1,0.8,0.1,1.6,0.2,2.4c0.1,1,0.2,2,0.2,3c0.3,3.5,0.5,7.1,0.7,10.8c0.1,1.6,0.2,3.3,0.2,4.9
			c0,0.1,0,0.3,0,0.4c0.1,1.1,0.1,2.3,0.1,3.4c0,0.8,0.1,1.6,0.1,2.4c0.1,1.3,0.1,2.5,0.1,3.8c0.1,1.5,0.1,3,0.1,4.6
			c0,1.7,0.1,3.5,0.1,5.3c0,1.4,0,2.7,0,4.1c0,2,0,3.9,0,6c0,85.1-44.1,162.8-44.1,162.8s20.1,37.6,34.1,129.4
			c-0.1,0.1-0.2,0.2-0.3,0.3c-4.4,4-8.7,8.1-13.1,12.1c-8.6,7.9-17.2,15.9-25.8,23.8c-0.2,0.2-0.4,0.4-0.6,0.6l0,0
			c-0.3-0.4-0.3-0.9,0.1-1.2l21.4-20.9l10.7-10.4l5.2-5l-0.3-1.6l-0.7-3.7c-1.9-9.8-4.1-19.5-6.1-29.2c-1.9-9.7-4.3-19.4-6.9-29
			c-2.6-9.6-5.4-19-8.6-28.4c-3.1-9.4-6.5-18.6-10.5-27.5l-0.8-1.7l-0.4-0.8l-0.3-0.5c-0.2-0.4-0.6-1-1-1.7c-0.4-0.7-0.8-1.5-1.2-3
			l-0.1-0.3c0-0.1,0-0.2-0.1-0.5c-0.1-0.4-0.1-0.8,0-1.2c0.1-0.7,0.2-1.4,0.4-1.8c0.3-0.9,0.6-1.5,0.9-1.9l0.5-0.8l0.3-0.6l1.6-3.3
			c2.1-4.4,4.2-8.9,6.1-13.4c3.9-9,7.5-18.2,10.8-27.4c13.1-37,21.3-76,20-114.7c-0.5-19.7-1.5-39.3-3.3-58.8
			c-0.9-9.7-2-19.5-3.5-29c-0.8-4.8-1.6-9.5-2.6-14.2c-1.1-4.8-2.1-9.4-3.5-13.4l-0.2-0.7c-1.4-3.8,0.6-8,4.4-9.4
			c0.9-0.3,1.9-0.5,2.8-0.4c7.7,0.4,15.6-0.6,23.4-2.4c7.8-1.8,15.4-4.7,23-8c3.8-1.7,7.5-3.5,11.1-5.5c3.6-2,7.3-4.1,10.8-6.3
			c7.1-4.5,14-9.4,20.9-14.5C607.2,432.7,607.7,432.8,608,433.1z"/>
	</g>
	<g>
		<path d="M667,136.5c-0.2,0.2-0.3,0.4-0.5,0.6c0,0.1-0.1,0.1-0.1,0.2c0.4-0.4,0.7-0.9,1-1.3C667.2,136.1,667.1,136.3,667,136.5z
			 M663.4,140.6c0.2-0.2,0.4-0.4,0.5-0.5c-0.1,0.1-0.2,0.2-0.2,0.3C663.6,140.4,663.5,140.5,663.4,140.6z M619.9,86.8
			c0.4,0.1,0.9,0.3,1.3,0.4c-0.8-0.2-1.6-0.5-2.4-0.8C619.1,86.5,619.5,86.6,619.9,86.8z"/>
	</g>
	<g>
		<path d="M672.1,124.5c0-0.2,0-0.3,0-0.5c0-0.2,0-0.4-0.1-0.6c0-0.2,0-0.4-0.1-0.6c0-0.2-0.1-0.4-0.1-0.6c0-0.3-0.1-0.6-0.1-0.9
			c0-0.3-0.1-0.6-0.1-0.8c0-0.1,0-0.1,0-0.2c-0.1-0.4-0.1-0.9-0.2-1.3c-0.2-1.6-0.6-3.3-1-5.2c-0.2-0.8-0.3-1.6-0.5-2.4
			c-0.1-0.4-0.2-0.9-0.3-1.3c-0.2-0.8-0.4-1.7-0.6-2.5c-0.2-0.7-0.3-1.3-0.5-2c-0.1-0.5-0.2-1-0.4-1.5c0-0.2-0.1-0.3-0.1-0.5
			c-0.1-0.5-0.3-1-0.4-1.5c-0.1-0.3-0.2-0.7-0.3-1c-0.1-0.5-0.3-1-0.4-1.5c-0.2-0.9-0.5-1.7-0.8-2.5c-0.5-1.7-1.1-3.3-1.6-4.8
			c-0.2-0.5-0.4-0.9-0.5-1.4c-0.1-0.2-0.1-0.3-0.2-0.5c-0.2-0.6-0.5-1.2-0.7-1.7c-0.1-0.1-0.1-0.2-0.2-0.4c-0.2-0.4-0.3-0.7-0.5-1.1
			c-0.4-0.9-0.8-1.7-1.2-2.4c-0.2-0.3-0.3-0.6-0.5-0.9c-0.2-0.3-0.4-0.7-0.6-1c-0.4-0.6-0.8-1.2-1.2-1.7c-0.2-0.2-0.4-0.5-0.6-0.7
			c-0.2-0.2-0.4-0.4-0.6-0.6c-0.2-0.2-0.4-0.3-0.6-0.5c-0.2-0.2-0.5-0.3-0.7-0.5c-0.2-0.1-0.4-0.2-0.5-0.2c0,0,0,0,0,0
			c-0.2-0.1-0.4-0.1-0.5-0.2c-0.1,0-0.2-0.1-0.2-0.1c-0.2,0-0.3,0-0.4,0c-0.3,0-0.5,0-0.8,0c-0.2,0-0.3,0-0.5,0.1
			c-0.3,0-0.5,0.1-0.8,0.1c-0.4,0.1-0.7,0.1-1,0.2c-0.1,0-0.1,0-0.2,0.1c-0.3,0.1-0.5,0.2-0.8,0.2c-0.4,0.1-0.7,0.2-1,0.4
			c-2.6,1-5.1,2.7-7.5,4.4c-0.5,0.3-1,0.7-1.5,1c-2.3,1.6-4.6,3-6.8,3.8c-0.3,0.1-0.6,0.2-0.9,0.3c-0.8,0.2-1.6,0.4-2.4,0.4
			c-0.5,0-1.1-0.1-1.8-0.2c-0.3,0-0.6-0.1-1-0.2c-0.2-0.1-0.5-0.1-0.7-0.2c-0.3-0.1-0.7-0.2-1.1-0.2c-1.5-0.4-3.1-0.8-4.9-1.4
			c-0.4-0.1-0.9-0.2-1.3-0.4c-0.4-0.1-0.8-0.3-1.2-0.4c-1.5-0.5-3.1-1-4.7-1.6c-0.5-0.2-1-0.3-1.5-0.5c-2-0.7-4-1.4-6-2
			c-0.4-0.2-0.9-0.3-1.3-0.4c-0.4-0.1-0.7-0.2-1-0.3c-0.7-0.2-1.4-0.4-2-0.6c-0.5-0.2-0.9-0.3-1.4-0.4c-2.3-0.7-4.5-1.3-6.4-1.7
			c-0.8-0.2-1.5-0.3-2.2-0.4c-0.7-0.1-1.3-0.1-1.8-0.1c-0.1,0-0.2,0-0.3,0c-0.1,0-0.2,0-0.2,0c-0.1,0-0.2,0-0.4,0.1
			c-0.1,0-0.2,0.1-0.3,0.1c-0.3,0.1-0.7,0.2-1,0.4c-0.2,0.1-0.5,0.3-0.7,0.4c-0.2,0.2-0.5,0.3-0.7,0.5c-0.2,0.1-0.3,0.3-0.5,0.4
			c0,0,0,0,0,0c-0.2,0.1-0.3,0.3-0.5,0.4c-1,0.9-2.1,2.1-3.1,3.4h-0.7c0,0,0,0,0,0c-2.1,0-4.2,0-6.3-0.1c-0.2,0-0.4,0-0.6,0
			c-0.9,0-1.8,0-2.7-0.1c-1.1,0-2.2-0.1-3.3-0.1c-1.8-0.1-3.7-0.2-5.6-0.3c-3.8-0.2-7.6-0.5-11.3-0.8c-1.3-0.1-2.7-0.2-4-0.4
			c-0.3,0-0.6,0-0.9-0.1c-1.2-0.1-2.5-0.2-3.7-0.4c-1.5-0.1-3-0.3-4.4-0.5c-1.1-0.1-2.2-0.3-3.3-0.4c-0.5-0.1-1-0.1-1.5-0.2
			c-1.2-0.1-2.3-0.3-3.4-0.5c-2.8-0.4-5.6-0.8-8.3-1.3c-1-0.2-2-0.3-3-0.5c-1.7-0.3-3.4-0.6-5-0.9c-0.1,0-0.1,0-0.2,0
			c-41.7-7.7-79.9-21.2-112.9-34.8c0.5,0,1,0,1.6-0.1c-0.4,0-0.7,0.1-1.1,0.1c-0.2,0-0.4,0-0.6,0c-0.2-0.1-0.4-0.1-0.5-0.2
			c-0.5-0.2-1-0.4-1.4-0.6c-3-1.2-5.9-2.5-8.9-3.8c-1.1-0.5-2.2-0.9-3.3-1.4c-3.6-1.5-7.1-3.1-10.6-4.6c-0.1-0.1-0.2-0.1-0.4-0.2
			c-3.2-1.4-6.4-2.8-9.6-4.3c-9.9-4.4-19.8-9-29.8-13.3c-1.9-0.9-3.9-1.7-5.8-2.5c-6.8-2.9-12.9-5.4-18.5-7.3
			c-0.9-0.3-1.8-0.6-2.7-0.9c-0.9-0.3-1.7-0.6-2.6-0.8c-0.9-0.3-1.7-0.5-2.5-0.7c-0.8-0.2-1.6-0.4-2.3-0.6c0,0,0,0,0,0
			c-0.8-0.2-1.5-0.4-2.3-0.5c-1-0.2-2-0.4-3-0.6c-0.1,0-0.2,0-0.3,0c0,0-0.1,0-0.1,0c-0.9-0.1-1.8-0.2-2.7-0.3
			C293.3,0,292.6,0,292,0c-3.2,0-6.5,1.4-9.9,3.8c-0.5,0.4-1,0.7-1.5,1.1c-0.4,0.3-0.8,0.7-1.2,1c-0.1,0.1-0.2,0.2-0.3,0.3
			c-0.3,0.2-0.6,0.5-0.9,0.7c-0.3,0.3-0.7,0.6-1,0.9c-0.3,0.3-0.6,0.6-0.9,0.9c-4.7,4.6-9.6,10.7-14.8,17.7
			c-1.2,1.6-2.3,3.2-3.5,4.9c-1.7,2.3-3.3,4.6-4.9,7c-1.4,1.9-2.7,3.9-4,5.8c-1.4,2-2.7,4-4.1,6c-2,3-4.1,6-6.2,9c0,0,0,0,0,0.1
			c-0.6,0.9-1.3,1.8-1.9,2.7c-0.1,0.1-0.1,0.2-0.2,0.3c-1.4,2-2.8,4-4.3,6v0c-2.6,3.6-5.2,7.1-7.9,10.6l-0.1,0.1c0,0,0,0,0,0
			c-0.8,1-1.5,2-2.3,3c-0.1,0.1-0.2,0.2-0.2,0.3c-0.6,0.8-1.2,1.5-1.8,2.3c-0.9,1.1-1.7,2.1-2.6,3.1c-0.4,0.4-0.7,0.9-1.1,1.3
			c-0.1,0.1-0.2,0.3-0.4,0.4c-0.1,0.1-0.2,0.2-0.3,0.4c-0.1,0.1-0.1,0.1-0.2,0.2c-0.5,0.6-1.1,1.2-1.6,1.8c-0.2,0.2-0.5,0.5-0.7,0.8
			c-0.1,0.1-0.3,0.3-0.4,0.5c-0.2,0.2-0.4,0.4-0.6,0.6l-0.1,0.1h0c-0.4,0.4-0.8,0.9-1.2,1.3c-0.4,0.4-0.8,0.8-1.2,1.2
			c-0.1,0.1-0.2,0.2-0.2,0.2l-0.4,0.4c-0.2,0.2-0.4,0.4-0.5,0.5c-0.2,0.2-0.3,0.3-0.5,0.5c-0.2,0.2-0.4,0.4-0.7,0.7
			c-0.8,0.8-1.7,1.6-2.5,2.3c-0.6,0.6-1.2,1.1-1.8,1.6c-1.2,1.1-2.5,2.1-3.7,3c-0.4,0.4-0.9,0.7-1.4,1c-0.8,0.6-1.6,1.1-2.3,1.7
			c-1.7,1.1-3.4,2.3-5.2,3.4c-0.2,0.1-0.4,0.3-0.7,0.4c-0.7,0.4-1.4,0.9-2,1.3c-1.2,0.8-2.5,1.6-3.7,2.4c-0.6,0.4-1.2,0.8-1.8,1.2
			c-1.8,1.2-3.6,2.3-5.5,3.5c-0.1,0.1-0.2,0.1-0.3,0.2c-2,1.3-4,2.5-6,3.8c-1.5,1-3.1,2-4.6,2.9c-0.5,0.3-1,0.7-1.5,1
			c-8.5,5.4-17.4,11.1-26.5,17.2c-0.2,0.1-0.3,0.2-0.5,0.3c-0.4,0.2-0.7,0.5-1.1,0.7c-0.8,0.6-1.6,1.1-2.4,1.6
			c-0.8,0.5-1.5,1-2.3,1.5c-1.1,0.8-2.3,1.6-3.4,2.3c-0.6,0.4-1.1,0.8-1.7,1.2c-0.1,0.1-0.2,0.2-0.4,0.2c-1.2,0.9-2.5,1.8-3.7,2.6
			c-0.3,0.2-0.7,0.5-1,0.7c-2.8,2-5.5,4-8.3,6.1c-1.8,1.3-3.6,2.6-5.3,4c0,0-0.1,0.1-0.1,0.1c-2.2,1.7-4.3,3.3-6.5,5
			c-0.2,0.2-0.4,0.3-0.6,0.5c-2.1,1.7-4.2,3.4-6.3,5.1c-1.6,1.3-3.1,2.6-4.7,3.9c-1.5,1.3-3.1,2.6-4.6,4c-3.1,2.7-6.1,5.4-9.1,8.2
			c-1,0.9-2,1.9-3,2.8c-1.1,1.1-2.2,2.1-3.3,3.2c-3.2,3.2-6.4,6.5-9.5,9.8c-0.8,0.9-1.7,1.8-2.5,2.8c-4.2,4.6-8.2,9.4-12,14.3
			c-3.8,4.8-7.3,9.8-10.7,14.8c-0.2,0.3-0.4,0.6-0.6,0.8c-0.6,1-1.3,2-1.9,3c-0.8,1.3-1.6,2.6-2.4,3.9c-0.1,0.1-0.1,0.2-0.2,0.3
			c-0.6,0.9-1.1,1.8-1.6,2.7C11,281.5,0,315.8,0,356.5c0,120.8,88.2,245.7,88.2,420.1c0,31.5-2,60.9-5.4,87.9c0.6,0.5,1.1,1,1.6,1.5
			c7.4,6.9,14.8,13.7,22.3,20.6c9.6,8.9,19.3,17.8,28.9,26.7c3.7,3.4,7.4,6.8,11,10.2c4.1-28.8,5.1-61.5,0.6-97.4
			c0,0,53.8,71.5,65.7,158.7c4.8,4.4,9.6,8.9,14.4,13.3c9.8,9.1,19.7,18.2,29.5,27.3c5.8,5.4,11.6,10.7,17.5,16.1
			c6.2,5.7,12.4,11.4,18.6,17.2c4.9,4.5,9.7,9,14.6,13.5c1.8,1.7,3.6,3.3,5.3,4.9c0.8,0.7,1.9,2.3,3,2.7c0.6,0.2,0,0.2,0.6,0
			c0.6-0.3,1.3-1.2,1.7-1.6c2.5-2.3,4.9-4.6,7.4-6.9c8.5-7.8,17-15.7,25.4-23.5c10.1-9.3,20.2-18.6,30.2-28
			c7.8-7.2,15.5-14.3,23.3-21.5c2-1.9,4.1-3.8,6.1-5.7c24.1-91.8-16.2-183.1-16.2-183.1C50.2,876.7,91.4,564,91.4,564
			c0,131.3,105.8,197.4,177.2,198.7c22.6,0.4,42.3-3.9,58.6-7.9C224.6,745.1,220.6,661,220.6,661s56.7,109.9,173.2,56.6
			c56.9-26,93.5-126.9,23.1-218.8c-64.6,38.3-131.3-11-131.3-11s-4,99.6-88.2,92.7c-89.7-7.4-83-113.7-83-113.7
			C-24.6,350.6,73,215.8,74.6,213.7c-0.6,1.8-32.2,101,13.7,147.3c0,0,3.1-46,52-51.7c0,0-24.1,23.1-24.1,64.1
			c0,40.9,37.3,86.6,85.6,89.8c64.4,4.2,80.3-21,80.3-21s55.1,55.7,115.5,12.6c0,0-91.4-22.6-86.1-107.6c0,0,40.4,73,139.2,73
			c87.2,0,108.7-57.2,108.7-57.2s7.9,27.3-13.7,51.5c0,0,54.8,16.2,109.3-38.9c4.4-7.6,6.7-13.1,6.4-15c-1.7-10.2-21.7-49-21.7-49
			s0.5,17-34.6,21.8c-5.8,0.8-12.5,1.2-20.4,1.2c-55.7,0-82.3-25.5-82.3-25.5s-22.4,38.2-91.4,33.2c-46.8-3.3-58.1-22.7-100.5-22.7
			c-42.3,0-91.4,59.1-95.6,55c-6.1-6.1,79.1-77,102.9-92.8c23.8-15.8,7.7-48.3,7.7-48.3c21.4,12.6,20.3,32.2,20.3,32.2
			c5.2-1.8,41.3-13.1,42.7-15.8c14.4-27-3.1-53.2-3.1-53.2c28.7,15.1,28.4,48,28.4,48c21.7-3.9,48.2-16,72.5-35.4
			c22.9-18.3,28-41.4,29.7-71.5c1.6-28.3,19.1-40.2,19.7-40.6c-25.2,44.1,27,69.2,28.3,69.8c-21.5-18.9,0-38.9,0-38.9
			c0,28.4,60.9,30.5,70.4,30.5c3.5,0,9.8-2.9,16.1-7.2c0.7-0.4,1.3-0.9,2-1.4c1.3-0.9,2.6-2,3.9-3c0.5-0.4,1.1-0.9,1.6-1.3
			c0.7-0.6,1.5-1.3,2.2-1.9c0.6-0.6,1.2-1.1,1.8-1.7c0.5-0.5,1-1,1.5-1.5c0.1-0.1,0.2-0.2,0.2-0.3c0.1-0.1,0.2-0.2,0.2-0.3
			c0.1-0.1,0.2-0.2,0.2-0.3c0.4-0.4,0.7-0.7,1-1.1c0,0,0.1-0.1,0.1-0.1c0.2-0.2,0.4-0.5,0.6-0.8c0.2-0.2,0.3-0.4,0.5-0.6
			c0.1-0.1,0.1-0.1,0.1-0.2c0.2-0.2,0.4-0.4,0.5-0.6c0.1-0.2,0.3-0.3,0.4-0.5c1.4-1.8,2.5-3.6,3.3-5.3c0.2-0.4,0.4-0.8,0.5-1.2
			c0-0.1,0-0.1,0.1-0.1c0.2-0.4,0.3-0.8,0.4-1.2c0.1-0.3,0.2-0.6,0.2-0.8c0.1-0.3,0.1-0.6,0.2-0.8c0-0.3,0.1-0.5,0.1-0.8
			c0-0.3,0-0.5,0-0.8C672.1,124.8,672.1,124.7,672.1,124.5z M364.4,123.4c-7.8,0-15.8,1.5-23.6,4c-8.7,2.8-17,6.9-24.3,11.7
			c0,0,0,0,0,0c-14.9,9.8-25.3,22.5-25.3,33c0,0-53.8-14-53.8-53.7c0-40.2,39.1-60.1,39.1-79.8c0-5.5-5-7.7-2.4-10.3
			c3.7-3.6,10.7,6,15.5,10.7c1.6,1.6,4.8,5,8.7,9.2c1.3,1.4,2.6,2.8,4.1,4.3c1.6,1.7,3.3,3.4,5,5.2h0c0.4,0.4,0.8,0.8,1.2,1.2
			c0.4,0.4,0.8,0.8,1.2,1.2c1.5,1.6,3.1,3.2,4.7,4.7c3.6,3.6,7.2,7.1,10.6,10.2c6.3,5.7,12.5,10.8,18.4,15.4c3.4,2.6,6.6,5,9.7,7.3
			c15,11.1,25.8,18.3,25.8,23.9C378.8,126,370.9,123.4,364.4,123.4z M405.8,126.8c0,0,33.3-6.6,40.9-12.6c0,0-35.3-38.5-71-58.5
			c4.3,1.9,90,39.2,125.3,55.6C501.1,111.3,488.2,132.1,405.8,126.8z M614.4,120.2c-5.3,0-10.2-5.8-10.2-5.8s-5.9,3.7-5.9,7.9
			c0,4.2,4.4,9.6,11.6,9.6c7.2,0,9.1-6.5,9.1-6.5s1.6,12.8-10.5,12.8c-12.1,0-28.2-8.6-24.5-29.1c2-11,12.3-17.6,21.1-17.6
			c8.2,0,18.8,6.2,18.8,14.6C623.8,114.7,619.7,120.2,614.4,120.2z M649,134.4c-9,0-11.6-9-11.7-9.6c0.3,0.3,5,4.6,11,2.8
			c4.9-1.5,3.8-7.4,3.8-9c0,0-16.1,5.6-16.1-10.2c0-10.2,6.7-15.6,12.3-15.6c6.1,0,14.3,6.5,14.3,17
			C662.7,120.4,658.3,134.4,649,134.4z"/>
	</g>
	<g>
		<path d="M495,64.6c-21.7-5.1-44.1-12.1-68.4-21.3c5.6-3,11.2-6.6,16.8-10.1c8.2-5.1,19.4-12.2,23.4-12.2c0.3,0.1,3.3,1.1,9.4,9.9
			c4.7,7,9.5,16.1,14.2,24.8C491.9,58.8,493.5,61.8,495,64.6z"/>
		<path d="M426.6,43.3c5.6-3,11.2-6.6,16.8-10.1c8.2-5.1,19.4-12.2,23.4-12.2c0.3,0.1,3.3,1.1,9.4,9.9c4.7,7,9.5,16.1,14.2,24.8
			c1.6,3.1,3.2,6.1,4.7,8.9C473.3,59.5,450.9,52.5,426.6,43.3z"/>
	</g>
	<path d="M353,97.8c-1.6,13.3-6,23-12.2,29.6c-8.7,2.8-17,6.9-24.3,11.7c0,0,0,0,0,0c-22.7,2.2-48.1-13.1-51.9-33.5
		c-6.7-36.1,23.5-57.3,33.6-57.3c1.3,1.4,2.6,2.8,4.1,4.3c-5.4,0-21.5,12.7-21.5,33.8c0,21,17.5,32.1,30.5,32.1
		c12.9,0,32.1-8.4,32.1-27.9C346.7,93.1,349.9,95.5,353,97.8z"/>
	<path d="M625.9,172.1c0,0-10.5,20.4-10.5,49.5c0,26.2-16.5,54.7-21.4,74.7c0.2-2.1,5.5-46.5,1.7-61.2c0,0-43.2,34.2-55.2,53.4
		c4.9-8.2,32.5-55.1,28.7-62.5c-4.1-7.8-68.1,11.2-97.1,39.9c7.6-7.9,30.9-32.6,30.9-38.2c0-6.5-13.5-1.6-14-1.4
		c0.5-0.6,16.4-19.3,34.3-21.4c28-3.1,58.1-11.9,72.8-37.1C596.2,167.9,618.9,174.5,625.9,172.1z"/>
	<path d="M331.4,99.5c-0.8,5.5-7.8,4.8-11,4.4c-3.1-0.4-10.9-1.8-10.2-7c0.7-5.2,4.4-7.6,7.8-7.2C323.3,90.4,332.2,94,331.4,99.5z"
		/>
	<path d="M291,96.9c-8.7-20.8,8.6-34.5,16.2-39.2h0c0.4,0.4,0.8,0.8,1.2,1.2c0.4,0.4,0.8,0.8,1.2,1.2c1.5,1.6,3.1,3.2,4.7,4.7
		C289.6,71.3,291,96.9,291,96.9z"/>
	<path d="M608,434.3c-5.6,6.5-11.7,12.7-18.2,18.4c-6.5,5.7-13.5,11-21.1,15.6c-3.7,2.3-7.6,4.5-11.6,6.4c-4,1.9-8.2,3.7-12.4,5.2
		c-5.3,1.9-10.8,3.2-16.4,4.1c0.6,2,1.2,3.9,1.7,5.8c1.4,5,2.7,10,3.7,15c2.2,10.1,3.7,20.1,4.9,30.2c2.4,20.2,3,40.5,2.5,60.7
		c-0.4,20.6-3.4,41-7.8,60.9c-4.4,19.9-10.5,39.3-17.9,58.2c-3.7,9.4-7.7,18.7-12.1,27.8c-2.2,4.6-4.5,9.1-6.9,13.6l-1.8,3.3
		c-0.1,0.2-0.2,0.4-0.5,0.8c0.1,0.2,0.3,0.6,0.5,0.9c0.2,0.3,0.4,0.7,0.6,1.2l0.4,0.9l0.7,1.8c3.8,9.5,6.9,19.2,9.7,28.8
		c2.8,9.7,5.2,19.5,7.4,29.3c2.2,9.8,4.1,19.6,5.6,29.6c1.6,9.9,3.3,19.8,4.7,29.7l0.5,3.7l0.3,1.8c0,0.2,0.1,0.4,0.1,0.8
		c0,0.4-0.1,0.9-0.3,1.4c-0.4,0.9-0.8,1.2-1.1,1.5l-5.7,5l-11.2,9.9l-22.5,19.7c-0.4,0.3-0.9,0.3-1.2-0.1l0,0
		c-0.3-0.4-0.3-0.9,0.1-1.2l21.4-20.9l10.7-10.4l5.2-5l-0.3-1.6l-0.7-3.7c-1.9-9.8-4.1-19.5-6.1-29.2c-1.9-9.7-4.3-19.4-6.9-29
		c-2.6-9.6-5.4-19-8.6-28.4c-3.1-9.4-6.5-18.6-10.5-27.5l-0.8-1.7l-0.4-0.8l-0.3-0.5c-0.2-0.4-0.6-1-1-1.7c-0.4-0.7-0.8-1.5-1.2-3
		l-0.1-0.3c0-0.1,0-0.2-0.1-0.5c-0.1-0.4-0.1-0.8,0-1.2c0.1-0.7,0.2-1.4,0.4-1.8c0.3-0.9,0.6-1.5,0.9-1.9l0.5-0.8l0.3-0.6l1.6-3.3
		c2.1-4.4,4.2-8.9,6.1-13.4c3.9-9,7.5-18.2,10.8-27.4c13.1-37,21.3-76,20-114.7c-0.5-19.7-1.5-39.3-3.3-58.8c-0.9-9.7-2-19.5-3.5-29
		c-0.8-4.8-1.6-9.5-2.6-14.2c-1.1-4.8-2.1-9.4-3.5-13.4l-0.2-0.7c-1.4-3.8,0.6-8,4.4-9.4c0.9-0.3,1.9-0.5,2.8-0.4
		c7.7,0.4,15.6-0.6,23.4-2.4c7.8-1.8,15.4-4.7,23-8c3.8-1.7,7.5-3.5,11.1-5.5c3.6-2,7.3-4.1,10.8-6.3c7.1-4.5,14-9.4,20.9-14.5
		c0.4-0.3,0.9-0.2,1.2,0.1c0,0,0.1,0.1,0.1,0.1C608.3,433.5,608.3,434,608,434.3z"/>
	<path d="M660.2,368.3"/>
</g>
</svg>
