<?xml version="1.0" encoding="utf-8"?>
<!-- Generator: Adobe Illustrator 22.0.0, SVG Export Plug-In . SVG Version: 6.00 Build 0)  -->
<svg version="1.1" id="Слой_1" xmlns="http://www.w3.org/2000/svg" xmlns:xlink="http://www.w3.org/1999/xlink" x="0px" y="0px"
	 viewBox="0 0 741 1080" style="enable-background:new 0 0 741 1080;" xml:space="preserve">
<g>
	<g>
		<path d="M130.6,599c0.2,0,0.2,0.1,0.2,0.2c0,0-0.1,0-0.1,0.1C130.7,599.1,130.7,599,130.6,599z"/>
		<path d="M125.5,233.8c15.8,12.7,28.6,29.7,31.8,50.1c1.4,9,1.2,18.7-0.7,27.6c-1.5,6.8-4.5,13-8.6,18.6
			c-4.9,6.6-10.9,12.4-16.8,18.2c-8.3,8.1-17,16.1-24.5,25c-12.5,14.9-20.5,33-24,52c-1.2,6.4-1.9,13-2,19.6
			c-0.1,3.1-0.4,6.8,0.3,9.8c0,0.1,0,0.3,0,0.4c4.7-19.8,13.6-38.5,28.4-52.8c11.9-11.4,26.5-19.1,41.4-25.8
			c14.1-6.4,28.8-11.9,41.7-20.6c6.2-4.2,12-9.1,16.7-14.9c5.8-7.1,9.9-15.4,12.7-24.1c4.5-13.7,6.1-28.2,4.1-42.5
			c-1.6-11.9-5.6-23.4-11.1-34.2c-1.2-2.4-2.5-4.8-3.9-7.1c12.2,0,24.4,0,36.5,0c3.2,0,6.5,0,9.7,0c1,0,2.1,0,3.1,0
			c0.4,0,1.1-0.1,1.5,0c0.3,0.1,0.5,0.5,0.8,0.7c0.9,0.9,1.7,1.9,2.5,2.9c1.7,2,3.3,4,4.9,6.1c3.4,4.6,6.6,9.3,9.4,14.2
			c13.6,23.1,22,50.2,21.4,77.2c-0.2,8.5-1.6,17.1-5.1,24.8c-2.9,6.5-7.4,12.1-12.8,16.7c-11.6,9.7-26.7,14.3-41,18.2
			c-16.7,4.5-33.7,7.9-50.1,13.7c-16.6,5.9-32.4,14.5-44.2,27.8c-16.1,18.1-26.3,41-30.2,64.8c-3.3,20-2.4,40.5,1.4,60.4
			c2.3,12,5.5,24.1,10.4,35.4c0.4,0.9,0.8,1.9,1.3,2.7c-11-8.7-22-17.4-33-26.1c-11.6-9.2-23.2-18.3-34.8-27.4
			c-10.5-8.2-20.9-16.5-31.4-24.7c-7.6-5.9-15.1-11.9-22.7-17.8c-2.1-1.7-4.3-3.3-6.4-5c-0.4-0.3-2.1-1.2-2.3-1.8
			c-0.1-0.2,0.3-0.9,0.3-1.1c0.3-1,0.7-2,1-3c1.3-3.8,2.5-7.6,3.8-11.4c1.9-5.8,3.8-11.6,5.7-17.4c2.4-7.4,4.9-14.8,7.3-22.2
			c2.8-8.6,5.7-17.1,8.5-25.7c3.1-9.3,6.2-18.6,9.2-27.9c3.2-9.6,6.4-19.3,9.6-28.9c3.2-9.5,6.3-19.1,9.5-28.6c3-9,5.9-18,8.9-27
			c2.7-8.1,5.4-16.2,8-24.3c2.2-6.8,4.5-13.5,6.7-20.3c1.7-5,3.3-10,5-15c0.9-2.8,1.9-5.6,2.8-8.4c0.1-0.3,0.2-1.2,0.5-1.4
			c0.2-0.1,0.7,0,0.9,0c1.3,0,2.6,0,4,0c9.2,0.1,18.4,0.1,27.7,0.2C121.4,233.8,123.4,233.8,125.5,233.8z"/>
		<path d="M248.4,632.4c0-0.2,0.1-0.3,0.1-0.5c-0.2,0.4,0-0.5,0.1-0.7c0.2-0.8,0.4-1.6,0.6-2.4c0.8-2.9,1.7-5.8,2.7-8.6
			c3.4-9.2,7.9-18,13.6-26c7.5-10.5,17.1-19.5,28.4-25.8c14.6-8.2,31.4-11.6,48-11.3c24.8,0.4,49.2,7.9,71.8,17.7
			c3.6,1.6,7.2,3.2,10.7,4.9c-0.3,0-0.6-0.1-0.9-0.1c0.3,0.1,0.6,0.3,0.9,0.4c-3.2-0.4-6.5-0.4-9.7-0.3c-7.6,0.1-15.2,1.1-22.6,2.7
			c-10.1,2.2-20,5.9-29,10.9c-11.2,6.2-21.1,14.6-29.2,24.5c-10.4,12.6-17.7,27.5-22.7,43c-0.7,2.3-1.4,4.6-2.1,6.9
			c-3.3-4-5.8-8.7-7.9-13.5c-4.5-10.2-6.3-21.6-4.9-32.7c0.9-7.2,3.2-14.2,6.6-20.7c-4.5-0.3-9.2,0.4-13.5,1.4
			c-9.5,2.2-18.4,6.8-25.9,13.1C257.5,620.2,252.5,626,248.4,632.4z"/>
		<path d="M396,634.9c-5.8-1.8-12.1-2-18.1-1.4c-13.2,1.2-25.6,6.9-36,14.9c-9,6.9-16.7,15.4-23.4,24.5c0.1-0.2,0.3-0.8,0-0.3
			c1.5-6.5,4-12.8,6.9-18.8c6.5-13.3,15.7-25.4,27.5-34.4c16.6-12.6,37.2-17.8,57.8-17.2c3.3,0.1,6.5,0.3,9.7,0.6
			c1.7,0.2,3.4,0.4,5.1,0.6c0.4,0.1,1.5,0.1,1.7,0.3c0.2,0.2,0.1,1,0.2,1.3c0.6,5.2,0.5,10.5,0.2,15.7c-0.5,8.4-2.1,16.8-4.5,24.9
			c-7.2,23.4-22.8,42.8-43.3,56.1c-3.3,2.1-6.6,4.1-10,5.9c-2.7-9.3-3.2-19.6-2.1-29.2c1.2-10.6,4.9-21,11.6-29.5
			C383.9,643.2,389.6,638.5,396,634.9z"/>
		<path d="M392.9,768.9c2.3,4.4,4.4,8.9,6.5,13.5c5.1,11.3,9.7,22.9,13.8,34.6c5.4,15.7,10,31.8,13.1,48.2
			c3.3,17.5,5.1,35.5,4.1,53.3c-0.5,8.8-1.7,17.6-3.9,26.2c-2.2,8.9-5.6,17.3-9.5,25.5c-8,16.5-18.2,31.9-30.5,45.5
			c-10.6,11.8-22.7,22.2-35.7,31.2c-10.9,7.5-22.6,14-34.7,19.4c-8.9,4-18.1,7.4-27.4,10.1c-4.5,1.3-9.2,2.8-13.9,3.4
			c-0.2,0-0.4,0.1-0.6,0.1c2.3-2.3,4.5-4.7,6.6-7.2c5.7-6.5,10.9-13.4,15.9-20.5c7.1-10.2,13.5-20.8,19-31.9
			c6.7-13.4,12.3-27.5,16.3-41.9c4.6-16.3,7.2-33.2,7.6-50.1c0-2.2,0.1-4.4,0-6.7c-1.7,4.1-3.9,8.1-6.1,11.9
			c-5.5,9.7-11.9,18.8-19.1,27.3c-9.7,11.4-20.9,21.6-33.5,29.8c-14.9,9.7-31.6,16.5-49.2,19.6c-22,3.9-44.6,2.1-66.2-3.4
			c-3.1-0.8-6.3-1.7-9.4-2.6c2.8-1.5,5.4-3.2,8-4.9c7-4.6,13.6-9.7,20-15.1c9.3-7.9,18-16.5,25.9-25.8c9.9-11.5,18.6-23.9,26-37.2
			c8.6-15.4,15.2-31.8,19.8-48.8c0.6-2.3,1.2-4.6,1.8-7c-4.6,6.1-10.3,11.6-16.1,16.5c-13.6,11.3-29.5,19.9-46.6,24.4
			c-12.6,3.3-25.8,4.3-38.8,3.2c6.9-3,13.4-7,19.6-11.1c14.3-9.3,27.5-20.2,39.4-32.4c9.5-9.7,18.2-20.2,26-31.3
			c9.1-12.9,16.8-26.7,23.3-41.1c7.5-16.7,13.1-34.1,17.1-52c0.5-2.4,1-4.9,1.5-7.3c28.9,11.1,58.5,20.8,88.4,29.1
			C378.4,765.3,385.6,767.2,392.9,768.9z"/>
		<path d="M421.5,774.7c1.1,0.1,2.1,0.3,3,0.4C423.6,774.9,422.6,774.8,421.5,774.7z"/>
		<path d="M430.2,374.6c3.5,3.3,8.7,5.4,13.5,4.9c-4.5,2.9-10.4,4.6-14.9,0.9c-3.5-2.9-5.2-7.7-5.3-12.1c0-2.2,0.3-4.6,1.5-6.5
			C425,366.3,426.8,371.4,430.2,374.6z"/>
		<path d="M464.4,378.9c0,11.6-13.1,16.6-22.5,18.6c-4.9,1.1-10,1.7-15,1.9c-3.6,0.1-7.2,0-10.4-1.9c-7.7-4.8-10-15.6-10.9-23.9
			c-1-9.5-0.6-19.8,2.4-28.9c0.9-2.7,2.1-6,4.6-7.6c1.4-0.9,2.8-0.7,4.4-0.4c4,0.8,7.8,2.6,11.4,4.4c2.3,1.2,4.6,2.5,6.8,3.8
			c-4,1.6-7.7,4-10.7,7.1c-5.1,5.1-7.3,11.9-6.6,19.1c0.6,6,3.4,11.5,8.9,14.4c4.3,2.2,10,3.2,14.5,1.1c4.7-2.2,8.2-6.7,10.5-11.2
			c1.2-2.4,2.2-5,2.8-7.6c0.3-1.3,0.5-2.6,0.7-3.9c0.1-0.7,0.1-1.4,0.2-2.1c0.1-1-0.4-1.3-1-1.9
			C459.1,364.8,464.4,371.7,464.4,378.9z"/>
		<path d="M609.9,368.8c-0.4-4.5-2.2-8.8-4.1-12.9c-2.6-5.6-5.8-10.9-9.2-16c-5.2-7.5-11.1-15.6-18.7-20.9c-0.4-0.3-0.9-0.7-1.3-0.9
			c-0.7-0.3-0.9-0.2-1.6,0.2c-2.4,1.6-4.3,4-6,6.3c15.2,9.5,27.4,24.1,35.1,40.2c2.6,5.5,4.8,11.3,6.3,17.2
			C610.5,377.6,610.3,373.2,609.9,368.8z M448.2,327.3c-0.1,0-0.1,0.1,0.2,0.2C448.3,327.4,448.2,327.3,448.2,327.3z M447.5,326.4
			c0.1,0.1,0.3,0.4,0.4,0.5C447.7,326.7,447.6,326.5,447.5,326.4z M446.7,325.4c0.1,0.1,0.2,0.3,0.3,0.5
			C447,325.7,446.8,325.6,446.7,325.4z M444.6,322.4c0.2,0.3,0.5,0.7,0.7,1C445.1,323.1,444.9,322.8,444.6,322.4z M444,321.4
			c-0.1,0,0,0,0.1,0.1C444,321.5,444,321.5,444,321.4z M436.8,305c-0.4-2.9-0.8-5.8-1.3-8.7c0.6,3.6,1.1,7.2,1.6,10.8
			C437,306.4,436.9,305.7,436.8,305z M444,321.4c-0.1-0.2-0.2-0.3-0.4-0.5c0.1,0.2,0.3,0.4,0.4,0.6C444,321.5,444,321.5,444,321.4z
			 M444.6,322.4c-0.2-0.2,0.5,0.7,0.6,0.8c0.3,0.4,0.5,0.8,0.8,1.2C445.6,323.8,445.1,323.1,444.6,322.4z M447.5,326.4
			c-0.4-0.6-0.8-1.1-1.3-1.7c0.6,0.8,1.2,1.7,1.9,2.5C447.9,326.9,447.7,326.6,447.5,326.4z M448.2,327.3c-0.3-0.3,0.2,0.3,0.2,0.2
			C448.3,327.4,448.2,327.3,448.2,327.3z M469.5,718.5c0.1,0.2,0.2,0.3,0.3,0.5c0.4-0.5,0.9-1,1.3-1.5
			C470.5,717.8,470,718.2,469.5,718.5z M490.4,661.3c0.6,0.5,0.7-0.2,1-0.7c0.5-0.9,0.9-1.8,1.4-2.7c0.7-1.4,1.4-2.7,2.2-4.1
			c0.5-0.8,0.9-1.7,1.4-2.5c0.6-1.1,0.7-2,0.9-3.2C494.9,652.4,492.6,656.9,490.4,661.3z M616.4,404.3c-3.9-0.2-7.8-0.3-11.7-0.4
			c0.1,0.6,0.7,0.3,1.2,0.4c0.6,0,1.2,0,1.7,0c1.1,0,2.3,0.1,3.4,0.1c1.1,0,2.2,0.1,3.3,0.1C614.7,404.5,616.6,404.8,616.4,404.3z
			 M506.6,685.9c0.4-0.5,0.7-1.2,1-1.8C507.2,684.7,506.9,685.3,506.6,685.9z M507.9,683.5c1-1.7,2-3.5,2.9-5.3
			C509.9,680,508.9,681.7,507.9,683.5z M515.5,670c0,0,0,0.1-0.1,0.1c0.1-0.1,0.1-0.2,0.1-0.3C515.6,669.9,515.5,670,515.5,670z
			 M529.6,645.9c1.2-2,2.4-4,3.7-6C532.1,641.9,530.8,643.9,529.6,645.9z M535.3,636.6c0.5-0.7,0.9-1.5,1.4-2.2
			C536.2,635.1,535.8,635.8,535.3,636.6z M539.5,629.9c-0.4,0.6-0.7,1.1-1,1.7c0.6-0.9,1.2-1.9,1.8-2.8
			C540,629.1,539.7,629.5,539.5,629.9z M552.3,610c0.4-0.6,0.9-1.3,1.3-1.9C553.1,608.7,552.7,609.4,552.3,610z M557.4,602.3
			c0.3-0.5,0.7-0.9,1-1.4C558.1,601.4,557.8,601.9,557.4,602.3z M572.1,581.6c0.9-1.2,1.8-2.5,2.7-3.7
			C573.9,579.1,572.9,580.4,572.1,581.6z M565.4,590.8c0.9-1.3,1.8-2.5,2.7-3.8c-0.2,0-1.1,1.5-1.2,1.7
			C566.4,589.4,565.9,590.1,565.4,590.8z M714.8,615.7c-0.1,0.5-0.2,0.9-0.3,1.4C714.6,616.6,714.7,616.1,714.8,615.7z M713.7,620.9
			c0.2-0.8,0.6-1.9,0.6-2.7C714.1,619.1,713.9,620,713.7,620.9z M713.6,515.5c0.5,0.8,0.9,1.6,1.3,2.5
			C714.5,517.1,714,516.3,713.6,515.5z M715.1,614.2 M715.3,612.6 M715.6,610.9c-0.1,0.6-0.2,1.1-0.3,1.7c0.2-1.1,0.4-2.3,0.6-3.4
			C715.8,609.8,715.7,610.4,715.6,610.9z M716.1,521c0.5,1.5,1,3.1,1.5,4.8C717.2,524.1,716.7,522.5,716.1,521z M716.8,603.1
			c-0.2,1.3-0.4,2.6-0.6,4c0.2-1.5,0.5-3.1,0.7-4.6C716.9,602.7,716.9,602.9,716.8,603.1z M717.5,598c-0.1,1.2-0.3,2.4-0.5,3.6
			c0.2-1.4,0.4-2.7,0.5-4.1C717.6,597.8,717.5,597.9,717.5,598z M719.2,534.1c-0.1,0.2,0,0.3,0.1,0.4
			C719.2,534.4,719.2,534.2,719.2,534.1z M719.1,583.9c-0.2,2.1-0.4,4.2-0.6,6.2c0.3-2.7,0.6-5.4,0.8-8.1
			C719.2,582.6,719.2,583.2,719.1,583.9z M719.3,534.6c0.1,0.6,0.1,1.1,0.2,1.7C719.4,535.7,719.4,535.2,719.3,534.6z M719.5,579.2
			c0,0.6-0.1,1.2-0.1,1.8c0.1-1.2,0.2-2.5,0.3-3.8C719.6,577.9,719.6,578.6,719.5,579.2z M719.7,538 M719.9,573.6
			c-0.1,1.2-0.2,2.5-0.3,3.7c0.1-1.6,0.2-3.1,0.3-4.7C720,572.9,719.9,573.2,719.9,573.6z M720.1,570.1c0,0.8-0.1,1.6-0.1,2.4
			c0.1-1.2,0.1-2.4,0.2-3.6C720.2,569.3,720.2,569.7,720.1,570.1z M720.3,545.9c0,0.4,0,0.9,0.1,1.3
			C720.3,546.7,720.3,546.3,720.3,545.9z M720.1,542.8c0.1,1,0.1,2,0.2,3C720.2,544.9,720.2,543.8,720.1,542.8z M720.4,548.3
			c-0.1,0.1-0.1,0.3,0,0.3C720.4,548.6,720.4,548.5,720.4,548.3z M720.4,548.7c0,0.6,0,1.2,0.1,1.8
			C720.5,549.9,720.4,549.3,720.4,548.7z M720.5,550.5 M720.5,550.6c0,0.1,0,0.1,0,0.2C720.5,550.7,720.5,550.6,720.5,550.6
			C720.5,550.5,720.5,550.6,720.5,550.6z M720.5,553.4c0,0.5,0,1.1,0,1.6C720.5,554.5,720.6,553.9,720.5,553.4z M720.5,561
			c0-0.5,0-1,0-1.5C720.5,560,720.5,560.5,720.5,561z M720.4,563.5c0-0.8,0.1-1.7,0.1-2.5C720.4,561.9,720.4,562.7,720.4,563.5z
			 M459.7,231.6c0.1,0.5,0.2,1,0.3,1.5C459.9,232.6,459.8,232.1,459.7,231.6z M451.1,195.8c0.8,2.5,1.5,4.9,2.2,7.5
			C452.7,200.7,451.9,198.2,451.1,195.8z M443.5,174.8c1.1,2.6,2.1,5.2,3.2,7.9C445.6,180,444.6,177.3,443.5,174.8z M433,153.1
			c1.2,2.2,2.5,4.5,3.6,6.9C435.4,157.7,434.2,155.4,433,153.1z M432.3,279c-0.3-1.5-0.6-3.1-1-4.6c0.4,1.7,0.6,3.5,1.1,5.2
			C432.4,279.4,432.3,279.2,432.3,279z M422.2,238.7c1.1,3.8,2.2,7.6,3.3,11.5C424.5,246.3,423.3,242.5,422.2,238.7z M420.4,233.1
			c-0.5-1.6-1-3.2-1.6-4.8c1.2,3.5,2.3,6.9,3.3,10.4C421.6,236.8,421.1,235,420.4,233.1z M400.4,413.6c-0.2-0.1-0.3-0.3-0.5-0.4
			c0.4,0.4,0.7,0.7,1.1,1.1C400.8,414,400.6,413.8,400.4,413.6z M395.3,336.4c-0.1,0.2-0.2,0.6-0.3,0.9
			C395.1,337,395.2,336.7,395.3,336.4z M391.3,350.3c-0.1,0.2-0.1,0.5-0.2,0.7c0.2-0.7,0.3-1.4,0.5-2
			C391.5,349.4,391.4,349.9,391.3,350.3z M390.6,353c-0.5,2.3-1,4.5-1.5,6.8c0.6-2.9,1.2-5.9,2-8.8
			C390.9,351.7,390.8,352.3,390.6,353z M386.3,340.5c0.2-0.1,0.5-0.2,0.7-0.3C386.8,340.3,386.5,340.4,386.3,340.5z M382.4,233.2
			c0,3-0.2,6-0.6,9C382.2,239.2,382.6,236.1,382.4,233.2z M381.7,343c0.1,0,0.2-0.1,0.3-0.2C381.9,342.9,381.8,343,381.7,343z
			 M381.6,343c-0.4,0.2-0.8,0.5-1.2,0.7C380.8,343.5,381.3,343.3,381.6,343z M380.3,250.1c0.4-1.4,0.7-2.7,0.9-4.1
			C380.9,247.4,380.6,248.8,380.3,250.1z M373.8,347.9c-0.1,0.1-0.3,0.2-0.4,0.3c0.3-0.2,0.6-0.4,0.8-0.6
			C374.1,347.8,373.9,347.9,373.8,347.9z M372.5,267.1c0.8-1.1,1.5-2.2,2.2-3.4C373.9,264.9,373.2,266,372.5,267.1z M372.9,521.5
			c0,0,0.2,0.2,0.1,0.1C372.9,521.6,372.9,521.5,372.9,521.5z M368.7,271.9c0.9-1,1.8-2.1,2.6-3.1
			C370.4,269.8,369.6,270.9,368.7,271.9z M368.9,517.8 M368.2,517.2 M365.2,514.1c0.2,0.2,0.5,0.5,0.7,0.8
			C365.7,514.6,365.4,514.4,365.2,514.1z M363.8,355.6c-0.1,0.1-0.1,0.1-0.2,0.2C363.6,355.7,363.7,355.7,363.8,355.6
			C363.8,355.6,363.8,355.6,363.8,355.6z M362.5,511.3c-0.1,0,0,0,0.1,0.1C362.6,511.4,362.6,511.4,362.5,511.3z M361.6,510.3
			c-0.1-0.1-0.1-0.1-0.2-0.2c0.3,0.4,0.6,0.7,1,1.1C362.1,510.9,361.9,510.6,361.6,510.3z M360.6,509.2c-0.1-0.1-0.1-0.1-0.2-0.2
			c0.3,0.4,0.7,0.7,1,1.1C361.2,509.8,360.9,509.5,360.6,509.2z M359.6,359.4c0.3-0.3,0.6-0.6,0.9-0.9
			C360.2,358.8,359.9,359.1,359.6,359.4z M359.7,508.1c-0.1-0.1-0.2-0.2-0.2-0.3c0.3,0.4,0.7,0.8,1,1.2
			C360.2,508.7,359.9,508.4,359.7,508.1z M357.6,505.7c-0.1-0.1-0.2-0.2-0.3-0.3c0.3,0.4,0.7,0.8,1,1.2
			C358.1,506.3,357.9,506,357.6,505.7z M354.5,501.9c-0.1-0.1-0.2-0.2-0.2-0.3c0.2,0.4,0.6,0.8,0.9,1.2
			C355,502.5,354.8,502.2,354.5,501.9z M353.5,500.5c-0.6-0.7-1.1-1.5-1.7-2.3c0.7,1,1.4,2,2.2,2.9
			C353.8,501,353.6,500.8,353.5,500.5z M351.3,497.7c-0.1-0.2-0.3-0.3-0.4-0.5c0.3,0.4,0.5,0.7,0.8,1.1
			C351.6,498.1,351.5,497.9,351.3,497.7z M350.6,368.8c-0.2,0.2-0.4,0.5-0.6,0.7c0.3-0.3,0.6-0.7,0.9-1
			C350.8,368.6,350.7,368.7,350.6,368.8z M349.2,494.7c-0.3-0.4-0.6-0.8-0.9-1.3c0.6,0.9,1.2,1.8,1.8,2.6
			C349.8,495.6,349.5,495.1,349.2,494.7z M345.2,376c-0.2,0.3-0.5,0.7-0.7,1c0.2-0.3,0.5-0.8,0.7-1.1
			C345.2,375.9,345.2,375.9,345.2,376z M339.9,521.1c-0.4,0-0.9,0-1.4,0.1c1.3-0.2,2.7-0.2,4-0.3C341.7,520.9,340.8,521,339.9,521.1
			z M337.1,389.7c0.2-0.5,0.5-1,0.7-1.5C337.6,388.8,337.4,389.3,337.1,389.7z M336.8,390.5C336.8,390.5,336.8,390.6,336.8,390.5
			c0.1-0.1,0.3-0.6,0.4-0.8C337,390,336.9,390.3,336.8,390.5z M335.3,469.6c-0.1-0.2-0.1-0.3-0.2-0.5c0.2,0.6,0.5,1.2,0.8,1.8
			C335.6,470.5,335.5,470,335.3,469.6z M331,457.2c-0.1-0.3,0.2,0.6,0.2,0.8c0.1,0.5,0.3,0.9,0.4,1.4
			C331.4,458.6,331.2,457.9,331,457.2z M330.1,409.4c-0.1,0.4-0.2,0.7-0.3,1.1c0.1-0.7,0.3-1.3,0.5-2
			C330.3,408.8,330.2,409.1,330.1,409.4z M328.5,522.5c0.5-0.1,0.9-0.2,1.4-0.2C329.5,522.3,329,522.4,328.5,522.5z M329.8,452.8
			c-0.1-0.3-0.1-0.6-0.2-0.9c0,0.5,0.3,1.2,0.4,1.7C330,453.3,329.9,453,329.8,452.8z M329,414.9c0,0.2-0.1,0.5-0.1,0.7
			c0.1-0.6,0.2-1.2,0.4-1.9C329.1,414.1,329,414.5,329,414.9z M329.4,451c-0.3-1.4-0.6-2.9-0.8-4.4c0.2,1.7,0.6,3.4,1,5.1
			C329.5,451.5,329.5,451.2,329.4,451z M328.2,443.6c0-0.1,0-0.3-0.1-0.4C328.1,443.1,328.2,444.2,328.2,443.6z M328.3,419
			c-0.5,3.4-0.9,6.8-0.9,10.2c0-3.7,0.5-7.5,1-11.2C328.4,418.3,328.3,418.6,328.3,419z M327.7,438.9c0,0.8,0.1,1.6,0.2,2.4
			C327.8,440.5,327.7,439.7,327.7,438.9z M327.5,436.6c0-0.3,0-0.7-0.1-1c0,0.6,0.1,1.3,0.1,1.9
			C327.5,437.1,327.5,436.8,327.5,436.6z M326,522.9c-0.2,0-0.4,0.1-0.6,0.1c0.7-0.1,1.4-0.3,2.1-0.4
			C327,522.7,326.5,522.8,326,522.9z M327.4,430.2c-0.1,1.3-0.1,2.6,0,3.9C327.4,432.8,327.4,431.5,327.4,430.2z M317.4,524.8
			c-0.6,0.1-1.1,0.3-1.7,0.5c1.1-0.3,2.3-0.6,3.4-0.9C318.5,524.5,318,524.7,317.4,524.8z M315.5,331.4c0,0.2,0,0.3,0,0.5
			C315.5,331.7,315.5,331.6,315.5,331.4z M315.5,334.4c0,0.9,0,1.8,0,2.6c0-0.7,0.1-1.4,0.1-2.2
			C315.5,334.7,315.5,334.1,315.5,334.4z M315.5,334.2 M315.5,334.1C315.5,334.2,315.5,334.2,315.5,334.1
			C315.5,334.1,315.5,334.1,315.5,334.1z M315.5,328c0-0.4,0-0.8-0.1-1.3c0,1,0.1,2,0.1,3C315.5,329.2,315.5,328.6,315.5,328z
			 M315.4,338.6c0-0.5,0.1-1.1,0.1-1.6C315.5,337.6,315.4,338.1,315.4,338.6z M315.1,343.8c0,0.6-0.1,1.3-0.2,1.9
			c0.1-1.1,0.3-2.2,0.3-3.3C315.2,342.8,315.1,343.3,315.1,343.8z M315.2,341.9c0,0.2,0,0.3,0,0.5c0-0.3,0.1-0.7,0.1-1
			C315.3,341.5,315.2,341.7,315.2,341.9z M315.3,323.3c-0.1-0.9-0.1-1.8-0.2-2.6C315.1,321.1,315,323,315.3,323.3z M314.7,347.9
			c-0.1,1.1-0.3,2.2-0.4,3.3c0.4-1.8,0.5-3.7,0.7-5.5C314.9,346.4,314.8,347.1,314.7,347.9z M314.7,316.2c-0.1-0.6-0.1-1.3-0.2-1.9
			c0.1,0.9,0.2,1.9,0.3,2.9C314.7,316.8,314.7,316.5,314.7,316.2z M312.8,358.7c0,0.1,0,0.2-0.1,0.4c0.1-0.6,0.3-1.2,0.4-1.8
			C313.1,357.8,313,358.3,312.8,358.7z M310.5,367.3c0.3-0.7,0.5-1.4,0.7-2.1C310.9,365.9,310.7,366.6,310.5,367.3z M311.1,365.2
			c0.2-0.7,0.4-1.4,0.6-2.1C311.5,363.8,311.3,364.5,311.1,365.2z M309.1,371c0.3-0.7,0.5-1.4,0.8-2.1
			C309.6,369.6,309.3,370.3,309.1,371z M308.6,372.3c0.1-0.3,0.2-0.5,0.3-0.8C308.8,371.7,308.7,372,308.6,372.3z M308.3,372.9
			c0.1-0.2,0.2-0.5,0.3-0.7C308.5,372.5,308.4,372.7,308.3,372.9z M306.6,376.5c-0.3,0.6-0.6,1.3-1,1.9c0.6-0.7,1.1-1.9,1.4-2.7
			C306.9,375.9,306.8,376.2,306.6,376.5z M305.4,378.9c-0.1,0.2-0.2,0.3-0.3,0.5c0.2-0.2,0.4-0.6,0.5-0.9
			C305.5,378.6,305.4,378.7,305.4,378.9z M291.4,535.2c0.6-0.3,1.1-0.6,1.6-0.9C292.4,534.6,291.9,534.9,291.4,535.2z M292.1,395.1
			 M288.8,397.6c-0.6,0.4-1.2,0.8-1.8,1.2c0.8-0.5,1.6-1,2.3-1.6C289.2,397.4,289,397.5,288.8,397.6z M283.7,400.9
			c-0.7,0.4-1.5,0.9-2.2,1.2c0.8-0.4,1.7-0.9,2.5-1.4C283.9,400.8,283.8,400.8,283.7,400.9z M281.1,402.3c-0.8,0.4-1.5,0.8-2.3,1.2
			c0.9-0.4,1.8-0.9,2.7-1.3C281.3,402.2,281.2,402.3,281.1,402.3z M280.6,542.1c-0.5,0.4-0.9,0.7-1.4,1.1c0.8-0.6,1.6-1.2,2.4-1.8
			C281.3,541.6,280.9,541.9,280.6,542.1z M270,551.1c-0.4,0.4-0.8,0.8-1.2,1.2c0.6-0.6,1.2-1.2,1.8-1.8
			C270.4,550.7,270.2,550.9,270,551.1z M264,409.4c1.8-0.6,3.6-1.3,5.4-1.9C267.6,408.1,265.8,408.8,264,409.4z M265.4,555.9
			c0,0-0.1,0.1-0.1,0.1c0.1-0.1,0.2-0.3,0.3-0.4C265.5,555.8,265.5,555.9,265.4,555.9z M263.2,558.4c-0.2,0.3-0.4,0.5-0.6,0.8
			C262.6,559.1,263.4,558.1,263.2,558.4z M257.3,411.6c0.7-0.2,1.5-0.4,2.2-0.7C258.8,411.1,258.1,411.3,257.3,411.6z M257,411.6
			c-0.8,0.3-1.7,0.5-2.6,0.8c0.9-0.3,1.8-0.6,2.7-0.8C257.1,411.6,257,411.6,257,411.6z M251.1,470.7c0.7-0.5,1.3-0.9,1.9-1.2
			C252.4,469.8,251.8,470.2,251.1,470.7z M235.8,417.9c-0.9,0.3-1.8,0.5-2.7,0.8c1.8-0.5,3.6-1.1,5.4-1.6
			C237.6,417.4,236.7,417.6,235.8,417.9z M236.5,483.5c-0.1,0.1-0.2,0.3-0.3,0.4c0.2-0.2,0.4-0.4,0.5-0.6
			C236.6,483.4,236.5,483.4,236.5,483.5z M227.2,495.4c-0.2,0.4-0.5,0.7-0.7,1.1c0.4-0.6,0.7-1.1,1.1-1.7
			C227.5,495,227.3,495.2,227.2,495.4z M224.4,499.9c-0.1,0.2-0.2,0.4-0.3,0.5c0.4-0.6,0.8-1.3,1.1-1.9
			C225,499,224.7,499.4,224.4,499.9z M222.4,503.6c-0.3,0.6-0.7,1.2-1,1.9c0.5-0.7,0.7-1.5,1.1-2.2
			C222.5,503.4,222.5,503.5,222.4,503.6z M219,469.1c-0.3,0.1-0.7,0.2-1,0.3c0.5-0.1,1-0.3,1.6-0.4C219.3,469,219.2,469,219,469.1z
			 M218.1,513c-0.1,0.4-0.3,0.8-0.4,1.2C217.8,513.8,218.1,513,218.1,513z M215.8,424.6c-0.4,0.2-0.9,0.3-1.3,0.5
			c0.7-0.3,1.5-0.6,2.2-0.8C216.4,424.4,216.1,424.5,215.8,424.6z M216.4,517.8c-0.3,0.8-0.5,1.6-0.8,2.5c0.3-1,0.6-2,0.9-3
			C216.5,517.5,216.5,517.6,216.4,517.8z M214.9,523c0,0.1-0.1,0.3-0.1,0.4c0.2-0.6,0.3-1.2,0.5-1.8
			C215.1,522.1,215,522.5,214.9,523z M213.9,527c0,0.2-0.1,0.4-0.1,0.6c0.1-0.6,0.3-1.2,0.4-1.8C214,526.2,213.9,526.6,213.9,527z
			 M212.5,534c0-0.3,0.2-0.7,0.2-1C212.6,533.3,212.6,533.6,212.5,534z M212.5,534.1c-0.2,1-0.3,2-0.4,3
			C212.2,536.2,212.5,535,212.5,534.1z M212,538.2c-0.2,2-0.4,3.9-0.5,5.9c0.1-1.1,0.1-2.2,0.2-3.2
			C211.7,540.4,211.7,538.4,212,538.2z M211.4,557.7c0-0.2,0-0.3,0-0.5c0,5.4,0.8,11,1.7,16.3c0.6,3.6,1.3,7.3,2.2,10.9
			c2.5,10.6,5.9,21,10,31c1.1,2.8,2.3,5.6,3.6,8.3c0.7,1.5,1.3,2.9,2,4.4c0.3,0.7,0.7,1.5,1.1,2.2c0.2,0.5,1,1.5,1,2c0,0,0,0,0,0
			c0.1-3.1,0.7-6.4,1.3-9.5c0.8-4.7,1.9-9.4,3.2-14c2.7-9.7,6.3-19.1,10.9-28c2.6-5,5.5-10,8.8-14.6
			C241.7,564.3,226.4,561.4,211.4,557.7z M211.3,546.4c0,0.6,0,1.2-0.1,1.9c0-0.4,0-0.8,0-1.2C211.3,546.9,211.3,546.1,211.3,546.4z
			 M211.2,549.7c0,1.1,0,2.3,0,3.4c0-1.4,0-2.9,0-4.3C211.2,549.1,211.2,549.4,211.2,549.7z M210.9,471.8c-0.1,0.1-0.3,0.1-0.4,0.2
			C211,471.8,211.2,471.7,210.9,471.8z M205.7,474.3c0.4-0.2,0.8-0.4,1.2-0.6C206.5,473.9,206.1,474.1,205.7,474.3z M203.4,430
			c-0.1,0.1-0.2,0.1-0.3,0.2c0.4-0.2,0.8-0.4,1.2-0.6C204,429.7,203.7,429.9,203.4,430z M187,440.4c0.3-0.3,0.7-0.5,1-0.8
			C187.7,439.9,187.3,440.2,187,440.4z M181.9,445c0.3-0.3,0.7-0.6,1-0.9C182.6,444.3,182.2,444.7,181.9,445z M180,498.5
			c0,0.1-0.1,0.1-0.1,0.2c0.2-0.3,0.4-0.7,0.7-1C180.4,497.9,180.2,498.2,180,498.5z M177.6,502.4c0.2-0.3,0.4-0.7,0.6-1
			C178,501.7,177.8,502.1,177.6,502.4z M177.3,450.1c-0.1,0.2-0.3,0.4-0.4,0.5c0.2-0.2,0.4-0.4,0.5-0.7
			C177.4,450,177.3,450,177.3,450.1z M177,503.4c-0.1,0.3-0.3,0.5-0.4,0.8c0.2-0.3,0.4-0.7,0.6-1C177.1,503.3,177.1,503.3,177,503.4
			z M176.2,505.1c-0.1,0.1-0.1,0.3-0.2,0.4c0.2-0.4,0.4-0.8,0.6-1.2C176.4,504.5,176.3,504.8,176.2,505.1z M175.3,506.7
			c-0.1,0.2-0.2,0.3-0.3,0.5c0.3-0.6,0.6-1.2,0.9-1.7C175.7,505.9,175.5,506.3,175.3,506.7z M173,511.6c0,0.1-0.1,0.2-0.1,0.3
			c0.1-0.1,0.1-0.3,0.2-0.4C173.1,511.5,173.1,511.5,173,511.6z M171.1,516.2c0,0.1,0,0.1-0.1,0.2c0.2-0.5,0.4-1,0.6-1.4
			C171.5,515.4,171.3,515.8,171.1,516.2z M170.6,460.1c-0.1,0.1-0.1,0.3-0.2,0.4c0.2-0.3,0.3-0.7,0.5-1
			C170.8,459.7,170.7,459.9,170.6,460.1z M168.9,522.7c-0.3,1.1-0.6,2.1-0.9,3.2c0.4-1.3,0.7-2.6,1.2-3.9
			C169.1,522.3,169,522.5,168.9,522.7z M166.7,531.2c-0.2,0.5-0.2,1.1-0.3,1.6c0.2-0.7,0.3-1.4,0.5-2.1
			C166.8,530.8,166.7,531,166.7,531.2z M165.9,535.3c0,0.3-0.1,0.6-0.1,0.9c0.1-0.1,0.2-0.9,0.2-1.1
			C165.9,535.2,165.9,535.2,165.9,535.3z M165.6,536.9C165.6,537,165.6,537,165.6,536.9C165.6,537,165.6,536.8,165.6,536.9z
			 M163.9,527.2c0.1,0.7,0.2,1.5,0.4,2.2C164.1,528.7,164,528,163.9,527.2z M162.9,520.7c0.1,0.7,0.1,1.4,0.3,2.1
			C163.1,522.1,163,521.4,162.9,520.7z M163.2,481.9c0,0.1,0,0.3-0.1,0.4c0.1-0.3,0.1-0.6,0.2-0.9
			C163.2,481.5,163.2,481.7,163.2,481.9z M162.4,516.7c0-0.3-0.1-0.7-0.1-1c0,0.6,0.1,1.2,0.2,1.8
			C162.5,517.2,162.5,516.9,162.4,516.7z M162.2,514.7c-0.1-1.5-0.3-3-0.4-4.5c0.1,1.8,0.2,3.7,0.5,5.5
			C162.3,515.3,162.3,515,162.2,514.7z M161.6,503.9c0,2,0.1,4.1,0.3,6.2C161.7,508,161.6,505.9,161.6,503.9z M609.9,751.9
			c-7,5-13.8,10.4-21.5,14.3c-3.5,1.8-7.2,3.2-11.1,4c-4,0.8-8.1,0.8-12.2,0.4c-6.8-0.7-13.3-2.7-19.6-5.4c-6.8-2.9-13.5-5.9-21-6
			c-4-0.1-8.1,1.1-11.9,2.2c-0.8,0.2-2.1,0.4-2.7,0.9c-0.2,0.1-0.4,0.1-0.6,0.2c0.1,0.4,0.2,0.8,0.2,1.1c0.1,0.6,0.2,1.1,0.3,1.7
			c0.4,2.4,0.8,4.9,1.2,7.3c1.2,8.5,1.7,17.1,1.6,25.6c-0.2,14.9-2.5,29.7-6.6,43.9c-4.3,15-10.7,29.3-18.8,42.6
			c14.2-8.3,26.9-19.2,37.3-31.9c4.1-5,7.4-10.3,10.9-15.8c2.5-3.9,4.9-7.8,7.4-11.8c2,12.5,4.8,25.2,5.3,37.9
			c1,25.1-6.1,49.8-18.3,71.6c-7.4,13.2-16.5,25.3-26.7,36.4c32.2-6.8,62.7-23,81.7-50.6c7.1-10.3,12.7-22,15.5-34.2
			c1-4.5,1.5-9.1,2.2-13.6c1.1-7.7,2.3-15.5,3.4-23.2c3.7,9.9,7.4,19.7,11.2,29.6c7.1,18.7,11.3,38.3,9.9,58.4
			c-0.7,10.1-2.7,20.2-6.1,29.8c13.7-12,25.4-26.6,33.4-43c7.7-15.7,11.9-32.9,12.8-50.4c0.9-17.5-1.9-35-7.9-51.5
			c-5.3-14.5-12.9-28.1-22-40.5c-7.3-9.9-15.5-19.2-24.5-27.6C611.6,753.5,610.7,752.7,609.9,751.9z"/>
		<path d="M162.1,513.3c-0.1-0.5-0.1-1.1-0.1-1.6C162,512.2,162.1,512.8,162.1,513.3z"/>
		<path d="M162.2,514.7c-0.1-0.4-0.1-0.9-0.1-1.3C162.2,513.8,162.2,514.2,162.2,514.7z"/>
		<path d="M163.2,481.9c0,0.1,0,0.3-0.1,0.4C163.1,482.1,163.1,482,163.2,481.9z"/>
		<path d="M163.2,522.8c-0.1-0.7-0.2-1.4-0.3-2.1C163,521.4,163.1,522.1,163.2,522.8z"/>
		<path d="M164.2,529.5c-0.2-0.7-0.3-1.5-0.4-2.2C164,528,164.1,528.7,164.2,529.5z"/>
		<path d="M166.6,531.5c-0.1,0.4-0.2,0.9-0.3,1.3C166.4,532.4,166.5,531.9,166.6,531.5z"/>
		<path d="M166.7,531.2c0.1,0.2,0,0.3-0.1,0.3C166.7,531.4,166.7,531.3,166.7,531.2z"/>
		<path d="M168.7,463.9c-0.1,0.2-0.2,0.5-0.3,0.7C168.4,464.4,168.7,464,168.7,463.9z"/>
		<path d="M169,463.2c-0.1,0.2-0.2,0.4-0.3,0.7C168.8,463.6,168.9,463.4,169,463.2z"/>
		<path d="M170.9,459.5c-0.2,0.3-0.4,0.7-0.5,1C170.6,460.2,170.7,459.8,170.9,459.5z"/>
		<path d="M171.6,515c-0.2,0.4-0.3,0.9-0.5,1.3C171.3,515.8,171.5,515.4,171.6,515z"/>
		<path d="M173.1,511.4"/>
		<path d="M175.9,505.5c-0.2,0.4-0.4,0.8-0.6,1.2C175.5,506.3,175.7,505.9,175.9,505.5z"/>
		<path d="M177.2,503.2c0,0.2,0,0.2-0.1,0.2C177.1,503.3,177.1,503.3,177.2,503.2z"/>
		<path d="M177.3,450.1c-0.1,0.2-0.3,0.4-0.4,0.5C177,450.4,177.2,450.2,177.3,450.1z"/>
		<path d="M178.2,501.4c-0.2,0.3-0.4,0.7-0.6,1C177.8,502.1,178,501.7,178.2,501.4z"/>
		<path d="M180.6,497.6c-0.2,0.3-0.4,0.6-0.6,0.8C180.2,498.2,180.4,497.9,180.6,497.6z"/>
		<path d="M204.3,429.6c-0.4,0.2-0.8,0.4-1.2,0.6C203.5,430,203.9,429.8,204.3,429.6z"/>
		<path d="M206.9,473.7c-0.4,0.2-0.8,0.4-1.2,0.6C206.1,474.1,206.5,473.9,206.9,473.7z"/>
		<path d="M211.3,548.8c0,1.4,0,2.9,0,4.3C211.2,551.6,211.2,550.2,211.3,548.8z"/>
		<path d="M211.3,555.6C211.3,555.6,211.3,555.7,211.3,555.6C211.3,555.6,211.3,555.6,211.3,555.6z"/>
		<path d="M211.3,546.3c0,0.7,0,1.3-0.1,2C211.3,547.6,211.3,546.9,211.3,546.3z"/>
		<path d="M211.4,557.7c-0.2,0-0.2-0.1,0-0.5C211.4,557.4,211.4,557.6,211.4,557.7z"/>
		<path d="M211.7,540.6c-0.1,1.2-0.2,2.3-0.3,3.5C211.5,542.9,211.6,541.8,211.7,540.6z"/>
		<path d="M212,538.2c-0.1,0.8-0.2,1.6-0.3,2.4C211.8,539.8,211.9,539,212,538.2z"/>
		<path d="M212.2,536.2c0,0.3-0.1,0.6-0.1,0.9C212.1,536.8,212.2,536.5,212.2,536.2z"/>
		<path d="M212.5,534.1c0,0.3-0.1,0.6-0.1,1C212.4,535,212.4,534.2,212.5,534.1z"/>
		<path d="M212.7,533c0,0.3-0.1,0.7-0.2,1C212.6,533.6,212.6,533.3,212.7,533z"/>
		<path d="M214.1,525.9c-0.1,0.6-0.3,1.2-0.4,1.8C213.9,527.1,214,526.4,214.1,525.9z"/>
		<path d="M215.2,521.6c-0.2,0.6-0.3,1.2-0.5,1.8C214.9,522.8,215.1,522.2,215.2,521.6z"/>
		<path d="M216.6,517.3c-0.3,1-0.6,2-0.9,3C215.9,519.3,216.2,518.3,216.6,517.3z"/>
		<path d="M216.7,424.3c-0.7,0.3-1.5,0.6-2.2,0.8C215.1,424.7,216,424.5,216.7,424.3z"/>
		<path d="M218.2,513c-0.1,0.4-0.3,0.8-0.4,1.2C217.8,513.7,218,513.3,218.2,513z"/>
		<path d="M221.5,505.4"/>
		<path d="M222.4,503.6c-0.3,0.6-0.6,1.2-0.9,1.8C221.8,504.8,222.1,504.1,222.4,503.6z"/>
		<path d="M224.3,500.2c-0.1,0.1-0.1,0.2-0.2,0.3C224.1,500.2,224.2,500.1,224.3,500.2z"/>
		<path d="M225.2,498.5c-0.3,0.5-0.6,1.1-1,1.6C224.6,499.6,224.9,499,225.2,498.5z"/>
		<path d="M227.2,495.4c-0.2,0.4-0.5,0.7-0.7,1.1C226.7,496.1,227,495.7,227.2,495.4z"/>
		<path d="M236.5,483.5c-0.1,0.1-0.2,0.3-0.3,0.4C236.2,483.6,236.3,483.5,236.5,483.5z"/>
		<path d="M257.2,411.6c-0.9,0.2-1.8,0.6-2.7,0.8C255.3,412.1,256.3,411.8,257.2,411.6z"/>
		<path d="M263.3,558.3"/>
		<path d="M265.6,555.7c0,0.2-0.1,0.2-0.2,0.2C265.5,555.9,265.5,555.8,265.6,555.7z"/>
		<path d="M269.4,407.5c-1.8,0.7-3.6,1.3-5.4,1.9C265.8,408.8,267.6,408.1,269.4,407.5z"/>
		<path d="M270.6,550.5c-0.6,0.6-1.2,1.2-1.8,1.8C269.4,551.7,270,551.1,270.6,550.5z"/>
		<path d="M281.6,541.4c-0.8,0.6-1.6,1.2-2.4,1.8C280,542.6,280.8,542,281.6,541.4z"/>
		<path d="M281.4,402.1c-0.9,0.5-1.8,0.9-2.7,1.3C279.6,403.1,280.5,402.6,281.4,402.1z"/>
		<path d="M284,400.7c-0.8,0.5-1.7,0.9-2.5,1.4C282.3,401.7,283.2,401.2,284,400.7z"/>
		<path d="M289.4,397.2c-0.7,0.6-1.5,1.1-2.3,1.6C287.9,398.3,288.6,397.8,289.4,397.2z"/>
		<path d="M292.2,395"/>
		<path d="M293,534.3c-0.5,0.3-1.1,0.6-1.6,0.9C291.9,534.9,292.4,534.6,293,534.3z"/>
		<path d="M306.9,376c-0.3,0.7-0.6,1.3-1,1.9C306.2,377.3,306.5,376.7,306.9,376z"/>
		<path d="M313,358c-0.1,0.4-0.2,0.7-0.3,1.1C312.8,358.8,312.9,358.4,313,358z"/>
		<path d="M314.8,346.8c-0.1,0.6-0.1,1.2-0.2,1.8C314.7,348,314.8,347.4,314.8,346.8z"/>
		<path d="M319.1,524.4c-1.1,0.3-2.3,0.6-3.4,0.9C316.8,525,318,524.6,319.1,524.4z"/>
		<path d="M327.4,430.1"/>
		<path d="M327.4,428.6c0,0.2,0,0.4,0,0.6C327.4,429,327.4,428.8,327.4,428.6z"/>
		<path d="M327.5,522.6c-0.7,0.1-1.4,0.3-2.1,0.4C326.1,522.8,326.8,522.8,327.5,522.6z"/>
		<path d="M327.5,437.4c0-0.6-0.1-1.2-0.1-1.9C327.5,436.1,327.5,436.8,327.5,437.4z"/>
		<path d="M327.9,422.2c-0.2,2.1-0.4,4.2-0.5,6.4C327.5,426.5,327.6,424.3,327.9,422.2z"/>
		<path d="M328.2,443.8"/>
		<path d="M328.3,419c-0.1,1.1-0.3,2.2-0.4,3.2C328,421.1,328.1,420.1,328.3,419z"/>
		<path d="M329.2,450c-0.2-0.8-0.3-1.7-0.5-2.5C328.8,448.3,329,449.1,329.2,450z"/>
		<path d="M329.6,451.7c-0.1-0.6-0.3-1.2-0.4-1.7C329.3,450.5,329.5,451.1,329.6,451.7z"/>
		<path d="M329.9,522.2c-0.5,0.1-0.9,0.1-1.4,0.2C329,522.4,329.5,522.3,329.9,522.2z"/>
		<path d="M330,453.6c-0.1-0.5-0.3-1.1-0.4-1.6C329.8,452.5,329.9,453.1,330,453.6z"/>
		<path d="M331.4,458.7c-0.2-0.5-0.3-1-0.5-1.6C331.1,457.7,331.2,458.2,331.4,458.7z"/>
		<path d="M335.8,470.9c-0.3-0.6-0.5-1.2-0.8-1.8C335.3,469.7,335.6,470.3,335.8,470.9z"/>
		<path d="M337.1,389.7c-0.1,0.3-0.3,0.5-0.4,0.8C336.9,390.3,337,390,337.1,389.7z"/>
		<path d="M337.9,388.3c-0.2,0.5-0.5,1-0.7,1.5C337.4,389.3,337.6,388.8,337.9,388.3z"/>
		<path d="M342.5,520.9c-1.3,0.1-2.7,0.2-4,0.3C339.8,521,341.2,521,342.5,520.9z"/>
		<path d="M345.3,375.9"/>
		<path d="M349.5,495.1c-0.1-0.1-0.2-0.3-0.3-0.4C349.3,494.7,349.4,494.8,349.5,495.1z"/>
		<path d="M350.9,368.5c0,0.2-0.1,0.3-0.3,0.3C350.7,368.7,350.8,368.6,350.9,368.5z"/>
		<path d="M351.8,498.3c-0.2-0.2-0.3-0.4-0.4-0.6C351.5,497.9,351.6,498.1,351.8,498.3z"/>
		<path d="M353,500c-0.2-0.3-0.4-0.6-0.6-0.9C352.6,499.4,352.8,499.7,353,500z"/>
		<path d="M354,501.2c-0.2-0.2-0.4-0.4-0.5-0.6C353.6,500.7,353.8,501,354,501.2z"/>
		<path d="M355.2,502.8c-0.2-0.3-0.5-0.6-0.7-0.9C354.8,502.2,355,502.5,355.2,502.8z"/>
		<path d="M358.4,506.6c-0.3-0.3-0.5-0.6-0.8-0.9C357.9,506,358.1,506.3,358.4,506.6z"/>
		<path d="M360.4,509c-0.3-0.3-0.5-0.6-0.8-0.9C359.9,508.4,360.2,508.7,360.4,509z"/>
		<path d="M360.5,358.5c-0.3,0.3-0.6,0.6-0.9,0.9C359.9,359.1,360.2,358.8,360.5,358.5z"/>
		<path d="M361.4,510.1c-0.3-0.3-0.5-0.6-0.8-0.9C360.9,509.5,361.2,509.8,361.4,510.1z"/>
		<path d="M362.4,511.2c-0.3-0.3-0.5-0.6-0.8-0.9C361.8,510.6,362.1,510.9,362.4,511.2z"/>
		<path d="M362.7,511.5c0,0-0.1-0.1-0.1-0.1C362.6,511.3,362.6,511.3,362.7,511.5z"/>
		<path d="M363.8,355.6c-0.1,0.1-0.1,0.1-0.2,0.2C363.6,355.7,363.7,355.6,363.8,355.6z"/>
		<path d="M365.9,514.9c-0.2-0.2-0.5-0.5-0.7-0.8C365.4,514.3,365.7,514.6,365.9,514.9z"/>
		<path d="M374.2,347.7c-0.3,0.2-0.6,0.4-0.8,0.6C373.7,348,373.9,347.8,374.2,347.7z"/>
		<path d="M381.6,343c0,0.1-1.1,0.7-1.2,0.7C380.8,343.5,381.2,343.3,381.6,343z"/>
		<path d="M382,342.8c-0.1,0.1-0.2,0.1-0.3,0.2C381.8,343,381.9,342.9,382,342.8z"/>
		<path d="M387,340.1c-0.2,0.1-0.4,0.2-0.7,0.3C386.5,340.4,386.8,340.3,387,340.1z"/>
		<path d="M395.3,336.4"/>
		<path d="M432.4,279.6c0-0.2-0.1-0.4-0.1-0.5C432.5,279,432.5,279.2,432.4,279.6z"/>
		<path d="M437.1,307.1c-0.2-1.3-0.4-2.5-0.5-3.8C436.8,304.5,436.9,305.8,437.1,307.1z"/>
		<path d="M464.4,378.9c0,11.6-13.1,16.6-22.5,18.6c-4.9,1.1-10,1.7-15,1.9c-3.6,0.1-7.2,0-10.4-1.9c-7.7-4.8-10-15.6-10.9-23.9
			c-1-9.5-0.6-19.8,2.4-28.9c0.9-2.7,2.1-6,4.6-7.6c1.4-0.9,2.8-0.7,4.4-0.4c4,0.8,7.8,2.6,11.4,4.4c2.3,1.2,4.6,2.5,6.8,3.8
			c-3.9,1.6-7.6,4-10.6,6.9c-5,5-7.3,11.5-6.8,18.6c0.5,6.1,3.1,11.8,8.6,14.9c3.9,2.2,9.4,3.3,13.8,1.7c4.9-1.8,8.5-6.2,11-10.6
			c2.6-4.7,4.1-10.1,4.3-15.4C459.7,365.9,464.4,372.1,464.4,378.9z"/>
		<g>
			<path d="M610.4,382c-5-19.1-15.9-36.5-30.8-49.4c-3.3-2.9-6.9-5.6-10.6-7.9c1.7-2.3,3.6-4.7,6-6.3c0.7-0.4,0.9-0.6,1.6-0.2
				c0.5,0.2,1,0.6,1.4,0.9c3.5,2.5,6.5,5.7,9.3,8.8c4.6,5.2,8.7,10.9,12.4,16.8c3.4,5.5,6.5,11.2,8.6,17.3
				C610.4,368.4,610.5,375.3,610.4,382z"/>
			<path d="M616.4,404.3c-3.9-0.2-7.8-0.3-11.7-0.4c0.1,0.6,0.7,0.3,1.2,0.4c0.6,0,1.2,0,1.7,0c1.1,0,2.3,0.1,3.4,0.1
				c1.1,0,2.2,0.1,3.3,0.1C614.7,404.5,616.6,404.8,616.4,404.3z M616.4,404.3c0.1,0,0.1-0.1,0.1-0.3
				C616.5,404.1,616.5,404.2,616.4,404.3z"/>
		</g>
		<path d="M427.9,615.8c-0.2,11.1-2.2,22.2-5.8,32.6c-5.1,14.8-13.7,28.3-25,39.3c-8.1,7.8-17.4,14.3-27.3,19.6
			c-2.7-9.3-3.2-19.6-2-29.2c1.3-10.7,5-21,11.8-29.5c4.6-5.7,10.4-10.4,16.7-13.9c-5-1.7-10.6-2-15.8-1.7
			c-13.6,0.7-26.4,6.1-37.3,14.1c-9.7,7.1-17.6,16-24.7,25.6c0.7-3,1.7-6,2.7-8.9c2.6-7.2,6-14.1,10.1-20.5
			c5.5-8.6,12.3-16.5,20.3-22.8c9.8-7.7,21.3-13.1,33.4-15.8c7.4-1.7,14.9-2.4,22.5-2.4c4.3,0,8.6,0.2,12.9,0.7
			c1.1,0.1,2.3,0.2,3.4,0.4c0.6,0.1,3.1,0.1,3.5,0.5c0.2,0.2,0.1,0.9,0.1,1.1c0.1,1,0.2,2.1,0.3,3.1
			C427.9,610.6,428,613.2,427.9,615.8z"/>
		<path d="M424.5,579.7c-4.3-0.6-8.9-0.4-13.2-0.2c-7.8,0.4-15.5,1.6-23.1,3.5c-9.8,2.5-19.3,6.4-28,11.7
			c-10.6,6.4-19.9,14.7-27.6,24.4c-9.8,12.4-16.7,26.7-21.5,41.7c-0.7,2.2-1.3,4.4-2,6.6c-3.3-4-5.9-8.8-7.9-13.5
			c-4.5-10.3-6.3-21.6-4.8-32.7c0.9-7,3.1-14.4,6.7-20.6c-4.1-0.3-8.4,0.3-12.4,1.1c-9.7,2-18.9,6.5-26.6,12.8
			c-2.9,2.3-5.5,4.9-8,7.6c-1.4,1.5-2.6,3.1-3.9,4.6c-1.3,1.7-2.9,3.5-3.8,5.4c0.8-4.1,2.1-8.1,3.6-12c3.4-9.2,8-18.1,13.7-26.1
			c7.5-10.5,17.1-19.5,28.4-25.8c14.6-8.1,31.2-11.4,47.8-11.2c24.8,0.4,49.2,7.9,71.8,17.7C417.3,576.3,420.9,578,424.5,579.7z"/>
		<g>
			<path d="M667,872c-1.1,28-10.8,54.8-28.4,76.7c-5.4,6.7-11.4,13-17.9,18.6c6.7-18.8,7.9-39.1,4.5-58.8
				c-2.7-15.5-8.6-30-14.1-44.6c-1.8-4.8-3.6-9.6-5.4-14.4c-1,6.6-1.9,13.2-2.9,19.9c-0.7,5.1-1.3,10.3-2.3,15.3
				c-2.2,10.9-6.9,21.4-12.7,30.9c-8.4,13.8-19.9,25.6-33.3,34.6c-15.5,10.5-33.3,17.1-51.6,21c17.9-19.4,32.5-42.2,39.9-67.7
				c3.4-11.7,5.2-23.9,5.2-36.1c0-8.1-1.1-16-2.4-24c-1-6.1-2-12.2-3-18.3c-4.2,6.6-8.2,13.2-12.5,19.8
				c-4.9,7.6-11.3,14.5-17.9,20.7c-7.7,7.3-16.1,13.7-25.3,19c12.5-20.5,20.9-43.5,24.1-67.4c1.8-13.9,1.9-28,0.2-42
				c-0.5-4-1.1-7.9-1.8-11.8c0,0-0.3-1-0.2-1.1c0.1-0.2,1.4-0.5,1.7-0.5c0.9-0.3,1.8-0.6,2.7-0.8c1.8-0.5,3.5-1,5.3-1.3
				c6.5-1.3,13-0.1,19.1,2.2c5.2,2,10.2,4.5,15.5,6.2c6.3,2,13.1,3,19.7,2.6c6.9-0.5,13.3-3.3,19.1-6.8c3-1.8,6-3.8,8.8-5.8
				c1.3-1,2.7-1.9,4-2.9c0.9-0.7,3.9-3.5,4.8-3.2c0.6,0.2,1.4,1.3,1.9,1.7c0.7,0.7,1.4,1.3,2.1,2c1.4,1.4,2.8,2.7,4.2,4.1
				c3.1,3.1,6.1,6.4,9,9.7c6.6,7.6,12.7,15.8,18,24.4c12.7,20.6,20.9,43.9,21.8,68.2C667.1,865.5,667.1,868.8,667,872z"/>
		</g>
		<path d="M516.5,668.3c0.3-0.6,0.7-1.1,1-1.7C517.1,667.2,516.8,667.7,516.5,668.3z M517.4,666.6c0.3-0.6,0.7-1.2,1-1.8
			C518.1,665.4,517.8,666,517.4,666.6z M714.8,615.7c-0.1,0.5-0.2,0.9-0.3,1.4C714.6,616.6,714.7,616.1,714.8,615.7z M713.7,620.9
			c0.2-0.8,0.6-1.9,0.6-2.7C714.1,619.1,713.9,620,713.7,620.9z M713.6,515.5c0.5,0.8,0.9,1.6,1.3,2.5
			C714.5,517.1,714,516.3,713.6,515.5z M715.1,614.2 M715.3,612.6 M715.6,610.9c-0.1,0.6-0.2,1.1-0.3,1.7c0.2-1.1,0.4-2.3,0.6-3.4
			C715.8,609.8,715.7,610.4,715.6,610.9z M716.1,521c0.5,1.5,1,3.1,1.5,4.8C717.2,524.1,716.7,522.5,716.1,521z M716.8,603.1
			c-0.2,1.3-0.4,2.6-0.6,4c0.2-1.5,0.5-3.1,0.7-4.6C716.9,602.7,716.9,602.9,716.8,603.1z M717.5,598c-0.1,1.2-0.3,2.4-0.5,3.6
			c0.2-1.4,0.4-2.7,0.5-4.1C717.6,597.8,717.5,597.9,717.5,598z M719.2,534.1c-0.1,0.2,0,0.3,0.1,0.4
			C719.2,534.4,719.2,534.2,719.2,534.1z M719.1,583.9c-0.2,2.1-0.4,4.2-0.6,6.2c0.3-2.7,0.6-5.4,0.8-8.1
			C719.2,582.6,719.2,583.2,719.1,583.9z M719.3,534.6c0.1,0.6,0.1,1.1,0.2,1.7C719.4,535.7,719.4,535.2,719.3,534.6z M719.5,579.2
			c0,0.6-0.1,1.2-0.1,1.8c0.1-1.2,0.2-2.5,0.3-3.8C719.6,577.9,719.6,578.6,719.5,579.2z M719.7,538 M719.9,573.6
			c-0.1,1.2-0.2,2.5-0.3,3.7c0.1-1.6,0.2-3.1,0.3-4.7C720,572.9,719.9,573.2,719.9,573.6z M720.1,570.1c0,0.8-0.1,1.6-0.1,2.4
			c0.1-1.2,0.1-2.4,0.2-3.6C720.2,569.3,720.2,569.7,720.1,570.1z M720.3,545.9c0,0.4,0,0.9,0.1,1.3
			C720.3,546.7,720.3,546.3,720.3,545.9z M720.1,542.8c0.1,1,0.1,2,0.2,3C720.2,544.9,720.2,543.8,720.1,542.8z M720.4,548.7
			c0-0.1,0-0.2,0-0.3c0,0.7,0,1.4,0.1,2.2C720.5,549.9,720.4,549.3,720.4,548.7z M720.5,550.5 M720.5,550.6c0,0.1,0,0.1,0,0.2
			C720.5,550.7,720.5,550.6,720.5,550.6C720.5,550.5,720.5,550.6,720.5,550.6z M720.5,553.4c0,0.5,0,1.1,0,1.6
			C720.5,554.5,720.6,553.9,720.5,553.4z M720.5,561c0-0.5,0-1,0-1.5C720.5,560,720.5,560.5,720.5,561z M720.4,563.5
			c0-0.8,0.1-1.7,0.1-2.5C720.4,561.9,720.4,562.7,720.4,563.5z M728.6,622.3c0.6,0.4,1.2,0.9,1.8,1.4
			C729.9,623.2,729.3,622.7,728.6,622.3z M723.2,488.4c0.7,0.9,1.4,1.8,2,2.7C724.6,490.2,723.9,489.3,723.2,488.4z M712.6,481
			c1.1,0.4,2.2,0.8,3.2,1.4C714.8,481.9,713.7,481.4,712.6,481z M709.9,480.3c0.9,0.2,1.8,0.4,2.6,0.7
			C711.7,480.7,710.8,480.5,709.9,480.3z"/>
		<path d="M709,479.8c-0.3,0-1.2-4.5-1.4-5c-0.5-2-1-4-1.6-6c-0.3-1.1-0.4-2.3-1.2-3.1c-1.6-1.5-3.6-2.7-5.4-3.9
			c-7.3-5-14.9-9.7-22.4-14.5c-8.8-5.6-17.6-11.1-26.4-16.8c-5.4-3.5-11.3-6.8-16.2-11c-0.7-0.6-0.9-1.1-1.3-1.9
			c-1.4-2.8-2.8-5.7-4.5-8.4c-1.2-1.9-2.1-3.7-4.5-4.1c-4.2-0.6-8.5-0.6-12.7-0.8c-1.1,0-2.3-0.1-3.4-0.1c-0.7,0-1.3,0-2-0.1
			c-0.5,0-1.4,0.2-1.5-0.4c4.6,0.1,9.2,0.2,13.8,0.5c1.9,0.1,3.9,0.2,5.8,0.4c0.9,0.1,1.6,0.2,2.3,0.9c2,2,3.3,5,4.6,7.5
			c0.9,1.7,1.6,3.9,2.8,5.4c1.2,1.5,3.2,2.5,4.7,3.6c3.1,2.2,6.3,4.2,9.5,6.3c8.6,5.6,17.4,11.1,26,16.6c7.9,5,15.9,10,23.7,15.3
			c2.2,1.4,4.4,2.9,6.4,4.5c0.4,0.3,0.8,0.6,1.1,1c0.6,1.1,0.8,2.8,1.1,4c0.5,1.9,1,3.7,1.5,5.6C708.3,476.9,708.7,478.4,709,479.8z
			"/>
		<g>
			<path d="M714.9,518c-0.4-0.9-0.9-1.7-1.3-2.5C714,516.3,714.5,517.1,714.9,518z"/>
			<path d="M717.6,525.8c-0.4-1.7-0.9-3.3-1.5-4.8C716.7,522.5,717.2,524.1,717.6,525.8z"/>
			<path d="M714.2,618.8c0-0.1,0-0.2,0.1-0.3c-0.2,0.8-0.3,1.6-0.5,2.4C713.9,620.2,714,619.5,714.2,618.8z"/>
			<path d="M714.8,615.6c-0.1,0.5-0.2,1-0.3,1.5C714.5,616.8,714.6,615.8,714.8,615.6z"/>
			<path d="M715.3,612.7c-0.1,0.5-0.1,1.1-0.3,1.7C715,613.8,715.2,613.2,715.3,612.7z"/>
			<path d="M719.3,534.6c0-0.2-0.1-0.3-0.1-0.5C719.2,534.3,719.3,534.5,719.3,534.6z"/>
			<path d="M719.5,536.3c-0.1-0.5-0.1-1.1-0.2-1.7C719.4,535.2,719.4,535.7,719.5,536.3z"/>
			<path d="M719.8,539.2c0-0.4-0.1-0.8-0.1-1.2C719.8,538.3,719.8,539,719.8,539.2z"/>
			<path d="M720.2,543.9c0,0.7,0.1,1.3,0.1,2c0-1-0.1-2-0.2-3C720.1,543.2,720.2,543.5,720.2,543.9z"/>
			<path d="M720.4,547.2c-0.1-0.4-0.1-0.9-0.1-1.3C720.3,546.3,720.3,546.7,720.4,547.2z"/>
			<path d="M720.4,548.7c-0.1-0.1-0.1-0.2,0-0.3C720.4,548.5,720.4,548.6,720.4,548.7z"/>
			<path d="M720.4,548.7c0,0.6,0.1,1.2,0.1,1.8C720.4,549.9,720.4,549.3,720.4,548.7z"/>
			<path d="M720.5,550.5c0,0.1,0,0.1,0,0.2C720.4,550.7,720.4,550.6,720.5,550.5z"/>
			<path d="M720.5,550.5"/>
			<path d="M720.5,551.7c0,0.3,0,0.6,0,1c0-0.6,0-1.3,0-1.9C720.5,551.1,720.5,551.4,720.5,551.7z"/>
			<path d="M715.6,610.9c0.2-1.2,0.4-2.3,0.6-3.5c-0.2,1.7-0.9,3.5-0.9,5.2C715.2,612.4,715.6,611.2,715.6,610.9z"/>
			<path d="M717.5,598c0.1-0.5,0.1-1,0.2-1.5c-0.4,3.5-0.9,7.1-1.5,10.6C716.7,604.1,717.2,601.1,717.5,598z"/>
			<path d="M717.9,595.5c0.2-1.5,0.3-2.9,0.5-4.4C718.2,592.5,718.1,594,717.9,595.5z"/>
			<path d="M719.1,583.9c0.1-0.6,0.1-1.3,0.2-1.9c0.3,0.4-0.3,3.3-0.4,3.9c-0.1,1.4-0.3,2.9-0.5,4.3
				C718.7,588,718.9,585.9,719.1,583.9z"/>
			<path d="M720.1,570.1c0-0.8,0.1-1.6,0.1-2.4c0,4.4-0.5,8.9-0.9,13.3C719.7,577.4,719.9,573.7,720.1,570.1z"/>
			<path d="M720.3,565.9c0-0.6,0-1.2,0.1-1.8C720.4,564.7,720.4,565.3,720.3,565.9z"/>
			<path d="M720.5,560c0-0.2,0-0.4,0-0.5c0,1.3,0,2.7-0.1,4C720.4,562.4,720.5,561.2,720.5,560z"/>
			<path d="M720.5,555.6c0,1.2,0.1,2.4,0,3.6C720.5,558,720.5,556.8,720.5,555.6z"/>
			<path d="M720.5,553.7c0,0.4,0,0.8,0,1.3c0-0.5,0-1.1,0-1.6C720.5,553.5,720.5,553.6,720.5,553.7z"/>
			<path d="M443.8,379.4c-4.5,2.9-10.4,4.6-14.9,0.9c-3.5-2.9-5.2-7.7-5.3-12.1c0-2.2,0.3-4.6,1.5-6.5c-0.1,4.6,1.7,9.5,5,12.7
				C433.6,377.8,438.9,379.9,443.8,379.4z"/>
			<path d="M455.3,361.1c-0.2,5.8-1.9,11.5-4.9,16.5c1.6-2.6,2.8-5.5,3.6-8.4c0.4-1.5,0.7-3,0.9-4.6c0.1-0.8,0.2-1.6,0.2-2.4
				c0.1-1.1-0.3-1.4-1-2.2C454.6,360.3,454.9,360.7,455.3,361.1z"/>
			<path d="M161.7,495.4c0,0.2,0,0.3,0,0.5c0-0.6,0-1.2,0.1-1.8C161.7,494.5,161.7,495,161.7,495.4z M161.6,503.9
				c0,2,0.1,4.1,0.3,6.2C161.7,508,161.6,505.9,161.6,503.9z M162.4,516.7c0-0.3-0.1-0.7-0.1-1c0,0.6,0.1,1.2,0.2,1.8
				C162.5,517.2,162.5,516.9,162.4,516.7z M162.2,514.7c-0.1-1.5-0.3-3-0.4-4.5c0.1,1.8,0.2,3.7,0.5,5.5
				C162.3,515.3,162.3,515,162.2,514.7z M163.2,481.9c0,0.1,0,0.3-0.1,0.4c0.1-0.3,0.1-0.6,0.2-0.9
				C163.2,481.5,163.2,481.7,163.2,481.9z M165.6,536.9C165.6,537,165.6,537,165.6,536.9C165.7,537,165.7,537,165.6,536.9z
				 M163.9,527.2c0.1,0.7,0.2,1.5,0.4,2.2C164.1,528.7,164,528,163.9,527.2z M162.9,520.7c0.1,0.7,0.1,1.4,0.3,2.1
				C163.1,522.1,163,521.4,162.9,520.7z M170.6,460.1c-0.1,0.1-0.1,0.3-0.2,0.4c0.2-0.3,0.3-0.7,0.5-1
				C170.8,459.7,170.7,459.9,170.6,460.1z M177.3,450.1c-0.1,0.2-0.3,0.4-0.4,0.5c0.2-0.2,0.4-0.4,0.5-0.7
				C177.4,450,177.3,450,177.3,450.1z M177.6,502.4c0.2-0.3,0.4-0.7,0.6-1C178,501.7,177.8,502.1,177.6,502.4z M187,440.4
				c0.3-0.3,0.7-0.5,1-0.8C187.7,439.9,187.3,440.2,187,440.4z M203.4,430c-0.1,0.1-0.2,0.1-0.3,0.2c0.4-0.2,0.8-0.4,1.2-0.6
				C204,429.7,203.7,429.9,203.4,430z M205.7,474.3c0.4-0.2,0.8-0.4,1.2-0.6C206.5,473.9,206.1,474.1,205.7,474.3z M211.2,549.7
				c0,1.1,0,2.3,0,3.4c0-1.4,0-2.9,0-4.3C211.2,549.1,211.2,549.4,211.2,549.7z M230.3,627c0.8,1.8,1.7,3.6,2.6,5.4
				C232.1,630.6,231.1,628.8,230.3,627z M222.4,608.1c0.3,0.9,0.7,1.9,1.1,2.8C223.1,610,222.8,609.1,222.4,608.1z M221.4,605.3
				c0.3,0.9,0.7,1.9,1,2.8C222.1,607.2,221.7,606.3,221.4,605.3z M211.4,557.7c0-0.2,0-0.3,0-0.5c0,3.5,0.5,7.2,0.9,10.7
				C211.9,564.5,211.6,561.1,211.4,557.7z M214.2,579.8c0-0.2-0.1-0.5-0.1-0.7c0,0.4,0.1,0.7,0.2,1.1
				C214.3,580,214.2,579.9,214.2,579.8z M215,583.3c0.2,0.7,0.3,1.5,0.5,2.2C215.3,584.8,215.1,584.1,215,583.3z M211.3,546.4
				c0,0.6,0,1.2-0.1,1.9c0-0.4,0-0.8,0-1.2C211.3,546.9,211.3,546.1,211.3,546.4z M212,538.2c-0.2,2-0.4,3.9-0.5,5.9
				c0.1-1.1,0.1-2.2,0.2-3.2C211.7,540.4,211.7,538.4,212,538.2z M212.5,534c0-0.3,0.2-0.7,0.2-1C212.6,533.3,212.6,533.6,212.5,534
				z M212.5,534.1c-0.2,1-0.3,2-0.4,3C212.2,536.2,212.5,535,212.5,534.1z M213.9,527c0,0.2-0.1,0.4-0.1,0.6
				c0.1-0.6,0.3-1.2,0.4-1.8C214,526.2,213.9,526.6,213.9,527z M214.9,523c0,0.1-0.1,0.3-0.1,0.4c0.2-0.6,0.3-1.2,0.5-1.8
				C215.1,522.1,215,522.5,214.9,523z M215.8,424.6c-0.4,0.2-0.9,0.3-1.3,0.5c0.7-0.3,1.5-0.6,2.2-0.8
				C216.4,424.4,216.1,424.5,215.8,424.6z M217.1,515.8c-0.1,0.4-0.3,0.8-0.4,1.2c0.3-0.8,0.6-1.7,0.9-2.5
				C217.4,515,217.2,515.4,217.1,515.8z M216.4,517.8c-0.3,0.8-0.5,1.6-0.8,2.5c0.3-1,0.6-2,0.9-3
				C216.5,517.5,216.5,517.6,216.4,517.8z M218.1,513c-0.1,0.4-0.3,0.8-0.4,1.2C217.8,513.8,218.1,513,218.1,513z M222.4,503.6
				c-0.3,0.6-0.7,1.2-1,1.9c0.5-0.7,0.7-1.5,1.1-2.2C222.5,503.4,222.5,503.5,222.4,503.6z M224.4,499.9c-0.1,0.2-0.2,0.4-0.3,0.5
				c0.4-0.6,0.8-1.3,1.1-1.9C225,499,224.7,499.4,224.4,499.9z M227.2,495.4c-0.2,0.4-0.5,0.7-0.7,1.1c0.4-0.6,0.7-1.1,1.1-1.7
				C227.5,495,227.3,495.2,227.2,495.4z M233.1,418.7c0.9-0.2,1.8-0.5,2.7-0.8C234.9,418.2,234,418.5,233.1,418.7z M236.5,483.5
				c-0.1,0.1-0.2,0.3-0.3,0.4c0.2-0.2,0.4-0.4,0.5-0.6C236.6,483.4,236.5,483.4,236.5,483.5z M235.8,417.9c0.9-0.2,1.8-0.5,2.7-0.8
				C237.6,417.4,236.7,417.6,235.8,417.9z M257,411.6c-0.8,0.3-1.7,0.5-2.6,0.8c0.9-0.3,1.8-0.6,2.7-0.8
				C257.1,411.6,257,411.6,257,411.6z M257.3,411.6c0.7-0.2,1.5-0.4,2.2-0.7C258.8,411.1,258.1,411.3,257.3,411.6z M264,409.4
				c1.8-0.6,3.6-1.3,5.4-1.9C267.6,408.1,265.8,408.8,264,409.4z M270,551.1c-0.4,0.4-0.8,0.8-1.2,1.2c0.6-0.6,1.2-1.2,1.8-1.8
				C270.4,550.7,270.2,550.9,270,551.1z M280.6,542.1c0.3-0.2,0.7-0.5,1-0.7C281.3,541.6,280.9,541.9,280.6,542.1z M283.7,400.9
				c-0.7,0.4-1.5,0.9-2.2,1.2c0.8-0.4,1.7-0.9,2.5-1.4C283.9,400.8,283.8,400.8,283.7,400.9z M281.1,402.3c-0.8,0.4-1.5,0.8-2.3,1.2
				c0.9-0.4,1.8-0.9,2.7-1.3C281.3,402.2,281.2,402.3,281.1,402.3z M288.8,397.6c-0.6,0.4-1.2,0.8-1.8,1.2c0.8-0.5,1.6-1,2.3-1.6
				C289.2,397.4,289,397.5,288.8,397.6z M292.1,395.1 M302.9,600.8c-4.2,8.3-6.8,17.4-7,26.7c0.1-4.4,0.8-8.8,1.9-13.1
				c0.6-2.4,1.4-4.7,2.3-6.9c0.5-1.2,1-2.4,1.5-3.5c0.2-0.5,0.5-1,0.7-1.5C302.4,602,303.2,600.8,302.9,600.8z M308.6,372.3
				c0.1-0.3,0.2-0.5,0.3-0.8C308.8,371.7,308.7,372,308.6,372.3z M308.3,372.9c0.1-0.2,0.2-0.5,0.3-0.7
				C308.5,372.5,308.4,372.7,308.3,372.9z M306.6,376.5c-0.3,0.6-0.6,1.3-1,1.9c0.6-0.7,1.1-1.9,1.4-2.7
				C306.9,375.9,306.8,376.2,306.6,376.5z M305.2,379.2C305.1,379.3,305.1,379.3,305.2,379.2C305.3,379,305.3,379,305.2,379.2z
				 M312.8,358.7c0,0.1,0,0.2-0.1,0.4c0.1-0.6,0.3-1.2,0.4-1.8C313.1,357.8,313,358.3,312.8,358.7z M311.1,365.2
				c0.2-0.7,0.4-1.4,0.6-2.1C311.5,363.8,311.3,364.5,311.1,365.2z M310.5,367.3c0.3-0.7,0.5-1.4,0.7-2.1
				C310.9,365.9,310.7,366.6,310.5,367.3z M309.1,371c0.3-0.7,0.5-1.4,0.8-2.1C309.6,369.6,309.3,370.3,309.1,371z M315.1,343.8
				c0,0.6-0.1,1.3-0.2,1.9c0.1-1.1,0.3-2.2,0.3-3.3C315.2,342.8,315.1,343.3,315.1,343.8z M314.7,347.9c-0.1,1.1-0.3,2.2-0.4,3.3
				c0.4-1.8,0.5-3.7,0.7-5.5C314.9,346.4,314.8,347.1,314.7,347.9z M315.5,334.4c0,0.9,0,1.8,0,2.6c0-0.7,0.1-1.4,0.1-2.2
				C315.5,334.7,315.5,334.1,315.5,334.4z M315.5,328c0-0.4,0-0.8-0.1-1.3c0,1,0.1,2,0.1,3C315.5,329.2,315.5,328.6,315.5,328z
				 M315.4,338.6c0-0.5,0.1-1.1,0.1-1.6C315.5,337.6,315.4,338.1,315.4,338.6z M315.2,322.3c0-0.5-0.1-1.1-0.1-1.6
				c0.1,0.9,0.2,1.8,0.2,2.7C315.2,323,315.2,322.6,315.2,322.3z M314.7,316.2c0-0.2,0-0.4-0.1-0.6c0.1,0.5,0.1,1,0.2,1.6
				C314.7,316.8,314.7,316.5,314.7,316.2z M314.5,314.3c0,0.4,0.1,0.7,0.1,1.1C314.6,315.1,314.5,314.7,314.5,314.3z M317.4,524.8
				c-0.6,0.1-1.1,0.3-1.7,0.5c0.8-0.2,1.7-0.5,2.6-0.7C318,524.7,317.7,524.7,317.4,524.8z M326,522.9c-0.2,0-0.4,0.1-0.6,0.1
				c0.7-0.1,1.4-0.3,2.1-0.4C327,522.7,326.5,522.8,326,522.9z M328.5,522.5c0.5-0.1,0.9-0.2,1.4-0.2
				C329.5,522.3,329,522.4,328.5,522.5z M339.9,521.1c-0.4,0-0.9,0-1.4,0.1c1.3-0.2,2.7-0.2,4-0.3
				C341.7,520.9,340.8,521,339.9,521.1z M363.8,355.6L363.8,355.6C363.8,355.6,363.8,355.6,363.8,355.6S363.8,355.6,363.8,355.6z
				 M368.7,271.9c0.9-1,1.8-2.1,2.6-3.1C370.4,269.8,369.6,270.9,368.7,271.9z M372.5,267.1c0.8-1.1,1.5-2.2,2.2-3.4
				C373.9,264.9,373.2,266,372.5,267.1z M373.8,347.9c-0.1,0.1-0.3,0.2-0.4,0.3c0.3-0.2,0.6-0.4,0.8-0.6
				C374.1,347.8,373.9,347.9,373.8,347.9z M380.3,250.1c0.4-1.4,0.7-2.7,0.9-4.1C380.9,247.4,380.6,248.8,380.3,250.1z M381.6,343
				 M381.7,343c0.1,0,0.2-0.1,0.3-0.2C381.9,342.9,381.8,343,381.7,343z M382.4,233.2c0,3-0.2,6-0.6,9
				C382.2,239.2,382.6,236.1,382.4,233.2z M396.4,635c-0.7-0.4-2.4,1.1-3.1,1.5c-1.2,0.7-2.3,1.5-3.4,2.3c-2.1,1.5-4,3.1-5.8,4.9
				c-3.3,3.2-6.2,6.8-8.5,10.7c-4.2,7-6.6,15-7.6,23.1c-0.5,3.9-0.7,7.9-0.5,11.9c-0.4-16,4-32.2,15.3-43.9
				C386.6,641.3,391.3,637.8,396.4,635z M248.4,632.1c0.8-1.6,1-3.7,1.5-5.3c1-3.3,2.1-6.5,3.4-9.7c3.7-9.3,8.7-18.1,14.8-25.9
				c7.8-10,17.7-18.4,29-24.2c14.6-7.4,31.1-10.1,47.4-9.5c24.3,0.9,48,8.4,70.1,18.1c1.7,0.7,3.3,1.5,5,2.2
				c1.6,0.7,3.1,1.7,4.9,1.9c-23.6-11.3-49.1-20.5-75.4-22.3c-17.2-1.2-34.8,1-50.4,8.5c-12,5.7-22.3,14.4-30.5,24.8
				c-6.3,8.1-11.4,17.2-15.2,26.8c-1.8,4.7-3.5,9.5-4.5,14.4C248.4,631.9,248.4,632,248.4,632.1z M427.7,606.4
				c-0.1-0.6,0.1-2.2-0.3-2.6c-0.4-0.4-2.6-0.4-3.3-0.5c-2.2-0.3-4.3-0.5-6.5-0.7c-4.1-0.3-8.2-0.5-12.2-0.4
				c-7.2,0.1-14.3,1-21.3,2.7c-11.7,2.8-22.7,8-32.1,15.4c-7.8,6.1-14.4,13.6-19.9,21.9c-4.1,6.3-7.6,13.1-10.3,20.2
				c-0.9,2.2-1.6,4.5-2.3,6.8c-0.3,0.9-0.9,2.3-0.9,3.3c0,0,0,0.1,0,0.1c0.7-1,0.9-2.9,1.2-4.1c0.7-2.4,1.6-4.7,2.5-7
				c2.7-6.9,6.2-13.5,10.2-19.6c5.3-7.9,11.7-15.1,19.1-21c9-7.1,19.4-12.3,30.4-15.2c14.2-3.8,29.2-3.9,43.8-1.9
				c0.2,0,1.4,0,1.6,0.2c0.1,0.1,0,0.3,0.1,0.4c0.1,0.3,0.1,0.8,0.1,1.1C427.6,605.7,427.7,607,427.7,606.4z M427.8,609
				c0,0.6,0.1,1.4,0.1,2.1C427.9,610.4,427.9,609.7,427.8,609z M400.4,413.6c-0.2-0.1-0.3-0.3-0.5-0.4c0.4,0.4,0.7,0.7,1.1,1.1
				C400.8,414,400.6,413.8,400.4,413.6z M395.3,336.4c-0.1,0.3-0.2,0.6-0.3,0.9C395,337.3,395.3,336.4,395.3,336.4z M391.3,350.3
				c-0.1,0.2-0.1,0.5-0.2,0.7c0.2-0.7,0.3-1.4,0.5-2C391.5,349.4,391.4,349.9,391.3,350.3z M390.6,353c-0.5,2.3-1,4.5-1.5,6.8
				c0.6-2.9,1.2-5.9,2-8.8C390.9,351.7,390.8,352.3,390.6,353z"/>
			<path d="M395.6,44.7c-1.5-1.6-3-3.2-4.4-4.8C392.7,41.4,394.2,43,395.6,44.7z"/>
			<path d="M412.8,65.8c-1.2-1.7-2.5-3.3-3.7-4.9C410.3,62.5,411.6,64.1,412.8,65.8z"/>
			<path d="M422,79.2c-2.3-3.5-4.5-6.8-6.8-10C417.5,72.4,419.8,75.8,422,79.2z"/>
			<path d="M434.5,100.4c-1.4-2.7-2.9-5.3-4.3-7.8C431.6,95.1,433.1,97.7,434.5,100.4z"/>
			<path d="M440.2,111.4c-1.9-3.8-3.7-7.4-5.6-11C436.4,103.9,438.3,107.6,440.2,111.4z"/>
			<path d="M459.1,233.1c-11.3,0-22.5,0-33.8,0.1c-1.6,0-3.2,0-4.8,0c4.2-0.4,8.6,0,12.8,0c7,0,13.9,0,20.9,0
				C455.8,233.1,457.4,233.1,459.1,233.1z"/>
			<path d="M489,265.5c-3.7-4.3-7.4-8.5-11-12.7C481.6,257,485.3,261.2,489,265.5z"/>
			<path d="M502.3,269.5c-0.7,3.1-1.5,6.1-2.3,9.1c-0.3-0.3,1-3.8,1.1-4.4C501.5,272.7,501.9,271.1,502.3,269.5z"/>
			<path d="M505,256.5c-0.5,2.8-1.1,5.7-1.8,8.6C503.9,262.2,504.5,259.3,505,256.5z"/>
			<path d="M509,221.5c-0.1,3.6-0.3,7.2-0.7,11C508.7,228.7,508.9,225,509,221.5z"/>
			<path d="M509,221.5c0.2-4.8,0.2-9.4,0-13.8C509.2,212.1,509.2,216.7,509,221.5z"/>
			<path d="M512.1,285.1c-0.4,1.1-0.7,2.1-1.1,3.2c-0.3,0.8-1,1.9-1,2.7C510.6,289,511.4,287.1,512.1,285.1z"/>
			<path d="M515.3,275.7c-0.9,2.9-1.9,5.9-3,8.9C513.3,281.6,514.3,278.6,515.3,275.7z"/>
			<path d="M521.2,255.2c-1,3.8-2.1,7.6-3.2,11.6C519.2,262.9,520.2,259,521.2,255.2z"/>
			<path d="M523.1,247.7c-0.6,2.5-1.2,5-1.9,7.5C521.9,252.7,522.5,250.2,523.1,247.7z"/>
			<path d="M527.6,226.1c-1.2,7-2.7,14.2-4.5,21.6C524.9,240.3,526.4,233.1,527.6,226.1z"/>
			<path d="M528.3,137.3c-0.4-2.3-0.9-4.6-1.4-6.9C527.4,132.7,527.9,134.9,528.3,137.3z"/>
			<path d="M530,209.1c-0.5,4.4-1.1,8.9-1.9,13.4C528.9,218,529.5,213.5,530,209.1z"/>
			<path d="M531.8,178.9c0,1,0,2,0,3C531.8,180.9,531.8,179.9,531.8,178.9z"/>
			<path d="M538,327.6c-2.4-3-4.6-6.3-6.9-9.4C533.4,321.3,535.7,324.5,538,327.6z"/>
		</g>
		<path d="M443.8,379.4c-4.5,2.9-10.4,4.6-14.9,0.9c-3.5-2.9-5.2-7.7-5.3-12.1c0-2.2,0.3-4.6,1.5-6.5c-0.1,4.6,1.7,9.5,5,12.7
			C433.6,377.8,438.9,379.9,443.8,379.4z"/>
		<path d="M535.9,686.2c25-8.7,51-14.5,77.3-18c27.1-3.6,54.7-4.7,82-3.6c15.3,0.6,30.7,1.8,45.8,4.1c-4.7-7.6-6.9-16.5-8.9-25.2
			c-0.9-4.1-1.7-8.3-3.3-12.2c-0.6-1.5-1.4-3.3-2.8-4.3c-1.2-0.8-2.5-0.8-3.9-1c-3.4-0.4-5.5-3.6-4.6-6.8c1.2-4.4,2.5-8.7,3.5-13.1
			c2.1-9,3.9-18.1,5.3-27.2c2.9-18.4,4.9-37.4,3.4-56.1c-1.1-14.8-5.1-37.4-23.5-39.1c-4.1-0.4-7.9,0.4-11.5,2.5
			c-3.5,2.1-6.7,4.4-10.6,5.6c-4.1,1.2-8.6,1.2-12.7-0.1c-4.1-1.3-7.7-3.7-11.4-5.8c-6.4-3.6-13.2-5.2-20.6-5.3
			c-7.9-0.2-15.5,4.3-21.8,8.7c-11,7.7-20.5,17.7-29.4,27.6c-12.1,13.5-23,28-33.5,42.7c-21.3,30-41,61.4-58.8,93.6
			c-1.1,2-2.2,4-3.3,6c-0.3,0.5-1,2.4-1.4,2.5c-0.2,0-0.8-0.4-1-0.4c1.2-2.3,2.3-4.6,3.5-6.9c0.5-1,1.1-2,1.6-3
			c0.6-1.1,1.5-2.3,1.8-3.6c0.6-2.2,0.6-4.7,0.8-7c0.2-2.2,0.3-4.5,0.3-6.7c0.2-8.9-0.5-17.9-1.7-26.8c-1-7.9-2.4-15.7-3.6-23.6
			c-0.9-6.1-1.9-12.3-1.6-18.5c0.1-2.2,0.4-4.4,1.2-6.5c1.1-2.7,3.2-4.8,5.4-6.6c2.8-2.3,6-3.7,9.4-4.8c3.1-1,6.3-1.7,9.3-3.2
			c8.6-4.2,13.2-13.2,17.8-21.2c5.6-9.8,10.8-19.8,16.1-29.7c4.7-8.8,9.3-17.6,14.6-26c1.3-2.1,2.7-4.6,4.7-6.2
			c1.8-1.4,4.2,0.7,5.7,1.8c9.5,6.5,18,14.6,26.5,22.3c0.9,0.8,1.8,1.7,2.7,2.5c0.6,0.6,1.4,1.7,2.2,2c0.4,0.2,0.1,0.2,0.7-0.1
			c0.4-0.3,0.8-0.7,1.2-1c1-0.8,1.9-1.6,2.9-2.3c1.9-1.5,3.9-2.9,5.9-4.2c3.8-2.5,7.9-4.7,12.2-6.2c4.5-1.5,9.1-1.9,13.8-1.6
			c4.9,0.3,9.6,1.3,14.1,3.1c4.4,1.7,8.3,4.4,12.6,6.4c4,1.9,8.5,2.3,12.7,0.7c4.1-1.6,7.3-4.8,11.3-6.5c4.2-1.9,8.9-2.4,13.5-1.8
			c-0.6-2.5-1.3-5-2-7.5c-0.2-0.8-0.3-1.9-0.8-2.6c-0.5-0.7-1.5-1.3-2.2-1.8c-3.4-2.5-7-4.8-10.5-7.1c-10.9-7.1-21.8-13.9-32.8-20.9
			c-8.2-5.2-16.9-10.2-24.6-16.3c-0.8-0.6-1.3-1.1-1.8-2c-1.7-3.5-3.4-7.1-5.6-10.3c-0.7-1-1.3-2-2.5-2.4c-1.9-0.5-4.2-0.5-6.1-0.6
			c-3.1-0.2-6.2-0.3-9.3-0.4c-1.5,0-3.2,0.1-4.6-0.1c-0.9-0.1-0.6-0.4-0.6-1.3c0-0.8-0.1-1.6-0.1-2.4c-1.3-18.1-8.1-35.5-19.5-49.6
			c-7.4-9.1-16.9-17.9-27.8-22.5c-2.2-1-4.4-1.6-6.8-1.6c-2.9,0-5.9,0.2-8.8,0.5c-0.7,0.1-1.3,0.1-2,0.2c-0.3,0-1.3,0.2-1.6,0.1
			c-0.5-0.2-1.1-1.5-1.4-1.9c-0.6-0.8-1.1-1.6-1.7-2.4c-2-2.7-3.9-5.3-5.9-7.9c-3.9-5.1-7.8-10.2-11.7-15.3
			c-1.9-2.5-3.9-4.9-5.8-7.4c-0.3-0.4-1.3-1.3-1.4-1.8c-0.1-0.4,0.4-1.2,0.6-1.6c0.6-1.6,1.1-3.2,1.7-4.8
			c8.1-23.4,14.2-47.6,17.3-72.1c3-23.7,3.2-48-0.7-71.6c-3.8-23.4-11.7-46.3-24.6-66.2c-2.7-4.2-5.8-8.1-9.1-11.9
			c-4.2,4.1-7.5,9.5-9.8,14.8c-5.5,12.5-5.6,26.1-1.3,39c2.7,8,6.2,15.7,9.4,23.6c3.3,8.2,6.4,16.6,8.8,25.2
			c4.9,17.4,7.2,35.4,6.8,53.4c-0.4,20.3-3.9,40.4-9.1,60c-1.9-1.8-3.5-4.2-5.1-6.2c-1.8-2.2-3.7-4.4-5.5-6.5
			c-1.9-2.2-3.8-4.4-5.7-6.6c-0.9-1.1-1.9-2.2-2.9-3.3c-0.8-0.9-2.4-2.1-2.9-3.3c-0.4-0.9-0.2-2.4-0.3-3.4c-0.1-1.2-0.3-2.5-0.4-3.7
			c-0.3-2.8-0.6-5.6-1-8.4c-0.7-5.3-1.4-10.6-2.3-15.9c-3.5-21.9-8.5-43.5-15.4-64.6c-6.7-20.6-15.2-40.6-25.7-59.6
			c-10.5-18.9-22.9-36.9-37.5-52.9c-14.2-15.6-30.3-30-48.7-40.7c-1.8-1.1-3.7-2.1-5.6-3.1c-0.4-0.2-1-0.6-1.3-0.5
			c-0.6,0.3-1.2,2.1-1.5,2.7c-2.2,4.3-3.9,9-4.9,13.7c-1.5,6.9-1.5,14.2,0.2,21c2.3,9.1,7.6,16.9,14.3,23.4
			c7,6.9,14.8,13.1,22.3,19.4c8.5,7.2,16.9,14.7,24.8,22.6c15.4,15.4,28.7,32.8,39.1,51.9c10.6,19.5,18.1,40.6,23,62.3
			c1.2,5.3,2.2,10.6,3.1,16c-11.5,0-23,0-34.5,0.1c-1.7,0-3.3,0-5,0c1.9,5.6,3.5,11.4,5.1,17.1c-7.7-28.1-18.3-55.4-32.3-81
			c-13.9-25.5-31.3-49.2-51.7-70c-20.3-20.7-43.5-38.5-68.6-53c-25.3-14.6-52.4-25.6-80.6-33.3c-6.7-1.8-13.4-3.3-20.2-4.6
			c-2.9-0.6-5.8-1.1-8.8-1.5c-0.9-0.1-3.7-0.9-4.3-0.3c-0.2,0.3-0.3,1.2-0.3,1.5c-0.2,1-0.4,2-0.5,3.1c-0.4,3-0.7,6-0.7,9
			c-0.1,6.9,0.8,13.9,3,20.4c4.2,12.9,13.1,23.5,24.7,30.6c11.4,7,24.7,10.7,37.5,14.3c27.8,7.9,55.8,15.6,81,30.3
			c24.3,14.2,44.4,34.2,58.6,58.5c3.6,6.1,6.8,12.4,9.6,18.8c2.9,6.6,5.7,13.3,7.7,20.3c3.8,13.4,4,28.3-0.8,41.5
			c-3.9,10.7-11,19.9-20.8,25.9c-8.7,5.4-18.8,8-28.9,9c-6.4,0.6-12.8,0.6-19.2,0.1c2.9,10.4,4.5,21.4,5.2,32.2
			c0.7,10.8,0.5,21.7-1.4,32.4c-1.9,10.3-5.3,20.3-11.2,29.1c-6,8.9-14.2,15.4-23.8,20.1c-11.8,5.7-24.5,9-37,12.7
			c-10.6,3.1-21.2,6.3-31.3,10.6c-9.7,4.2-19.1,9.4-26.9,16.7c-6.3,5.9-11.3,12.9-15,20.8c-9.4,20.2-7.8,43.9-4.3,65.3
			c0.4,2.5,0.9,5,1.4,7.4c0-1.3,0.4-2.7,0.7-3.9c0.4-2.1,0.9-4.2,1.5-6.3c1.1-4.1,2.4-8.1,4-12c3.1-7.9,7.2-15.4,12.4-22.1
			c10.5-13.6,25.8-22.8,42.9-25.2c9.5-1.3,19.1-1,28.5,0.5c-7.8,4.1-14.7,10.6-20.4,17.2c-6,6.9-11.1,14.6-14.8,22.9
			c-6.7,14.7-9.5,31-9,47.1c0,0.5,0,1,0.1,1.5c0,0.9-0.1,1,0.6,1.3c0.7,0.3,1.7,0.4,2.5,0.6c2.7,0.6,5.4,1.3,8.1,1.8
			c5.5,1.2,11,2.3,16.6,3.3c5.6,1,11.1,1.9,16.7,2.7c0.9,0.1,1.1,0.3,1.6-0.5c0.3-0.5,0.7-0.9,1-1.4c0.8-1.1,1.6-2.2,2.5-3.2
			c1.3-1.7,2.7-3.3,4.2-4.9c11.6-12.8,26-22.5,42.3-28.3c18.3-6.5,38.1-8.2,57.4-6.9c2.8,0.2,5.5,0.4,8.2,0.7
			c-4-3.2-7.5-7.1-11-10.8c-4.8-5.2-9.2-10.8-13.2-16.6c-9.1-13.3-16.3-28-19.6-43.9c-6-28.7,2.6-59.2,21.4-81.6
			c5.1-6.1,10.9-11.6,17.1-16.5c5.9-4.6,12.4-9,19.2-12.2c-1.2,0.6-1.3,2.7-1.7,4c-0.4,1.6-0.8,3.1-1.2,4.7
			c-0.8,3.1-1.5,6.2-2.1,9.3c-1,5.1-1.8,10.2-2,15.4c-0.4,11.2,2.1,22.9,6.9,33c4,8.5,10.6,16.7,20.1,19.1c3.7,0.9,7.4,0.7,11.2,0.3
			c4.5-0.5,9-1.4,13.4-2.5c11.9-2.8,23.7-6.5,35-11.3c3.3,13.7,4,32.2-9.8,40.4c-7.5,4.4-17.5,5.6-25.7,2.8
			c-6.3-2.1-11.6-6.5-15.6-11.7c-2.2-2.9-4.3-6.2-5.6-9.7c-5.5,6.2-9.8,13.9-12.6,21.7c-2.5,6.8-3.7,14.1-3,21.3
			c0.8,8,4.3,14.8,8.7,21.3c8.2,12.1,18.2,22.8,27.1,34.3c9.5,12.2,18,25.4,22.4,40.4c4.4,14.9,4.4,31.2,2.3,46.4
			c-1.8,12.8-5.8,25.3-11.7,36.9c-5.1,10-11.8,19.3-19.4,27.5c-6.6,7.1-13.9,13.5-21.8,19.1c-5.9,4.2-12,8-18.5,11.4
			c-2.1,1.1-4.2,2.1-6.3,3.1c-1.1,0.5-2.5,0.8-3.5,1.5c-0.1,0.1-0.3,0.1-0.4,0.2c2.6,5.5,6.1,10.7,9.7,15.6
			c8.5,11.4,19,21.3,31.1,28.8c8.7,5.4,18.2,9.3,28,12.1c0-0.2-0.1-0.6,0-0.7c0.2-0.2,1.2-0.2,1.6-0.3c1.3-0.2,2.6-0.4,3.9-0.7
			c2.6-0.5,5.2-1.1,7.8-1.7c5.1-1.3,10-2.8,15-4.5c9.5-3.2,18.9-7,28.2-10.6c8.3-3.2,17.5-6.8,26.6-6.6c7.9,0.2,14.9,2.8,22.1,5.9
			c7.4,3.2,14.7,5.6,22.8,5.7c9.1,0.2,17.1-4.8,24.3-9.9c8.2-5.7,16-12.2,25.1-16.6c4.4-2.2,9.1-3.8,14-4.5
			c4.9-0.6,9.9-0.2,14.7,0.4c13.5,1.8,27.1,6.3,39.1,13c0.2,0.1,0.4,0.2,0.6,0.4c-1.9-22.1,10-42.2,25.1-57.3c3.1-3.1,6.4-6,9.8-8.8
			c-22.8-2.2-45.6-3.1-68.5-2.7c-22.7,0.4-45.4,2.3-67.8,5.9c-21.9,3.5-43.5,8.5-64.5,15.5c-10.2,3.4-20.2,7.2-30,11.5
			c-5,2.2-10,4.5-14.9,6.9c-1.2,0.6-2.3,1.2-3.5,1.7c-0.5,0.2-3.3,2.1-3.7,1.9c0,0-0.5-0.8-0.5-0.9c0-0.5,2.1-1.6,2.6-1.9
			c17.7-11.3,36.7-20.6,56.3-27.9C530.9,687.9,533.4,687.1,535.9,686.2z M574.8,577.9c2.9-3.5,5.5-7.2,8.3-10.8
			c2.9-3.7,5.9-7.4,9-11.1c6-7.1,12.3-14.1,18.9-20.6c6.3-6.2,13.1-12.2,20.4-17.2c5.8-4,12.1-7.5,19-9.5c5.9-1.6,12.6-2.1,18.2,0.6
			c2.1,1,4,2.4,6.1,3.3c2.9,1.2,6.2,1.4,9.3,1c3.5-0.4,6.7-1.8,10-3.1c2.6-1.1,5.4-2.2,8.3-2.2c8.7,0,13,8.8,15.1,16
			c4.1,14.3,3.7,29.9,3,44.7c-0.7,15.7-2.5,31.4-5.4,46.8c-0.2,0.9-0.4,1.8-0.5,2.8c-0.1,0.5-0.2,2.1-0.5,2.4
			c-0.4,0.4-2.9,0.1-3.5,0.1c-1.4,0-2.7,0.1-4.1,0.1c-4.7,0.2-9.5,0.4-14.2,0.7c-4.6,0.3-9.2,0.7-13.7,1.2c-1.1,0.1-2.2,0.2-3.2,0.3
			c-0.7,0.1-2,0.5-2.7,0.3c-0.6-0.2-1.3-1.2-1.7-1.6c-0.8-0.7-1.6-1.4-2.4-2.2c-11-9.6-23.7-17.2-37-23c-17.9-7.9-37.3-13-56.8-15
			c-0.8-0.1-1.5-0.2-2.3-0.2C573,580.4,573.9,579.2,574.8,577.9z M507.6,684.2c2.7-5.4,5.9-10.6,8.9-15.8
			c3.3-5.9,6.8-11.7,10.2-17.5c6.9-11.7,14.1-23.2,21.6-34.6c4-6.1,8-12.2,12.2-18.2c2.2-3.2,4.4-6.4,6.7-9.6c0.7-1,0.7-1.3,1.7-1.4
			c1-0.1,2,0.1,3,0.1c14,0.9,28,4.5,40.8,10.3c14.5,6.6,27.6,16.6,37.1,29.5c-23.7,4.1-47,10.5-69.5,19.2
			c-18.1,7-35.6,15.5-52.1,25.6c-7.3,4.5-14.3,9.4-21.4,14.3C506.9,685.3,507.2,684.7,507.6,684.2z M435.8,298.2
			c0.5,3,0.9,5.9,1.3,8.9c-0.5-3.6-1-7.2-1.6-10.8C435.6,296.9,435.6,297.5,435.8,298.2z M432.3,279c0,0.2,0.1,0.4,0.1,0.5
			c-0.4-1.7-0.7-3.4-1.1-5.2C431.7,275.9,432,277.5,432.3,279z M464.4,405c-13.1,5.4-26.7,9.9-40.7,12.5c-5.6,1.1-11.8,2.4-17.3,0.2
			c-5.8-2.4-9.8-8-12.5-13.4c-5.7-11.6-7.7-25.1-5.9-37.9c1.7-12.2,5.1-24.4,9.3-35.8c2.3-6.3,5-12.5,8.3-18.3
			c2.5-4.2,5.4-8.7,9.6-11.4c10.6-7,20,7.1,24.9,14.6c3,4.6,5.8,9.3,9.5,13.4c2.1,2.3,4.5,4.2,7,6.1c5.9,4.5,11.7,9.2,16.6,14.8
			c6.3,6.9,11.2,15.1,13.5,24.2c0.7,2.6,1.1,5.3,1.3,8c0.3,3.1,0.5,5.9-1.4,8.6c-3,4.5-8.3,7.5-12.9,10
			C470.7,402.2,467.5,403.7,464.4,405z"/>
		<path d="M161.9,510.1c-0.1-2.1-0.3-4.2-0.3-6.2C161.6,505.9,161.7,508,161.9,510.1z"/>
		<path d="M162.3,515.7c-0.2-1.8-0.4-3.7-0.5-5.5C162,512,162.2,513.8,162.3,515.7z"/>
		<path d="M162.5,517.5c-0.1-0.6-0.2-1.2-0.2-1.8C162.4,516.3,162.5,516.9,162.5,517.5z"/>
		<path d="M163.2,522.8c-0.1-0.7-0.2-1.4-0.3-2.1C163,521.4,163.1,522.1,163.2,522.8z"/>
		<path d="M163.3,481.3c0,0.3-0.1,0.6-0.2,0.9C163.1,482,163.2,481.6,163.3,481.3z"/>
		<path d="M164.2,529.5c-0.2-0.7-0.3-1.5-0.4-2.2C164,528,164.1,528.7,164.2,529.5z"/>
		<path d="M165.7,536.9c0,0,0,0.1,0,0.1C165.6,537,165.6,536.9,165.7,536.9z"/>
		<path d="M165.9,535.3c0,0.1,0,0.3-0.1,0.5C165.8,535.6,165.9,535.5,165.9,535.3z"/>
		<path d="M170.9,459.5c-0.2,0.3-0.4,0.7-0.5,1C170.6,460.2,170.7,459.8,170.9,459.5z"/>
		<path d="M177.4,449.9c-0.2,0.2-0.4,0.5-0.5,0.7C177,450.4,177.2,450.1,177.4,449.9z"/>
		<path d="M182,69c-1.1-0.8-2.1-1.5-3.1-2.3C179.9,67.5,181,68.3,182,69z"/>
		<path d="M182.9,444c-0.3,0.3-0.7,0.6-1,1C182.2,444.7,182.6,444.3,182.9,444z"/>
		<path d="M188,439.6c-0.3,0.3-0.7,0.6-1,0.8C187.3,440.2,187.7,439.9,188,439.6z"/>
		<path d="M211,471.8c-0.2,0.1-0.3,0.1-0.5,0.2C210.6,471.9,210.8,471.8,211,471.8z"/>
		<path d="M211.3,548.8c0,1.4,0,2.9,0,4.3C211.2,551.6,211.2,550.2,211.3,548.8z"/>
		<path d="M211.3,546.3c0,0.7,0,1.3-0.1,2C211.3,547.6,211.3,546.9,211.3,546.3z"/>
		<path d="M257,566.4c-11.4,15.9-18.7,35-22.4,54.1c-0.8,3.9-1.3,7.9-1.7,11.9c-9-18.3-16.2-37.7-19.7-57.8
			c-1-5.6-1.9-11.6-1.9-17.3c0,0.8,1.6,0.8,2.3,1c0.9,0.2,1.9,0.4,2.8,0.7c2,0.5,3.9,0.9,5.9,1.3c3.8,0.8,7.7,1.6,11.5,2.4
			C241.5,564.1,249.3,565.3,257,566.4z"/>
		<path d="M212,538.2c-0.2,2-0.4,3.9-0.5,5.9C211.5,542.1,212,540.1,212,538.2z"/>
		<path d="M212.5,534.1c-0.1,1-0.3,2-0.4,3.1C212.1,536.6,212.1,534.5,212.5,534.1z"/>
		<path d="M212.7,533c0,0.3-0.1,0.7-0.2,1C212.6,533.6,212.6,533.3,212.7,533z"/>
		<path d="M214.1,525.9c-0.1,0.6-0.3,1.2-0.4,1.8C213.9,527.1,214,526.4,214.1,525.9z"/>
		<path d="M215.2,521.6c-0.2,0.6-0.3,1.2-0.5,1.8C214.9,522.8,215.1,522.2,215.2,521.6z"/>
		<path d="M216.6,517.3c-0.3,1-0.6,2-0.9,3C215.9,519.3,216.2,518.3,216.6,517.3z"/>
		<path d="M216.7,424.3c-0.7,0.3-1.5,0.6-2.2,0.8C215.1,424.7,216,424.5,216.7,424.3z"/>
		<path d="M218.2,512.9c0,0.3-0.3,0.9-0.5,1.2C217.8,513.7,218,513.3,218.2,512.9z"/>
		<path d="M219.5,468.9c-0.5,0.1-1,0.3-1.6,0.4C218.5,469.2,219,469.1,219.5,468.9z"/>
		<path d="M222.6,503.3c-0.4,0.7-0.7,1.5-1.1,2.2C221.7,504.7,222.2,503.9,222.6,503.3z"/>
		<path d="M225.2,498.5c-0.4,0.6-0.8,1.3-1.1,1.9C224.4,499.8,224.9,499.1,225.2,498.5z"/>
		<path d="M227.6,494.8c-0.4,0.5-0.7,1.1-1.1,1.7C226.9,495.9,227.2,495.3,227.6,494.8z"/>
		<path d="M236.7,483.3c-0.2,0.2-0.3,0.4-0.5,0.6C236.3,483.7,236.5,483.5,236.7,483.3z"/>
		<path d="M238.5,417.1c-1.8,0.6-3.6,1.1-5.4,1.6C234.9,418.2,236.7,417.7,238.5,417.1z"/>
		<path d="M253,469.4c-0.5,0.4-1.2,0.8-1.9,1.2C251.8,470.2,252.4,469.8,253,469.4z"/>
		<path d="M257,411.7c-0.9,0.3-1.7,0.5-2.6,0.8C255.3,412.1,256.1,411.9,257,411.7z"/>
		<path d="M259.5,410.9c-0.7,0.3-1.5,0.5-2.2,0.7C258.1,411.3,258.8,411.1,259.5,410.9z"/>
		<path d="M269.4,407.5c-1.8,0.7-3.6,1.3-5.4,1.9C265.8,408.8,267.6,408.1,269.4,407.5z"/>
		<path d="M281.4,402.1c-0.9,0.5-1.8,0.9-2.7,1.3C279.6,403.1,280.5,402.6,281.4,402.1z"/>
		<path d="M282.7,401.5c-0.4,0.2-0.8,0.4-1.2,0.6C281.9,401.9,282.3,401.7,282.7,401.5z"/>
		<path d="M284,400.7c-0.4,0.3-0.9,0.5-1.3,0.8C283.1,401.2,283.6,401,284,400.7z"/>
		<path d="M288.5,397.9c-0.5,0.3-0.9,0.6-1.4,0.9C287.6,398.5,288,398.2,288.5,397.9z"/>
		<path d="M289.4,397.2c-0.3,0.2-0.6,0.4-0.9,0.6C288.8,397.7,289.1,397.5,289.4,397.2z"/>
		<path d="M292.2,395"/>
		<path d="M305.6,378.5c-0.1,0.3-0.3,0.7-0.5,0.9C305.2,379.1,305.4,378.8,305.6,378.5z"/>
		<path d="M307.1,375.6c-0.3,0.9-0.9,2-1.4,2.7C306.1,377.5,306.6,376.5,307.1,375.6z"/>
		<path d="M308.6,372.3c-0.1,0.2-0.2,0.5-0.3,0.7C308.4,372.7,308.5,372.5,308.6,372.3z"/>
		<path d="M308.9,371.5c-0.1,0.3-0.2,0.5-0.3,0.8C308.7,372,308.8,371.7,308.9,371.5z"/>
		<path d="M309.9,368.9c-0.3,0.7-0.5,1.4-0.8,2.1C309.3,370.3,309.6,369.6,309.9,368.9z"/>
		<path d="M311.1,365.2c-0.2,0.7-0.4,1.4-0.7,2.1C310.7,366.6,310.9,365.9,311.1,365.2z"/>
		<path d="M311.8,363.1c-0.2,0.7-0.4,1.4-0.6,2.1C311.3,364.5,311.5,363.8,311.8,363.1z"/>
		<path d="M313.2,357.3c-0.1,0.6-0.3,1.2-0.4,1.8C312.8,358.5,313,357.9,313.2,357.3z"/>
		<path d="M314.8,317.2c-0.1-0.9-0.2-1.9-0.3-2.9C314.6,315.3,314.7,316.2,314.8,317.2z"/>
		<path d="M314.9,345.7c-0.1,1.8-0.3,3.7-0.7,5.5C314.5,349.3,314.7,347.5,314.9,345.7z"/>
		<path d="M315.3,323.3L315.3,323.3c0-0.8-0.1-1.7-0.2-2.6C315.2,321.6,315.2,322.4,315.3,323.3z"/>
		<path d="M315.2,342.4c0,1.1-0.1,2.2-0.3,3.3C315,344.6,315.1,343.5,315.2,342.4z"/>
		<path d="M315.3,341.3c0,0.3,0,0.7-0.1,1C315.2,342,315.2,341.7,315.3,341.3z"/>
		<path d="M315.5,337c0,0.5,0,1.1-0.1,1.6C315.4,338.1,315.5,337.6,315.5,337z"/>
		<path d="M315.5,329.5c0,0.1,0,0.2,0,0.3c0-1-0.1-2-0.1-3C315.5,327.7,315.5,328.6,315.5,329.5z"/>
		<path d="M315.5,334.3c0,0.9,0,1.8-0.1,2.8C315.5,336.2,315.3,335,315.5,334.3z"/>
		<path d="M315.5,331.9c0,0.7,0,1.5,0,2.2c0-0.9,0-1.8,0-2.7C315.5,331.6,315.5,331.7,315.5,331.9z"/>
		<path d="M368.2,517.2"/>
		<path d="M368.9,517.8"/>
		<path d="M371.3,268.7c-0.8,1.1-1.7,2.1-2.6,3.1C369.6,270.9,370.4,269.8,371.3,268.7z"/>
		<path d="M372.9,521.5"/>
		<path d="M374.6,263.7c-0.7,1.2-1.4,2.3-2.2,3.4C373.2,266,373.9,264.9,374.6,263.7z"/>
		<path d="M381.2,246c-0.3,1.4-0.6,2.8-0.9,4.1C380.6,248.8,380.9,247.4,381.2,246z"/>
		<path d="M382.4,233.2c0,3-0.2,6-0.6,9C382.2,239.2,382.2,236.1,382.4,233.2z"/>
		<path d="M436.3,302.1c-0.2-1.3-0.4-2.6-0.6-4C436,299.5,436.2,300.8,436.3,302.1z"/>
		<path d="M454.2,359.9c0.4,0.4,0.7,0.8,1.1,1.2C454.9,360.7,454.6,360.3,454.2,359.9z M400.4,413.6c-0.2-0.1-0.3-0.3-0.5-0.4
			c0.4,0.4,0.7,0.7,1.1,1.1C400.8,414,400.6,413.8,400.4,413.6z M395.3,336.4c-0.1,0.3-0.2,0.6-0.3,0.9
			C395,337.3,395.3,336.4,395.3,336.4z M391.3,350.3c-0.1,0.2-0.1,0.5-0.2,0.7c0.2-0.7,0.3-1.4,0.5-2
			C391.5,349.4,391.4,349.9,391.3,350.3z M390.6,353c-0.4,1.9-1,3.9-1.3,5.8c0.5-2.6,1.1-5.3,1.8-7.9
			C390.9,351.7,390.8,352.3,390.6,353z M389.3,358.9c-0.1,0.3-0.1,0.6-0.2,0.9C389.2,359.5,389.3,359.1,389.3,358.9z"/>
	</g>
	<path d="M448.1,327.1 M436.8,305c-0.1-0.6-0.9-6.9-1-6.9c0.5,3,0.9,5.9,1.3,8.9C437,306.4,436.9,305.7,436.8,305z M443.6,320.9
		c0.1,0.2,0.2,0.4,0.4,0.5C443.8,321.2,443.7,321.1,443.6,320.9z M444.6,322.3 M444.6,322.4c0.4,0.7,0.9,1.4,1.4,2
		C445.6,323.8,445.1,323.1,444.6,322.4z M446.2,324.7c0.2,0.2,0.4,0.5,0.5,0.7C446.6,325.2,446.4,324.9,446.2,324.7z M446.7,325.4
		c0.2,0.3,0.5,0.7,0.7,0.9C447.2,326,447,325.7,446.7,325.4z M447.5,326.4c0.2,0.3,0.4,0.6,0.6,0.8
		C447.9,326.9,447.7,326.6,447.5,326.4z M448.1,327.1 M399.9,413.1c0.1,0.2,0.3,0.3,0.5,0.5C400.2,413.4,400.1,413.3,399.9,413.1z
		 M395.3,336.4 M386.3,340.5c0.2-0.1,0.5-0.2,0.7-0.3C386.8,340.3,386.5,340.4,386.3,340.5z"/>
	<g>
		<path d="M471,717.5c-0.4,0.5-0.9,1-1.3,1.5C469,718.3,470.5,717.8,471,717.5z"/>
		<path d="M497.3,648.1c-0.2,1.2-0.3,2.2-0.9,3.2c-0.4,0.8-0.8,1.6-1.3,2.3c-0.8,1.4-1.5,2.9-2.3,4.3c-0.5,0.9-0.9,1.8-1.4,2.7
			c-0.2,0.5-0.4,1.3-1,0.8C492.6,656.9,494.9,652.4,497.3,648.1z"/>
		<path d="M709,479.8c-0.3,0-0.9-3.4-1-3.7C708.3,476.1,708.9,479.2,709,479.8z"/>
		<path d="M712.5,481c-0.8-0.3-1.7-0.5-2.6-0.7C710.8,480.5,711.7,480.7,712.5,481z"/>
		<path d="M715.8,482.4c-1-0.5-2.1-1-3.2-1.4C713.7,481.4,714.8,481.9,715.8,482.4z"/>
		<path d="M725.2,491.2c-0.6-1-1.3-1.9-2-2.7C723.9,489.3,724.6,490.2,725.2,491.2z"/>
		<path d="M730.4,623.7c-0.5-0.5-1.1-1-1.8-1.4C729.3,622.7,729.9,623.2,730.4,623.7z"/>
	</g>
</g>
</svg>
