<?xml version="1.0" standalone="no"?>
<!DOCTYPE svg PUBLIC "-//W3C//DTD SVG 20010904//EN" "http://www.w3.org/TR/2001/REC-SVG-20010904/DTD/svg10.dtd">
<svg version="1.0" xmlns="http://www.w3.org/2000/svg" width="256.000000pt" height="256.000000pt"
  viewBox="0 0 256.000000 256.000000" preserveAspectRatio="xMidYMid meet">

  <g transform="translate(0.000000,256.000000) scale(0.100000,-0.100000)" fill="#FFFFFF" stroke="none">
    <path d="M875 1824 c-315 -159 -505 -266 -535 -301 -54 -61 -33 -113 45 -113
31 0 126 31 326 106 281 105 282 106 307 87 22 -17 132 -239 132 -268 0 -10
-339 -222 -545 -341 l-50 -29 30 -6 c28 -6 28 -7 5 -8 l-25 -2 30 -17 c24 -13
53 -17 140 -16 97 1 131 6 290 48 376 99 451 117 522 123 l73 6 0 32 c0 23
-23 69 -82 161 -44 71 -135 215 -200 319 -164 261 -179 282 -206 294 -48 22
-86 11 -257 -75z" />
    <path d="M1866 1736 c-60 -22 -108 -67 -141 -131 -25 -50 -30 -69 -29 -129 1
-85 18 -129 74 -190 98 -107 271 -114 382 -16 145 127 114 371 -58 455 -51 25
-174 31 -228 11z" />
    <path d="M13 927 c15 -40 89 -136 149 -193 191 -183 416 -250 762 -225 205 15
313 36 523 104 250 81 350 93 648 78 110 -6 253 -18 319 -27 65 -8 121 -13
123 -10 8 8 -161 115 -241 151 -133 62 -236 87 -383 92 -166 7 -239 -3 -538
-77 -388 -95 -385 -95 -610 -95 -215 0 -290 11 -445 62 -76 26 -216 93 -279
135 -29 19 -34 20 -28 5z" />
  </g>
</svg>