<?xml version="1.0" encoding="utf-8"?>
<!-- Generator: Adobe Illustrator 19.0.0, SVG Export Plug-In . SVG Version: 6.00 Build 0)  -->
<svg version="1.1" xmlns="http://www.w3.org/2000/svg" xmlns:xlink="http://www.w3.org/1999/xlink" x="0px" y="0px"
	 viewBox="0 0 1250 600" style="enable-background:new 0 0 1250 600;" xml:space="preserve">
<style type="text/css">
	.st0{fill:#BFBFBF;}
	.st1{fill:#E5E5E5;}
	.st2{fill:#D9D9D9;}
	.st3{fill:none;stroke:#FF0000;stroke-width:5;stroke-miterlimit:10;}
	.st4{display:none;}
</style>
<g id="Layer_2">
	<g id="XMLID_5_">
		<polygon id="XMLID_6_" class="st0" points="492.8,427 292.8,527 292.8,327 492.8,227 		"/>
		<polygon id="XMLID_7_" class="st1" points="492.8,227 292.8,327 92.8,227 292.8,127 		"/>
		<polygon id="XMLID_3_" class="st2" points="292.8,527 92.8,427 92.8,227 292.8,327 		"/>
	</g>
</g>
<g id="Layer_9">
	<polygon id="XMLID_45_" class="st2" points="892,527 718.8,427 718.8,228.3 892,328.3 	"/>
	<polygon id="XMLID_44_" class="st0" points="1065.2,427 892,527 892,328.3 1065.2,228.3 	"/>
	<polygon id="XMLID_43_" class="st1" points="891.9,328.2 718.7,228.2 890.9,128.9 1064.1,228.9 	"/>
</g>
<g id="Layer_5">
	<g id="XMLID_102_">
		<path id="XMLID_103_" d="M663.1,85.1h-6V110h-6.4V85.1h-6v-5.9h18.5V85.1z"/>
		<path id="XMLID_105_" d="M674.5,99.7h-2.2V110h-6.2V79.2h8.9c6.1,0,9.7,3.8,9.7,10.3c0,4.2-1.5,7.3-4.3,8.9l5.8,11.7h-6.8
			L674.5,99.7z M672.3,93.7h2.6c2.2,0,3.4-1.5,3.4-4.3c0-2.8-1.2-4.3-3.4-4.3h-2.6V93.7z"/>
		<path id="XMLID_108_" d="M688.7,100.1V79.2h6.5v20.9c0,2.8,1.1,4.4,3.3,4.4s3.3-1.5,3.3-4.4V79.2h6.5v20.9
			c0,6.5-3.7,10.4-9.8,10.4S688.7,106.6,688.7,100.1z"/>
		<path id="XMLID_110_" d="M729.6,104.1v5.9h-16.3V79.2h15.9v5.9h-9.6v6.4h8.8v5.7h-8.8v6.8H729.6z"/>
		<path id="XMLID_112_" d="M748.9,79.2V110h-6.2V79.2H748.9z"/>
		<path id="XMLID_114_" d="M752.4,101h6.4c0,2.5,1.2,3.5,3.2,3.5c2.1,0,3.1-1.2,3.1-2.7c0-5.1-12.1-5.7-12.1-15.1
			c0-4.7,3.3-8.1,9-8.1s9.1,3.4,9.1,9.1h-6.4c0-2-0.9-3-2.7-3c-1.6,0-2.6,0.9-2.6,2.3c0,4.8,12.2,5.1,12.2,15c0,5.1-3.6,8.8-9.7,8.8
			C756.1,110.6,752.4,107.2,752.4,101z"/>
		<path id="XMLID_116_" d="M774.5,100V89.2c0-6.6,3.7-10.5,10-10.5s10,3.9,10,10.5V100c0,6.6-3.7,10.5-10,10.5
			S774.5,106.6,774.5,100z M788,100V89.2c0-2.9-1.2-4.4-3.5-4.4s-3.5,1.5-3.5,4.4V100c0,2.9,1.2,4.4,3.5,4.4S788,102.9,788,100z"/>
		<path id="XMLID_119_" d="M825.6,79.2V110h-6.1v-7.6c0.2-3.7,0.3-7.5,0.5-11.2l-0.2-0.1l-2.8,8.1l-1.5,4.2h-6.2l-1.5-4.2l-2.8-8.1
			l-0.2,0.1c0.1,3.7,0.3,7.5,0.4,11.2v7.6h-6.1V79.2h6.3l4.8,11.7c0.6,1.5,1.7,4.2,2,5.4h0.2c0.4-1.1,1.4-3.8,2-5.4l4.8-11.7H825.6z
			"/>
		<path id="XMLID_121_" d="M847.3,104.1v5.9H831V79.2h15.9v5.9h-9.6v6.4h8.8v5.7h-8.8v6.8H847.3z"/>
		<path id="XMLID_123_" d="M868,85.1h-6V110h-6.4V85.1h-6v-5.9H868V85.1z"/>
		<path id="XMLID_125_" d="M879.4,99.7h-2.2V110H871V79.2h8.9c6.1,0,9.7,3.8,9.7,10.3c0,4.2-1.5,7.3-4.3,8.9l5.8,11.7h-6.8
			L879.4,99.7z M877.2,93.7h2.6c2.2,0,3.4-1.5,3.4-4.3c0-2.8-1.2-4.3-3.4-4.3h-2.6V93.7z"/>
		<path id="XMLID_128_" d="M900.4,79.2V110h-6.2V79.2H900.4z"/>
		<path id="XMLID_131_" d="M904.9,100.6v-12c0-6.5,3.5-10,9.5-10c6.2,0,9.6,3.5,9.8,10h-6.2c-0.2-2.8-1.2-4-3.6-4c-1.9,0-3,1.2-3,4
			v12c0,2.6,1.1,3.9,3,3.9c2.4,0,3.5-1.1,3.7-3.9h6.2c-0.1,6.5-3.7,9.9-9.9,9.9C908.5,110.5,904.9,107.1,904.9,100.6z"/>
		<path id="XMLID_133_" d="M955.9,89.7c0,6.6-3.8,10.4-10.2,10.4H943v9.9h-6.2V79.2h8.9C952.1,79.2,955.9,83.1,955.9,89.7z
			 M949.5,89.7c0-3-1.3-4.5-3.8-4.5H943v9h2.6C948.1,94.2,949.5,92.6,949.5,89.7z"/>
		<path id="XMLID_139_" d="M967.8,99.7h-2.2V110h-6.2V79.2h8.9c6.1,0,9.7,3.8,9.7,10.3c0,4.2-1.5,7.3-4.3,8.9l5.8,11.7h-6.8
			L967.8,99.7z M965.6,93.7h2.6c2.2,0,3.4-1.5,3.4-4.3c0-2.8-1.2-4.3-3.4-4.3h-2.6V93.7z"/>
		<path id="XMLID_142_" d="M981.6,100V89.2c0-6.6,3.7-10.5,10-10.5s10,3.9,10,10.5V100c0,6.6-3.7,10.5-10,10.5
			S981.6,106.6,981.6,100z M995.1,100V89.2c0-2.9-1.2-4.4-3.5-4.4s-3.5,1.5-3.5,4.4V100c0,2.9,1.2,4.4,3.5,4.4
			S995.1,102.9,995.1,100z"/>
		<path id="XMLID_145_" d="M1001.3,110.5c3.4,0,5.3-1.1,5.3-5.2V79.2h6.2v26.1c0,7-3.9,11.4-11.5,11.4V110.5z"/>
		<path id="XMLID_147_" d="M1034.4,104.1v5.9h-16.3V79.2h15.9v5.9h-9.6v6.4h8.8v5.7h-8.8v6.8H1034.4z"/>
		<path id="XMLID_149_" d="M1037.8,100.6v-12c0-6.5,3.5-10,9.5-10c6.2,0,9.6,3.5,9.8,10h-6.2c-0.2-2.8-1.2-4-3.6-4c-1.9,0-3,1.2-3,4
			v12c0,2.6,1.1,3.9,3,3.9c2.4,0,3.5-1.1,3.7-3.9h6.2c-0.1,6.5-3.7,9.9-9.9,9.9C1041.3,110.5,1037.8,107.1,1037.8,100.6z"/>
		<path id="XMLID_151_" d="M1077.3,85.1h-6V110h-6.4V85.1h-6v-5.9h18.5V85.1z"/>
		<path id="XMLID_153_" d="M1086.5,79.2V110h-6.2V79.2H1086.5z"/>
		<path id="XMLID_172_" d="M1091.1,100V89.2c0-6.6,3.7-10.5,10-10.5s10,3.9,10,10.5V100c0,6.6-3.7,10.5-10,10.5
			S1091.1,106.6,1091.1,100z M1104.6,100V89.2c0-2.9-1.2-4.4-3.5-4.4s-3.5,1.5-3.5,4.4V100c0,2.9,1.2,4.4,3.5,4.4
			S1104.6,102.9,1104.6,100z"/>
		<path id="XMLID_175_" d="M1135.2,79.2V110h-6.2l-5.2-11.9l-2.8-7.5l-0.1,0.1c0.5,3.9,0.8,9.6,0.8,13.1v6.2h-6.2V79.2h6.2l5.9,13.4
			c0.7,1.9,1.5,4,2.2,5.9l0.1-0.1c-0.5-3.9-0.9-9.2-0.9-12v-7.1H1135.2z"/>
	</g>
	<g id="XMLID_50_">
		<path id="XMLID_51_" d="M69.1,106.3c0-9.8,11-14.2,11-19.3c0-1.3-0.7-2.7-2.4-2.7c-1.6,0-2.6,1.1-2.6,3.2h-5.6
			c0.3-5.9,3.2-8.8,8.2-8.8c5.9,0,8.4,4.1,8.4,8c0,7.9-10.6,13.1-10.6,17.8h10.8v5.5H69.1V106.3z"/>
		<path id="XMLID_53_" d="M88.6,92.4c0-2,1.3-3.3,3.3-3.3c2,0,3.3,1.3,3.3,3.3c0,2-1.3,3.3-3.3,3.3C90,95.7,88.6,94.3,88.6,92.4z
			 M88.6,107.2c0-2,1.3-3.3,3.3-3.3c2,0,3.3,1.3,3.3,3.3c0,2-1.3,3.3-3.3,3.3C90,110.5,88.6,109.2,88.6,107.2z"/>
		<path id="XMLID_56_" d="M107,79.2V110H101V87.2l-4.2,2.4v-6.4l6.4-4H107z"/>
		<path id="XMLID_58_" d="M127.5,79.2V110h-6.2V79.2H127.5z"/>
		<path id="XMLID_60_" d="M131,101h6.4c0,2.5,1.2,3.5,3.2,3.5c2.1,0,3.1-1.2,3.1-2.7c0-5.1-12.1-5.7-12.1-15.1c0-4.7,3.3-8.1,9-8.1
			s9.1,3.4,9.1,9.1h-6.4c0-2-0.9-3-2.7-3c-1.6,0-2.6,0.9-2.6,2.3c0,4.8,12.2,5.1,12.2,15c0,5.1-3.6,8.8-9.7,8.8
			C134.7,110.6,131,107.2,131,101z"/>
		<path id="XMLID_62_" d="M153.1,100V89.2c0-6.6,3.7-10.5,10-10.5c6.2,0,10,3.9,10,10.5V100c0,6.6-3.7,10.5-10,10.5
			C156.8,110.5,153.1,106.6,153.1,100z M166.6,100V89.2c0-2.9-1.2-4.4-3.5-4.4c-2.3,0-3.5,1.5-3.5,4.4V100c0,2.9,1.2,4.4,3.5,4.4
			C165.4,104.5,166.6,102.9,166.6,100z"/>
		<path id="XMLID_65_" d="M204.2,79.2V110H198v-7.6c0.2-3.7,0.3-7.5,0.5-11.2l-0.2-0.1l-2.8,8.1l-1.5,4.2h-6.2l-1.5-4.2l-2.8-8.1
			l-0.2,0.1c0.1,3.7,0.3,7.5,0.4,11.2v7.6h-6.1V79.2h6.3l4.8,11.7c0.6,1.5,1.7,4.2,2,5.4h0.2c0.4-1.1,1.4-3.8,2-5.4l4.8-11.7H204.2z
			"/>
		<path id="XMLID_67_" d="M225.9,104.1v5.9h-16.3V79.2h15.9v5.9h-9.6v6.4h8.8v5.7h-8.8v6.8H225.9z"/>
		<path id="XMLID_69_" d="M246.6,85.1h-6V110h-6.4V85.1h-6v-5.9h18.5V85.1z"/>
		<path id="XMLID_71_" d="M258,99.7h-2.2V110h-6.2V79.2h8.9c6.1,0,9.7,3.8,9.7,10.3c0,4.2-1.5,7.3-4.3,8.9l5.8,11.7h-6.8L258,99.7z
			 M255.8,93.7h2.6c2.2,0,3.4-1.5,3.4-4.3c0-2.8-1.2-4.3-3.4-4.3h-2.6V93.7z"/>
		<path id="XMLID_74_" d="M278.9,79.2V110h-6.2V79.2H278.9z"/>
		<path id="XMLID_76_" d="M283.5,100.6v-12c0-6.5,3.5-10,9.5-10c6.2,0,9.6,3.5,9.8,10h-6.2c-0.2-2.8-1.2-4-3.6-4c-1.9,0-3,1.2-3,4
			v12c0,2.6,1.1,3.9,3,3.9c2.4,0,3.5-1.1,3.7-3.9h6.2c-0.1,6.5-3.7,9.9-9.9,9.9C287,110.5,283.5,107.1,283.5,100.6z"/>
		<path id="XMLID_78_" d="M334.5,89.7c0,6.6-3.8,10.4-10.2,10.4h-2.7v9.9h-6.2V79.2h8.9C330.7,79.2,334.5,83.1,334.5,89.7z
			 M328.1,89.7c0-3-1.3-4.5-3.8-4.5h-2.6v9h2.6C326.7,94.2,328.1,92.6,328.1,89.7z"/>
		<path id="XMLID_81_" d="M346.4,99.7h-2.2V110h-6.2V79.2h8.9c6.1,0,9.7,3.8,9.7,10.3c0,4.2-1.5,7.3-4.3,8.9l5.8,11.7h-6.8
			L346.4,99.7z M344.2,93.7h2.6c2.2,0,3.4-1.5,3.4-4.3c0-2.8-1.2-4.3-3.4-4.3h-2.6V93.7z"/>
		<path id="XMLID_84_" d="M360.2,100V89.2c0-6.6,3.7-10.5,10-10.5c6.2,0,10,3.9,10,10.5V100c0,6.6-3.7,10.5-10,10.5
			C363.9,110.5,360.2,106.6,360.2,100z M373.7,100V89.2c0-2.9-1.2-4.4-3.5-4.4c-2.3,0-3.5,1.5-3.5,4.4V100c0,2.9,1.2,4.4,3.5,4.4
			C372.5,104.5,373.7,102.9,373.7,100z"/>
		<path id="XMLID_87_" d="M379.8,110.5c3.4,0,5.3-1.1,5.3-5.2V79.2h6.2v26.1c0,7-3.9,11.4-11.5,11.4V110.5z"/>
		<path id="XMLID_89_" d="M413,104.1v5.9h-16.3V79.2h15.9v5.9h-9.6v6.4h8.8v5.7h-8.8v6.8H413z"/>
		<path id="XMLID_91_" d="M416.4,100.6v-12c0-6.5,3.5-10,9.5-10c6.2,0,9.6,3.5,9.8,10h-6.2c-0.2-2.8-1.2-4-3.6-4c-1.9,0-3,1.2-3,4
			v12c0,2.6,1.1,3.9,3,3.9c2.4,0,3.5-1.1,3.7-3.9h6.2c-0.1,6.5-3.7,9.9-9.9,9.9C419.9,110.5,416.4,107.1,416.4,100.6z"/>
		<path id="XMLID_93_" d="M455.9,85.1h-6V110h-6.4V85.1h-6v-5.9h18.5V85.1z"/>
		<path id="XMLID_95_" d="M465.1,79.2V110h-6.2V79.2H465.1z"/>
		<path id="XMLID_97_" d="M469.6,100V89.2c0-6.6,3.7-10.5,10-10.5c6.2,0,10,3.9,10,10.5V100c0,6.6-3.7,10.5-10,10.5
			C473.4,110.5,469.6,106.6,469.6,100z M483.1,100V89.2c0-2.9-1.2-4.4-3.5-4.4c-2.3,0-3.5,1.5-3.5,4.4V100c0,2.9,1.2,4.4,3.5,4.4
			C482,104.5,483.1,102.9,483.1,100z"/>
		<path id="XMLID_100_" d="M513.8,79.2V110h-6.2l-5.2-11.9l-2.8-7.5l-0.1,0.1c0.5,3.9,0.8,9.6,0.8,13.1v6.2h-6.2V79.2h6.2l5.9,13.4
			c0.7,1.9,1.5,4,2.2,5.9l0.1-0.1c-0.5-3.9-0.9-9.2-0.9-12v-7.1H513.8z"/>
	</g>
	<g id="XMLID_30_">
		<path id="XMLID_31_" d="M443.2,498.8c0-9.8,11-14.2,11-19.3c0-1.3-0.7-2.7-2.4-2.7c-1.6,0-2.6,1.1-2.6,3.2h-5.6
			c0.3-5.9,3.2-8.8,8.2-8.8c5.9,0,8.4,4.1,8.4,8c0,7.9-10.6,13.1-10.6,17.8h10.8v5.5h-17.1V498.8z"/>
		<path id="XMLID_33_" d="M480.3,490.2v4.4c0,5.1-3.4,8.5-8.5,8.5c-5.1,0-8.5-3.4-8.5-8.5v-14.9c0-5.1,3.4-8.5,8.4-8.5
			c5,0,8.2,3.3,8.4,8.4h-6c-0.2-1.6-0.9-2.6-2.4-2.6s-2.4,0.8-2.4,2.6v3.9c0.9-0.7,2.2-1.1,3.5-1.1
			C477.3,482.3,480.3,485.7,480.3,490.2z M474.3,490.6c0-1.8-0.9-2.8-2.4-2.8c-1.6,0-2.5,1.1-2.5,2.8v3.9c0,1.7,0.9,2.7,2.5,2.7
			c1.5,0,2.5-1,2.5-2.7V490.6z"/>
		<path id="XMLID_36_" d="M483,499.7c0-2,1.3-3.3,3.3-3.3c2,0,3.3,1.3,3.3,3.3c0,2-1.3,3.3-3.3,3.3C484.3,503,483,501.7,483,499.7z"
			/>
		<path id="XMLID_40_" d="M509.7,490.4v3.2c0,6-3.4,9.4-8.4,9.4c-5.1,0-8.3-3.4-8.4-8.9h6.1c0.1,2.3,0.9,3.1,2.3,3.1
			c1.5,0,2.4-0.8,2.4-3.5v-3.4c0-2.7-0.8-3.5-2.1-3.5c-1.4,0-2.2,0.6-2.5,2.5h-5.9v-17.7h15.5v5.3h-9.5v5.1c0.9-0.5,2.1-0.8,3.2-0.8
			C506.7,481.2,509.7,484.5,509.7,490.4z"/>
		<path id="XMLID_42_" d="M527.3,471.7v4.4l-8.2,26.4H513l7.7-25.3h-10v-5.5H527.3z"/>
		<path id="XMLID_47_" d="M535,471.2c3.7,0,6,2.5,6,6.1c0,3.7-2.4,6.2-6,6.2c-3.7,0-6-2.5-6-6.2C528.9,473.6,531.3,471.2,535,471.2z
			 M535,479.6c1.3,0,2.1-0.9,2.1-2.3s-0.8-2.3-2.1-2.3c-1.3,0-2.1,0.9-2.1,2.3S533.7,479.6,535,479.6z"/>
	</g>
	<g id="XMLID_2_">
		<path id="XMLID_9_" d="M1052.4,491.3v1.9c0,6.4-2.4,9.8-8.5,9.8c-5.5,0-8.3-3.3-8.6-9h5.9c0.2,2.1,0.8,3.2,2.6,3.2
			c2.2,0,2.6-1.3,2.6-4.1v-1.5c0-2.9-1.1-3.7-3.1-3.7h-2.9V484l4.2-6.9h-8.2v-5.4h15.4v3.9l-4.8,7.8
			C1050.4,484,1052.4,487.6,1052.4,491.3z"/>
		<path id="XMLID_11_" d="M1055.9,493.6v-13c0-5.9,3.3-9.4,8.8-9.4c5.6,0,8.9,3.5,8.9,9.4v13c0,5.9-3.3,9.3-8.9,9.3
			C1059.2,502.9,1055.9,499.5,1055.9,493.6z M1067.9,493.6v-13c0-2.5-1.1-3.8-3.2-3.8s-3.1,1.3-3.1,3.8v13c0,2.5,1.1,3.7,3.1,3.7
			S1067.9,496.1,1067.9,493.6z"/>
		<path id="XMLID_17_" d="M1082.3,471.2c3.7,0,6,2.5,6,6.1c0,3.7-2.4,6.2-6,6.2s-6-2.5-6-6.2
			C1076.2,473.6,1078.6,471.2,1082.3,471.2z M1082.3,479.6c1.3,0,2.1-0.9,2.1-2.3s-0.8-2.3-2.1-2.3s-2.1,0.9-2.1,2.3
			S1081,479.6,1082.3,479.6z"/>
	</g>
</g>
<g id="Layer_6">
	<line id="XMLID_29_" class="st3" x1="293" y1="526.5" x2="586" y2="526.5"/>
	<line id="XMLID_28_" class="st3" x1="292.9" y1="527" x2="555" y2="396"/>
	<line id="XMLID_26_" class="st3" x1="892" y1="526.5" x2="1185" y2="526.5"/>
	<line id="XMLID_24_" class="st3" x1="892" y1="527" x2="1145.7" y2="380.5"/>
</g>
<g id="Layer_4" class="st4">
</g>
</svg>
