/* XPM */
static char *open[] = {
/* width height num_colors chars_per_pixel */
"    45    55      168            2",
/* colors */
".. s None c None",
".# c #450304",
".a c #ce7e7c",
".b c #b94344",
".c c #b65254",
".d c #780204",
".e c #b04c4c",
".f c #b00204",
".g c #8a8a64",
".h c #969a24",
".i c #b6b60c",
".j c #cac614",
".k c #cece34",
".l c #cace54",
".m c #caca94",
".n c #c24e4c",
".o c #aa0204",
".p c #9e4244",
".q c #bc0204",
".r c #a40204",
".s c #9e262c",
".t c #8c3a3c",
".u c #5c1414",
".v c #5b0204",
".w c #700204",
".x c #722214",
".y c #b52624",
".z c #8e3234",
".A c #b60204",
".B c #c20204",
".C c #860204",
".D c #560304",
".E c #800204",
".F c #9e0204",
".G c #920204",
".H c #620204",
".I c #a41314",
".J c #996a6c",
".K c #920d09",
".L c #c80204",
".M c #690204",
".N c #980204",
".O c #984c4c",
".P c #e2dedc",
".Q c #ae5e5c",
".R c #bc6a6c",
".S c #a21a1c",
".T c #8a0a04",
".U c #671e1c",
".V c #941b1c",
".W c #b8b4b4",
".X c #e8e6e4",
".Y c #ccb4b4",
".Z c #c07c7c",
".0 c #f3f2eb",
".1 c #b49696",
".2 c #521614",
".3 c #9e5a5c",
".4 c #d4d4d4",
".5 c #a7a5a1",
".6 c #dec4c4",
".7 c #e4d6d4",
".8 c #f4f2f4",
".9 c #cccac4",
"#. c #9a161c",
"## c #8c0204",
"#a c #862c2c",
"#b c #7e5e5c",
"#c c #a39694",
"#d c #6b6667",
"#e c #322624",
"#f c #b09e9c",
"#g c #b23234",
"#h c #500304",
"#i c #222224",
"#j c #2e322c",
"#k c #925c5c",
"#l c #721a1c",
"#m c #6e6e6c",
"#n c #0a0a0c",
"#o c #b2b2b4",
"#p c #8e6264",
"#q c #884444",
"#r c #8c5c5c",
"#s c #121214",
"#t c #b2aeac",
"#u c #c21e1c",
"#v c #6e0e0c",
"#w c #623e3c",
"#x c #b64e4c",
"#y c #bc3634",
"#z c #624e1c",
"#A c #6e727c",
"#B c #824e4c",
"#C c #8b8d87",
"#D c #a09674",
"#E c #766844",
"#F c #7a663c",
"#G c #828c90",
"#H c #beb6a4",
"#I c #3a0204",
"#J c #8e9298",
"#K c #562529",
"#L c #7c3838",
"#M c #bab294",
"#N c #7e4644",
"#O c #929a9c",
"#P c #762a2c",
"#Q c #a60e0c",
"#R c #ae1e1c",
"#S c #460a0c",
"#T c #a6aaa4",
"#U c #6a4a4c",
"#V c #784c50",
"#W c #761214",
"#X c #9e1e1c",
"#Y c #988c90",
"#Z c #821e1c",
"#0 c #7a1618",
"#1 c #7a6e74",
"#2 c #7e7a77",
"#3 c #808688",
"#4 c #828284",
"#5 c #828279",
"#6 c #827a64",
"#7 c #7e765c",
"#8 c #864a34",
"#9 c #825a44",
"a. c #766e54",
"a# c #7e7e74",
"aa c #806464",
"ab c #7e724c",
"ac c #766634",
"ad c #765a2c",
"ae c #8e7e54",
"af c #a69e8c",
"ag c #c7c2ac",
"ah c #9a2a1c",
"ai c #aa3a3c",
"aj c #979894",
"ak c #70684c",
"al c #62522c",
"am c #6e5e3c",
"an c #92866c",
"ao c #968e6c",
"ap c #826e54",
"aq c #84765c",
"ar c #86522c",
"as c #7e4624",
"at c #7e3614",
"au c #6e5254",
"av c #712e2c",
"aw c #7a5654",
"ax c #82727c",
"ay c #a63634",
"az c #8a6a6c",
"aA c #863534",
"aB c #5c1a18",
"aC c #6a2c2c",
"aD c #5e0e14",
"aE c #868684",
"aF c #922624",
"aG c #901614",
"aH c #c21614",
"aI c #520e0c",
"aJ c #805654",
"aK c #b00c0c",
"aL c #c2221c",
/* pixels */
"..........................................................................................",
"..........................................................................................",
".....................................#.a.#................................................",
"...................................#.b.c.#.#.#.#...........#.d............................",
".................................#.e.f.f.#.g.h.i.j.k.l.m...f.n............................",
".................................d.f.o.f.#.#.#.d.d.#.#.#...f.f.d..........................",
".................................p.q.q.r.s.t.u.v.w.x.d.d.#.d.r.y.d........................",
".................................z.A.B.q.C.D.E.F.G.E.H.E.I.F.q.A.d........................",
".................................J.G.f.G.w.K.f.L.B.B.r.M.f.B.L.A.d........................",
".................................d.w.N.M.O.P.Q.B.B.o.R.S.E.q.q.T.d........................",
".................................d.U.M.V.W.X.Y.q.B.Z.0.1.E.r.N.d..........................",
".................................d.2.r.3.4.5.6.A.f.7.8.9#.###a.#..........................",
"................................#b.d.L#c#d#e#f.N.V.5#d.4#g.E.d............................",
"...............................d#h.r.L#f#i#j#k.M#l#m#n#o.b.r.d............................",
"...............................d#h##.q#g#p#q##.q.N#r#s#t#u.q#v.#..........................",
"..............#j................#w.w.C.r.q##.r.B.f.T#x#y.L.r.M.d..........................",
"............#j#z#j#A#A#j.........d.D.r.M.C.f.r.r.r.q.B.C.N.E#B............................",
"..........#j#C#D#E#z#F#G#j.......d.d.#.G##.w.M.M.C.C.d.G.r.u.d............................",
"....................#E#H#C#j.........d#I.w.F.f.o.o.o.N.M.#.d..............................",
"......................#E#j#J#j......#K.M.#.#.v.w.M.v.##h.H#L.d............................",
"..........................#M#j.......v.F.q.r.d.w.w.C.E.M.v.M#N.d..........................",
"..........................#E#O#j#j#K##.f.L.L.L.B.q.f##.M.v.w.w#P.d.#...d.d................",
"............................#C#E.#.v.o.B.L.L.q.q.q.q.N.M.D#h.M.N.r#Q#R#S.H.J.#............",
"............................#j#T#U.C.q.q.o.G.F.f.q.A.N.d.v.v##.o.q.L.r.C.A###k............",
"..............................#C#V.N.A.N.f.q.F.C.E.f.F.E.H#n#W.K.I#X#a.z.V.q.d#p.d........",
"................................#Y.r.K#Z.K.q.A.G.w#0#b#1#2#3#4#5#5#6#6#7#8.q.G#9..........",
"..................#j#oa..5#j..#J#Ja##4#4aa.o.A##.E.xabacadae#Daf#M#Magah.r.qai.#..........",
"................aja#akalamanaoapaqaaarasat.r.o.E.w.T.T.E.H.#...........#.d.d.#............",
"...........E....#j#j#C#M#j#n#naa#V.O.f.N.F.q.G.d.w.r.C.d.H.#...............#..............",
"...........#.F.F.J#n#n#n#n#n#nauav#p.q.N.d.d.w.M.F.F.E.d.U................................",
".........E.F.E.E.d.z#n.d#n#n#naw.Uax.r##.d.w.D.M.r.N.E.w.d................................",
".........E.F.......d.Fay.E.F#naz.2#A.D#h.r.f.w##.r##.d.H.M................................",
".........F.#...........E.E.F.baAaB#A.#.E.f.r.w.N.N.E.waC.#................................",
".........F.#...............d.F.E#K#d.H.G.F.G.w.N##.d.D.#..................................",
".........F.#....................#Aau.v.E##.w.E.E.w.H.d.......d..av.d......................",
".........E.#..................#j#GaC.M.H.M.d.d.w.H.#.d.d.#aC.w.C##.E.d....................",
"...........F.................5#O...#aD.w.d.w.H.D.M######.G.F.o.f.o.N.3....................",
"...........F.E...........5aEakak.....#.##h#h.v.N.o.f.q.L.L.L.L.L.q.faF....................",
"...........E.E......#E#C.5aq#j.....#.v.N.F.d.N.r.F.r.F#Q.I.o.q.L.L.L.y....................",
".............E.....................#.E.B.qaG.d.d.d.....#.#.....d#x.b......................",
".............E.F...................E.w.L.LaG.#............................................",
"...............E.E.................EaA.q.qaG.#............................................",
"...............E.F.E.................E.r.r#Z.#............................................",
".................E.F.E...............E.G.NaA..............................................",
".................E#uaH.................w.dav..............................................",
"...................E.E.............EaI.M.w.v.#............................................",
"...................................E.D.d.E.waJ............................................",
".....................................C.N.N##.M............................................",
"..................................#W.f.q.A.f.G#q..........................................",
".....................................q.L.L.L.q.V.#........................................",
"...................................#.daK.q.qaL.d..........................................",
".......................................#.#.#..............................................",
"..........................................................................................",
"..........................................................................................",
".........................................................................................."
};
