<?xml version="1.0" encoding="utf-8"?>
<!-- Generator: Adobe Illustrator 23.0.4, SVG Export Plug-In . SVG Version: 6.00 Build 0)  -->
<svg version="1.1" id="Laag_2" xmlns="http://www.w3.org/2000/svg" xmlns:xlink="http://www.w3.org/1999/xlink" x="0px" y="0px"
	 viewBox="0 0 1710.2 740.5" style="enable-background:new 0 0 1710.2 740.5;" xml:space="preserve">
<style type="text/css">
	.st0{display:none;stroke:#FFFFFF;stroke-miterlimit:10;}
	.st1{fill:#3CA1DA;}
	.st2{fill:#B63388;}
	.st3{fill:#E42C2E;}
	.st4{fill:#F19019;}
</style>
<rect class="st0" width="1710.2" height="740.5"/>
<g>
	<g>
		<rect x="607.8" y="156.5" class="st1" width="467.1" height="45.1"/>
		<rect x="1074.8" y="156.5" class="st2" width="492" height="45.1"/>
		<rect x="1632.9" y="156.5" class="st3" width="77.3" height="45.1"/>
		<rect x="82.3" y="156.5" class="st3" width="337.8" height="45.1"/>
	</g>
	<g>
		<rect x="674.6" y="289.2" class="st2" width="507.5" height="45.1"/>
		<rect x="156.2" y="289.2" class="st4" width="519.5" height="45.1"/>
	</g>
	<rect x="156.6" y="418.9" class="st2" width="392" height="44.3"/>
	<rect y="27.1" class="st2" width="305.3" height="45.1"/>
</g>
<g>
	<path d="M512.7,269.1c-11.4,10.7-24.5,19.2-39.4,25.7c-16.2,7.1-33.6,10.6-52.2,10.6c-18.4,0-35.6-3.5-51.9-10.6
		s-30.4-16.6-42.5-28.8c-12.1-12.1-21.7-26.3-28.8-42.5c-7.1-16.2-10.6-33.6-10.6-52.2c0-18.4,3.5-35.7,10.6-52.1
		c7.1-16.4,16.6-30.6,28.8-42.7c12.1-12.1,26.3-21.7,42.5-28.8s33.5-10.6,51.9-10.6c18.6,0,36,3.5,52.2,10.6
		c14.9,6.5,28.1,15.1,39.6,25.9l-31.3,36.9c-0.2-0.2-0.5-0.5-0.7-0.7c-7.6-8-16.6-14.4-26.8-19.2c-10.2-4.8-21.2-7.2-32.9-7.2
		c-11.7,0-22.7,2.4-32.9,7.2c-10.2,4.8-19.1,11.2-26.8,19.2c-7.6,8-13.7,17.4-18.1,28.1c-4.5,10.7-6.7,21.8-6.7,33.4
		c0,11.8,2.2,22.9,6.7,33.5s10.5,19.9,18.1,28.1c7.6,8.1,16.6,14.6,26.8,19.4c10.2,4.8,21.2,7.2,32.9,7.2c11.7,0,22.7-2.4,32.9-7.2
		c10.2-4.8,19.1-11.3,26.8-19.4c0.2-0.2,0.4-0.5,0.7-0.7L512.7,269.1z"/>
	<path d="M403.3,611.6H301.5V353.3h101.8c36.9,0,67.2,10.8,90.9,32.5c12.7,11.5,22.3,25.5,28.7,41.8c6.5,16.4,9.7,34.6,9.7,54.9
		c0,20.5-3.2,38.9-9.7,55.2c-6.5,16.4-16,30.3-28.7,41.8c-11.5,10.6-25,18.6-40.4,24C438.5,608.9,421.7,611.6,403.3,611.6z
		 M350.9,567.8h52.6c9.2,0,18.5-1.1,27.9-3.2c9.4-2.1,17.9-6.3,25.6-12.5c7.6-6.2,13.9-14.9,18.9-25.9c4.9-11.1,7.4-25.5,7.4-43.4
		c0-17.9-2.5-32.4-7.4-43.6c-4.9-11.2-11.3-19.8-19.1-25.9c-7.8-6.1-16.4-10.2-25.8-12.4c-9.4-2.1-18.6-3.2-27.5-3.2h-52.6V567.8z"
		/>
	<path d="M672.7,305.3c-18.4,0-35.6-3.5-51.9-10.6s-30.4-16.6-42.5-28.8c-12.1-12.1-21.7-26.3-28.8-42.5
		c-7.1-16.2-10.6-33.6-10.6-52.2c0-18.4,3.5-35.7,10.6-52.1c7.1-16.4,16.6-30.6,28.8-42.7c12.1-12.1,26.3-21.7,42.5-28.8
		s33.5-10.6,51.9-10.6c18.6,0,36,3.5,52.2,10.6s30.4,16.6,42.5,28.8c12.1,12.1,21.7,26.4,28.8,42.7c7.1,16.4,10.6,33.7,10.6,52.1
		c0,18.6-3.5,36-10.6,52.2c-7.1,16.2-16.6,30.4-28.8,42.5c-12.1,12.1-26.3,21.7-42.5,28.8C708.7,301.8,691.3,305.3,672.7,305.3z
		 M672.9,83.3c-11.7,0-22.7,2.4-32.9,7.2c-10.2,4.8-19.1,11.2-26.8,19.2c-7.6,8-13.7,17.4-18.1,28.1c-4.5,10.7-6.7,21.8-6.7,33.4
		c0,11.8,2.2,22.9,6.7,33.5c4.5,10.6,10.5,19.9,18.1,28.1c7.6,8.1,16.6,14.6,26.8,19.4c10.2,4.8,21.2,7.2,32.9,7.2
		c11.7,0,22.7-2.4,32.9-7.2c10.2-4.8,19.1-11.3,26.8-19.4c7.6-8.1,13.7-17.5,18.1-28.1s6.7-21.8,6.7-33.5c0-11.5-2.2-22.6-6.7-33.4
		c-4.5-10.7-10.5-20.1-18.1-28.1c-7.6-8-16.6-14.4-26.8-19.2C695.6,85.8,684.6,83.3,672.9,83.3z"/>
	<polygon points="1015.3,349.9 885,502.5 755.1,349.9 755.1,425.2 885,578.1 965.8,481 965.8,611.6 1015.3,611.6 	"/>
	<polygon points="803.8,611.6 581.6,349.9 581.6,424.7 703.1,568.5 581.6,568.5 581.6,611.6 	"/>
</g>
<g>
	<path d="M595,679.4h-7.4l-1.8,3.7H581l10.3-19.5h4.1l5.2,19.5H596L595,679.4z M594.2,675.9l-1.6-6.9l-3.3,6.9H594.2z"/>
	<path d="M601.9,683.1l5.5-19.5h3.7l3.3,11.7l6.3-11.7h3.8l0.7,19.5h-4.5l-0.1-11.6l-6.2,11.6h-1.7l-3.4-11.6l-3,11.6H601.9z"/>
	<path d="M640.5,668.4c-1.2-1.1-2.4-1.4-3.3-1.4c-0.6,0-1.3,0.1-1.8,0.5c-0.4,0.3-0.7,0.9-0.7,1.4c0,0.6,0.3,1,0.7,1.3
		c0.4,0.4,0.9,0.6,1.9,1l1.1,0.5c0.9,0.4,1.8,0.9,2.6,1.9c0.7,0.9,1,1.8,1,3c0,2-0.8,3.9-2,5c-1.6,1.5-3.6,1.9-5.6,1.9
		c-1.4,0-2.6-0.2-3.9-0.9c-1-0.5-1.9-1.3-2.6-2.1l2.5-3.2c0.4,0.6,1.1,1.2,1.6,1.5c0.6,0.4,1.4,0.6,2.3,0.6c0.7,0,1.6-0.2,2.2-0.6
		c0.5-0.4,0.8-1.1,0.8-1.8c0-0.7-0.3-1.1-0.6-1.3c-0.1-0.1-0.5-0.5-1.5-0.9l-1.1-0.5c-0.3-0.1-1.8-0.8-2.7-1.7s-1.3-2.1-1.3-3.3
		c0-2,0.8-3.5,1.8-4.4c1.6-1.5,3.6-1.8,5.3-1.8c1.7,0,3.6,0.3,5.6,1.9L640.5,668.4z"/>
	<path d="M653.4,667.4l-1.9,15.7H647l1.9-15.7h-4.2l0.5-3.8h13l-0.5,3.8H653.4z"/>
	<path d="M670.8,667.4h-6.4l-0.5,3.8h6.1l-0.5,3.8h-6.1l-0.5,4.3h6.5l-0.5,3.8h-10.9l2.4-19.5h10.7L670.8,667.4z"/>
	<path d="M681.2,663.6c1.9,0,3.7,0.2,5.2,1.8c0.7,0.7,1.4,2,1.4,4c0,1.8-0.6,3.3-1.6,4.3c-0.8,0.8-2,1.4-3.1,1.6l5,7.9h-5.3
		l-4.7-7.7l-0.9,7.7h-4.5l2.4-19.5H681.2z M678.5,672.4h1.1c0.7,0,1.8-0.1,2.6-0.7s1-1.5,1-2.3c0-0.6-0.1-1.4-0.9-1.9
		c-0.6-0.4-1.4-0.5-2.5-0.5h-0.7L678.5,672.4z"/>
	<path d="M698.6,663.6c2,0,5.3,0.3,7.4,2.5c1.3,1.3,2.3,3.4,2.3,6.5c0,4.5-2,6.9-3,7.8c-2.2,2.1-5.3,2.7-8.8,2.7h-6l2.4-19.5H698.6z
		 M695.4,679.3h1.4c1.3,0,3.4-0.1,5-1.5c1.1-1,2-2.8,2-5.1c0-1.7-0.6-3.1-1.4-3.9c-0.9-0.9-2.5-1.4-4.1-1.4h-1.4L695.4,679.3z"/>
	<path d="M722.5,679.4h-7.4l-1.8,3.7h-4.8l10.3-19.5h4.1l5.2,19.5h-4.6L722.5,679.4z M721.7,675.9l-1.6-6.9l-3.3,6.9H721.7z"/>
	<path d="M729.4,683.1l5.5-19.5h3.7l3.3,11.7l6.3-11.7h3.8l0.7,19.5h-4.5l-0.1-11.6l-6.2,11.6h-1.7l-3.4-11.6l-3,11.6H729.4z"/>
</g>
<g>
	<path d="M778.3,647.7h1.4v50h-1.4V647.7z"/>
</g>
<g>
	<g>
		<polygon points="832.6,658.8 823.5,658.8 805.3,677 805.3,684.4 823.5,684.4 823.5,693.5 832.6,693.5 832.6,677 814.4,677 		"/>
		<polygon points="836.5,667.9 845.7,658.8 836.5,658.8 		"/>
		<polygon points="854.8,667.9 854.8,658.8 845.7,658.8 845.7,667.9 836.5,677 836.5,686.1 845.7,686.1 845.7,677 		"/>
		<polygon points="854.8,677 845.7,686.1 854.8,686.1 		"/>
		<polygon points="873.4,683 875.8,663.4 879.8,663.4 888.8,676.2 890.4,663.4 894.9,663.4 892.5,683 888.6,683 879.5,670.2 
			877.9,683 		"/>
		<polygon points="909.6,667.3 903.2,667.3 902.7,671.1 908.9,671.1 908.4,674.9 902.2,674.9 901.7,679.2 908.2,679.2 907.7,683 
			896.8,683 899.2,663.4 910,663.4 		"/>
		<polygon points="920.4,667.3 918.4,683 913.9,683 915.9,667.3 911.6,667.3 912.1,663.4 925.1,663.4 924.6,667.3 		"/>
		<polygon points="930.1,663.4 932.6,676.4 938.4,663.4 941.5,663.4 944.1,676.4 949.9,663.4 954.7,663.4 945.6,683 941.7,683 
			939.1,671.1 933.6,683 929.7,683 925.5,663.4 		"/>
		<path d="M973.4,665.6c1.7,1.6,2.8,4.1,2.8,7c0,2.8-1,5.8-3,7.9c-2.5,2.5-5.6,3-8.1,3c-2.4,0-5.1-0.4-7.5-2.8
			c-1.4-1.4-2.8-3.6-2.8-6.8c0-3.4,1.4-6.1,3.2-7.9c2.5-2.4,5.5-3,8.1-3C969.9,663,972.1,664.3,973.4,665.6 M961.3,669.1
			c-1.1,1.2-1.8,2.8-1.8,4.5c0,1.8,0.7,3.2,1.6,4.1c1.3,1.3,2.9,1.6,4.3,1.6c1.3,0,2.9-0.2,4.4-1.7c1.1-1.1,1.8-2.8,1.8-4.8
			c0-1.3-0.3-2.8-1.6-4.1c-1.3-1.3-2.8-1.5-4.1-1.5C964,667.2,962.4,667.8,961.3,669.1"/>
		<path d="M986.9,663.4c1.9,0,3.7,0.2,5.2,1.8c0.7,0.7,1.4,2,1.4,4c0,1.8-0.6,3.3-1.6,4.3c-0.9,0.8-2,1.4-3.1,1.6l5.1,8h-5.3
			l-4.7-7.7l-0.9,7.7h-4.5l2.4-19.6H986.9z M984.2,672.4h1.1c0.7,0,1.9-0.1,2.6-0.7c0.8-0.6,1-1.5,1-2.3c0-0.6-0.1-1.4-0.9-1.9
			c-0.6-0.4-1.4-0.5-2.5-0.5h-0.7L984.2,672.4z"/>
		<polygon points="1002.1,671.6 1009.3,663.4 1014.7,663.4 1006.2,672.9 1013.4,683 1007.7,683 1001.8,674.2 1000.7,683 996.2,683 
			998.6,663.4 1003.1,663.4 		"/>
	</g>
</g>
</svg>
